<svg width="18" height="19" viewBox="0 0 18 19" fill="none" xmlns="http://www.w3.org/2000/svg">
<g clip-path="url(#clip0_6_63)">
<path d="M16.8 1.69432C15.441 0.33907 13.05 -0.37493 8.98722 2.45032C4.92822 -0.37418 2.53347 0.33907 1.17747 1.69432C-0.178528 3.04957 -0.892528 5.44282 1.93347 9.50032C-0.892528 13.5578 -0.177778 15.9503 1.17747 17.3063C1.55135 17.6916 1.9998 17.9967 2.49546 18.2031C2.99113 18.4094 3.52362 18.5126 4.06047 18.5063C5.33547 18.5063 6.95322 17.9813 8.98722 16.5608C11.022 17.9776 12.6382 18.5071 13.914 18.5071C14.4509 18.5135 14.9834 18.4104 15.4791 18.2041C15.9748 17.9978 16.4232 17.6926 16.797 17.3071C18.15 15.9503 18.8677 13.5578 16.041 9.50032C18.8677 5.44282 18.15 3.05032 16.8 1.69432V1.69432ZM13.854 2.75632C14.1032 2.74831 14.3515 2.79119 14.5836 2.88236C14.8157 2.97353 15.0268 3.11107 15.204 3.28657C16.2202 4.30207 15.6427 5.98657 14.5867 7.63657C14.0572 7.02082 13.4715 6.38032 12.7867 5.69857C12.102 5.01682 11.4637 4.43182 10.848 3.90232C11.7296 3.2587 12.7676 2.86299 13.854 2.75632V2.75632ZM13.2127 9.50032C12.4867 10.3786 11.7442 11.1608 11.1967 11.7083C10.6492 12.2558 9.86547 12.9983 8.98722 13.7236C8.10897 12.9983 7.32597 12.2566 6.77847 11.7083C6.23097 11.1601 5.48772 10.3786 4.76247 9.50032C5.48772 8.62207 6.23022 7.83982 6.77847 7.29232C7.32672 6.74482 8.10822 6.00157 8.98722 5.27632C9.86622 6.00157 10.6485 6.74407 11.1967 7.29232C11.745 7.84057 12.4867 8.62207 13.2127 9.50032ZM2.77047 3.28657C2.94761 3.11103 3.1587 2.97347 3.39082 2.8823C3.62294 2.79113 3.87122 2.74826 4.12047 2.75632C5.20653 2.86344 6.24402 3.25969 7.12497 3.90382C6.50847 4.43332 5.86797 5.01832 5.18622 5.70007C4.50447 6.38182 3.91722 7.02532 3.38772 7.63807C2.33247 5.98507 1.75422 4.30207 2.77047 3.28657V3.28657ZM2.77047 15.7141C1.75422 14.6986 2.33247 13.0141 3.38772 11.3641C3.91722 11.9798 4.50297 12.6203 5.18772 13.3021C5.87247 13.9838 6.50922 14.5771 7.12197 15.1021C5.46747 16.1536 3.78597 16.7288 2.77047 15.7141V15.7141ZM15.204 15.7141C14.1877 16.7296 12.504 16.1536 10.854 15.1006C11.4675 14.5756 12.111 13.9793 12.7897 13.3006C13.4685 12.6218 14.0572 11.9783 14.5897 11.3626C15.6427 13.0156 16.2202 14.6986 15.204 15.7141V15.7141Z" fill="#379C35"/>
<path d="M9 11.0002C9.82842 11.0002 10.5 10.3287 10.5 9.50024C10.5 8.67182 9.82842 8.00024 9 8.00024C8.17157 8.00024 7.5 8.67182 7.5 9.50024C7.5 10.3287 8.17157 11.0002 9 11.0002Z" fill="#379C35"/>
</g>
<defs>
<clipPath id="clip0_6_63">
<rect width="18" height="18" fill="white" transform="translate(0 0.5)"/>
</clipPath>
</defs>
</svg>
