<svg width="20" height="20" viewBox="0 0 20 20" fill="none" xmlns="http://www.w3.org/2000/svg">
<g clip-path="url(#clip0_41_657)">
<path d="M14.3752 1.54227C13.5204 1.55054 12.6795 1.75888 11.9198 2.15062C11.16 2.54235 10.5026 3.10658 10.0002 3.7981C9.49772 3.10658 8.84029 2.54235 8.08056 2.15062C7.32083 1.75888 6.4799 1.55054 5.62516 1.54227C4.07663 1.60411 2.61559 2.27658 1.56151 3.41265C0.50742 4.54872 -0.0539448 6.05595 0.000159675 7.60477C0.000159675 11.3981 3.89516 15.4589 7.16683 18.1981C7.96127 18.8661 8.96595 19.2324 10.0039 19.2324C11.0419 19.2324 12.0466 18.8661 12.841 18.1981C16.1093 15.4589 20.0077 11.3981 20.0077 7.60477C20.0617 6.0547 19.4993 4.54638 18.4437 3.41009C17.388 2.27381 15.925 1.60217 14.3752 1.54227ZM11.231 16.2823C10.8863 16.5724 10.4503 16.7316 9.99974 16.7316C9.5492 16.7316 9.11314 16.5724 8.76849 16.2823C4.78516 12.9423 2.50016 9.77977 2.50016 7.60477C2.44703 6.71911 2.74539 5.84825 3.33048 5.18125C3.91556 4.51426 4.74013 4.10497 5.62516 4.04227C6.51019 4.10497 7.33476 4.51426 7.91984 5.18125C8.50493 5.84825 8.80329 6.71911 8.75016 7.60477C8.75016 7.93629 8.88186 8.25423 9.11628 8.48865C9.3507 8.72307 9.66864 8.85477 10.0002 8.85477C10.3317 8.85477 10.6496 8.72307 10.884 8.48865C11.1185 8.25423 11.2502 7.93629 11.2502 7.60477C11.197 6.71911 11.4954 5.84825 12.0805 5.18125C12.6656 4.51426 13.4901 4.10497 14.3752 4.04227C15.2602 4.10497 16.0848 4.51426 16.6698 5.18125C17.2549 5.84825 17.5533 6.71911 17.5002 7.60477C17.5002 9.77977 15.2152 12.9423 11.231 16.2823Z" fill="#379C35"/>
</g>
<defs>
<clipPath id="clip0_41_657">
<rect width="20" height="20" fill="white"/>
</clipPath>
</defs>
</svg>
