<svg width="40" height="40" viewBox="0 0 40 40" fill="none" xmlns="http://www.w3.org/2000/svg">
<g clip-path="url(#clip0_55_433)">
<path d="M25.5683 9.99995H24.9866C26.5675 9.47421 28.0157 8.61222 29.2316 7.47328C30.624 5.9208 31.474 3.95768 31.6533 1.87995C31.686 1.62705 31.6602 1.37002 31.578 1.12865C31.4957 0.88727 31.3592 0.667985 31.1789 0.487671C30.9986 0.307357 30.7793 0.170822 30.5379 0.0885785C30.2965 0.00633464 30.0395 -0.0194256 29.7866 0.0132809C27.7089 0.192557 25.7457 1.0425 24.1933 2.43495C23.032 3.74104 22.2707 5.35339 21.9999 7.07995C21.5587 4.96197 20.7395 2.94081 19.5816 1.11328C19.2138 0.560747 18.6416 0.176937 17.9909 0.0462871C17.3401 -0.0843633 16.6641 0.0488474 16.1116 0.416614C15.5591 0.784381 15.1752 1.35658 15.0446 2.00733C14.9139 2.65808 15.0472 3.33408 15.4149 3.88661C16.5579 5.7365 17.2435 7.83219 17.4149 9.99995H14.4316C10.5307 10.0814 6.82119 11.706 4.11602 14.5177C1.41086 17.3294 -0.0693052 21.0988 -8.11024e-05 25C-0.323414 34.425 9.88825 43.1283 18.4566 38.8666C18.9254 38.5133 19.4977 38.3246 20.0847 38.3297C20.6717 38.3349 21.2407 38.5335 21.7033 38.895C30.2299 43.1366 40.3016 34.2966 39.9999 25C40.0691 21.0988 38.589 17.3294 35.8838 14.5177C33.1786 11.706 29.4691 10.0814 25.5683 9.99995ZM25.5683 35C25.0212 34.9663 24.4936 34.7849 24.0416 34.475C22.819 33.7437 21.4244 33.3498 19.9999 33.3333C18.645 33.3623 17.3203 33.7394 16.1533 34.4283C15.6408 34.7694 15.0463 34.9668 14.4316 35C1.96992 34.59 1.97492 15.4066 14.4316 15H25.5683C38.0333 15.4116 38.0233 34.5933 25.5683 35Z" fill="#0000B2"/>
</g>
<defs>
<clipPath id="clip0_55_433">
<rect width="40" height="40" fill="white"/>
</clipPath>
</defs>
</svg>
