<svg id="Capa_1" data-name="Capa 1" xmlns="http://www.w3.org/2000/svg" xmlns:xlink="http://www.w3.org/1999/xlink" viewBox="0 0 20.01 17.69"><defs><clipPath id="clip-path" transform="translate(0 -1.54)"><rect width="20" height="20" fill="none"/></clipPath></defs><g clip-path="url(#clip-path)"><path d="M14.38,1.54a5.52,5.52,0,0,0-2.46.61A5.46,5.46,0,0,0,10,3.8,5.46,5.46,0,0,0,8.08,2.15a5.51,5.51,0,0,0-2.45-.61A5.86,5.86,0,0,0,0,7.6c0,3.8,3.9,7.86,7.17,10.6a4.42,4.42,0,0,0,5.67,0C16.11,15.46,20,11.4,20,7.6a5.88,5.88,0,0,0-5.63-6.06ZM11.23,16.28a1.91,1.91,0,0,1-2.46,0c-4-3.34-6.27-6.5-6.27-8.68a3.41,3.41,0,0,1,.83-2.42A3.36,3.36,0,0,1,5.63,4,3.36,3.36,0,0,1,7.92,5.18,3.41,3.41,0,0,1,8.75,7.6a1.25,1.25,0,1,0,2.5,0,3.41,3.41,0,0,1,.83-2.42A3.36,3.36,0,0,1,14.38,4a3.36,3.36,0,0,1,2.29,1.14A3.41,3.41,0,0,1,17.5,7.6C17.5,9.78,15.22,12.94,11.23,16.28Z" transform="translate(0 -1.54)" fill="#379c35"/></g><path d="M6.79,3.54" transform="translate(0 -1.54)" fill="#fff"/><path d="M3,4.7C5.74,3.23,7.18,3.3,8.15,4S8.83,7,10,5.9s2-4.11,4.12-3.06,5.55,2.79,4.66,4S15.59,14,15.59,14l-4,3.61-5-.78L3.57,12.73,1.09,9.36l.46-3.61Z" transform="translate(0 -1.54)" fill="#379c35"/></svg>