<svg width="50" height="50" viewBox="0 0 50 50" fill="none" xmlns="http://www.w3.org/2000/svg">
<g clip-path="url(#clip0_226_421)">
<path d="M31.25 15.6266C31.25 15.0086 31.4333 14.4044 31.7767 13.8905C32.12 13.3766 32.6081 12.976 33.1791 12.7395C33.7501 12.503 34.3785 12.4411 34.9847 12.5617C35.5908 12.6822 36.1477 12.9799 36.5847 13.4169C37.0217 13.854 37.3194 14.4108 37.44 15.017C37.5605 15.6232 37.4986 16.2515 37.2621 16.8225C37.0256 17.3935 36.6251 17.8816 36.1112 18.225C35.5973 18.5683 34.9931 18.7516 34.375 18.7516C33.5462 18.7516 32.7513 18.4224 32.1653 17.8363C31.5792 17.2503 31.25 16.4554 31.25 15.6266V15.6266ZM28.125 25.0016C28.7431 25.0016 29.3473 24.8183 29.8612 24.475C30.3751 24.1316 30.7756 23.6435 31.0121 23.0725C31.2487 22.5015 31.3105 21.8732 31.19 21.267C31.0694 20.6608 30.7718 20.1039 30.3347 19.6669C29.8977 19.2299 29.3409 18.9322 28.7347 18.8117C28.1285 18.6911 27.5001 18.753 26.9291 18.9895C26.3581 19.226 25.87 19.6266 25.5267 20.1405C25.1833 20.6544 25 21.2586 25 21.8766C25 22.7054 25.3292 23.5003 25.9153 24.0863C26.5013 24.6724 27.2962 25.0016 28.125 25.0016ZM21.875 31.2516C22.4931 31.2516 23.0973 31.0683 23.6112 30.725C24.1251 30.3816 24.5256 29.8935 24.7621 29.3225C24.9986 28.7515 25.0605 28.1232 24.94 27.517C24.8194 26.9108 24.5218 26.3539 24.0847 25.9169C23.6477 25.4799 23.0909 25.1822 22.4847 25.0617C21.8785 24.9411 21.2501 25.003 20.6791 25.2395C20.1081 25.476 19.62 25.8766 19.2767 26.3905C18.9333 26.9044 18.75 27.5086 18.75 28.1266C18.75 28.9554 19.0792 29.7503 19.6653 30.3363C20.2513 30.9224 21.0462 31.2516 21.875 31.2516ZM49.6688 7.4037L49.5125 7.83912C46.0667 17.3995 42.775 26.4329 35.1896 34.2787C34.626 39.652 32.1927 44.6566 28.3146 48.4183C27.2518 49.4299 25.8422 49.9964 24.375 50.0016C22.8832 50.0016 21.4524 49.409 20.3975 48.3541C19.3426 47.2992 18.75 45.8685 18.75 44.3766V40.9787C17.5263 40.5296 16.3926 39.8657 15.4021 39.0183L11.5854 42.837C10.9992 43.4233 10.2041 43.7526 9.375 43.7526C8.54593 43.7526 7.75082 43.4233 7.16458 42.837C6.57834 42.2508 6.249 41.4557 6.249 40.6266C6.249 39.7976 6.57834 39.0024 7.16458 38.4162L10.9854 34.5954C9.70879 33.0386 8.88371 31.1615 8.6 29.1683H5.625C4.13316 29.1683 2.70242 28.5757 1.64752 27.5208C0.592632 26.4659 0 25.0351 0 23.5433C0.00575656 22.0768 0.572241 20.668 1.58333 19.6058C3.7526 17.3894 6.33882 15.6241 9.19311 14.4113C12.0474 13.1985 15.1134 12.5622 18.2146 12.5391C25.4563 6.51204 33.6021 3.58079 42.1729 0.489121L42.6063 0.332871C43.5929 -0.0226417 44.6603 -0.0900242 45.6837 0.138597C46.7072 0.367219 47.6445 0.882402 48.386 1.62394C49.1276 2.36548 49.6427 3.30275 49.8714 4.32623C50.1 5.3497 50.0326 6.41711 49.6771 7.4037H49.6688ZM43.2667 6.73495C34.1917 10.012 26.3229 13.0016 19.5833 19.735C18.1488 21.3544 16.8124 23.0581 15.5813 24.837C14.9254 25.7695 14.6203 26.9038 14.7198 28.0395C14.8193 29.1751 15.317 30.2391 16.125 31.0433L19.0917 34.0016C19.8963 34.8071 20.9594 35.3026 22.0937 35.401C23.2279 35.4993 24.3604 35.1941 25.2917 34.5391C27.0684 33.315 28.7332 31.936 30.2667 30.4183C37 23.6787 40 15.81 43.2667 6.73495V6.73495Z" fill="#379C35"/>
</g>
<defs>
<clipPath id="clip0_226_421">
<rect width="50" height="50" fill="white"/>
</clipPath>
</defs>
</svg>
