<svg width="20" height="21" viewBox="0 0 20 21" fill="none" xmlns="http://www.w3.org/2000/svg">
<g clip-path="url(#clip0_6_106)">
<path d="M19.6346 18.3712L15.7636 14.4986C18.6601 10.628 17.8703 5.14213 13.9996 2.2457C10.129 -0.650737 4.64317 0.139027 1.74674 4.00967C-1.1497 7.88032 -0.359936 13.3661 3.51071 16.2626C6.61993 18.5892 10.8904 18.5892 13.9996 16.2626L17.8722 20.1352C18.3589 20.6218 19.1479 20.6218 19.6345 20.1352C20.1212 19.6485 20.1212 18.8595 19.6345 18.3729L19.6346 18.3712ZM8.78745 15.5151C5.3474 15.5151 2.55873 12.7265 2.55873 9.28641C2.55873 5.84637 5.3474 3.05769 8.78745 3.05769C12.2275 3.05769 15.0162 5.84637 15.0162 9.28641C15.0125 12.7249 12.226 15.5115 8.78745 15.5151Z" fill="white"/>
</g>
<defs>
<clipPath id="clip0_6_106">
<rect width="20" height="20" fill="white" transform="translate(0 0.5)"/>
</clipPath>
</defs>
</svg>
