<svg width="15" height="15" viewBox="0 0 15 15" fill="none" xmlns="http://www.w3.org/2000/svg">
<g clip-path="url(#clip0_182_411)">
<path d="M8.82604 7.50022L14.7258 1.6011C15.092 1.23487 15.092 0.641109 14.7258 0.274913C14.3596 -0.0913122 13.7658 -0.0913122 13.3996 0.274913L7.50047 6.17465L1.60134 0.274913C1.23512 -0.0913122 0.641353 -0.0913122 0.275157 0.274913C-0.0910387 0.641138 -0.091068 1.2349 0.275157 1.6011L6.1749 7.50022L0.275157 13.3994C-0.091068 13.7656 -0.091068 14.3594 0.275157 14.7256C0.641382 15.0918 1.23515 15.0918 1.60134 14.7256L7.50047 8.82579L13.3996 14.7256C13.7658 15.0918 14.3596 15.0918 14.7258 14.7256C15.092 14.3593 15.092 13.7656 14.7258 13.3994L8.82604 7.50022Z" fill="#379C35"/>
</g>
<defs>
<clipPath id="clip0_182_411">
<rect width="15" height="15" fill="white"/>
</clipPath>
</defs>
</svg>
