<svg width="18" height="18" viewBox="0 0 18 18" fill="none" xmlns="http://www.w3.org/2000/svg">
<g clip-path="url(#clip0_41_807)">
<path d="M10.5911 9.00022L17.6709 1.92127C18.1103 1.4818 18.1103 0.769282 17.6709 0.329847C17.2314 -0.109623 16.5189 -0.109623 16.0794 0.329847L9.00046 7.40953L1.92151 0.329847C1.48204 -0.109623 0.769526 -0.109623 0.330091 0.329847C-0.109344 0.769317 -0.109379 1.48183 0.330091 1.92127L7.40978 9.00022L0.330091 16.0792C-0.109379 16.5187 -0.109379 17.2312 0.330091 17.6706C0.769561 18.1101 1.48208 18.1101 1.92151 17.6706L9.00046 10.5909L16.0794 17.6706C16.5189 18.1101 17.2314 18.1101 17.6708 17.6706C18.1103 17.2312 18.1103 16.5186 17.6708 16.0792L10.5911 9.00022Z" fill="white"/>
</g>
<defs>
<clipPath id="clip0_41_807">
<rect width="18" height="18" fill="white"/>
</clipPath>
</defs>
</svg>
