<svg width="24" height="24" viewBox="0 0 24 24" fill="none" xmlns="http://www.w3.org/2000/svg">
<g clip-path="url(#clip0_827_8577)">
<path d="M23.7072 0.293275C23.5196 0.105804 23.2653 0.000488281 23.0002 0.000488281C22.735 0.000488281 22.4807 0.105804 22.2932 0.293275L12.0002 10.5863L1.70715 0.293275C1.51963 0.105804 1.26532 0.000488281 1.00015 0.000488281C0.734988 0.000488281 0.48068 0.105804 0.293153 0.293275V0.293275C0.105682 0.480802 0.000366211 0.735111 0.000366211 1.00027C0.000366211 1.26544 0.105682 1.51975 0.293153 1.70727L10.5862 12.0003L0.293153 22.2933C0.105682 22.4808 0.000366211 22.7351 0.000366211 23.0003C0.000366211 23.2654 0.105682 23.5197 0.293153 23.7073V23.7073C0.48068 23.8947 0.734988 24.0001 1.00015 24.0001C1.26532 24.0001 1.51963 23.8947 1.70715 23.7073L12.0002 13.4143L22.2932 23.7073C22.4807 23.8947 22.735 24.0001 23.0002 24.0001C23.2653 24.0001 23.5196 23.8947 23.7072 23.7073C23.8946 23.5197 23.9999 23.2654 23.9999 23.0003C23.9999 22.7351 23.8946 22.4808 23.7072 22.2933L13.4142 12.0003L23.7072 1.70727C23.8946 1.51975 23.9999 1.26544 23.9999 1.00027C23.9999 0.735111 23.8946 0.480802 23.7072 0.293275V0.293275Z" fill="black"/>
</g>
<defs>
<clipPath id="clip0_827_8577">
<rect width="24" height="24" fill="white"/>
</clipPath>
</defs>
</svg>
