<?xml version="1.0" standalone="no"?>
<!DOCTYPE svg PUBLIC "-//W3C//DTD SVG 20010904//EN"
 "http://www.w3.org/TR/2001/REC-SVG-20010904/DTD/svg10.dtd">
<svg version="1.0" xmlns="http://www.w3.org/2000/svg"
 width="238.000000pt" height="263.000000pt" viewBox="0 0 238.000000 263.000000"
 preserveAspectRatio="xMidYMid meet">

<g transform="translate(0.000000,263.000000) scale(0.100000,-0.100000)"
fill="#000000" stroke="none">
<path d="M993 2590 c0 -25 2 -35 4 -22 2 12 2 32 0 45 -2 12 -4 2 -4 -23z"/>
<path d="M1279 2535 c50 -52 109 -122 133 -155 23 -33 46 -60 51 -60 27 0 243
203 296 278 l22 32 -55 0 -56 0 6 -52 6 -53 -65 -62 c-36 -35 -69 -63 -74 -63
-5 0 -9 51 -9 113 l1 112 -92 3 -92 3 -3 -75 -3 -75 -65 74 c-36 41 -71 74
-79 75 -7 0 28 -43 78 -95z"/>
<path d="M1858 2495 c4 -121 2 -151 -17 -226 -12 -47 -19 -93 -15 -102 7 -18
19 -18 202 4 84 10 149 27 107 28 -19 1 -20 8 -19 164 0 185 -5 267 -17 267
-5 0 -9 -98 -9 -219 0 -218 0 -219 -22 -225 -13 -3 -38 -6 -55 -6 l-33 0 0
225 0 225 -25 0 -25 0 0 -230 0 -230 -37 0 -36 0 8 103 c10 116 8 275 -4 327
-5 20 -6 -23 -3 -105z"/>
<path d="M505 2520 l-500 -5 498 -3 c434 -2 497 -4 497 -17 0 -11 -14 -15 -57
-17 l-58 -1 60 -6 c62 -6 70 -2 63 36 -3 17 -31 18 -503 13z"/>
<path d="M18 2473 c12 -2 32 -2 45 0 12 2 2 4 -23 4 -25 0 -35 -2 -22 -4z"/>
<path d="M328 2473 c28 -2 76 -2 105 0 28 2 5 3 -53 3 -58 0 -81 -1 -52 -3z"/>
<path d="M557 2473 c18 -2 50 -2 70 0 21 2 7 4 -32 4 -38 0 -55 -2 -38 -4z"/>
<path d="M153 2463 c15 -2 39 -2 55 0 15 2 2 4 -28 4 -30 0 -43 -2 -27 -4z"/>
<path d="M1003 2255 c0 -22 2 -30 4 -17 2 12 2 30 0 40 -3 9 -5 -1 -4 -23z"/>
<path d="M500 2221 c0 -6 5 -13 10 -16 6 -3 10 1 10 9 0 9 -4 16 -10 16 -5 0
-10 -4 -10 -9z"/>
<path d="M2180 2214 l-25 -15 24 7 c23 6 23 6 -9 -52 -55 -97 -132 -226 -162
-272 -35 -51 -31 -69 22 -115 43 -37 139 -92 146 -84 3 2 -9 10 -26 17 -34 14
-32 2 -30 218 l1 132 45 80 c25 44 44 85 42 90 -2 5 -14 2 -28 -6z m-90 -349
c0 -78 -4 -115 -11 -115 -6 0 -29 18 -51 39 l-39 40 37 58 c20 32 42 66 48 76
6 9 12 17 13 17 2 0 3 -52 3 -115z"/>
<path d="M548 2213 c6 -2 18 -2 25 0 6 3 1 5 -13 5 -14 0 -19 -2 -12 -5z"/>
<path d="M608 2203 c12 -2 30 -2 40 0 9 3 -1 5 -23 4 -22 0 -30 -2 -17 -4z"/>
<path d="M693 2193 c15 -2 37 -2 50 0 12 2 0 4 -28 4 -27 0 -38 -2 -22 -4z"/>
<path d="M880 2190 l-115 -6 112 -2 c66 -1 114 2 118 8 3 6 5 9 3 8 -2 -1 -55
-5 -118 -8z"/>
<path d="M530 2169 c0 -4 11 -27 25 -50 14 -24 25 -39 25 -34 0 11 -49 94 -50
84z"/>
<path d="M1286 2140 c-98 -26 -184 -72 -244 -129 -50 -48 -112 -134 -112 -155
0 -6 13 12 29 39 34 59 117 141 181 177 51 29 119 53 211 73 36 7 51 13 34 13
-16 0 -61 -8 -99 -18z"/>
<path d="M1503 2150 c91 -15 177 -61 241 -131 61 -65 69 -89 33 -89 -47 0
-132 -54 -216 -138 l-84 -84 -86 5 c-47 3 -97 8 -111 11 -14 3 -7 -1 15 -8 22
-8 73 -15 113 -15 l73 -1 98 94 c109 104 157 129 236 124 37 -2 51 -7 53 -20
2 -12 -11 -20 -55 -33 -88 -26 -111 -40 -203 -130 -117 -114 -123 -115 -350
-80 -35 5 -35 5 -5 -5 17 -5 61 -14 100 -19 38 -6 71 -15 73 -20 2 -7 10 -5
19 4 8 8 23 15 33 15 10 0 26 3 35 7 15 5 16 3 5 -16 -6 -13 -9 -25 -7 -28 3
-2 8 5 12 17 10 31 120 156 168 191 52 38 149 69 155 51 2 -8 9 -3 18 13 21
40 17 55 -15 61 -21 4 -38 20 -61 55 -60 93 -183 167 -288 174 l-57 4 58 -9z"/>
<path d="M617 1995 c15 -30 29 -53 31 -51 4 5 -46 106 -53 106 -3 0 7 -25 22
-55z"/>
<path d="M680 1861 c0 -6 4 -13 10 -16 6 -3 7 1 4 9 -7 18 -14 21 -14 7z"/>
<path d="M906 1789 c-9 -29 -16 -62 -15 -73 0 -12 8 11 19 49 21 83 18 100 -4
24z"/>
<path d="M1861 1814 c0 -11 3 -14 6 -6 3 7 2 16 -1 19 -3 4 -6 -2 -5 -13z"/>
<path d="M721 1774 c0 -11 3 -14 6 -6 3 7 2 16 -1 19 -3 4 -6 -2 -5 -13z"/>
<path d="M1874 1764 c4 -15 10 -40 13 -58 l6 -31 -32 28 c-18 15 -37 27 -43
27 -6 0 4 -10 23 -23 18 -12 44 -40 57 -62 13 -22 21 -31 18 -20 -3 11 -12 53
-21 93 -9 39 -19 72 -22 72 -3 0 -2 -12 1 -26z"/>
<path d="M1088 1766 c-35 -18 -34 -43 4 -66 18 -11 38 -20 43 -20 6 1 -7 10
-27 21 -79 41 -30 77 66 47 32 -10 64 -17 69 -15 4 1 -23 12 -62 23 -56 17
-75 19 -93 10z"/>
<path d="M598 1709 c-21 -11 -38 -22 -38 -24 0 -3 18 4 40 15 22 11 40 23 40
25 0 7 0 7 -42 -16z"/>
<path d="M883 1655 c0 -22 2 -30 4 -17 2 12 2 30 0 40 -3 9 -5 -1 -4 -23z"/>
<path d="M520 1666 c-73 -40 -133 -77 -115 -71 26 8 145 75 145 80 0 7 -2 6
-30 -9z"/>
<path d="M1165 1670 c11 -5 29 -8 40 -8 16 0 15 2 -5 8 -34 11 -60 11 -35 0z"/>
<path d="M2234 1661 c17 -7 15 -10 -17 -30 -21 -12 -37 -25 -37 -28 0 -3 10 1
23 9 12 8 33 21 46 28 19 9 21 14 10 21 -8 5 -21 8 -29 8 -10 0 -9 -3 4 -8z"/>
<path d="M1056 1627 c-30 -39 -46 -79 -46 -116 0 -26 3 -28 28 -22 26 5 26 6
3 9 -21 3 -23 7 -17 40 3 20 19 56 36 79 35 50 32 58 -4 10z"/>
<path d="M874 1475 c0 -71 1 -99 3 -62 2 37 2 96 0 130 -2 34 -3 4 -3 -68z"/>
<path d="M1920 1576 c0 -22 -5 -25 -47 -29 l-48 -3 47 -2 c43 -2 47 -4 51 -29
2 -16 5 -2 6 30 0 31 -1 57 -4 57 -3 0 -5 -11 -5 -24z"/>
<path d="M2115 1560 c-67 -53 -105 -106 -105 -146 0 -25 12 -44 63 -96 34 -35
59 -60 55 -54 -5 5 -8 73 -8 150 l0 140 28 23 c15 12 25 22 22 23 -3 0 -27
-18 -55 -40z m-25 -147 l-1 -98 -34 37 c-22 24 -35 48 -35 64 0 27 43 94 61
94 5 0 9 -42 9 -97z"/>
<path d="M1444 1575 c2 -11 7 -30 11 -42 5 -19 2 -22 -32 -26 l-38 -4 37 -1
c32 -2 37 -6 41 -29 3 -16 3 -3 2 29 -2 31 -8 64 -14 75 -11 17 -12 17 -7 -2z"/>
<path d="M326 1571 c-6 -8 43 -35 51 -27 2 2 -5 7 -16 11 -12 3 -19 11 -16 16
4 5 2 9 -4 9 -5 0 -12 -4 -15 -9z"/>
<path d="M1500 1530 c0 -29 3 -50 7 -46 7 7 5 87 -3 95 -2 2 -4 -20 -4 -49z"/>
<path d="M1725 1533 c17 -3 34 -11 38 -19 12 -20 34 -17 40 6 5 18 1 20 -51
19 -34 -1 -45 -4 -27 -6z"/>
<path d="M1598 1523 c7 -3 16 -2 19 1 4 3 -2 6 -13 5 -11 0 -14 -3 -6 -6z"/>
<path d="M1257 1513 c40 -3 51 -7 46 -18 -8 -23 28 -31 43 -10 20 27 2 35 -76
33 -62 -2 -63 -2 -13 -5z"/>
<path d="M1538 1513 c7 -3 16 -2 19 1 4 3 -2 6 -13 5 -11 0 -14 -3 -6 -6z"/>
<path d="M255 1500 l-210 -6 225 -2 c171 -1 230 -5 245 -16 11 -7 31 -16 45
-20 14 -4 0 7 -30 23 -30 17 -57 29 -60 28 -3 -1 -99 -4 -215 -7z"/>
<path d="M1093 1503 c15 -2 37 -2 50 0 12 2 0 4 -28 4 -27 0 -38 -2 -22 -4z"/>
<path d="M1911 1470 c-1 -8 -2 -64 -1 -125 1 -100 -13 -380 -25 -480 -3 -31
-2 -35 4 -15 5 14 9 51 10 82 1 51 4 59 32 78 16 12 32 21 33 19 2 -2 24 -30
50 -61 l46 -58 -60 0 c-56 0 -60 -2 -60 -22 0 -13 9 -42 19 -65 11 -23 17 -44
13 -47 -3 -3 -27 -6 -54 -6 -47 0 -48 1 -43 28 3 15 -3 6 -12 -19 -44 -114
-117 -195 -217 -242 -129 -61 -227 -71 -337 -34 -201 69 -317 213 -374 464
-13 58 -27 137 -31 175 -4 38 -10 65 -13 59 -7 -10 20 -198 34 -241 5 -15 2
-20 -12 -21 -17 0 -17 -1 0 -8 11 -4 28 -34 41 -73 13 -37 36 -88 50 -114 14
-26 25 -49 23 -51 -2 -1 -38 -6 -80 -9 -55 -5 -77 -4 -77 4 0 7 9 35 20 64 35
91 39 88 -110 88 -71 0 -130 2 -130 4 0 2 16 38 35 80 19 43 35 83 35 91 0 8
-38 25 -97 45 -54 17 -120 41 -146 52 l-48 21 23 25 23 26 -35 -24 c-19 -13
-36 -24 -37 -25 -2 -1 9 -12 24 -26 14 -13 23 -19 19 -12 -7 13 -3 12 151 -43
59 -21 103 -42 103 -49 0 -7 -13 -42 -30 -77 -16 -34 -30 -70 -30 -79 0 -17
43 -29 105 -29 17 0 37 -6 45 -12 12 -11 12 -10 2 3 -11 14 -5 16 48 18 33 1
60 -2 60 -6 0 -4 -11 -35 -24 -67 -13 -33 -22 -65 -19 -72 7 -19 51 -25 111
-16 51 9 52 8 52 -15 0 -16 -4 -22 -13 -17 -9 6 -9 4 1 -7 7 -7 12 -40 12 -76
0 -61 -1 -63 -21 -53 -11 7 -22 10 -24 8 -2 -2 48 -30 111 -63 99 -51 115 -63
111 -81 -3 -17 6 -25 44 -42 26 -12 69 -24 96 -27 45 -5 44 -4 -14 9 -34 8
-73 22 -88 32 -27 18 -27 19 -21 98 4 44 9 82 11 85 3 2 22 -3 42 -12 65 -28
132 -40 199 -34 l64 5 0 -72 c0 -39 5 -78 11 -86 8 -12 10 -9 6 13 -4 24 0 30
28 41 50 21 169 46 219 46 54 0 87 -14 106 -43 18 -28 152 -301 169 -344 10
-24 20 -33 36 -33 l22 0 0 590 0 590 -21 -6 c-12 -4 -36 -13 -55 -20 -18 -8
-37 -11 -42 -8 -5 3 -9 -9 -9 -27 0 -24 -10 -41 -42 -73 l-43 -41 -3 60 c-1
33 1 85 6 115 l8 55 37 -36 c20 -21 37 -35 37 -32 0 16 -25 45 -50 58 l-29 15
-4 123 c-1 67 -4 115 -6 107z m179 -440 c0 -66 -4 -120 -9 -120 -9 0 -54 53
-85 101 -15 25 -15 29 3 69 18 41 50 69 79 70 9 0 12 -30 12 -120z m0 -562 c0
-235 -3 -428 -7 -428 -5 0 -28 44 -53 98 l-45 97 -3 259 c-3 230 -1 259 13
270 15 11 15 13 1 25 -16 14 -23 91 -9 104 4 4 28 6 55 6 l48 -2 0 -429z
m-160 91 l0 -200 -35 37 -35 37 0 148 c0 81 3 154 6 163 4 10 18 16 35 16 l29
0 0 -201z m-810 -41 c0 -38 -4 -68 -9 -68 -5 0 -23 8 -40 18 -30 17 -31 19
-31 92 0 41 -3 86 -6 100 -5 21 2 16 40 -25 45 -49 46 -51 46 -117z m558 -44
l-3 -57 -68 -22 -68 -22 3 55 3 54 55 23 c81 34 81 34 78 -31z"/>
<path d="M157 1463 c18 -2 50 -2 70 0 21 2 7 4 -32 4 -38 0 -55 -2 -38 -4z"/>
<path d="M1510 1462 c-1 -65 126 -161 182 -139 7 3 1 6 -14 6 -64 2 -119 41
-149 106 -10 22 -19 34 -19 27z"/>
<path d="M610 1436 c0 -2 7 -7 16 -10 8 -3 12 -2 9 4 -6 10 -25 14 -25 6z"/>
<path d="M1451 1423 c-1 -6 -4 -20 -7 -30 -5 -17 -5 -17 6 0 6 10 9 23 6 30
-3 9 -5 9 -5 0z"/>
<path d="M1870 1398 c-15 -21 -17 -28 -6 -19 16 13 41 51 33 51 -2 0 -14 -15
-27 -32z"/>
<path d="M674 1398 l28 -24 -63 -56 c-35 -31 -85 -73 -111 -93 -27 -20 -48
-38 -48 -41 0 -7 155 112 203 154 20 19 37 37 37 41 0 4 -17 15 -37 25 l-38
17 29 -23z"/>
<path d="M1020 1404 c0 -9 51 -84 57 -84 5 0 -1 11 -34 59 -13 19 -23 30 -23
25z"/>
<path d="M1404 1338 l-29 -33 33 29 c30 28 37 36 29 36 -2 0 -16 -15 -33 -32z"/>
<path d="M1815 1358 c-11 -7 -40 -18 -65 -24 -30 -9 -37 -13 -20 -13 25 -1
110 33 110 44 0 7 -2 6 -25 -7z"/>
<path d="M1552 1335 c0 -5 6 -26 13 -45 7 -19 14 -28 14 -20 0 8 -6 29 -14 45
-7 17 -13 26 -13 20z"/>
<path d="M1882 1309 c-7 -11 -27 -28 -45 -39 -18 -11 -26 -20 -19 -20 15 0 89
66 82 74 -3 3 -11 -4 -18 -15z"/>
<path d="M883 1270 c0 -30 2 -43 4 -27 2 15 2 39 0 55 -2 15 -4 2 -4 -28z"/>
<path d="M1104 1306 c11 -9 24 -16 30 -16 12 0 7 5 -24 19 -24 11 -24 11 -6
-3z"/>
<path d="M1163 1283 c9 -2 23 -2 30 0 6 3 -1 5 -18 5 -16 0 -22 -2 -12 -5z"/>
<path d="M1273 1283 c9 -2 23 -2 30 0 6 3 -1 5 -18 5 -16 0 -22 -2 -12 -5z"/>
<path d="M1583 1210 c0 -25 2 -35 4 -22 2 12 2 32 0 45 -2 12 -4 2 -4 -23z"/>
<path d="M1670 1246 c0 -2 11 -6 25 -8 13 -3 22 -1 19 3 -5 9 -44 13 -44 5z"/>
<path d="M1768 1243 c6 -2 18 -2 25 0 6 3 1 5 -13 5 -14 0 -19 -2 -12 -5z"/>
<path d="M2169 1229 c21 -17 22 -22 10 -30 -7 -5 -20 -9 -28 -9 -8 0 -11 -3
-8 -6 7 -7 67 15 67 25 0 3 -15 14 -33 24 l-32 17 24 -21z"/>
<path d="M1035 1221 c28 -32 68 -51 107 -50 26 1 28 3 8 6 -55 8 -70 14 -102
40 -27 23 -30 23 -13 4z"/>
<path d="M1446 1220 c12 -44 51 -114 78 -140 36 -33 60 -18 62 36 1 31 1 33
-3 7 -11 -78 -58 -56 -110 51 -18 39 -31 60 -27 46z"/>
<path d="M1213 1173 c9 -2 25 -2 35 0 9 3 1 5 -18 5 -19 0 -27 -2 -17 -5z"/>
<path d="M821 1144 c-12 -15 -21 -32 -21 -38 0 -6 6 -2 12 9 6 11 18 28 26 38
8 9 12 17 9 17 -3 0 -15 -12 -26 -26z"/>
<path d="M792 1065 c0 -16 2 -22 5 -12 2 9 2 23 0 30 -3 6 -5 -1 -5 -18z"/>
<path d="M800 1022 c0 -18 64 -82 82 -82 7 0 -1 9 -19 20 -17 10 -39 32 -47
47 -8 15 -15 22 -16 15z"/>
<path d="M1180 998 c-104 -72 -86 -202 34 -248 38 -14 32 -3 -7 14 -44 18 -87
70 -87 106 0 53 22 89 85 135 32 23 11 17 -25 -7z"/>
<path d="M1760 997 c19 -12 43 -37 53 -55 36 -62 0 -139 -78 -167 -25 -9 -32
-14 -19 -15 32 0 87 41 107 80 30 58 5 133 -56 167 -37 21 -42 14 -7 -10z"/>
<path d="M1418 973 c17 -3 22 -10 20 -26 -4 -32 -52 -31 -56 1 -3 17 -9 22
-30 21 -24 -2 -24 -2 -4 -6 24 -5 29 -22 10 -41 -16 -16 -30 -15 -54 3 -16 13
-17 16 -4 25 25 16 -13 13 -60 -6 -59 -24 -82 -82 -41 -104 26 -13 41 -12 17
1 -15 9 -16 13 -5 20 24 15 49 10 49 -10 0 -11 -6 -22 -12 -24 -7 -3 14 -6 47
-6 60 -1 61 -1 70 31 11 37 43 50 57 23 9 -15 12 -15 33 5 24 23 45 20 45 -6
0 -21 9 -17 32 11 16 20 23 23 39 15 10 -6 19 -20 19 -30 0 -18 -8 -20 -72
-22 l-73 -1 85 -8 c152 -13 185 -11 211 12 l24 21 -25 -16 c-34 -22 -52 -20
-48 5 4 31 33 47 57 32 16 -10 18 -9 14 8 -6 23 -41 49 -63 48 -10 0 -9 -3 5
-8 19 -8 19 -8 -3 -20 -23 -13 -61 -7 -63 10 -1 5 -2 15 -3 22 0 7 -17 13 -41
13 -32 1 -34 1 -7 -3 37 -5 41 -17 11 -33 -24 -14 -49 2 -49 31 0 17 -8 19
-77 18 -43 -1 -68 -4 -55 -6z m122 -12 c0 -14 -29 -41 -44 -41 -16 0 -36 21
-36 37 0 9 14 13 40 13 22 0 40 -4 40 -9z m-270 -36 c0 -21 -28 -31 -43 -16
-9 9 -8 14 3 21 22 14 40 12 40 -5z m398 -47 c24 -24 13 -38 -28 -38 -26 0
-40 5 -40 13 0 18 21 37 40 37 9 0 21 -5 28 -12z m-324 -14 c11 -29 6 -34 -34
-34 -44 0 -48 5 -23 32 20 22 49 23 57 2z"/>
<path d="M1658 953 c7 -3 16 -2 19 1 4 3 -2 6 -13 5 -11 0 -14 -3 -6 -6z"/>
<path d="M1405 840 l-30 -8 33 -1 c17 0 32 4 32 9 0 6 -1 9 -2 9 -2 -1 -16 -5
-33 -9z"/>
<path d="M938 513 c7 -3 16 -2 19 1 4 3 -2 6 -13 5 -11 0 -14 -3 -6 -6z"/>
<path d="M770 500 c-73 -5 -77 -7 -28 -8 31 -1 62 -4 70 -7 7 -3 22 1 33 9 11
9 18 15 15 14 -3 -1 -43 -5 -90 -8z"/>
<path d="M0 489 c0 -4 147 -7 327 -8 180 -1 325 0 322 3 -7 7 -649 12 -649 5z"/>
<path d="M720 393 l-55 -58 58 55 c31 30 57 56 57 57 0 8 -10 -1 -60 -54z"/>
<path d="M630 320 c-13 -8 -12 -10 3 -10 9 0 17 5 17 10 0 12 -1 12 -20 0z"/>
<path d="M1193 260 c0 -41 2 -58 4 -37 2 20 2 54 0 75 -2 20 -4 3 -4 -38z"/>
<path d="M1485 315 c-16 -8 -41 -15 -55 -15 -14 -1 -19 -4 -12 -7 16 -6 100
16 108 28 7 12 -5 10 -41 -6z"/>
<path d="M610 290 c-8 -5 -118 -11 -245 -12 l-230 -2 223 -6 224 -5 -88 -85
c-48 -47 -108 -107 -133 -135 -25 -27 24 17 109 100 85 82 157 151 159 152 2
2 2 3 0 3 -2 0 -11 -5 -19 -10z"/>
<path d="M1552 280 c0 -14 2 -19 5 -12 2 6 2 18 0 25 -3 6 -5 1 -5 -13z"/>
<path d="M8 273 c7 -3 16 -2 19 1 4 3 -2 6 -13 5 -11 0 -14 -3 -6 -6z"/>
<path d="M6 238 c-8 -30 -8 -102 0 -122 14 -37 24 -11 24 64 0 77 -11 104 -24
58z"/>
<path d="M1562 215 c0 -16 2 -22 5 -12 2 9 2 23 0 30 -3 6 -5 -1 -5 -18z"/>
<path d="M1610 225 c0 -5 5 -17 10 -25 5 -8 10 -10 10 -5 0 6 -5 17 -10 25 -5
8 -10 11 -10 5z"/>
<path d="M1891 164 c0 -11 3 -14 6 -6 3 7 2 16 -1 19 -3 4 -6 -2 -5 -13z"/>
<path d="M785 98 c-33 -35 -44 -49 -25 -33 19 17 39 37 45 45 8 12 11 8 16
-20 l6 -35 2 41 c0 22 6 45 13 52 7 7 10 12 7 12 -2 0 -31 -28 -64 -62z"/>
<path d="M1571 144 c0 -11 3 -14 6 -6 3 7 2 16 -1 19 -3 4 -6 -2 -5 -13z"/>
<path d="M1046 135 c-3 -9 -6 -22 -5 -28 0 -7 5 -1 10 12 5 13 8 26 5 28 -2 2
-6 -3 -10 -12z"/>
<path d="M1203 70 c0 -41 2 -58 4 -38 2 21 2 55 0 76 -2 20 -4 3 -4 -38z"/>
<path d="M1685 60 c9 -16 18 -30 21 -30 2 0 -2 14 -11 30 -9 17 -18 30 -21 30
-2 0 2 -13 11 -30z"/>
<path d="M1902 30 c0 -19 2 -27 5 -17 2 9 2 25 0 35 -3 9 -5 1 -5 -18z"/>
<path d="M832 25 c0 -17 2 -22 5 -12 2 9 2 23 0 30 -3 6 -5 -1 -5 -18z"/>
</g>
</svg>
