<?xml version="1.0" standalone="no"?>
<!DOCTYPE svg PUBLIC "-//W3C//DTD SVG 20010904//EN"
 "http://www.w3.org/TR/2001/REC-SVG-20010904/DTD/svg10.dtd">
<svg version="1.0" xmlns="http://www.w3.org/2000/svg"
 width="2000.000000pt" height="1083.000000pt" viewBox="0 0 2000.000000 1083.000000"
 preserveAspectRatio="xMidYMid meet">

<g transform="translate(0.000000,1083.000000) scale(0.100000,-0.100000)"
fill="#000000" stroke="none">
<path d="M0 5415 l0 -5415 10000 0 10000 0 0 5415 0 5415 -10000 0 -10000 0 0
-5415z m15880 3027 c22 -9 13 -18 -13 -13 -16 3 5 -20 27 -29 17 -7 17 -9 4
-9 -10 -1 -18 -6 -18 -12 0 -5 6 -7 13 -3 6 4 4 -2 -5 -12 -23 -27 -94 -27
-92 -1 2 13 -1 15 -11 7 -10 -9 -12 -3 -8 26 4 28 2 35 -9 29 -7 -3 -3 2 9 13
23 21 59 22 103 4z m27 -28 c-3 -3 -12 -4 -19 -1 -8 3 -5 6 6 6 11 1 17 -2 13
-5z m2245 -526 c-20 -20 -13 -32 7 -14 19 17 20 17 31 -3 6 -12 14 -19 19 -17
4 3 7 -9 6 -27 -1 -40 5 -53 17 -36 7 11 8 11 6 -1 -1 -8 1 -27 5 -43 5 -18 2
-35 -8 -50 -8 -13 -12 -27 -8 -32 5 -4 2 -5 -5 -1 -8 5 -9 13 -2 25 9 18 4 31
-11 31 -5 0 -6 -6 -3 -14 3 -8 0 -17 -6 -21 -8 -5 -7 -11 2 -23 12 -15 11 -16
-4 -4 -10 8 -16 19 -15 25 1 7 -3 11 -9 10 -7 -1 -10 6 -7 16 3 10 1 21 -5 25
-5 3 -9 -8 -10 -25 -1 -35 -12 -54 -12 -21 0 12 -4 22 -10 22 -5 0 -8 -6 -6
-12 1 -7 1 -10 -1 -5 -3 4 -10 4 -16 0 -7 -3 -9 -3 -5 2 4 4 -4 17 -18 27 -14
11 -23 23 -19 26 3 3 -2 16 -10 28 -8 13 -11 25 -6 28 4 3 7 17 6 31 -2 14 1
23 6 19 5 -3 9 3 10 13 0 16 1 16 9 -2 8 -18 9 -18 10 5 l2 25 8 -25 c4 -14 8
-18 9 -10 1 22 33 -28 37 -57 1 -13 8 -31 16 -40 7 -9 12 -19 12 -22 -2 -9 15
-51 21 -51 7 0 0 30 -15 65 -8 17 -14 38 -15 47 -1 10 -10 29 -19 43 -14 21
-15 29 -5 41 6 8 14 14 17 14 3 0 1 -5 -6 -12z m114 -134 c1 -9 0 -13 -4 -10
-3 4 -7 14 -8 22 -1 9 0 13 4 10 3 -4 7 -14 8 -22z m4 -48 c0 -2 -8 -10 -17
-17 -16 -13 -17 -12 -4 4 13 16 21 21 21 13z m-96 -42 c3 -8 2 -12 -4 -9 -6 3
-10 10 -10 16 0 14 7 11 14 -7z m-11070 -72 c3 -5 -1 -9 -9 -9 -8 0 -12 4 -9
9 3 4 7 8 9 8 2 0 6 -4 9 -8z m27 -69 c6 -16 10 -30 11 -33 0 -3 3 -9 8 -15 4
-5 13 -35 20 -65 7 -30 16 -59 20 -65 32 -44 45 -478 20 -685 l-15 -125 -7 68
c-3 37 -3 100 0 140 12 124 4 371 -14 447 -3 14 -6 32 -8 40 -1 8 -6 38 -10
65 -11 68 -14 86 -21 115 -4 14 -7 35 -8 48 -1 12 -5 22 -10 22 -4 0 -6 4 -2
9 3 5 1 12 -5 16 -5 3 -10 12 -10 18 0 7 4 6 11 -3 9 -12 10 -11 6 8 -7 31 1
28 14 -5z m8349 -10 c0 -3 -6 -3 -14 0 -15 6 -16 -17 -1 -30 4 -4 5 -2 1 5 -4
6 -2 12 3 12 15 0 14 -15 -2 -29 -11 -8 -18 -6 -33 10 -18 20 -18 21 0 34 16
12 46 11 46 -2z m-525 -283 c0 -18 -6 -25 -19 -25 -19 0 -31 29 -19 47 11 19
38 2 38 -22z m2581 -136 c36 -9 62 -19 60 -22 -3 -2 5 -13 17 -24 12 -11 16
-16 8 -12 -10 5 -12 3 -5 -7 12 -19 12 -32 0 -48 -9 -12 -8 -13 4 -6 9 5 7 -1
-5 -14 -42 -48 -86 -58 -160 -36 -80 23 -107 61 -96 137 1 4 11 16 23 28 27
24 67 26 154 4z m-486 -13 c0 -20 -17 -31 -37 -24 -7 3 -13 13 -13 24 0 14 7
19 25 19 18 0 25 -5 25 -19z m141 -98 c39 -33 -10 -79 -63 -61 -22 8 -28 16
-28 39 0 46 49 58 91 22z m-11101 -87 c0 5 6 2 13 -6 7 -8 23 -22 37 -31 77
-50 330 -309 330 -339 0 -5 6 -15 13 -22 26 -28 137 -278 137 -310 0 -7 6 -25
14 -39 7 -14 21 -59 31 -100 10 -41 21 -78 25 -84 9 -13 32 -156 26 -163 -6
-5 -26 42 -26 59 0 6 -9 29 -20 51 -11 23 -20 46 -20 50 0 14 -69 189 -101
258 -47 98 -189 307 -306 450 -30 36 -79 99 -111 140 -31 41 -60 77 -64 78 -5
2 -8 8 -8 14 0 6 6 6 15 -2 8 -7 15 -9 15 -4z m7688 -90 c13 -4 22 -16 23 -29
1 -12 2 -29 3 -37 2 -15 -10 -45 -25 -64 -101 -129 -179 -209 -179 -185 0 12
-2 12 -10 -1 -8 -12 -10 -12 -10 -1 0 8 -7 11 -20 8 -11 -3 -23 0 -27 5 -3 7
-1 8 5 4 7 -4 12 -2 12 3 0 6 -5 11 -11 11 -8 0 -7 6 2 17 10 11 10 14 2 9 -7
-4 -13 -5 -13 -1 0 12 31 80 44 95 8 8 17 25 20 37 9 29 73 101 109 123 30 19
36 19 75 6z m2452 -10 c18 -22 8 -57 -22 -79 -23 -17 -32 -19 -52 -9 -37 17
-45 60 -16 84 27 22 73 24 90 4z m-100 -264 c31 -25 38 -90 12 -122 -27 -35
-101 -72 -146 -73 -40 -1 -80 29 -90 69 -11 42 38 110 94 133 41 16 105 13
130 -7z m-1312 -108 c65 -73 -26 -197 -175 -237 -51 -13 -86 1 -103 44 -24 56
11 121 94 178 83 57 143 62 184 15z m-3407 -59 c5 4 6 -1 2 -10 -5 -13 -7 -14
-14 -3 -5 7 -8 18 -8 23 0 6 3 4 6 -3 2 -6 9 -10 14 -7z m74 -46 c0 -8 9 -14
22 -13 12 1 21 -4 20 -10 -1 -6 5 -9 13 -8 8 2 12 0 7 -4 -4 -4 0 -15 8 -24
13 -14 11 -16 -20 -16 -31 0 -33 2 -19 17 12 13 12 18 2 27 -19 15 -30 15 -39
0 -7 -10 -9 -10 -9 0 0 7 -4 11 -8 8 -4 -2 -8 6 -8 18 0 16 5 23 16 21 8 -1
15 -8 15 -16z m92 -111 c2 -17 0 -19 -7 -8 -5 8 -6 18 -4 22 8 12 10 10 11
-14z m24 -15 c-5 -10 -9 -22 -10 -28 -2 -18 -34 -11 -37 8 -2 14 1 16 11 7 11
-9 16 -7 25 9 6 12 13 21 16 21 2 0 0 -8 -5 -17z m34 -53 c-2 -11 1 -22 6 -26
5 -3 7 -14 4 -25 -4 -11 -3 -18 2 -17 4 2 10 -1 11 -7 2 -5 8 -18 14 -29 7
-13 7 -16 -1 -12 -12 8 -15 -7 -4 -18 4 -4 8 -20 9 -36 1 -20 -3 -27 -15 -25
-15 2 -16 7 -8 34 1 5 -2 9 -8 9 -5 0 -9 -4 -7 -10 1 -5 -2 -7 -8 -3 -8 5 -8
11 -1 19 6 7 7 17 3 21 -4 5 -1 5 6 1 6 -4 12 -5 12 -2 0 2 3 12 7 22 4 12 3
15 -6 10 -7 -5 -10 -2 -9 6 2 7 -2 12 -9 11 -8 -2 -10 4 -6 14 4 9 2 14 -3 11
-5 -4 -9 16 -9 42 -1 37 2 46 11 39 7 -6 11 -19 9 -29z m2819 -31 c19 -27 6
-59 -34 -82 -35 -21 -54 -21 -74 -1 -22 21 -20 28 15 69 36 40 70 46 93 14z
m239 -14 c21 -21 10 -55 -18 -55 -30 0 -42 40 -18 58 21 15 19 15 36 -3z
m2671 -150 c33 -22 35 -90 3 -125 -26 -30 -52 -36 -75 -18 -13 11 -15 11 -7
-2 5 -8 -3 -4 -17 10 -33 33 -42 65 -28 100 19 46 80 64 124 35z m-5588 -256
c15 -17 15 -18 -5 -14 -16 3 -21 0 -19 -13 2 -9 -3 -17 -9 -18 -7 -1 -14 -3
-15 -4 -11 -9 -81 -4 -90 7 -10 12 -8 14 8 12 4 0 11 5 15 13 7 10 9 10 9 -2
0 -10 5 -7 16 8 8 12 19 20 24 17 5 -3 11 -2 14 3 9 14 35 10 52 -9z m26 -208
c-1 -57 -37 -121 -81 -141 -17 -8 -12 2 20 35 24 25 45 50 45 56 1 5 2 32 3
61 0 28 4 49 7 45 3 -3 6 -28 6 -56z m1786 15 c20 -20 -21 -224 -50 -251 -8
-7 -9 -6 -3 4 6 10 4 12 -6 5 -23 -14 -36 -13 -57 7 -22 20 -22 19 10 139 24
89 39 110 76 104 15 -3 28 -7 30 -8z m1283 -190 c32 -33 33 -61 2 -115 -48
-86 -120 -116 -169 -71 -45 43 -28 118 41 179 45 39 92 42 126 7z m-1389 -240
c-4 -15 -7 -17 -10 -6 -3 8 -10 18 -16 22 -6 4 -1 6 10 6 16 -2 20 -7 16 -22z
m-2059 -11 c-3 -9 -8 -14 -10 -11 -3 3 -2 9 2 15 9 16 15 13 8 -4z m-2545
-167 c-5 -15 -48 -24 -48 -10 0 14 12 22 33 22 10 0 17 -5 15 -12z m7033 -102
c4 -40 -49 -106 -86 -106 -25 0 -45 18 -45 41 0 17 60 71 90 81 20 7 40 -1 41
-16z m-3009 -51 c8 -10 3 -110 -8 -157 -6 -32 -28 -48 -56 -40 -25 6 -33 45
-19 92 6 20 11 47 11 59 0 14 4 20 12 15 6 -4 8 -3 5 4 -19 29 35 55 55 27z
m1403 -85 c-3 -5 0 -7 8 -4 11 4 14 -3 13 -26 -1 -28 -4 -31 -31 -28 -36 4
-47 35 -19 55 21 15 38 17 29 3z m-2876 -60 c0 -10 -2 -11 -6 -2 -2 6 -8 10
-13 7 -4 -3 -10 9 -12 26 l-5 31 18 -23 c10 -13 18 -31 18 -39z m6253 11 c10
-2 51 -72 51 -87 0 -8 5 -14 11 -14 6 0 4 -5 -4 -10 -10 -6 -11 -10 -2 -10 6
0 12 -5 12 -11 0 -5 -5 -7 -12 -3 -7 4 -8 3 -4 -5 10 -16 -3 -53 -16 -45 -7 5
-9 2 -6 -8 5 -11 -4 -15 -37 -17 -39 -2 -46 2 -68 31 -24 32 -43 83 -38 103 2
5 3 18 4 27 1 10 6 18 11 18 5 0 6 3 3 7 -19 18 41 33 95 24z m-2859 -183 c15
-17 27 -35 27 -39 0 -23 -41 -154 -55 -175 -23 -36 -86 -36 -123 0 -18 18 -23
34 -25 87 -2 79 20 127 72 157 41 24 60 18 104 -30z m-3373 -48 c0 -64 9 -86
25 -60 3 6 11 10 17 10 6 0 -1 -11 -16 -25 -15 -14 -30 -25 -34 -25 -4 0 -7
38 -7 85 0 47 3 85 8 85 4 0 7 -31 7 -70z m-6986 27 c4 4 4 -1 0 -11 -5 -14
-4 -17 5 -12 16 10 41 -12 42 -38 0 -11 3 -16 6 -9 6 17 32 -7 26 -25 -3 -7 0
-10 9 -7 9 4 22 -4 31 -19 16 -24 16 -25 -3 -21 -23 4 -24 1 -8 -28 7 -12 13
-28 14 -35 1 -7 8 -20 15 -29 7 -8 14 -22 15 -30 2 -8 9 -22 17 -31 17 -20 37
-106 31 -136 -6 -30 5 -58 19 -49 8 5 8 2 0 -9 -7 -8 -10 -17 -7 -21 3 -3 -1
-4 -10 -3 -24 3 -40 22 -27 31 6 3 10 3 9 -2 -2 -4 0 -9 5 -10 10 -4 10 -2 2
29 -4 16 -11 25 -16 22 -5 -3 -6 -11 -2 -17 5 -8 2 -8 -9 0 -8 7 -18 9 -22 5
-4 -4 -6 0 -4 8 2 8 -2 14 -9 13 -7 -2 -10 7 -7 24 5 24 3 25 -13 13 -15 -12
-16 -12 -6 0 10 11 10 17 -2 30 -13 14 -12 16 8 17 12 0 16 -1 9 -4 -9 -3 -7
-12 8 -30 11 -14 17 -30 13 -36 -4 -6 -1 -7 7 -2 8 5 11 4 7 -1 -3 -6 5 -10
18 -10 24 0 25 11 2 11 -7 1 -11 7 -9 14 1 7 -2 10 -9 5 -9 -5 -10 -2 -6 9 4
10 2 16 -5 14 -6 -1 -13 4 -16 12 -3 9 0 11 9 6 11 -6 12 -5 2 5 -9 10 -10 17
-2 27 8 9 8 13 1 13 -6 0 -12 -5 -14 -10 -2 -6 -9 0 -17 12 -13 21 -13 22 2 9
20 -16 23 -2 5 19 -7 8 -3 6 9 -3 16 -14 23 -15 29 -6 4 7 3 10 -2 7 -5 -3
-17 5 -27 18 -10 14 -15 23 -10 22 4 -2 8 2 8 7 0 6 -3 9 -7 8 -4 -2 -4 5 -1
14 4 10 2 14 -4 10 -7 -4 -10 0 -8 10 3 23 -23 75 -35 68 -4 -3 -6 10 -4 27 4
25 2 29 -5 18 -8 -12 -12 -8 -17 18 -5 25 -9 30 -16 20 -7 -9 -8 -8 -4 6 4 13
2 17 -8 13 -8 -3 -23 8 -36 26 -20 27 -20 29 -3 14 11 -9 23 -14 27 -10z
m7042 1 c4 -7 3 -8 -4 -4 -7 4 -12 2 -12 -5 0 -7 -3 -10 -6 -6 -6 5 3 27 11
27 2 0 7 -5 11 -12z m-3 -39 c-8 -8 -13 -7 -18 2 -5 8 -4 10 3 5 7 -4 12 -2
12 5 0 7 3 9 7 6 4 -4 2 -12 -4 -18z m4102 -67 c6 -4 12 -14 13 -22 2 -8 4
-17 5 -20 1 -3 -4 -28 -12 -57 -17 -61 -46 -83 -86 -65 -35 16 -41 52 -15 108
11 27 26 52 33 56 15 10 49 10 62 0z m-3220 -78 l25 -25 -47 3 c-26 2 -48 9
-51 16 -2 6 3 12 12 12 9 0 16 5 16 10 0 17 18 11 45 -16z m437 -121 c-10 -4
-9 -8 5 -18 14 -11 15 -17 5 -39 -8 -18 -16 -24 -28 -19 -12 4 -15 3 -10 -5
11 -18 0 -14 -15 5 -10 11 -10 14 -1 9 6 -4 12 -3 12 3 0 5 -5 11 -12 13 -7 3
-9 14 -4 31 5 21 12 27 34 26 15 0 21 -3 14 -6z m3679 -24 c12 -20 -1 -39 -24
-35 -16 2 -22 10 -23 29 -1 20 3 25 19 21 11 -2 24 -9 28 -15z m-11779 -51
c-7 -7 -12 -8 -12 -2 0 6 3 14 7 17 3 4 9 5 12 2 2 -3 -1 -11 -7 -17z m6738
-4 c0 -8 -5 -14 -11 -14 -5 0 -7 -5 -4 -10 4 -6 11 -7 17 -4 6 4 8 2 4 -4 -3
-6 -2 -13 3 -16 5 -3 11 1 15 9 3 8 1 17 -4 20 -6 4 -10 11 -10 18 0 6 6 2 14
-8 9 -13 11 -25 5 -36 -10 -19 -43 -19 -45 -1 -1 7 -2 13 -4 15 -1 1 -3 10 -5
20 -2 10 1 14 8 10 7 -4 8 0 4 11 -4 10 -3 15 3 11 6 -3 10 -13 10 -21z m3370
-28 c0 -8 -5 -18 -12 -22 -7 -5 -8 -3 -3 7 7 12 6 12 -7 1 -13 -10 -17 -10
-21 2 -7 18 1 26 25 26 10 0 18 -6 18 -14z m-3355 -58 c4 -3 2 -9 -3 -12 -5
-3 -15 1 -21 8 -10 11 -9 14 3 12 9 -1 18 -5 21 -8z m-16 -34 c4 3 8 -1 8 -9
0 -17 -24 -28 -32 -15 -3 4 -2 16 2 26 4 11 8 13 11 6 2 -7 7 -10 11 -8z
m-6767 -43 c-3 -8 -1 -12 5 -8 7 4 9 -14 8 -54 -2 -47 -7 -65 -24 -80 -11 -11
-19 -16 -16 -13 3 4 -1 14 -8 22 -9 13 -9 14 1 8 7 -4 12 -1 12 9 0 10 -5 13
-12 9 -10 -6 -10 -4 -2 7 12 17 12 48 -1 69 -7 13 -6 13 7 2 13 -11 16 -9 16
13 0 19 -4 23 -13 15 -8 -7 -12 -6 -12 3 0 7 10 13 23 13 15 0 20 -4 16 -15z
m12568 -75 c11 -29 -5 -56 -31 -51 -27 5 -32 10 -36 38 -7 45 50 57 67 13z
m-12414 -52 c8 -10 12 -12 8 -4 -4 8 7 2 24 -14 41 -38 55 -99 33 -139 -18
-33 -46 -51 -63 -41 -7 4 -8 3 -4 -4 4 -7 2 -12 -3 -12 -6 0 -10 -3 -8 -7 1
-5 -1 -8 -5 -8 -3 0 -18 -11 -32 -24 -14 -14 -26 -20 -26 -15 0 5 -5 2 -10 -6
-9 -13 -10 -13 -11 0 0 10 -3 8 -9 -5 l-9 -20 -1 20 c-2 17 -3 16 -10 -5 -7
-22 -8 -23 -9 -4 -1 12 6 27 14 34 8 7 15 9 15 4 0 -4 13 5 29 20 16 15 33 28
38 28 4 0 7 4 5 10 -1 5 2 7 7 4 5 -3 15 2 22 11 12 14 12 16 -1 8 -12 -7 -13
-6 -3 6 17 21 6 108 -17 134 -10 11 -15 26 -12 34 3 9 0 11 -8 6 -8 -5 -11 -4
-7 3 10 15 35 9 53 -14z m9678 -21 c14 -19 17 -32 10 -51 -14 -39 -39 -50 -72
-32 -33 19 -41 63 -16 91 24 26 55 23 78 -8z m-1300 -260 c7 -48 0 -73 -21
-73 -8 0 -11 -5 -7 -11 3 -6 -5 -3 -20 6 -23 15 -26 24 -26 76 0 53 3 61 23
68 28 10 42 -8 51 -66z m-8527 -15 c-3 -8 -6 -5 -6 6 -1 11 2 17 5 13 3 -3 4
-12 1 -19z m-19 1 c-2 -6 -7 -10 -12 -9 -4 1 -13 -6 -20 -16 -10 -13 -15 -14
-21 -4 -5 8 -4 11 2 7 6 -4 14 0 17 9 3 8 10 12 16 9 5 -3 10 -1 10 4 0 6 3
11 6 11 3 0 4 -5 2 -11z m10744 -481 c27 -41 5 -103 -39 -114 -60 -16 -111 50
-89 116 19 57 90 56 128 -2z m-72 -243 c11 -7 8 -54 -4 -73 -13 -22 -76 9 -76
36 0 38 45 58 80 37z m-715 -118 c14 -14 20 -34 29 -89 4 -21 -2 -33 -25 -52
-34 -29 -61 -27 -96 5 -66 63 -36 166 45 155 18 -3 39 -11 47 -19z m2910 -58
c3 -33 -13 -51 -35 -39 -9 5 -19 7 -22 5 -9 -10 -7 49 3 61 16 19 52 2 54 -27z
m-4578 -11 c20 -40 21 -67 6 -80 -22 -18 -43 -19 -50 -2 -3 8 -9 11 -14 8 -5
-3 -9 1 -9 8 0 7 -3 22 -6 34 -6 24 18 54 45 54 10 0 23 -10 28 -22z m3248
-55 c17 -17 31 -37 33 -44 2 -8 9 -17 15 -21 7 -4 8 -8 4 -8 -5 0 -5 -6 0 -12
12 -20 10 -31 -10 -61 -13 -20 -26 -27 -38 -24 -11 3 -17 1 -13 -4 3 -5 0 -9
-5 -10 -43 -4 -61 -1 -77 12 -11 8 -15 9 -10 2 11 -20 1 -15 -34 16 -23 19
-31 34 -27 45 5 11 3 15 -5 10 -8 -5 -9 7 -5 42 4 36 12 54 33 72 39 34 98 27
139 -15z m-1081 -446 c-5 -7 -2 -5 7 4 14 16 16 16 28 0 6 -9 9 -10 6 -3 -3 6
-4 12 -1 12 11 0 76 -63 76 -73 0 -6 -7 -2 -16 9 -14 18 -15 18 -4 -3 6 -13
14 -23 19 -23 5 0 7 -21 6 -46 -2 -34 -10 -53 -31 -75 -15 -15 -30 -28 -33
-27 -3 0 -8 -1 -11 -2 -20 -8 -62 -5 -71 6 -6 8 -15 11 -20 8 -5 -3 -6 3 -2
12 4 12 3 15 -6 10 -16 -10 -42 55 -39 100 2 36 52 109 68 99 5 -3 12 0 15 6
4 5 9 8 12 5 3 -3 2 -11 -3 -19z m-790 -165 c3 -5 -1 -9 -9 -9 -8 0 -12 4 -9
9 3 4 7 8 9 8 2 0 6 -4 9 -8z m234 -72 c1 -1 6 -3 11 -4 5 0 23 -18 39 -38 16
-21 33 -34 37 -30 5 4 5 2 2 -4 -4 -7 0 -14 8 -18 8 -3 15 -13 15 -21 0 -10 5
-13 13 -9 6 4 9 4 5 -1 -4 -4 -2 -15 5 -23 9 -12 9 -14 0 -9 -8 5 -11 0 -10
-15 1 -13 -2 -25 -8 -26 -27 -9 -35 -24 -23 -41 12 -14 11 -14 -4 -2 -10 7
-16 17 -13 21 3 5 -1 11 -7 14 -8 3 -7 5 2 3 9 -1 17 3 18 8 3 13 -19 14 -35
2 -10 -7 -8 -16 7 -37 19 -26 19 -28 2 -41 -15 -12 -15 -12 -5 1 9 12 8 19 -1
32 -7 10 -16 15 -19 11 -4 -3 -2 -12 3 -18 7 -9 5 -17 -7 -26 -16 -13 -17 -12
-5 3 9 11 10 18 2 23 -6 3 -7 12 -3 18 12 20 12 36 -2 47 -10 9 -16 7 -24 -9
-7 -13 -8 -22 -1 -26 5 -3 10 2 11 12 0 11 3 13 6 5 3 -7 -3 -24 -12 -38 -15
-24 -18 -24 -34 -10 -10 9 -22 13 -26 9 -5 -5 -4 -1 3 9 8 10 10 27 6 43 -5
19 -9 23 -15 14 -4 -7 -3 -19 2 -25 7 -8 6 -14 -1 -19 -6 -4 -9 -1 -8 7 2 7
-4 12 -12 10 -12 -3 -13 -1 -2 9 17 19 15 34 -4 19 -8 -8 -14 -9 -13 -4 1 5 1
20 -1 34 -1 23 -2 23 -10 5 l-9 -20 -2 20 c-2 24 -2 75 1 95 1 11 4 9 10 -5 8
-18 9 -18 10 5 2 14 2 29 1 34 -1 5 6 3 15 -5 16 -12 17 -12 12 2 -5 12 1 15
31 13 20 -1 37 -3 39 -4z m1282 -10 c0 -5 -5 -12 -12 -16 -7 -5 -8 -3 -3 6 5
9 4 11 -3 6 -8 -5 -9 -13 -2 -25 5 -10 5 -22 0 -27 -5 -5 -2 -17 7 -29 12 -16
14 -16 10 -3 -3 10 -1 20 5 24 8 5 9 -3 5 -25 -4 -20 -3 -30 3 -26 6 3 10 17
10 31 0 15 4 23 10 19 6 -4 8 -10 5 -15 -3 -5 -1 -11 4 -15 6 -3 7 -13 4 -22
-4 -10 -2 -14 5 -10 14 10 8 73 -7 69 -7 -1 -9 2 -5 9 4 8 3 9 -4 5 -8 -5 -10
-1 -6 11 4 14 3 15 -4 4 -7 -10 -9 -7 -9 13 0 26 11 34 22 16 4 -6 11 -8 16
-4 5 3 9 2 8 -3 -3 -20 2 -33 13 -30 7 1 13 -4 14 -10 1 -7 2 -14 4 -15 7 -10
6 -37 -2 -35 -6 1 -13 -4 -16 -12 -3 -9 0 -11 9 -6 12 7 12 5 1 -6 -7 -8 -18
-14 -25 -14 -7 -1 -11 -6 -10 -11 1 -6 -4 -11 -12 -11 -9 0 -12 9 -9 25 4 21
3 23 -10 13 -8 -7 -12 -20 -10 -29 5 -15 4 -14 -6 1 -6 9 -16 15 -21 11 -5 -3
-9 -2 -8 3 3 19 -2 33 -12 33 -5 0 -7 -5 -3 -12 5 -7 3 -8 -5 -4 -9 6 -9 12 3
25 9 10 12 21 7 27 -5 5 -11 18 -14 29 -3 11 -5 5 -4 -14 1 -18 -2 -32 -8 -32
-16 3 -5 54 17 78 19 20 48 22 48 3z m5 -20 c-4 -6 -1 -19 6 -28 7 -9 9 -14 5
-10 -5 4 -16 2 -25 -5 -14 -10 -14 -10 -4 4 7 9 10 19 7 22 -6 6 3 27 12 27 3
0 2 -5 -1 -10z m-601 -149 c3 -5 -2 -15 -12 -22 -15 -12 -16 -12 -5 2 7 9 10
19 6 22 -3 4 -4 7 0 7 3 0 8 -4 11 -9z"/>
<path d="M15851 8366 c-10 -11 -9 -14 1 -12 14 2 23 15 15 22 -2 2 -10 -2 -16
-10z"/>
<path d="M18162 7868 c-8 -8 -7 -18 3 -38 8 -15 12 -30 9 -32 -8 -9 23 -59 47
-75 22 -16 22 -16 15 13 -8 31 -26 57 -34 49 -3 -2 1 -11 7 -19 8 -10 9 -16 1
-21 -6 -4 -9 -3 -8 2 1 4 -3 18 -10 31 -9 16 -10 22 -1 20 6 -2 14 3 17 11 2
8 0 11 -6 7 -6 -3 -14 -1 -19 6 -10 16 -14 42 -5 33 4 -4 7 -11 7 -16 0 -5 3
-9 8 -9 10 0 7 11 -7 32 -9 13 -15 15 -24 6z"/>
<path d="M18064 7838 c-3 -4 -3 -12 1 -17 3 -5 1 -12 -5 -16 -6 -4 -4 -14 5
-29 8 -12 13 -25 10 -28 -9 -9 22 -29 49 -32 16 -2 23 1 19 9 -2 7 1 16 7 20
8 5 8 10 0 20 -7 8 -13 26 -14 40 -2 14 -6 29 -10 32 -10 11 -56 11 -62 1z
m48 -17 c-3 -8 -1 -12 4 -8 11 6 13 -78 2 -89 -5 -4 -8 -2 -8 5 0 7 -4 10 -9
6 -5 -3 -13 0 -17 6 -4 8 -3 9 4 5 8 -5 12 1 12 16 0 15 -3 19 -8 11 -6 -9
-11 -7 -20 7 -8 13 -8 21 -1 26 6 3 8 11 6 18 -3 7 4 12 18 12 16 0 21 -4 17
-15z"/>
<path d="M18088 7820 c-9 -26 -8 -35 4 -35 7 0 15 -11 19 -25 6 -20 7 -21 8
-5 0 31 -24 83 -31 65z"/>
<path d="M15430 7503 c0 -6 8 -17 18 -24 16 -13 16 -13 2 6 -8 11 -16 22 -17
24 -2 2 -3 0 -3 -6z"/>
<path d="M14922 7234 c2 -27 24 -27 25 0 1 12 -1 15 -4 7 -5 -11 -7 -11 -14 0
-6 10 -8 8 -7 -7z"/>
<path d="M11465 6321 c-3 -5 -2 -12 3 -15 5 -3 9 1 9 9 0 17 -3 19 -12 6z"/>
<path d="M11526 6262 c-3 -5 1 -9 9 -9 8 0 12 4 9 9 -3 4 -7 8 -9 8 -2 0 -6
-4 -9 -8z"/>
<path d="M11626 6107 c3 -10 9 -15 12 -12 3 3 0 11 -7 18 -10 9 -11 8 -5 -6z"/>
<path d="M11656 5963 c-6 -14 -5 -15 5 -6 7 7 10 15 7 18 -3 3 -9 -2 -12 -12z"/>
<path d="M11724 5689 c-3 -5 -9 -7 -14 -4 -5 3 -14 -3 -20 -14 -6 -12 -18 -18
-30 -16 -11 2 -18 1 -16 -4 4 -6 72 -7 86 -1 3 1 8 2 11 2 4 -1 6 6 5 16 0 10
5 16 14 14 8 -2 11 0 7 4 -11 12 -36 13 -43 3z m8 -16 c-12 -21 -43 -27 -35
-6 4 10 8 11 13 3 5 -8 9 -7 13 4 4 9 9 16 12 16 3 0 2 -8 -3 -17z"/>
<path d="M4540 4276 c15 -15 39 -16 33 -1 -2 8 -13 13 -24 12 -12 -1 -15 -5
-9 -11z"/>
<path d="M4595 4141 c-3 -5 -2 -12 3 -15 5 -3 9 1 9 9 0 17 -3 19 -12 6z"/>
<path d="M16479 4067 c6 -8 7 -18 3 -22 -4 -5 -1 -5 6 -1 10 6 10 11 1 22 -6
8 -14 14 -16 14 -3 0 0 -6 6 -13z"/>
<path d="M4684 3832 c4 -7 4 -18 -1 -24 -10 -17 -10 -99 0 -89 13 13 17 110 5
117 -7 4 -8 2 -4 -4z"/>
<path d="M17215 3761 c-3 -5 -2 -12 3 -15 5 -3 9 1 9 9 0 17 -3 19 -12 6z"/>
<path d="M4817 3726 c-3 -8 0 -20 8 -26 12 -10 13 -8 10 10 -6 29 -11 34 -18
16z"/>
<path d="M4815 3510 c-4 -6 -10 -8 -14 -5 -5 2 -18 -6 -31 -20 -16 -17 -18
-23 -7 -21 9 1 24 10 35 19 10 9 21 15 24 12 2 -3 5 2 5 10 0 18 -3 19 -12 5z
m-15 -14 c0 -2 -8 -10 -17 -17 -16 -13 -17 -12 -4 4 13 16 21 21 21 13z"/>
<path d="M17496 2552 c-4 -7 -3 -19 3 -51 1 -2 9 3 18 10 15 12 16 12 9 -6 -4
-11 -3 -16 1 -11 4 4 8 18 8 31 1 14 -1 22 -4 20 -2 -3 -10 0 -17 6 -7 5 -15
6 -18 1z m18 -32 c-6 -6 -10 -2 -11 12 -2 16 1 18 10 9 7 -7 8 -14 1 -21z"/>
<path d="M15084 1998 l-19 -23 23 19 c21 18 27 26 19 26 -2 0 -12 -10 -23 -22z"/>
<path d="M15091 1976 c-9 -10 -7 -17 6 -27 16 -12 17 -12 6 2 -10 12 -10 18
-1 27 7 7 9 12 6 12 -3 0 -11 -6 -17 -14z"/>
<path d="M15118 1956 c4 -6 7 -14 8 -18 1 -5 3 -10 4 -13 1 -3 3 -9 4 -14 0
-5 4 -12 9 -15 4 -3 5 -3 2 1 -3 3 0 12 7 20 9 11 8 13 -3 11 -9 -2 -14 5 -13
18 1 11 -5 21 -12 21 -7 0 -10 -5 -6 -11z"/>
<path d="M15179 1965 c-1 -3 -3 -14 -4 -25 -1 -11 -4 -22 -5 -25 -1 -3 -3 -8
-4 -12 -5 -28 -19 -34 -37 -17 -10 9 -16 20 -14 25 3 4 1 10 -4 13 -15 10 -6
-22 12 -42 9 -10 14 -21 11 -24 -5 -5 -7 -14 -13 -48 -1 -3 -5 2 -11 10 -5 9
-5 19 2 27 8 10 6 19 -9 36 -11 12 -19 30 -18 39 2 10 0 20 -4 23 -16 9 -4
-45 13 -64 11 -12 17 -24 14 -26 -3 -3 -17 8 -32 25 -14 17 -26 27 -26 21 0
-5 5 -13 10 -16 6 -4 8 -11 5 -16 -4 -5 -1 -17 5 -26 9 -15 10 -14 4 7 -6 22
-5 23 9 11 9 -7 15 -17 12 -21 -2 -3 2 -16 10 -27 14 -20 49 -25 73 -10 6 5
12 5 12 1 0 -14 48 38 53 57 3 10 1 17 -4 13 -5 -3 -9 -12 -9 -20 0 -8 -5 -12
-11 -9 -7 5 -5 14 5 30 14 21 13 24 -7 41 -22 19 -22 19 -5 -1 14 -17 14 -23
4 -37 -7 -10 -16 -15 -19 -11 -4 3 -2 12 4 19 7 8 6 14 -2 20 -7 4 -9 3 -5 -4
3 -6 2 -13 -3 -16 -5 -3 -7 -19 -6 -36 1 -16 -3 -34 -10 -40 -9 -7 -11 1 -9
33 1 23 3 43 4 45 2 1 4 7 5 12 1 6 4 11 5 13 4 4 7 57 3 57 -1 0 -4 -2 -4 -5z
m-24 -122 c-3 -39 -3 -40 -20 -40 -11 0 -12 4 -4 14 6 7 8 13 5 13 -4 0 -2 9
4 20 14 27 17 25 15 -7z m54 3 c8 -10 8 -16 -2 -24 -10 -9 -13 -6 -13 13 0 29
0 29 15 11z"/>
<path d="M15203 1955 c0 -8 4 -12 9 -9 5 3 6 10 3 15 -9 13 -12 11 -12 -6z"/>
<path d="M15220 1936 c0 -2 8 -10 18 -17 15 -13 16 -12 3 4 -13 16 -21 21 -21
13z"/>
<path d="M14512 1749 c-9 -30 -10 -31 -12 -9 l-2 25 -7 -25 c-4 -14 -12 -24
-17 -23 -5 1 -9 -11 -9 -27 -1 -16 3 -28 9 -27 5 1 13 -9 17 -23 7 -21 8 -19
6 12 -2 20 1 34 5 32 4 -3 8 -19 8 -35 0 -18 4 -28 10 -24 12 7 33 -43 26 -61
-7 -17 20 -39 29 -24 4 6 2 17 -4 24 -7 9 -6 19 5 35 15 21 17 21 34 6 11 -10
20 -12 24 -7 8 13 30 10 48 -6 12 -9 14 -7 13 16 -1 15 -7 38 -14 52 -10 24
-10 23 -7 -10 2 -19 1 -27 -1 -17 -2 9 -8 15 -13 12 -5 -3 -6 -13 -3 -23 5
-14 2 -13 -11 3 -13 14 -16 15 -13 4 3 -9 -1 -16 -8 -16 -7 0 -11 6 -8 13 2 6
-1 15 -8 20 -9 5 -10 2 -6 -12 7 -18 6 -18 -7 -1 -13 17 -14 17 -21 0 -5 -10
-9 -21 -9 -25 -1 -3 -4 -10 -8 -14 -4 -3 -5 3 -3 15 2 14 0 19 -7 15 -7 -4 -8
-2 -4 5 5 7 2 10 -6 9 -7 -2 -13 8 -15 22 l-2 25 8 -25 9 -25 2 25 c2 21 3 22
7 5 11 -43 20 -33 18 19 -1 32 2 53 8 49 5 -3 6 -24 3 -47 -4 -29 -3 -37 4
-26 5 8 10 28 10 44 0 38 13 25 15 -14 1 -30 15 -56 15 -29 0 11 2 11 10 -1 9
-13 10 -13 10 0 0 13 1 13 10 0 8 -12 9 -9 6 10 -2 14 -9 24 -15 22 -7 -1 -11
3 -9 11 2 7 -7 25 -20 41 -12 16 -22 23 -22 15 0 -8 -6 -6 -15 7 -15 19 -15
19 -9 -1 6 -20 5 -20 -10 -1 -12 15 -16 16 -16 5 0 -12 -2 -12 -9 0 -7 11 -12
6 -19 -20z m45 -31 c3 -32 1 -35 -22 -34 -15 1 -30 8 -35 16 -8 13 -10 13 -11
0 -1 -8 -1 -19 0 -23 1 -5 -3 -6 -9 -2 -13 8 6 46 23 42 6 -1 13 8 15 20 5 35
35 21 39 -19z m55 14 c7 -7 13 -20 13 -30 0 -10 6 -16 15 -14 8 2 11 0 7 -4
-16 -17 -34 -11 -33 10 2 24 -12 48 -24 41 -5 -3 -11 -1 -14 4 -9 13 22 7 36
-7z"/>
<path d="M14525 1721 c-13 -27 -13 -29 3 -27 11 2 17 12 17 29 1 34 -1 34 -20
-2z"/>
<path d="M15823 1768 c-6 -8 -6 -24 -2 -38 l8 -25 -2 25 c-1 14 2 31 6 38 5 6
6 12 4 12 -3 0 -9 -6 -14 -12z"/>
<path d="M15902 1740 c14 -19 24 -43 22 -53 -2 -15 0 -16 12 -6 10 8 11 15 4
24 -5 6 -6 15 -2 19 4 4 2 6 -4 4 -6 -1 -21 8 -34 22 -19 21 -19 20 2 -10z"/>
<path d="M15830 1684 c0 -6 7 -19 16 -30 14 -18 14 -18 3 6 -14 31 -19 36 -19
24z"/>
</g>
</svg>
