<svg width="50" height="50" viewBox="0 0 50 50" fill="none" xmlns="http://www.w3.org/2000/svg">
<g clip-path="url(#clip0_226_431)">
<path d="M25 -1.52588e-05C19.2006 0.00715166 13.6408 2.31413 9.53995 6.41494C5.43915 10.5157 3.13217 16.0756 3.125 21.875C3.125 27.7625 7.70833 35.9708 16.7521 46.2687C17.7834 47.4407 19.0526 48.3795 20.4752 49.0226C21.8977 49.6656 23.4409 49.9983 25.0021 49.9983C26.5632 49.9983 28.1065 49.6656 29.529 49.0226C30.9515 48.3795 32.2207 47.4407 33.2521 46.2687C42.2917 35.9729 46.875 27.7646 46.875 21.875C46.8678 16.0756 44.5609 10.5157 40.46 6.41494C36.3592 2.31413 30.7994 0.00715166 25 -1.52588e-05V-1.52588e-05ZM28.5542 42.1479C28.0999 42.6363 27.5498 43.0258 26.9383 43.2921C26.3268 43.5584 25.667 43.6959 25 43.6959C24.333 43.6959 23.6732 43.5584 23.0617 43.2921C22.4502 43.0258 21.9001 42.6363 21.4458 42.1479C13.7729 33.4083 9.3625 26.0187 9.3625 21.8771C9.3625 17.7331 11.0087 13.7588 13.939 10.8285C16.8692 7.89827 20.8435 6.25207 24.9875 6.25207C29.1315 6.25207 33.1058 7.89827 36.036 10.8285C38.9663 13.7588 40.6125 17.7331 40.6125 21.8771C40.625 26.0187 36.2271 33.4083 28.5542 42.1479Z" fill="#379C35"/>
<path d="M24.9997 12.6155C23.202 12.6155 21.4446 13.1486 19.9498 14.1474C18.4551 15.1462 17.29 16.5658 16.6021 18.2267C15.9141 19.8876 15.7341 21.7152 16.0848 23.4784C16.4355 25.2416 17.3012 26.8612 18.5724 28.1324C19.8436 29.4036 21.4632 30.2693 23.2265 30.62C24.9897 30.9708 26.8173 30.7908 28.4782 30.1028C30.1391 29.4148 31.5587 28.2498 32.5575 26.755C33.5562 25.2602 34.0893 23.5029 34.0893 21.7051C34.0866 19.2952 33.128 16.9849 31.424 15.2808C29.72 13.5768 27.4096 12.6183 24.9997 12.6155V12.6155ZM24.9997 24.5447C24.4381 24.5447 23.8891 24.3782 23.4222 24.0661C22.9552 23.7541 22.5912 23.3106 22.3763 22.7918C22.1614 22.2729 22.1052 21.702 22.2147 21.1511C22.3243 20.6003 22.5947 20.0943 22.9919 19.6972C23.389 19.3001 23.8949 19.0297 24.4458 18.9201C24.9966 18.8105 25.5675 18.8668 26.0864 19.0817C26.6053 19.2966 27.0488 19.6606 27.3608 20.1275C27.6728 20.5945 27.8393 21.1435 27.8393 21.7051C27.8388 22.458 27.5394 23.18 27.007 23.7124C26.4746 24.2448 25.7527 24.5441 24.9997 24.5447V24.5447Z" fill="#379C35"/>
</g>
<defs>
<clipPath id="clip0_226_431">
<rect width="50" height="50" fill="white"/>
</clipPath>
</defs>
</svg>
