<svg width="18" height="19" viewBox="0 0 18 19" fill="none" xmlns="http://www.w3.org/2000/svg">
<g clip-path="url(#clip0_41_170)">
<path d="M5.58886 11.0133C2.39295 11.3022 -0.0418823 14.0027 0.00054609 17.2113V17.374C0.00054609 17.9952 0.504168 18.4989 1.12541 18.4989C1.74665 18.4989 2.25027 17.9952 2.25027 17.374V17.1663C2.21645 15.1962 3.67034 13.5162 5.62485 13.2668C7.68803 13.0622 9.52644 14.5689 9.73102 16.632C9.74311 16.754 9.74923 16.8765 9.74934 16.9991V17.374C9.74934 17.9953 10.253 18.4989 10.8742 18.4989C11.4954 18.4989 11.9991 17.9953 11.9991 17.374V16.9991C11.9954 13.682 9.30343 10.996 5.98643 10.9997C5.85376 10.9998 5.72117 11.0044 5.58886 11.0133Z" fill="#379C35"/>
<path d="M5.99993 9.49981C8.48489 9.49981 10.4994 7.48532 10.4994 5.00036C10.4994 2.5154 8.48489 0.500916 5.99993 0.500916C3.51497 0.500916 1.50049 2.5154 1.50049 5.00036C1.50298 7.48434 3.51599 9.49735 5.99993 9.49981ZM5.99993 2.75064C7.24241 2.75064 8.24966 3.75788 8.24966 5.00036C8.24966 6.24284 7.24241 7.25008 5.99993 7.25008C4.75745 7.25008 3.75021 6.24284 3.75021 5.00036C3.75021 3.75788 4.75745 2.75064 5.99993 2.75064Z" fill="#379C35"/>
<path d="M16.4987 6.40631C15.6299 6.44958 14.9594 7.18707 14.9989 8.0561C15.0384 7.18707 14.3679 6.44958 13.499 6.40631C12.6302 6.44958 11.9597 7.18707 11.9992 8.0561C11.9992 9.35345 13.691 10.8735 14.5339 11.5499C14.8057 11.7675 15.192 11.7675 15.4638 11.5499C16.3067 10.875 17.9985 9.35345 17.9985 8.0561C18.038 7.18707 17.3676 6.44962 16.4987 6.40631Z" fill="#379C35"/>
</g>
<defs>
<clipPath id="clip0_41_170">
<rect width="18" height="18" fill="white" transform="translate(0 0.5)"/>
</clipPath>
</defs>
</svg>
