<svg width="376" height="421" viewBox="0 0 376 421" fill="none" xmlns="http://www.w3.org/2000/svg">
<g clip-path="url(#clip0_10_557)">
<path fill-rule="evenodd" clip-rule="evenodd" d="M283.386 355.33L262.654 415.3L3.11991 330.3L47.4884 204.246L96.3336 60.6455L115.345 4.53398L187.675 26.6964L251.368 50.8769L326.222 73.4315L372.76 89.2752L309.521 276.353L283.386 355.33Z" fill="white"/>
<path fill-rule="evenodd" clip-rule="evenodd" d="M5.59145 328.793C5.45187 328.039 7.55892 323.06 7.97973 321.789C8.73428 319.509 9.51281 317.058 10.3843 314.817C12.1499 310.282 13.4309 305.3 15.3738 300.948C17.2666 296.715 18.7581 291.538 20.3908 287.062C21.4378 284.192 24.8382 275.452 25.4422 273.365C26.8292 268.602 28.7587 264.078 30.2855 259.432C34.7836 245.725 40.1614 231.353 44.7113 217.603C47.8634 208.078 51.2215 198.519 54.325 189.059C55.834 184.45 57.5408 179.782 59.1542 175.397C60.8418 170.82 62.423 165.829 63.9676 161.178C70.1799 142.471 77.0955 124.007 83.3513 105.119C85.2135 99.4921 89.1101 89.0891 90.5444 83.7094L95.4471 69.4662C97.9265 63.3458 100.204 55.4342 102.709 48.8951L104.93 42.1975C108.356 31.8281 111.653 20.9671 115.182 10.7289C115.513 9.76254 115.82 7.82092 116.67 7.70223C116.715 7.69564 129.222 11.5748 130.748 11.9609C134.205 12.8346 141.347 14.825 144.707 15.9424C149.475 17.5257 154.066 19.1208 158.836 20.6992C161.224 21.4892 163.443 22.1319 165.862 22.943L179.816 27.7229C182.101 28.4466 184.51 29.0873 186.84 29.9716C189.011 30.7929 191.378 31.8897 193.561 32.612C195.945 33.3955 198.332 34.1856 200.719 34.9756C205.353 36.5089 210.003 38.3505 214.619 39.9049C219.354 41.5046 224.093 43.0133 228.719 44.7495C233.325 46.4792 237.869 48.0208 242.503 49.5541C247.351 51.1583 252.074 52.4512 256.881 54.0637C258.059 54.4587 259.163 54.6673 260.348 55.0705L270.958 58.4733C280.519 61.6642 290.05 64.6183 299.607 67.7865C302.063 68.5991 304.385 69.1458 306.835 69.9243C311.954 71.5588 315.073 73.0613 320.693 74.5049C323.175 75.1421 325.33 76.0284 327.669 76.8997C329.868 77.7193 332.148 78.3441 334.522 79.1731C336.742 79.9456 339.098 80.8493 341.469 81.6394C343.781 82.4101 346.277 83.0684 348.515 83.8036C350.914 84.592 353.277 85.3902 355.667 86.1704C357.847 86.8863 360.335 87.9098 362.612 88.4144C363.532 88.6218 369.12 90.114 369.442 90.5288C369.759 90.9419 369.416 91.5042 369.189 92.1263L367.371 97.3088C365.09 104.219 362.421 111.206 360.075 118.36C358.514 123.109 356.731 127.697 355.169 132.435C348.929 151.306 342.688 170.15 336.39 189.18C330.988 205.507 325.204 222.037 319.773 238.381C319.053 240.559 317.909 243.132 317.349 245.347C316.34 249.311 313.889 254.873 312.599 259.311C309.569 269.725 304.558 283.349 300.988 294.135L297.462 305.034C297.063 306.242 296.602 307.371 296.201 308.584C293.908 315.529 291.363 322.779 289.202 329.734L282.304 351.085C281.572 353.297 280.888 356.098 280.136 358.076C279.317 360.227 278.68 362.805 277.896 365.157C277.133 367.462 276.115 369.903 275.435 372.105C274.743 374.341 273.957 376.8 273.188 379.14C272.46 381.354 271.597 383.425 270.896 385.82C269.528 390.476 268.037 395.21 266.488 399.892L262.929 410.125C262.708 410.825 262.121 412.907 261.507 413.147L245.489 408.381C243.227 407.438 239.843 406.151 237.459 405.546C236.082 405.198 234.825 404.733 233.42 404.404C229.191 403.415 226.425 401.597 221.587 400.418C220.297 400.104 218.866 399.706 217.508 399.252C214.377 398.194 214.897 397.701 209.895 396.629C207.558 396.126 200.586 393.56 197.872 392.678C196.491 392.226 195.406 391.618 194.084 391.17C190.045 389.801 185.664 388.567 181.834 387.203C179.193 386.264 176.431 385.253 173.694 384.342C171.844 383.724 167.121 382.561 165.868 382C163.357 380.883 156.839 378.64 153.86 377.843C150.976 377.067 144.991 374.848 141.809 373.796C140.367 373.318 139.062 373.113 137.72 372.675L129.795 369.949C128.408 369.582 127.05 369.047 125.678 368.619C124.281 368.184 122.967 368.041 121.578 367.517L109.614 363.223C101.632 360.587 93.1019 358.072 85.306 355.265C80.4044 353.497 74.6095 351.455 69.4118 350.14C66.6092 349.429 64.2308 348.253 61.4023 347.587C58.8044 346.976 56.0219 345.812 53.3427 345.136C51.2464 344.61 39.6291 340.528 37.2626 339.609C31.9708 337.55 26.1601 336.422 20.9476 334.254C18.4769 333.225 15.445 332.26 12.8338 331.525C12.1014 331.321 11.4483 331.007 10.7614 330.796C10.0793 330.587 9.3975 330.475 8.782 330.276C7.98781 329.997 5.86416 329.57 5.59145 328.793ZM369.812 103.246C370.578 100.932 371.3 98.571 372.21 96.31C372.61 95.3126 372.952 94.0688 373.415 93.0438C374.124 91.4729 374.981 89.8319 375.169 88.1372C373.602 86.8781 363.964 84.3754 361.312 83.5356L342.773 77.6491C339.507 76.6224 337.099 75.4203 333.142 74.2945C330.593 73.5697 328.276 72.5166 326.04 71.7766C323.048 70.7866 316.041 68.7976 314.207 68.0826C307.959 65.6473 304.047 64.7258 297.487 62.6628L258.428 50.3374C253.486 48.5127 248.535 47.3014 243.439 45.6961L233.65 42.2947C231.18 41.4448 227.681 39.8815 225.266 39.1743C220.58 37.8017 216.85 36.2162 212.353 34.7443C208.482 33.4738 204.663 31.8641 200.833 30.5968L194.582 28.512C190.642 27.0892 188.273 25.9324 183.972 24.6223C178.099 22.8304 174.673 21.7668 168.658 19.4575C166.141 18.4892 163.52 17.9139 161.016 17.0852C156.631 15.6341 151.942 13.8608 147.663 12.4987C142.326 10.803 135.765 9.08567 130.309 7.71807C128.388 7.23375 126.33 6.44464 124.415 5.811L115.577 3.04858C114.184 2.58746 113.926 2.63183 113.51 3.88884C111.693 9.31481 109.695 14.4864 107.996 19.9137L95.246 58.3288C92.9582 65.2424 88.6173 75.8767 86.8958 82.0101C86.2516 84.2997 85.8878 84.9091 85.5108 86.179L74.7159 117.803C72.6364 124.985 69.6071 132.016 67.258 139.131C65.1572 145.495 62.1492 153.344 60.3153 159.31C59.039 163.461 57.8626 166.51 56.555 170.461L52.7569 181.432C50.7641 187.454 47.0282 197.158 45.3274 203.098L36.0642 230.11C34.4626 235.424 31.7277 242.724 29.8262 248.209L22.6735 268.811C19.7499 277.433 16.5832 285.418 13.6919 293.943C12.318 297.996 10.4586 301.932 9.07201 306.123C8.36098 308.271 7.59138 310.352 6.87874 312.505C5.47121 316.759 3.45529 321.854 2.09125 325.959L0.365052 331.437C0.803233 332.188 0.975295 332.207 2.06987 332.558C2.84289 332.803 3.56092 333.133 4.28199 333.371L8.35147 334.55C14.4556 336.262 22.1908 339.53 29.0322 341.481C34.7823 343.119 39.771 345.342 44.9958 347.18L60.3112 351.832C61.9871 352.337 63.7071 352.955 65.3782 353.508L121.091 371.945C122.397 372.377 123.596 372.607 124.863 373.026L133.034 375.811C136.053 376.961 136.874 376.963 139.364 377.657C142.095 378.42 147.475 380.638 151.087 381.698C152.14 382.009 153.611 382.285 154.586 382.608L162.379 385.522C165.742 386.71 169.149 387.557 172.431 388.599L178.486 390.771C181.844 391.942 189.098 394.034 191.522 395.041C195.19 396.569 206.983 400.542 211.512 401.657C213.241 402.083 215.285 403.111 217.02 403.685L221.094 404.865C225.12 406.062 229.66 407.959 233.599 409.025C237.435 410.062 242.667 412.221 246.835 413.476L256.395 416.05C258.298 416.62 262.65 418.547 264.48 418.569C264.857 418.034 266.865 412.179 267.202 411.047C268.181 407.744 269.281 405.189 270.03 402.729C271.397 398.224 273.693 390.681 275.178 386.421L282.427 365.024C283.499 361.8 284.491 358.28 285.529 355.142C289.212 344.241 292.428 333.51 295.899 322.55L303.711 299.188C305.402 293.899 307.532 288.392 309.262 283.181C310.998 277.934 313.512 269.408 315.298 264.68C316.337 261.932 316.675 260.519 317.615 257.679C318.06 256.334 319.1 254.089 319.401 252.821L353.328 151.016C354.278 148.097 354.873 147.035 355.842 143.307L359.443 133.044C361.03 128.607 364.625 119.46 365.659 115.273L366.389 113.363C367.397 109.956 368.695 106.623 369.812 103.246ZM193.369 333.888C192.861 335.422 192.081 337.224 191.758 338.771C192.515 339.492 192.983 339.463 193.909 339.688C195.419 340.058 195.519 341.145 196.47 338.384C197.051 336.695 197.461 335.912 197.828 334.233C197.137 333.529 197.163 333.775 196.296 333.488C194.951 333.043 193.932 332.187 193.369 333.888ZM225.587 343.165C224.393 344.797 224.08 347.034 223.905 347.463C223.636 348.131 223.328 348.261 223.365 348.965C223.837 349.662 226.275 350.512 227.159 350.194C227.931 349.314 228.454 346.687 228.972 345.351C229.398 344.259 229.383 344.141 228.113 343.747C227.251 343.478 226.364 343.185 225.587 343.165ZM221.91 314.012C219.917 313.352 215.419 311.605 214.164 310.514C213.657 310.07 213.563 310.077 212.862 309.661C210.599 308.317 210.374 306.384 208.877 307.477C208.606 307.674 208.481 307.741 208.237 307.925C206.743 309.042 205.954 309.921 204.641 311.146C202.126 313.487 200.041 316.273 198.346 319.371C197.718 320.515 197.282 321.917 196.75 323.114C195.718 325.432 194.446 328.363 193.627 330.838C193.209 332.099 194.393 331.821 196.973 332.831C198.37 333.38 198.229 332.988 199.602 329.345C200.18 327.811 201.182 323.689 201.951 323.392C202.432 324.518 200.44 328.773 200.176 329.702L197.455 338.218C196.393 341.624 195.791 340.16 202.698 342.613C203.791 343.002 205.247 343.797 206.34 344.072C212.244 345.556 212.771 346.184 218.106 347.966C218.93 348.238 221.545 348.909 222.25 348.888C222.56 348.44 223.264 346.721 223.449 346.047C223.789 344.792 224.156 344.108 224.592 342.906C225.64 339.999 226.609 336.433 227.662 333.76C228.133 332.564 227.845 332.258 228.929 332.282L227.318 337.689C226.932 338.708 225.979 341.262 226.12 342.126C227.215 342.672 227.552 342.518 228.868 342.938C231.01 343.619 230.469 343.294 232.716 336.503C233.801 333.224 235.126 324.926 234.448 321.551L233.272 316.431C232.428 314.163 232.412 313.59 231.028 313.981C228.745 314.625 223.922 314.678 221.91 314.012ZM204.856 287.741L204.128 287.359C201.587 288.978 201.285 290.397 201.855 292.986C202.023 293.755 201.851 293.26 202.279 293.894C203.214 295.268 204.582 296.083 204.55 294.742L204.354 292.591C204.121 289.962 204.747 289.002 204.856 287.741ZM247.46 301.228C246.356 301.279 246.418 301.829 245.94 302.898C244.665 305.769 241.014 308.242 244.318 307.816C246.062 307.593 247.077 307.156 247.888 305.505C248.662 303.95 248.356 302.654 247.46 301.228ZM232.588 269.116C231.755 269.035 231.267 269.058 230.358 268.913C229.335 268.753 225.903 269.158 225.032 269.194C223.68 269.244 222.373 269.65 221.059 269.945C219.033 270.399 214.307 273.018 212.725 274.841C212.359 275.261 212.233 275.267 211.966 275.568C211.703 275.871 211.621 276.152 211.317 276.483C210.978 276.852 210.9 276.81 210.593 277.282C208.358 280.672 205.197 286.188 205.187 290.677C205.184 293.839 205.172 295.705 206.255 298.836C206.763 300.307 207.584 301.909 208.429 303.21C209.209 304.414 210.934 307.19 212.07 307.956C213.547 308.947 215.11 310.254 216.815 310.996C218.185 311.595 220.177 312.779 221.536 313.132C222.517 313.386 225.106 313.616 226.126 313.602C229.198 313.564 231.345 313.172 234.149 312.278C234.867 312.051 235.226 312.013 235.931 311.614C240.15 309.221 243.922 305.809 245.946 301.198C246.301 300.385 246.688 299.967 247.07 298.943C247.39 298.091 247.664 297.133 247.959 296.258C248.459 294.764 249.131 291.916 248.946 290.417C248.853 289.651 249.066 289.824 248.926 288.189C248.891 287.788 248.999 287.429 248.982 287.039C248.967 286.58 248.869 286.645 248.857 286.111C248.848 285.746 248.935 285.386 248.885 284.98C248.649 283.015 247.367 280.045 246.52 278.473C245.662 276.881 244.876 275.794 243.488 274.534C241.65 272.867 242.73 273.948 241.711 273.189C240.887 272.576 241.077 272.542 239.925 271.987C239.057 271.571 238.709 271.12 237.882 270.76C236.838 270.306 233.577 269.216 232.588 269.116ZM205.043 277.931C204.451 279.72 204.065 282.306 204.457 284.225C204.626 285.054 204.416 285.379 205.231 285.578C205.623 285.227 205.812 283.97 206.199 283.374C206.768 282.503 206.942 281.928 207.386 281.026L211.409 274.962C212.013 274.151 214.506 272.171 215.548 271.586L220.353 269.284C221.678 268.809 222.334 268.739 223.483 268.601C224.046 268.533 223.93 268.441 224.63 268.418L226.878 268.205C227.672 268.111 228.436 268.121 229.168 268.049C234.271 267.56 243.914 271.891 246.866 277.312C249.317 281.815 249.998 284.197 249.751 289.634L249.284 294.442C249.022 295.577 247.792 298.884 247.88 299.518C248.732 299.509 250.392 296.436 250.598 295.812C252.054 291.413 251.337 290.803 252.185 288.24C253.175 285.248 253.08 282.693 252.502 279.555C251.405 273.608 250.596 269.945 245.47 265.833C243.441 264.205 239.877 261.874 237.29 261.018C235.088 260.289 228.86 259.817 226.578 259.933C224.994 260.014 223.275 260.602 222.072 261.101C218.497 262.578 217.405 262.789 214.071 265.448C213.456 265.936 212.947 266.46 212.331 266.932C208.158 270.135 208.709 273.404 206.583 275.744C206.13 276.264 205.262 277.269 205.043 277.931ZM191.598 207.874C185.576 226.071 178.931 244.63 172.908 262.832L151.588 326.505C150.071 331.09 150.77 330.186 152.266 330.681C158.171 332.635 164.277 334.569 170.09 336.752C174.817 338.527 179.583 340.688 184.519 341.797C191.954 343.474 199.087 346.272 206.313 348.647C207.701 349.107 209.101 349.418 210.504 349.964C217.128 352.556 224.056 353.951 230.671 356.454C235.706 358.358 242.301 360.465 247.507 362.015L267.074 368.473C267.944 368.426 268.796 364.789 269.12 363.907C270.919 359.026 272.236 354.278 273.858 349.279L279.985 330.814C280.922 327.557 282.253 324.402 283.188 321.133C284.469 316.659 286.652 311.533 287.749 307.107C288.486 304.88 289.464 302.528 290.104 300.285C292.673 291.33 296.49 281.527 299.341 272.438C300.614 268.378 301.784 265.268 303.097 260.794C303.975 257.798 308.011 247.187 308.196 245.221C307.365 244.497 294.556 240.604 291.941 239.717L258.516 228.321C254.75 227.075 251.075 226.107 247.28 224.851C236.186 221.18 224.391 217.455 213.443 213.735C208.069 211.908 201.387 209.313 196.236 207.808C194.954 207.433 194.329 206.972 192.398 206.484C191.849 206.984 191.873 207.041 191.598 207.874ZM75.0963 301.322C76.077 302.279 80.2319 303.183 81.8945 303.566C84.9438 304.267 87.3008 305.295 90.0386 306.023C90.7384 306.211 91.2892 306.475 91.6208 305.963C92.0688 305.279 92.2496 303.344 92.4733 302.488C93.0367 300.345 93.6491 297.612 93.6382 295.603C91.455 295.389 92.3135 296.143 87.8273 295.129C80.4396 293.457 80.1613 290.867 79.1766 292.536C78.3148 294.013 75.3128 300.112 75.0963 301.322ZM56.3813 294.577L61.9216 296.751C63.6516 297.486 65.7799 298.552 67.5547 299.037C69.5492 296.767 69.2765 297.477 71.375 294.549L74.322 291.524C75.0555 290.762 74.6332 290.584 75.7505 290.932C75.448 291.373 75.2199 291.719 74.8979 292.169L69.8009 298.342C69.375 298.747 69.2389 298.848 69.0958 299.493C69.5853 299.941 72.1218 300.656 72.8705 300.909C73.918 301.256 74.0479 300.537 74.3997 299.653C74.7387 298.809 75.0713 298.032 75.4346 297.179C75.7591 296.411 76.2139 295.805 76.592 295.054C77.0024 294.238 77.2831 293.472 77.7537 292.687C79.7798 289.292 79.6292 290.924 71.8069 289.438C69.961 289.087 63.794 288.332 62.4482 288.887C61.1057 289.432 56.4185 293.762 56.3813 294.577ZM97.5501 305.671L97.3626 303.036C97.254 302.335 96.6612 298.376 96.9715 297.798C97.6437 297.955 97.6267 298.35 97.7628 298.984L98.292 301.322C98.348 301.675 98.3191 301.828 98.375 302.149C98.6541 303.625 98.5956 305.844 98.7543 307.177C99.0304 309.512 99.0666 308.994 103.284 310.379C105.03 310.952 110.117 312.797 111.595 312.838C111.44 311.003 110.562 305.506 109.717 304.4C108.842 303.256 100.31 297.935 97.8023 296.235C93.5717 293.37 95.2912 294.512 94.4852 298.516C94.3102 299.388 94.3152 300.206 94.1256 301.056C93.87 302.22 92.7981 305.59 92.8145 306.407C93.1705 307.405 93.7735 307.086 94.5175 307.403L97.4148 308.367C97.9017 307.647 97.56 306.507 97.5501 305.671ZM82.0295 287.248C81.5037 287.236 81.6442 286.925 80.9263 288.915C80.6376 289.722 80.3483 290.286 80.8381 290.864C82.2015 292.462 86.8845 293.681 88.9418 294.178C90.3739 294.523 91.7078 294.461 92.8759 294.329C94.3248 294.165 94.5787 291.487 94.2227 291.223C93.9203 290.993 90.6996 290.565 90.0583 290.413C88.7024 290.083 86.8935 289.603 85.6314 289.072C84.7932 288.714 82.4742 287.26 82.0295 287.248ZM77.6394 251.966C78.0408 250.753 78.4054 250.501 77.5887 250.29C76.3935 249.981 73.5979 252.467 73.5031 255.922C73.4459 257.973 73.1756 256.078 73.5841 258.862C73.5858 258.89 75.3801 264.592 75.9275 258.805C76.1068 256.924 76.9864 253.939 77.6394 251.966ZM116.906 274.836C117.763 275.136 119.54 274.276 120.188 273.82C122.272 272.342 123.873 268.336 122.655 266.236C121.097 263.542 120.903 265.845 120.422 266.94C119.832 268.28 119.312 269.573 118.718 270.977C118.168 272.281 117.148 273.354 116.906 274.836ZM113.354 216.653C109.566 215.88 107.886 215.173 104.139 215.977L96.7079 218.977C95.5767 219.668 92.4925 222.339 91.5571 223.549C91.1865 224.031 91.1076 224.286 90.672 224.753C89.7313 225.766 88.8103 227.602 88.1862 228.687C87.8806 229.219 87.5955 229.427 87.3126 229.955C86.8035 230.906 86.4588 232.111 85.9205 233.116C84.6097 235.575 83.0095 240.018 81.9185 242.825C81.4505 244.027 81.1545 245.232 80.6912 246.37C79.2028 250.019 77.5464 255.498 76.8734 259.459L76.2005 270.215C76.5213 273.689 76.9667 276.264 78.2673 279.602C80.5129 285.378 83.4344 287.021 89.0843 288.831C91.0884 289.472 93.5512 289.92 95.4791 289.893C96.5599 289.878 97.3941 289.889 98.3984 289.778C99.1156 289.702 101.454 288.827 102.182 288.408C102.434 288.265 102.532 288.183 102.752 288.056C104.383 287.098 105.067 286.795 106.625 285.386C110.794 281.609 109.547 283.321 113.23 277.744C114.335 276.072 115.494 274.726 116.635 272.649L119.437 266.468C120.677 263.343 123.251 255.957 124.055 252.726C125.463 247.083 127.985 238.041 127.743 233.004C127.638 230.856 127.343 229.331 126.672 227.585C124.673 222.388 123.027 222.184 119.508 219.257C118.406 218.325 114.868 216.959 113.354 216.653ZM110.799 188.076C109.623 191.628 109.965 190.482 109.211 194.378C108.378 198.659 106.563 202.378 104.361 206.028C103.163 208.015 101.649 210.45 99.8668 211.865C97.5842 211.461 92.1029 207.328 90.0325 206.022C88.4172 205.006 86.7356 204.109 85.1817 202.989C84.7412 202.671 81.4657 200.17 80.9688 200.071C80.5678 199.992 80.894 200.003 80.6053 200.075C79.9296 200.516 81.0778 212.875 81.2769 214.887C81.4544 216.686 81.6299 218.28 81.4973 219.987C81.1026 225.051 82.0857 224.89 75.3909 225.453C73.3335 225.626 67.2684 226.198 65.9774 227.273C66.142 227.625 68.9548 230.021 70.2681 231.721C71.3195 233.085 72.8806 235.31 74.0239 236.412C75.3688 237.706 75.3973 238.11 73.8416 239.168C71.5033 240.762 69.1627 242.069 66.567 243.215C66.22 243.365 66.1909 243.404 65.8617 243.549C65.5132 243.704 65.3882 243.723 65.0413 243.889C63.7443 244.508 62.9591 244.611 64.1903 245.824C65.1563 246.776 65.7366 247.946 66.7821 248.871C68.1447 250.078 69.7944 251.219 70.9967 252.584C71.7157 253.401 71.1218 254.166 70.5302 255.284C69.2405 257.728 65.8138 261.843 65.4978 262.798C68.0042 263.849 70.4591 265.104 73.1041 265.753C73.6594 265.888 73.9475 266.242 74.1541 266.5C74.0089 267.641 73.3438 268.508 72.9352 269.416C72.7075 269.924 72.5105 270.389 72.3087 270.868C71.9857 271.615 71.3566 272.618 72.4947 272.854L75.1065 273.113C75.4327 272.372 74.9782 269.335 75.0487 268.174C75.5567 259.958 74.7791 265.101 72.6231 259.463C71.399 256.269 73.1651 249.707 77.5453 249.016C78.0531 248.935 77.9885 249.065 78.4277 248.784C79.3352 248.197 81.1956 241.759 81.7571 240.258C83.6514 235.171 86.2737 229.076 89.2169 225.05C90.005 223.976 90.5254 222.991 91.4484 222.08C93.1116 220.436 94.7533 218.676 96.8041 217.658C100.072 216.031 102.515 214.791 106.612 214.449C109.031 214.244 112.896 215.177 115.503 216.04C119.931 217.505 124.967 221.058 126.579 224.646C126.801 225.136 127.002 225.461 127.235 225.933C128.064 227.64 128.525 229.549 128.8 231.478C128.988 232.805 128.882 234.792 128.829 236.175C128.724 238.978 125.264 253.304 124.416 255.867C123.937 257.314 122.075 262.352 122.017 263.473C122.101 263.858 125.275 266.125 123.961 270.095C122.899 273.306 121.405 275.19 118.281 275.924C114.818 276.735 116.07 275.484 112.906 280.535C112.211 281.64 111.372 282.395 110.613 283.382C109.911 284.295 109.153 284.558 110.363 285.461C110.566 285.615 110.787 285.812 110.933 285.926C112.406 287.013 112.593 282.577 114.355 280.96C115.626 281.251 116.722 282.268 117.846 282.824C118.116 282.956 121.484 284.492 121.868 284.246C122.067 284.118 122.241 277.597 122.345 276.712C122.475 275.582 122.141 274.877 123.072 274.352C124.607 273.487 125.862 273.762 127.799 273.625C129.172 273.528 131.491 273.463 132.626 273.136C132.584 272.495 130.994 270.536 130.534 269.854C128.251 266.428 128.439 266.561 126.998 262.684C126.477 261.284 127.944 261.115 129.41 260.033C130.575 259.175 131.648 258.644 132.832 257.943C135.119 256.587 138.067 256.254 140.612 255.637C141.281 255.475 141.954 255.238 142.602 255.16C143.17 255.094 144.166 254.894 144.516 254.62C144.048 253.925 143.549 253.949 142.573 253.631C139.074 252.49 136.042 250.643 133.725 247.763C131.367 244.826 130.807 244.965 132.846 243.656C133.477 243.253 133.76 243.001 134.266 242.779L138.365 240.309C140.295 239.018 140.586 238.822 142.187 236.795C142.978 235.792 143.663 234.997 144.54 234.309C145.504 233.552 146.412 233.144 147.313 232.659C148.143 232.209 152.69 230.13 153.163 229.632C151.549 228.368 147.87 229.08 146.163 229.126L142.511 229.037C140.388 228.902 132.267 226.636 131.508 224.666L133.114 221.97C134.683 218.992 135.976 215.706 137.529 212.728C138.515 210.843 139.779 208.705 140.64 206.822C141.146 205.719 143.433 201.649 143.211 200.77C142.602 200.844 142.27 201.113 141.776 201.382L140.234 202.023C139.11 202.51 138.261 202.84 137.17 203.344C135.164 204.275 133.161 204.985 131.203 206.051L126.844 208.246C124.883 209.37 121.326 211.231 119.848 212.596C118.812 211.918 119.01 210.995 118.865 209.406C118.658 207.143 117.693 203.326 116.602 201.235C116.404 200.851 116.442 200.933 116.279 200.528L114.357 196.779C113.148 194.259 112.351 191.423 111.933 188.684C111.839 188.085 111.68 187.519 111.381 187.15C111.162 187.37 110.933 187.672 110.799 188.076ZM28.0394 289.333C30.0056 290.465 53.1721 297.953 57.5706 299.706C59.9112 300.637 62.1967 301.588 64.5681 302.54C71.4243 305.296 79.6727 307.242 86.5521 309.518C96.6277 312.852 106.693 316.102 116.818 319.453C121.811 321.105 126.774 322.493 131.699 324.437C133.731 325.239 136.976 326.491 139.1 327.048C143.582 328.223 142.428 328.344 144.022 324.163C145.321 320.761 147.396 313.495 148.711 309.52L161.309 271.713C162.073 269.404 163.001 266.387 163.912 264.191C164.884 261.842 165.474 259.242 166.403 256.874C167.367 254.404 168.143 251.828 168.98 249.299L183.903 204.792C184.016 203.813 183.014 203.838 180.933 203.15L139.594 189.221C134.904 187.664 129.381 186.123 124.957 184.399C121.198 182.934 114.571 181.022 110.372 179.632C105.417 177.992 100.445 176.255 95.6543 174.675C90.6295 173.018 85.5873 171.527 80.5543 169.846C78.0224 169.002 75.4936 168.084 72.9845 167.254C69.3678 166.063 70.2809 165.786 68.4305 170.904C63.0586 185.781 58.1384 200.894 53.1937 215.935C51.6895 220.513 49.8809 225.423 48.2622 230.33C44.9941 240.222 41.2994 250.227 38.0526 260.17C36.7386 264.173 28.0129 287.568 28.0394 289.333ZM181.066 134.32L175.091 151.511C174.423 153.463 172.728 158.162 172.36 159.927C173.135 160.459 174.179 160.702 175.188 161.036C176.23 161.381 176.081 161.245 176.864 158.877L181.691 144.928C182.144 146.256 181.784 147.472 181.418 149.037L179.275 162.145C179.338 162.28 181.274 163.601 182.159 162.889C182.933 162.264 187.139 153.736 188.427 151.427C188.785 150.789 189.178 150.319 189.501 149.62C189.848 148.865 190.187 148.101 190.564 147.502C190.843 148.032 190.716 148.449 190.456 149.331L185.713 163.124C185.275 164.498 185.418 164.426 187.564 165.126C188.346 165.379 189.004 165.743 189.707 165.808C190.211 165.067 191.786 160.193 192.231 158.832C192.618 157.647 193.215 156.612 193.614 155.16C194.818 150.785 196.972 145.584 198.52 141.085C199.52 138.195 199.324 138.508 194.849 137.087C192.233 136.253 192.806 136.005 191.353 138.503C190.42 140.097 187.132 146.766 186.497 147.345C186.256 146.881 186.369 146.621 186.45 146C186.52 145.428 186.565 144.951 186.65 144.417C186.981 142.256 188.321 136.132 187.952 134.847L182.663 132.973C181.528 132.597 181.376 133.385 181.066 134.32ZM183.428 345.404L182.226 345.033C180.781 344.696 181.224 344.091 179.892 346.385L177.295 350.818C176.764 351.821 175.331 354.747 174.7 355.295C174.442 354.361 176.041 346.408 176.292 344.702C176.545 342.991 175.951 343.216 172.378 341.845C168.353 340.302 168.549 339.875 167.836 341.963L161.303 360.954C160.922 362.103 162.164 362.239 163.085 362.608C163.925 362.946 165.312 363.426 166.09 363.543C166.925 362.636 168.473 357.499 169.17 355.622L170.315 351.87C170.552 351.154 170.608 351.081 171.152 351.039C171.265 351.482 170.302 356.758 170.196 357.815C169.36 366.074 168.205 363.995 171.645 365.409C173.905 366.34 173.807 365.216 176.097 361.071L179.618 354.744C180.297 353.476 180.582 354.641 180.979 353.016L176.484 366.307C177.254 367.54 177.459 367.116 179.452 367.906C180.016 368.13 180.771 368.412 181.292 368.406C182.033 368.403 182.044 367.947 182.689 366.209L183.07 365.011C183.958 362.229 188.474 348.825 188.768 347.122C187.667 346.364 184.842 345.802 183.428 345.404ZM224.83 364.5C224.712 366.293 219.644 379.714 219.949 380.734C220.201 381.574 224.475 382.805 224.68 382.824C225.228 382.865 225.118 382.774 225.341 382.621C226.258 381.86 229.435 368.635 230.649 366.323C231.811 366.307 233.715 367.462 234.795 367.122C235.757 366.321 235.524 364.412 236.498 363.382C236.935 363.711 236.69 363.797 236.744 364.599L237.711 376.411C237.981 378.29 237.913 377.154 237.353 379.32C235.557 386.315 233.884 385.702 237.687 387.215C241.889 388.892 240.48 387.939 242.887 381.514C244.036 378.45 243.545 379.737 245.994 376.585C246.316 376.167 246.503 376.077 246.859 375.59C247.909 374.148 252.865 368.761 252.713 368.272C252.559 367.773 250.024 367.15 249.204 366.868C247.455 366.273 247.405 365.035 244.627 369.673C244.28 370.249 243.22 371.834 242.854 372.254C242.533 371.737 242.538 370.971 242.568 370.359C242.61 369.562 242.73 368.985 242.727 368.163C242.73 365.98 243.402 365.061 242.013 364.423C241.103 364.003 238.134 362.929 237.215 362.83C236.313 362.732 223.594 357.961 222.781 358.081C222.088 358.181 221.91 359.241 221.701 359.956C221.535 360.523 220.954 361.936 221 362.221C221.204 363.548 223.771 363.257 224.83 364.5ZM287.89 168.487C287.405 169.364 284.018 179.958 283.2 182.168C282.731 183.44 278.693 194.856 278.975 195.36C279.385 195.804 280.254 195.956 280.941 196.248C283.657 197.401 282.793 196.337 285.271 189.778C285.907 188.102 287.017 183.409 288.035 183.125C288.035 183.844 287.821 184.622 287.863 185.425L287.89 197.088C287.813 198.171 287.765 198.512 288.913 198.897C289.974 199.254 290.58 199.692 291.656 199.724C292.335 198.716 295.808 188.27 296.335 186.515L300.739 173.469C300.858 172.93 300.815 173.078 300.707 172.75C300.261 172.137 297.976 171.495 297.078 171.463C296.452 172.131 293.475 181.633 292.909 183.343C292.454 182.873 292.445 182.017 292.506 181.361C292.582 180.494 292.533 179.905 292.551 179.1C292.582 177.618 292.453 175.965 292.535 174.64C292.579 173.92 292.649 170.603 292.522 170.171C292.27 169.299 288.656 168.427 287.89 168.487ZM161.21 132.544L159.56 137.285C158.947 139.136 160.132 139.117 161.454 138.798C163.412 138.322 164.993 133.526 163.638 131.888C163.371 131.567 162.693 131.132 162.174 131.117C161.424 131.096 161.444 131.838 161.21 132.544ZM148.899 152.12C149.65 152.823 151.732 153.474 152.82 153.731C153.648 153.924 153.847 153.552 154.165 152.706L157.263 143.963C157.549 143.068 157.452 142.739 158.23 142.348C159.396 142.777 158.914 143.207 158.807 144.998C158.74 146.165 157.279 154.093 157.426 154.726C157.61 155.527 158.468 155.595 159.516 155.942L161.426 156.541C161.478 156.547 161.632 156.555 161.681 156.555C162.651 156.547 162.539 154.158 162.767 152.455L163.657 144.311C163.752 143.305 163.733 143.018 164.492 142.62C166.4 141.624 167.375 140.639 168.341 138.65C169.553 136.164 170.331 133.438 169.137 130.87C168.814 130.179 168.727 129.837 168.162 129.374C167.593 128.905 167.266 128.505 166.606 128.162C165.472 127.57 159.029 124.628 158.166 125.358C157.737 125.724 155.425 132.922 155.067 133.971L150.381 147.642C149.9 148.981 149.175 150.617 148.899 152.12ZM124.135 119.778C123.622 121.327 122.097 125.234 122.204 126.399C125.502 128.209 127.842 122.005 126.638 120.071C126.117 119.228 124.62 118.311 124.135 119.778ZM112.292 138.168C111.533 140.463 111.992 140.269 114.368 141.077C116.656 141.855 116.242 142.713 118.689 135.501C119.042 134.45 119.296 133.421 119.739 132.41C120.294 131.14 120.19 130.473 121.259 130.216L121.832 130.708C121.729 132.274 119.87 142.189 120.214 142.768C120.406 143.086 123.06 143.953 123.747 144.18C125.345 144.709 124.914 142.204 125.392 139.584L126.372 131.492C126.428 130.31 126.888 130.587 128.011 129.823C131.805 127.23 133.466 120.79 131.456 117.779C129.897 115.436 125.019 114.232 121.935 113.212C120.936 112.881 120.94 113.082 120.19 115.332L113.538 134.942C113.141 136.125 112.658 137.062 112.292 138.168ZM105.461 123.512C104.895 125.222 103.485 129.269 103.268 130.938C102.942 133.458 105.218 134.897 107.07 130.002C108.511 126.186 108.487 126.406 109.525 123.041C110.021 121.443 112.621 115.562 111.067 114.232C108.762 112.263 106.01 121.851 105.461 123.512ZM111.249 109.303C108.116 108.839 106.152 110.61 104.453 113.097C101.9 116.825 97.9833 127.633 98.4409 132.13C98.7892 135.57 99.8141 137.439 103.894 138.146C105.519 138.429 106.657 137.849 107.766 137.227C108.8 136.65 109.824 135.319 110.563 134.131C111.487 132.647 112.054 131.619 112.747 129.886C114.863 124.602 120.54 110.68 111.249 109.303ZM251.987 185.175C252.797 185.962 252.139 186.22 252.729 186.837C253.265 187.392 254.154 187.351 254.776 187.136C255.14 186.526 258.931 174.991 258.947 174.386C257.965 173.579 254.362 172.576 253.065 172.331C252.623 172.963 251.296 175.978 251.721 176.654C252.265 177.656 254.102 176.874 251.947 179.988C249.892 182.963 246.465 181.623 250.608 171.653C251.499 169.515 253.214 163.974 254.405 162.644C255.561 161.356 256.78 161.576 257.041 163.305C257.269 164.803 255.925 166.839 255.878 168.126C256.009 168.645 260.001 170.091 260.54 169.685C260.557 169.669 265.304 160.061 257.814 157.588C252.584 155.863 250.12 160.058 247.571 164.102C245.954 166.669 243.169 175.494 243.264 179.045C243.402 184.231 246.701 187.085 251.201 185.412C251.658 185.239 251.543 185.212 251.987 185.175ZM211.169 360.271C210.655 361.825 210.341 362.527 210.043 364.098C212.888 366.397 215.766 361.538 213.584 360.097C212.753 359.552 211.595 358.985 211.169 360.271ZM200.586 374.937C201.556 375.388 203.074 375.863 204.138 376.226C206.169 376.915 205.827 376.904 207.622 371.498C207.931 370.562 208.2 368.786 208.983 368.413C209.551 368.363 210.511 368.68 210.925 369.142C211.913 370.242 210.313 374.048 209.928 375.391C209.293 377.602 209.24 377.779 211.313 378.525C212.376 378.904 214.303 379.747 215.202 379.612C215.433 379.061 215.449 377.526 215.661 376.574C216.167 374.293 218.598 370.265 215.522 368.058L215.759 367.914C216.876 367.333 218.058 367.535 219.315 365.059C220.21 363.301 220.668 360.922 220.168 359.411C219.081 356.127 213.456 355.336 209.875 353.891C206.576 352.556 207.285 353.174 206.033 356.436C204.336 360.842 202.322 367.419 200.92 372.096C200.55 373.314 200.196 373.992 200.586 374.937ZM144.061 181.099C144.565 181.536 145.832 182.166 146.606 182.163C147.483 181.555 148.477 177.668 148.997 176.262C149.786 174.123 150.475 171.81 151.194 169.637C151.632 170.144 151.261 169.551 151.447 171.061C151.53 171.727 151.388 172.091 151.25 172.753C150.872 174.515 149.425 182.301 149.506 183.068C150.077 183.419 150.764 183.825 151.496 183.754C152.044 183.633 151.831 183.541 152.43 182.598C153.678 180.622 157.95 172.354 158.202 172.113C158.848 172.84 158.256 173.731 157.841 174.74C157.176 176.357 154.559 183.94 154.554 184.755C155.001 185.038 155.6 185.269 156.193 185.47L157.526 185.868C158.062 185.916 157.685 185.91 157.922 185.848C158.544 185.405 159.411 182.378 159.756 181.319L164.886 166.324C165.889 163.278 166.579 164.328 161.469 162.437C160.112 161.933 159.64 163.096 158.674 165.117C158.29 165.92 157.909 166.4 157.544 167.079C156.836 168.385 156.369 170.236 155.119 170.666C155.094 169.76 156.468 163.436 156.661 161.857C156.835 160.417 156.012 160.896 153.393 159.791C150.935 158.756 151.291 159.755 150.527 162.065L147.247 171.553C146.543 173.287 144.183 179.653 144.061 181.099ZM57.828 314.332C61.5249 315.837 62.19 311.997 61.379 310.691C61.2357 310.454 59.2079 308.578 58.7639 310.361C58.4373 311.691 57.6892 313.2 57.828 314.332ZM52.788 310.172C52.0544 312.389 48.2358 323.602 48.2464 324.746C48.4869 324.901 53.0776 326.956 53.6151 326.36L55.846 320.109C56.3487 318.443 56.1811 318.247 57.7158 318.755C60.0739 319.535 58.0626 323.016 57.4364 326.084C56.9755 328.343 57.5528 328.134 60.1156 328.982C60.8659 329.23 62.4641 329.824 63.0288 329.816C63.8033 328.521 62.5601 329.958 63.4234 326.925C64.0854 324.614 65.5652 321.531 64.0446 319.298C63.6164 318.664 63.4173 318.906 63.3262 318.055C67.3786 318.077 69.0461 310.963 66.9265 308.662C64.9663 306.532 64.3095 306.769 61.5318 305.541C60.6172 305.136 55.8912 302.788 55.2662 303.484C54.9926 303.772 53.0428 309.403 52.788 310.172ZM193.488 357.231C192.815 359.262 189.843 366.906 191.528 367.874L192.76 368.25C193.549 367.614 193.715 367.75 194.24 366.556C194.626 365.683 195.023 364.68 195.321 363.794C195.976 361.849 196.551 359.963 197.118 358.102C197.66 356.319 198.739 354.038 196.628 353.507C195.755 353.289 195.174 353.735 194.693 354.554C194.46 354.947 193.641 356.768 193.488 357.231ZM197.27 349.298C194.67 348.773 192.385 348.573 190.188 351.063C188.108 353.429 187.29 355.866 186.262 359.137C185.359 362.011 184.947 365.037 185.574 367.472C186.221 369.978 188.321 371.424 191.706 372.35C198.226 374.129 200.886 367.528 202.341 362.496C203.062 360.005 203.937 356.267 203.291 354.102C202.621 351.847 200.385 349.929 197.27 349.298ZM93.0649 322.344L88.3773 337.686C89.0715 338.251 91.4573 339.094 92.5194 339.446C95.6279 340.474 93.9931 332.738 97.1511 333.47C97.1509 334.124 97.1549 334.439 97.2632 335.01C97.4734 336.155 97.511 340.746 98.1547 341.251C98.5059 341.529 99.6311 341.804 100.12 341.961C101.211 342.322 103.052 343.228 103.964 343.038C104.164 342.84 103.951 343.321 104.197 342.694C104.371 342.249 104.157 341.475 104.025 340.55L103.583 337.917C103.35 336.348 102.152 329.957 102.392 329.231C102.518 328.851 106.015 325.797 106.587 325.294L109.839 322.344C111.141 321.201 109.07 321.008 106.806 320.253C103.846 319.268 104.804 319.526 103.181 320.983C102.15 321.907 99.5992 324.847 98.6689 325.404C98.1421 325.722 98.4037 325.846 98.2764 325.528C98.1589 325.23 100.127 319.676 100.311 319.12C100.681 318 99.7075 317.904 98.806 317.557C94.4888 315.885 95.1492 315.817 94.2253 318.593C93.8093 319.834 93.4616 321.146 93.0649 322.344ZM237.456 169.906C238.13 169.599 238.633 166.02 238.812 165.155C239.019 164.153 240.057 160.885 239.946 160.124C238.581 160.738 237.73 164.061 236.898 165.613C236.054 167.183 234.628 168.959 235.84 169.593C236.352 169.86 237.071 170.119 237.456 169.906ZM230.218 179.003C231.006 178.68 232.294 174.755 233.108 173.878C234.014 173.967 235.663 174.556 236.464 175.01C236.652 175.846 236.158 177.061 235.996 178.088C235.772 179.517 235.39 180.656 235.774 181.08C236.218 181.389 239.391 182.369 239.862 182.384C240.266 181.783 240.832 179.256 240.932 178.349L245.463 157.095C245.895 155.314 246.451 154.287 244.797 153.848C243.415 153.483 241.758 152.594 240.381 152.262C238.784 151.875 238.564 153.342 237.874 154.741C235.193 160.195 231.889 166.064 229.355 171.615C228.802 172.826 226.694 176.307 226.491 177.294C226.321 178.103 227.102 178.242 227.922 178.46C228.774 178.677 229.537 179.2 230.218 179.003ZM265.03 179.166C265.534 179.587 266.231 179.85 267.082 179.926C267.768 179.24 267.712 178.805 268.003 177.647C268.195 176.873 268.417 175.876 268.601 175.023C268.785 174.176 269.617 170.451 269.444 169.88C268.979 170.224 265.153 178.288 265.03 179.166ZM256.915 188.254C260.637 189.486 260.008 189.64 261.655 185.952C261.884 185.439 262.177 184.768 262.461 184.349C263.023 183.518 263.28 183.852 264.663 184.31C267.328 185.192 266.291 184.816 265.193 190.615C265.92 191.245 268.634 192.451 269.747 192.176C269.937 192.045 274.031 171.912 274.456 170.188C274.765 168.944 274.808 167.817 275.112 166.604C275.821 163.742 276.64 164.618 270.299 162.298L269.099 161.971C268.069 162.993 263.569 172.655 262.299 175.17C260.809 178.121 259.504 180.283 258.164 183.467C257.828 184.27 257.172 185.058 256.471 186.718C256.134 187.526 255.93 187.928 256.915 188.254ZM212.441 164.326C211.653 163.751 211.204 163.786 210.193 163.393C209.436 163.099 208.589 162.786 207.992 162.956C207.779 163.107 203.973 171.653 212.136 173.76C212.962 173.974 214.814 173.998 215.43 173.802C216.561 173.441 217.114 173.337 218.044 172.585C219.732 171.225 220.889 169.181 221.392 166.682C222.185 162.717 219.432 157.774 217.989 155.485C217.194 154.228 216.401 150.954 218.588 149.705C219.509 149.177 220.806 149.715 221.068 150.704C221.371 151.847 220.868 152.778 220.714 153.392C220.574 153.946 220.582 153.857 220.779 154.225C221.017 154.584 223.776 155.606 224.328 155.653C225.855 155.791 226.946 148.984 223.859 146.568C216.773 141.012 208.848 150.731 212.93 158.52L213.524 159.959C214.002 161.193 215.76 163.413 216.052 165.52C216.513 168.846 212.739 170.679 211.938 168.084C211.502 166.674 212.156 165.972 212.441 164.326ZM138.019 133.297C136.376 138.262 133.009 147.667 139.411 149.786C140.975 150.303 141.745 150.444 143.372 150.004C144.34 149.741 145.173 149.217 145.945 148.467C147.515 146.943 148.986 144.521 149.773 142.144C150.278 140.619 148.835 140.552 146.667 139.835C146.345 139.728 146.092 139.774 145.818 139.786C145.082 140.851 144.761 142.653 144.027 143.664C143.915 143.822 142.983 144.989 142.866 145.064C142.373 145.409 141.557 145.312 141.155 144.811C140.079 143.471 141.745 138.536 142.557 136.475C143.719 133.518 144.628 130.754 145.95 127.97C147.788 124.097 150.149 125.343 148.748 129.577C148.406 130.61 148.002 131.422 148.163 132.34C148.948 132.73 149.831 132.952 150.663 133.232C152.59 133.876 153.148 135.114 154.049 128.52C154.447 125.619 153.08 122.545 150.024 121.669C146.513 120.664 144.473 122.124 142.536 124.418C140.956 126.301 138.859 130.759 138.019 133.297ZM300.32 193.439L296.686 192.35C295.441 194.149 294 200.548 298.98 202.845C301.325 203.929 303.048 203.834 304.932 203.123C306.155 202.662 308.317 200.588 308.868 198.922C309.91 195.775 310.393 194.297 309.014 190.446C308.41 188.759 307.182 186.769 306.295 185.102C303.073 179.042 310.245 177.02 309.298 182.236C309.201 182.772 309.085 182.863 308.983 183.268C308.832 183.888 308.858 183.729 309.112 184.089C309.374 184.473 312.388 185.508 312.831 185.249C313.408 184.91 315.61 178.779 311.475 175.919C310.054 174.935 308.164 174.326 306.367 174.855C305.726 175.044 305.512 175.005 304.87 175.344C303.006 176.322 301.496 178.303 300.742 180.859C300.111 182.996 300.257 185.624 301.096 187.598L302.439 190.4C303.49 192.845 305.556 195.404 303.663 198.119C302.673 199.543 300.331 199.27 300.331 196.919C300.331 195.692 301.363 193.784 300.32 193.439ZM203.985 170.295C204.662 169.881 205.601 166.538 205.401 166.18C204.532 165.114 200.502 165.023 199.529 163.896C199.39 163.239 201.341 157.392 201.875 156.742C202.758 156.18 205.765 158.527 206.6 157.441C206.922 157.023 207.154 156.078 207.33 155.563C207.636 154.654 208.083 154.153 207.543 153.515C206.786 152.648 204.335 152.886 203.706 151.861C203.463 151.37 204.775 147.685 205.152 146.74C205.675 145.421 206.293 145.955 208.372 146.616L210.8 147.382C210.993 147.435 211.035 147.454 211.235 147.471C211.628 147.51 211.418 147.505 211.636 147.453C212.188 147.041 213.254 143.95 213.032 143.104L203.36 139.838C201.936 139.437 201.799 139.851 201.446 141.065C200.301 144.967 198.612 149.154 197.266 153.222C195.909 157.325 194.428 161.375 192.932 165.519C192.493 166.73 192.295 166.692 194.561 167.441L202.457 170.06C203.141 170.281 203.531 170.458 203.985 170.295ZM88.5273 331.254C89.4963 328.326 89.6854 328.751 86.3383 327.643C83.3273 326.647 83.87 326.934 83.1396 329.141C82.6898 330.501 81.2994 332.954 79.9564 331.034C78.9666 329.614 81.7014 322.265 82.3466 320.446C82.9256 318.794 83.6703 316.446 85.5058 317.189C86.2569 317.794 86.2895 318.61 85.9578 319.825C85.3186 322.165 84.5254 321.621 89.5973 323.3C90.8446 323.712 91.2171 323.371 91.5676 321.119C91.8926 319.059 91.7514 316.807 90.3216 315.279C88.2655 313.08 82.9699 311.522 80.5019 313.181C79.1066 314.114 78.1612 315.207 77.2142 317.056C75.7598 319.883 74.1413 325.655 73.9613 328.715C73.9316 329.246 74.2139 330.696 74.3333 331.135C75.0008 333.594 77.7506 335.38 80.259 335.869C84.1912 336.63 87.181 335.322 88.5273 331.254ZM171.151 190.058C171.261 190.413 171.116 190.409 171.661 190.643C171.901 190.75 172.2 190.762 172.568 190.889C174.779 191.659 174.233 191.559 176.244 185.435L178.433 180.321C178.234 182.737 178.408 185.313 178.307 187.842C178.262 188.957 178.372 190.372 178.336 191.544C178.312 192.417 178.156 192.674 178.988 193.068C179.484 193.302 180.647 193.725 181.15 193.772C182.36 192.973 182.696 190.408 183.293 188.93C184.29 186.471 188.881 172.957 188.991 171.777C188.284 171.3 186.76 170.709 185.951 170.738C185.267 171.512 183.2 178.266 182.666 179.863C181.543 179.075 182.242 179.479 182.211 177.431C182.2 176.503 182.331 175.535 182.248 174.675C182.065 172.874 182.503 171.192 182.11 169.408C181.486 169.072 179.861 168.475 179.189 168.366C178.332 168.228 178.159 168.981 177.61 170.687C176.974 172.66 176.221 174.968 175.424 177.066C174.848 178.627 171.053 189.426 171.151 190.058ZM217.816 196.225C217.448 197.827 215.725 202.544 215.204 204.117C214.915 204.989 216.008 205.086 217.469 205.57C218.566 205.933 218.547 204.78 218.95 203.806C220.224 200.708 220.117 200.165 220.931 197.92L222.162 194.69C222.78 196.056 222.349 197.881 222.384 198.477L222.393 206.177C222.354 207.046 222.478 207.325 223.391 207.637L225.145 208.153C225.812 208.179 225.276 208.197 225.6 208.066C226.16 207.7 229.872 196.073 230.741 193.399C231.26 191.797 232.802 187.626 233.033 186.308C232.489 185.912 231.289 185.617 230.602 185.39C229.471 185.016 229.767 185.822 229.16 187.427C228.639 188.806 226.95 194.106 226.464 194.805C225.789 193.171 226.715 185.407 226.255 184.249C225.951 183.484 225.606 183.742 224.813 183.394C221.427 181.932 222.732 183.002 220.385 188.82L217.816 196.225ZM133.067 164.709C132.713 166.073 132.132 167.454 131.668 168.873C131.349 169.854 129.976 172.335 130.816 172.851C132.905 174.12 134.51 168.911 135.195 167.067C135.734 165.618 136.166 164.085 136.664 162.596C138.262 157.817 135.688 157.933 135.321 158.422C135.25 158.523 134.635 160.265 134.516 160.561C134.13 161.547 133.29 163.858 133.067 164.709ZM129.949 160.704L125.32 173.892C124.788 175.483 125.343 175.164 130.161 176.759C132.363 177.487 134.517 176.843 135.777 175.406C138.592 172.191 139.571 168.186 140.903 164.161C141.426 162.583 141.585 159.862 141.322 158.386C140.696 154.919 136.933 154.301 133.649 153.214C132.422 152.808 132.348 154.027 131.534 156.439C131.079 157.78 130.417 159.291 129.949 160.704ZM209.798 189.939C209.458 190.967 206.217 199.16 208.967 198.772C209.392 198.713 209.918 198.168 210.206 197.755C211.07 196.5 212.634 191.726 213.184 190.064C213.64 188.686 215.812 182.923 213.391 183.246C212.283 183.393 211.834 184.996 211.325 186.141C210.82 187.277 210.195 188.74 209.798 189.939ZM217.243 192.402C218.054 189.952 219.017 186.746 218.691 184.319C218.598 183.634 218.558 182.956 218.256 182.299C218.153 182.071 218.215 182.226 218.1 182.004C216.754 179.44 212.73 178.222 210.078 180.436C206.933 183.061 204.612 190.255 203.829 194.402C203.306 197.175 203.34 199.997 205.698 201.772C207.433 203.081 209.644 203.277 211.075 202.432C214.326 200.513 215.808 196.738 217.243 192.402ZM123.623 153.832C123.073 153.877 123.197 153.469 122.425 155.311C122.128 156.013 121.99 156.692 121.747 157.362C121.342 158.472 120.275 160.632 122.757 159.88C124.998 159.2 126.145 153.612 123.623 153.832ZM120.312 149.071C119.851 149.827 112.714 170.039 112.65 170.704C113.206 171.18 115.217 172.029 116.115 172.078C116.762 171.838 116.732 171.715 117.019 170.815L119.09 165.046C119.236 164.64 119.554 163.416 119.797 163.155C120.226 162.692 120.904 162.997 120.873 163.695C120.852 164.132 120.57 165.017 120.479 165.505C120.355 166.173 120.384 166.658 120.283 167.354C120.107 168.539 119.909 169.695 119.739 170.861C119.506 172.465 118.871 173.158 120.75 173.704C123.993 174.652 122.85 175.771 124.331 165.823C124.523 164.525 124.347 163.553 125.496 162.857C129.007 160.727 131.218 154.437 127.667 151.592C126.697 150.816 121.316 148.846 120.312 149.071ZM91.0681 150.032C90.9048 149.545 91.1669 145.421 91.2056 144.585L91.3378 141.915C91.5005 139.12 91.8635 139.624 88.3362 138.522C87.1666 139.492 84.5317 148.042 83.7244 150.694C83.2249 152.334 80.4256 159.127 80.5019 160.644C81.4507 161.109 81.9948 161.344 83.0759 161.426C84.5697 159.558 86.0557 151.817 87.3549 150.749C87.5767 152.725 87.3483 155.18 87.3757 157.318L87.263 162.217C87.3364 163.138 88.1692 163.284 89.0657 163.581C90.3471 164.005 90.3459 163.453 90.7263 162.271L97.6291 142.408C98.0112 141.253 97.4567 141.491 96.6333 141.219C95.0255 140.687 94.8943 140.038 93.4385 144.486C92.9709 145.899 91.9755 149.365 91.0681 150.032ZM84.4454 131.445C84.8068 131.954 86.1983 132.257 86.8073 132.459C87.9815 132.847 88.0064 133.131 89.0558 132.868L92.6204 122.733C93.1735 121.111 93.4191 121.365 95.3778 122.03C96.2629 122.328 96.8868 122.68 97.4313 122.293C97.8331 121.993 98.8408 118.981 98.663 118.522C98.5176 118.095 98.5972 118.149 98.0758 117.911C94.8349 116.433 94.152 118.089 95.6504 113.822C96.7521 110.689 96.1348 110.447 98.163 110.983C98.5998 111.101 98.9619 111.199 99.4004 111.344C100.336 111.654 101.268 112.038 102.245 112.172C103.013 111.388 104.225 108.216 103.5 107.614C103.178 107.345 99.2025 106.176 98.3873 105.927C92.429 104.102 93.8486 103.128 91.5252 110.149C90.6982 112.664 84.3804 130.645 84.4454 131.445ZM316.72 178.152C316.461 178.591 315.339 181.36 315.321 181.824C315.276 183.053 317.404 182.897 318.4 183.513C319.352 184.099 318.479 186.085 318.12 187.118C317.698 188.33 317.209 189.79 316.803 190.937C315.921 193.456 314.934 196.697 313.95 199.052C313.394 200.371 313.223 201.574 312.665 202.919C312.211 204.012 311.45 205.772 311.829 206.637C312.49 207.056 314.385 207.602 315.228 207.865C316.717 208.331 316.736 207.18 317.134 205.96C317.863 203.726 318.618 201.132 319.495 198.974C320.297 196.99 323.37 186.92 324.355 185.527C327.455 186.061 327.846 187.867 328.811 184.542C329.621 181.751 330.293 182.416 325.635 180.875C323.547 180.179 318.44 178.164 316.72 178.152ZM237.714 194.247C236.893 194.899 235.213 198.998 234.566 200.232C234.112 201.098 233.787 201.688 234.822 202.074C236.602 202.739 236.42 200.348 236.715 198.965C236.99 197.661 237.731 195.355 237.714 194.247ZM232.326 205.432C233.419 205.691 234.241 205.985 235.063 206.505C234.958 207.903 234.294 209.581 234.156 210.946C234.688 211.365 236.159 211.982 236.937 212.163C237.88 212.384 236.361 212.108 237.211 212.2C238.396 212.327 239.092 206.222 239.406 204.948L242.533 189.96C242.395 188.893 240.344 188.603 239.233 188.236C236.555 187.344 237.531 187.288 234.784 192.272C234.184 193.365 233.739 194.661 233.167 195.721C230.773 200.145 229.426 203.251 227.347 207.411C226.788 208.529 226.427 208.837 229.374 209.601C230.689 209.955 230.304 208.325 232.326 205.432ZM188.922 178.403C187.096 183.923 192.924 187.987 191.741 191.563C191.33 192.806 189.986 193.713 188.851 192.602C187.968 191.742 188.971 190.101 188.959 189.075C188.458 188.693 187.196 188.373 186.539 188.155C185.13 187.689 185.065 188.295 184.8 189.683C184.342 192.115 184.555 195.342 187.473 196.308C189.451 196.963 190.706 197.238 192.804 196.224C195.01 195.159 195.555 193.123 196.237 191.062C196.796 189.371 196.01 186.684 195.48 185.541L194.199 183.204C193.774 182.398 193.363 181.694 193.061 180.794C192.114 177.956 194.615 175.741 195.82 177.669C196.442 178.664 195.397 180.221 195.671 180.734C195.918 181.194 198.385 181.81 198.899 181.856C200.745 179.677 200.215 173.977 195.71 173.346C194.005 173.106 192.563 173.575 191.59 174.296C190.255 175.292 189.593 176.376 188.922 178.403ZM284.436 218.471L285.358 218.754C286.187 217.737 287.107 212.441 287.196 210.849C286.725 211.341 284.743 215.469 284.247 216.559C283.864 217.39 283.374 218.119 284.436 218.471ZM276.655 224.978C277.291 225.653 278.675 225.932 279.595 226.107C280.437 225.326 281.028 223.116 281.751 221.977C282.322 221.885 282.473 221.919 283.198 222.196C285.514 223.071 284.539 223.37 284.127 225.807C283.794 227.794 283.25 227.511 286.383 228.548C287.747 228.999 287.515 227.771 287.829 226.675L292.11 206.145C291.215 205.319 289.004 204.733 287.76 204.375C286.685 204.063 286.725 204.611 285.7 206.402C284.643 208.241 283.637 210.676 282.651 212.642C281.585 214.787 276.805 223.692 276.655 224.978ZM256.057 211.312C255.412 212.364 255.044 215.501 255.451 216.625C257.07 221.124 264.994 222.221 266.88 214.332C267.239 212.839 266.726 210.534 266.342 209.407C265.58 207.187 261.82 202.835 264.366 200.742C265.116 200.126 266.186 200.323 266.528 201.252C266.939 202.361 266.261 203.153 266.177 204.158C267.028 204.753 268.493 205.162 269.532 205.241C271.311 203.1 270.615 196.691 265.815 196.692C263.837 196.691 262.606 197.111 261.155 198.555C260.036 199.666 258.96 202.834 259.223 204.424C259.679 207.213 259.616 206.846 260.805 209.218C261.541 210.684 264.278 215.189 261.122 216.264C260.013 216.643 259.22 215.624 259.194 214.739C259.156 213.581 260.145 212.519 259.154 211.904C258.253 211.342 256.786 211.202 256.057 211.312ZM275.208 208.606C274.91 209.507 274.731 209.362 274.757 210.392C277.148 211.859 278.611 208.678 278.577 206.494C278.56 205.353 277.223 204.348 276.504 205.132C276.199 205.463 275.443 207.895 275.208 208.606ZM272.849 202.371C272.114 204.593 271.921 204.702 271.159 207.266L266.977 219.104C266.008 222.081 266.378 221.879 267.969 222.265C268.394 222.368 269.214 223.045 270.232 222.809C271.324 220.981 272.269 215.315 273.452 214.371C274.44 214.439 275.154 214.945 276.257 215.007C277.871 215.098 279.595 214.593 280.565 213.211C282.465 210.51 283.865 206.589 282.211 203.664C281.201 201.881 278.218 201.142 276.62 200.613C273.21 199.485 273.97 198.985 272.849 202.371ZM298.199 223.323C297.703 223.694 297.217 225.441 296.709 226.273C296.295 226.952 296.312 227.179 295.678 227.461C292.675 228.792 295.042 221.526 295.703 219.853C296.728 217.263 297.364 214.965 298.711 212.724C299.387 211.596 300.783 211.545 300.752 213.091C300.728 214.175 299.873 216.222 299.949 216.842C300.267 217.774 302.787 218.489 303.608 218.296C305.036 215.925 305.157 212.046 303.634 210.034C303.273 209.558 302.91 209.313 302.345 208.948C301.272 208.252 299.844 208.158 298.78 208.417C296.386 209.003 295.724 210.449 294.104 212.697C293.306 213.8 291.466 218.527 291.08 220.053C290.377 222.832 289.628 224.67 290.052 227.292C290.837 232.108 296.34 233.692 299.664 228.451C300.005 227.91 301.159 225.583 301.325 225C301.57 224.13 301.027 224.069 300.198 223.8C299.6 223.613 298.825 223.276 298.199 223.323ZM160.619 186.535C160.67 186.644 160.397 186.748 161.422 187.114L165.138 188.414C167.482 189.19 168.404 189.965 169.696 189.539L170.707 186.679C169.967 185.731 169.599 185.815 168.288 185.365C167.19 184.991 166.328 184.851 165.815 184.065L167.586 178.699C169.046 178.777 169.786 179.352 171.163 179.586C171.733 179.153 172.21 177.841 172.421 176.894C172.705 175.61 171.863 175.704 170.623 175.304C169.148 174.827 169.092 174.587 169.536 173.15C169.806 172.283 170.152 170.602 170.702 170.065C172.031 169.3 174.573 171.828 175.793 170.788C176.157 170.422 176.352 169.475 176.569 168.85C176.895 167.915 177.049 167.565 176.118 167.241C174.718 166.751 173.089 166.217 171.662 165.826C166.792 164.501 168.16 163.732 166.275 169.428C165.587 171.524 160.449 185.76 160.619 186.535ZM164.712 157.31C164.996 158.085 168.851 159.031 169.604 158.961C170.424 157.07 176.56 138.889 177.322 136.552C179.241 130.705 179.153 131.952 176.353 131.052C173.162 130.029 174.044 129.305 172.06 135.302C170.554 139.853 168.432 145.513 167.08 149.844C166.675 151.148 166.186 152.235 165.769 153.546C165.501 154.403 164.438 156.7 164.712 157.31ZM306.77 214.591C305.367 218.829 301.618 229.032 300.901 231.817C300.547 233.181 299.772 233.319 303.62 234.414C305.998 235.088 306.3 235.317 308.239 235.943C309.116 236.233 309.483 236.106 309.786 235.271C311.106 231.659 310.815 233.011 306.481 231.274L306.033 231.061C305.79 229.77 306.592 228.522 307.063 227.083L307.752 225.084C311.406 225.574 311.051 227.381 312.323 223.537C313.142 221.062 308.527 222.659 309.33 220.233C309.773 218.893 310.126 217.615 310.707 216.38C312.696 216.628 312.252 216.762 314.511 217.498C315.925 217.961 315.76 217.187 316.187 215.896C316.461 215.068 316.549 215.194 316.594 214.323C315.491 213.309 312.236 212.61 310.511 212.088C307.65 211.212 308.089 210.605 306.77 214.591ZM280.341 165.832C279.723 166.671 276.496 176.944 275.675 179.181L272.014 189.932C271.56 191.501 271.055 191.95 271.38 193.09L274.951 194.223C276.015 194.521 275.902 194.305 276.102 194.16C276.515 193.859 283.13 173.82 284.244 170.454C284.655 169.211 285.7 167.557 284.436 167.063C283.472 166.679 281.214 165.905 280.341 165.832ZM109.564 147.179C108.681 149.849 102.827 165.448 102.438 167.26C103.087 168.075 108.266 169.594 109.572 170.026C111.389 170.627 111.1 170.521 111.848 168.26C112.551 166.136 112.491 167.003 108.874 165.617C107.675 165.155 107.839 165.036 107.744 164.653C107.539 163.867 109.256 159.921 109.701 159.425C111.154 159.381 112.665 160.99 113.395 159.518C113.497 159.308 113.674 158.805 113.763 158.585C114.044 157.9 114.243 157.447 114.21 156.744L111.22 155.49C111.167 154.456 112.106 151.259 112.887 150.63C114.058 150.688 115.301 151.391 116.449 151.695C117.93 152.088 117.981 150.97 118.527 149.318C118.84 148.373 118.22 148.173 117.39 147.904L110.83 145.658C110.023 145.401 109.834 146.366 109.564 147.179ZM65.0974 330.312C65.6582 330.708 69.4917 332.339 70.6561 331.956L73.7736 321.49C74.3802 319.053 76.8178 312.373 76.9427 310.82C76.0018 310.265 74.7353 309.959 73.6309 309.588C70.641 308.577 71.9135 307.885 68.9871 316.695C68.4195 318.394 65.1779 329.284 65.0974 330.312ZM239.617 213.066L246.194 215.162C247.547 215.615 247.912 216.211 248.437 214.623C248.743 213.697 249.001 212.853 248.894 212.099L246.073 211.035C244.282 210.421 244.141 210.666 244.878 208.488L250.204 192.899C250.528 191.936 250.101 191.838 249.069 191.496C245.234 190.227 246.482 191.029 245.071 194.476C243.464 198.404 241.238 206.451 239.64 210.334C239.349 211.032 238.47 212.822 239.617 213.066ZM99.1083 142.038C98.3422 143.487 98.5589 143.127 98.0414 144.69C97.5383 146.211 99.298 145.696 100.671 146.658C100.057 148.99 96.4034 159.392 95.5726 161.723C94.5193 164.677 92.9945 165.005 97.8608 166.161C99.0036 164.815 103.98 148.813 104.69 148.204C105.537 147.636 106.581 148.549 107.57 148.682C108.117 148.106 108.697 146.681 108.818 145.646C108.931 144.699 107.056 144.5 106.218 144.223C104.396 143.62 100.715 142.197 99.1083 142.038ZM203.113 176.44C202.717 177.098 197.416 193.069 196.615 195.49C195.597 198.564 195.295 198.237 197.653 199.017C198.335 199.243 199.063 199.527 199.64 199.448C200.122 199.202 205.683 182.463 206.569 179.783C207.013 178.443 207.763 177.762 206.358 177.27C205.294 176.891 204.053 176.41 203.113 176.44ZM145.345 157.371C143.442 162.19 141.849 167.118 140.14 172.006C139.662 173.448 139.189 174.994 138.638 176.347C137.442 179.292 137.443 179.255 140.552 180.284C142.057 180.782 142.036 179.72 143.216 176.333L145.483 169.482C146.126 167.214 148.043 162.27 148.981 159.402C149.355 158.255 148.347 158.084 146.301 157.406C145.93 157.284 145.64 157.312 145.345 157.371ZM101.828 230.883C105.857 232.216 110.037 233.291 114.142 234.623C116.286 235.316 121.827 237.144 124.147 236.49C124.677 236.341 124.69 236.351 124.847 235.581C124.153 234.968 114.968 231.669 113.897 231.363C110.821 230.48 101.168 227.6 98.9107 226.696C97.4976 226.131 95.6273 225.036 93.6608 225.261C92.3862 227.202 94.3807 227.921 96.1577 228.644C98.1361 229.445 99.8304 230.222 101.828 230.883ZM103.062 226.664L98.8979 225.264C96.6193 224.521 93.0856 222.687 92.194 225.381C91.0622 228.801 95.7529 229.835 97.9246 230.705C102.989 232.732 105.426 233.225 110.717 234.992C113.438 235.903 121.462 238.526 124.183 237.8C125.121 237.548 126.764 236.486 125.999 235.124C125.344 233.967 123.773 233.599 122.284 233.003C119.836 232.02 118.092 231.476 115.739 230.81L114.428 230.279C112.193 229.421 105.67 227.473 103.062 226.664ZM77.5922 149.491L76.7834 152.197C75.9924 155.633 73.5463 158.402 75.51 159.165C75.8933 159.314 75.9435 159.26 76.3593 159.408C78.7013 160.254 78.3562 159.793 79.9234 155.058C80.5232 153.245 81.1199 151.508 81.7716 149.718C82.4121 147.962 82.9063 146.109 83.5516 144.355C84.1534 142.716 84.9055 140.771 85.4762 139.046C85.9647 137.57 84.9779 137.529 83.3263 136.983C81.8111 136.481 81.8153 137.694 81.3118 138.97L77.5922 149.491ZM116.325 238.924C113.563 238.366 112.079 238 109.431 239.583C105.395 241.993 103.349 248.127 105.322 252.472C106.299 254.634 108.145 255.882 110.853 256.552C113.281 257.155 115.998 256.833 117.759 255.891C120.093 254.636 121.214 252.769 122.193 250.347C124.34 245.036 122.058 240.075 116.325 238.924ZM117.147 237.86C113.63 237.151 112.07 236.834 109.285 238.307C104.383 240.902 102.309 247.756 104.203 252.783C105.668 256.668 110.593 258.482 114.691 257.957C118.947 257.414 121.676 255.16 123.351 250.72C124.86 246.716 124.237 242.439 120.885 239.681C119.775 238.773 118.509 238.138 117.147 237.86ZM95.8817 232.337C94.252 232.198 93.6966 232.046 92.2937 232.414C88.8162 233.334 85.892 237.156 85.5153 240.058C85.0955 243.303 84.4796 244.413 85.8843 247.094C87.9686 251.071 94.7233 252.695 98.4416 249.823C100.577 248.172 101.42 246.327 102.298 243.266C102.987 240.872 103.061 238.394 101.981 236.269C101.117 234.567 98.4463 232.558 95.8817 232.337ZM90.2409 251.914C93.3346 252.938 96.2924 252.576 98.3568 251.141C99.2351 250.528 100.26 250.078 101.132 248.767C103.433 245.307 104.596 240.945 103.516 236.988C102.53 233.369 99.6354 232.33 96.5659 231.315C91.304 229.573 86.514 233.626 84.7761 238.96C82.8657 244.814 84.3164 249.954 90.2409 251.914ZM239.845 281.8C238.568 281.528 237.996 281.344 236.885 281.663L235.907 281.94C234.671 282.277 234.378 282.736 233.323 283.49C232.34 284.192 231.296 286.154 230.857 287.48C230.245 289.347 231.397 293.804 233.423 294.999C236.631 296.888 234.202 295.846 237.568 296.36C239.003 296.581 240.284 296.14 241.592 295.486C243.952 294.3 245.483 290.671 245.306 289.277C245.222 288.633 245.296 288.36 245.245 287.814C245.223 287.569 245.035 286.717 244.974 286.459C244.518 284.389 241.927 282.24 239.845 281.8ZM230.957 285.35C230.226 287.557 229.406 289.334 230.359 291.942C232 296.409 235.365 297.804 239.911 297.071C241.955 296.742 244.772 294.387 245.229 292.387C245.742 290.135 246.732 288.284 245.47 285.337C244.633 283.389 242.692 281.92 240.685 281.256C237.435 280.18 235.077 280.903 232.599 283.018C232.26 283.306 231.131 284.824 230.957 285.35ZM220.198 275.979C217.539 275.699 214.187 277.936 213.265 279.631C212.852 280.386 212.361 282.002 212.252 282.918L212.468 285.665C212.888 286.993 212.767 286.769 213.74 288.01C214.972 289.58 217.172 290.789 219.012 290.571C221.324 290.298 223.227 289.955 224.976 288.101C225.991 287.026 226.913 285.628 226.88 284.012C226.853 282.689 226.995 282.472 226.725 281.231C226.063 278.249 223.545 276.335 220.198 275.979ZM221.158 275.264C218.639 275.052 217.963 275.072 215.792 276.272C213.49 277.543 212.441 279.115 211.794 281.787C211.287 283.874 211.284 286.073 212.506 287.753C214.173 290.051 214.609 290.498 218.115 291.258C219.496 291.558 220.672 291.385 221.835 290.992L223.824 289.996C223.852 289.978 223.891 289.958 223.923 289.942L224.119 289.839C224.875 289.403 225.412 288.759 225.967 288.078C226.836 287.003 227.052 286.172 227.515 284.692C228.038 283.028 227.647 281.563 227.247 280.095C227.057 279.411 226.997 279.331 226.624 278.792C225.445 277.11 223.363 275.448 221.158 275.264ZM82.3307 268.99C84.4423 269.861 94.1949 269.467 103.319 273.34C107.271 275.021 107.671 277.013 108.845 276.537C109.076 275.089 105.017 272.654 104.003 272.253C96.8986 269.432 95.6968 269.78 88.857 268.592C87.1394 268.294 85.3249 268.24 83.5492 268.133C82.7637 268.09 82.4957 268.001 82.3307 268.99ZM98.0229 253.571C97.3138 253.623 97.3727 253.837 97.0028 254.66C92.1204 265.478 99.6841 270.473 103.005 257.873C103.385 256.432 104.001 255.598 102.886 254.721C102.056 256.624 101.736 258.735 100.868 260.605C100.251 261.93 99.0853 264.507 97.5163 263.923C95.7995 263.279 96.8786 258.009 97.3087 256.497C97.597 255.479 98.2777 254.32 98.0229 253.571ZM218.387 302.916L227.182 305.578C228.856 306.137 229.377 305.855 228.554 305.156C226.798 303.667 225.84 303.344 223.378 302.568C222.398 302.26 221.508 301.943 220.584 302.092C219.039 302.332 218.898 301.42 218.387 302.916ZM217.094 302.412C217.384 304.082 221.046 304.418 223.298 305.309C224.262 305.693 225.566 306 226.747 306.402C228.191 306.89 228.87 307.223 229.945 306.703C230.197 305.419 229.5 305.01 228.853 304.498C228.389 304.134 228.56 304.174 228.186 303.834C227.69 303.373 226.922 303.178 226.256 302.92C224.554 302.265 225.153 302.366 224.339 301.918C223.487 301.452 223.355 301.917 222.508 301.75C221.568 301.568 221.398 301.183 220.491 301.391C219.288 301.663 218.061 301.154 217.094 302.412ZM105.856 258.503C106.003 259.104 106.046 259.431 106.571 259.919C108.004 261.258 106.971 260.705 109.977 261.7C112.052 262.387 113.925 262.395 115.889 261.818C116.499 261.642 117.101 261.636 117.267 260.874C116.225 260.346 115.238 261.711 111.66 261.04C110.377 260.8 107.984 260.143 107.01 259.199C106.405 258.609 106.917 258.628 105.856 258.503ZM80.3918 272.186C81.4491 272.536 81.7123 272.704 82.8824 272.68L82.9051 271.926C82.1838 271.574 80.9279 271.677 80.092 270.87C78.9568 269.776 78.9523 268.434 79.6683 267.087C80.0998 266.273 80.0129 266.585 80.5833 266.184C81.3108 265.668 82.3856 265.132 82.6444 264.742C82.0766 264.073 80.871 264.906 80.3573 265.25C76.5911 267.728 78.7109 271.63 80.3918 272.186ZM109.775 272.158C109.681 272.754 109.782 272.744 110.067 273.303C110.986 275.099 112.171 277.529 109.704 278.664C108.805 279.075 107.929 278.342 106.964 278.401C106.696 280.875 113.709 280.347 111.603 274.525C111.388 273.919 110.632 271.939 109.775 272.158ZM92.6419 255.277L92.3281 255.032C92.2908 255.015 92.2502 254.99 92.2063 254.976L90.2193 254.707C89.2047 254.572 88.567 254.588 87.7172 254.133C87.3127 253.919 85.6197 253.007 85.4017 252.8C85.0684 252.484 84.4347 251.393 83.7397 251.19C83.2469 253.692 88.1504 255.553 90.1178 255.782C90.6389 255.841 90.9989 255.733 91.4663 255.726C92.2258 255.717 92.3267 255.886 92.6419 255.277ZM116.042 251.36C116.412 251.483 116.737 251.482 117.037 251.489C117.574 250.894 117.529 250.052 117.611 249.15C116.145 248.043 116.954 248.554 116.33 247.99C115.626 248.287 114.85 248.674 114.731 249.456C114.552 250.635 114.757 250.93 116.042 251.36ZM90.9674 242.727C92.0876 242.887 93.2294 242.573 93.277 241.319C93.1753 240.825 92.6812 240.473 92.3558 240.1C91.57 239.191 89.1166 240.12 90.9674 242.727ZM228.092 295.641C227.279 296.415 227.134 296.183 226.233 296.669C225.773 296.376 225.606 296.061 225.244 295.622C224.677 294.932 224.763 294.723 224.159 294.88C224.135 295.38 224.411 295.785 224.67 296.162C226.36 298.635 228.52 296.209 228.554 296.123C228.8 295.264 228.713 294.825 228.442 294.14C228.129 293.339 228.036 293.26 227.333 292.773C226.974 293.53 227.434 293.347 228.092 295.641ZM218.749 283.067C217.69 283.214 217.951 284.776 219.157 284.71C220.064 284.665 220.206 282.863 218.749 283.067ZM239.439 290.509L239.716 289.59C238.075 287.982 236.667 290.948 239.439 290.509Z" fill="black"/>
<path fill-rule="evenodd" clip-rule="evenodd" d="M313.593 143.364C314.398 144.43 314.304 144.172 315.807 144.664C317.475 145.211 319.19 145.368 320.577 144.345C322.277 143.097 323.608 139.305 324.285 137.437C325.848 133.154 329.169 123.479 329.954 119.701C330.34 117.834 330.157 116.131 329.334 115.042C328.563 114.024 325.769 112.846 324.335 112.555C323.444 113.336 323.369 113.906 322.871 115.59C322.56 116.644 321.999 118.274 321.546 119.497C320.566 122.13 319.733 124.957 318.734 127.519L313.593 143.364ZM149.271 99.2622C149.427 98.5786 154.535 90.5603 155.604 88.8815C157.524 85.8734 160.569 81.6538 162.185 78.7616C162.859 77.5576 163.571 76.4363 164.338 75.3765L167.604 70.2947C169.391 67.5238 171.153 64.258 172.94 61.6169C173.704 60.4858 174.363 59.3743 175.091 58.2367C178.672 52.6592 177.249 52.8424 180.659 54.122L189.615 57.2104C195.044 58.5472 194.414 58.555 193.912 62.7999C193.622 65.2771 193.383 68.3335 193.291 70.8004C193.179 73.704 192.452 78.2529 192.256 81.1339L191.413 91.2446C191.353 91.9815 191.127 92.6474 191.137 93.3695C191.142 94.155 191.129 94.4861 190.97 95.3255L190.186 103.396C189.907 106.169 189.534 108.781 189.405 111.506C189.278 114.226 185.398 111.234 181.415 110.267C180.379 110.016 176.049 108.675 175.638 108.252C175.147 107.744 176.577 102.671 176.629 101.272C176.647 100.759 176.757 100.574 176.829 100.062C176.906 99.5365 176.849 99.3987 176.704 99.0696C174.453 98.2435 168.966 96.1684 167.125 95.7862C166.271 96.455 164.025 101.804 162.77 103.848C161.352 103.887 160.863 103.39 159.219 102.916L153.407 101.009C152.099 100.582 149.937 100.207 149.271 99.2622ZM265.116 138.004C264.721 136.781 268.034 128.747 268.558 126.753C269.54 123.002 271.124 119.131 272.333 115.445L280.835 89.9973C281.15 89.031 281.264 87.9175 282.191 87.9593L299.059 93.3901C300.823 93.99 302.672 94.7585 304.515 95.3631C305.514 95.6936 309.62 96.8418 310.176 97.2041C311.234 97.8948 309.688 100.459 309.078 102.484C308.572 104.176 308.145 106.478 307.376 107.937C304.721 108.086 292.533 102.609 291.13 102.977C290.517 103.196 290.351 104.088 290.169 104.654L288.259 110.639C288.467 112.037 301.619 115.222 303.263 116.593C303.131 117.971 301.547 122.252 300.939 124.089C300.79 124.537 300.308 125.994 299.929 126.225C298.992 126.737 293.643 124.572 292.221 124.053C290.778 123.527 285.73 121.581 284.643 121.502C284.251 122.016 281.531 130.332 281.434 131.181C282.525 132.083 284.039 132.13 285.493 132.735C288.441 133.97 291.814 134.935 294.402 135.954C295.634 136.443 297.731 136.591 298.132 137.831C298.132 138.485 296.752 142.034 296.467 143.108C296.064 144.618 295.247 147.137 294.434 148.041C294.006 148.029 277.814 142.676 275.935 141.87C273.924 141.021 265.783 138.667 265.116 138.004ZM339.765 135.613C338.503 138.872 337.302 143.35 335.941 145.748C335.255 146.954 334.715 148.424 333.953 149.453C331.838 152.283 331.698 152.788 328.888 154.696C328.685 154.834 328.347 155.106 328.152 155.22L327.659 155.468C327.632 155.486 327.588 155.504 327.562 155.517C325.116 156.832 320.876 157.018 317.996 156.065L309.215 153.067C306.524 152.393 304.067 151.374 301.319 150.465C297.343 149.149 297.305 149.639 298.237 146.823L313.053 102.313C314.001 99.4483 313.918 98.345 315.73 98.8961L326.576 102.631C328.159 103.269 330.135 104.095 331.699 104.613C335.864 105.991 339.218 107.355 341.61 110.861L342.809 112.987C343.427 114.159 343.646 116.697 343.774 118.091L343.688 120.868C342.93 125.347 341.451 131.252 339.765 135.613ZM251.926 133.514C251.552 133.531 247.176 132.38 246.548 132.172L241.094 130.194C239.419 129.57 239.055 129.757 239.559 128.233L249.013 100.105C249.732 98.0623 250.347 95.6332 251.044 93.5284C252.044 90.0646 253.395 91.1766 247.595 89.0519C246.153 88.526 243.255 88.1022 242.618 86.9724C242.463 86.5265 243.584 83.5461 243.807 82.8737C244.091 82.0162 245.955 76.8385 246.265 76.5733C246.866 76.064 251.166 78.0492 252.717 78.557L276.752 86.3433C277.844 86.7045 278.772 86.6278 278.315 88.0066C277.624 90.0968 275.553 96.9741 274.578 97.765C273.889 97.5587 266.055 94.9824 265.338 95.0099C264.938 95.4993 264.851 95.7948 264.639 96.5353C263.26 101.371 260.723 108.694 258.926 113.813C258.704 114.453 258.146 115.501 258.016 115.993C257.631 117.612 257.47 117.543 257.376 117.928L255.886 122.722C254.943 125.263 252.671 133.204 251.926 133.514ZM207.787 64.667C208.157 63.5464 209.409 64.3064 210.403 64.6353C213.227 65.5753 217.007 66.4857 219.584 67.3386C221.986 68.1335 222.606 68.025 222.528 69.5182L222.238 75.6225C222.241 76.3803 222.03 76.9374 222.044 77.7099L220.909 100.287C221.923 98.6761 224.216 91.1913 224.98 88.8657C226.26 84.9647 227.769 81.1883 229.048 77.3247C231.565 69.8167 229.651 71.2376 236.489 73.1816L243.118 75.2185C243.137 75.6031 243.162 76.0169 243.004 76.4943L232.626 107.105C231.581 110.229 230.585 113.565 229.354 116.601C228.464 118.798 226.977 124.258 226.035 125.044L212.964 120.815C211.819 120.436 211.938 120.157 212.085 119.092C212.213 118.199 212.094 117.873 212.144 117.084C212.223 115.867 212.445 114.216 212.372 112.998C212.318 112.066 212.573 109.745 212.691 108.751C212.83 107.63 212.801 105.853 212.852 104.686L213.66 90.1252C213.604 89.2474 213.822 88.5734 213.668 88.0414C212.701 89.4944 209.373 100.204 208.4 102.866C206.782 107.283 205.238 112.831 203.397 117.282C201.986 117.447 198.005 115.87 196.272 115.292C190.201 113.266 190.702 114.659 192.618 108.741C194.441 103.101 196.497 97.8354 198.314 92.2796C199.207 89.548 200.324 86.2203 201.403 83.5338C202.466 80.891 203.316 77.6369 204.353 74.7801L207.787 64.667ZM125.17 71.8425C124.22 72.0685 125.307 68.9307 125.513 68.1935C125.935 66.6898 126.252 65.373 126.518 63.8664C126.888 61.7834 128.08 58.118 128.643 55.1096C128.933 53.5624 129.378 52.2501 129.73 50.7287L131.647 42.0438C131.758 41.3182 131.893 40.7304 132.078 39.9753C132.453 38.4506 132.385 38.5579 130.626 37.9759C127.771 37.0311 124.283 36.1525 121.764 35.2865L120.882 35.0596C119.9 35.0212 119.847 36.4413 119.74 37.9735C119.659 39.1308 119.193 40.2792 118.988 41.4708C118.796 42.591 118.728 43.547 118.501 44.6884C118.267 45.8541 118.227 47.0032 118.028 48.0293L111.382 84.9885C110.468 88.7945 110.272 87.297 117.952 89.7682C119.105 90.1389 123.028 91.367 123.958 91.3829C124.953 91.3986 125.108 90.3417 125.6 89.4124L129.524 81.5378C129.935 80.5437 130.446 79.8642 130.869 78.9772C131.36 77.9505 131.649 77.3543 132.189 76.4086C132.668 75.5669 133.054 74.6135 133.443 73.7476C134.435 71.5513 136.367 68.3744 137.409 66.0109C138.171 64.2793 139.256 62.4869 140.065 60.6951L136.63 77.5431C136.383 79.2558 134.496 86.5401 133.95 89.1054C133.769 89.9481 133.73 90.8326 133.471 91.7955C133.276 92.5311 132.737 93.8988 133.267 94.5013C133.63 94.9079 144.047 97.9119 145.65 98.4424C146.712 98.7938 147.021 99.0691 147.979 96.9264C148.544 95.6593 149.038 95.0822 149.578 93.9742C150.726 91.5974 156.266 81.5707 157.791 79.1509C158.406 78.1758 158.749 76.9758 159.398 75.9309C160.547 74.0734 161.523 71.9421 162.604 69.9485C162.923 69.3619 163.122 69.2658 163.429 68.6484C163.718 68.0684 163.917 67.5665 164.221 66.9751C164.507 66.4211 164.837 66.0601 165.125 65.5661C165.443 65.012 165.632 64.4907 165.908 63.901C166.393 62.8775 167.034 62.1166 167.551 61.0282C168.454 59.1323 172.152 52.761 172.121 51.5131C171.344 50.8397 162.562 48.2199 162.021 48.041C160.964 47.6911 160.357 47.0254 159.794 48.2876L154.895 59.0725C154.268 60.476 153.828 61.7412 153.175 63.0928C152.863 63.741 152.541 64.2562 152.223 64.9239C151.913 65.5672 151.71 66.2298 151.379 66.9364L147.732 74.5248C147.291 75.4329 146.537 77.7131 146 78.4218C145.609 78.1306 145.496 78.1146 145.791 76.6826C145.942 75.9649 146.098 75.3138 146.257 74.5718C146.559 73.1528 146.762 71.7388 147.045 70.3295C147.586 67.6652 148.413 64.382 148.729 61.7782L151.21 48.9716C151.466 47.8237 151.801 45.9777 151.802 44.8482C150.653 44.1545 143.239 41.8255 141.602 41.2838C140.248 40.8356 140.568 41.239 139.049 44.0985C138.176 45.7395 135.987 50.9018 135.181 52.2083C134.389 53.4921 133.931 54.8433 133.187 56.127C131.766 58.5758 130.614 61.454 129.154 63.9548C128.392 65.2596 127.934 66.4972 127.117 67.7892C126.488 68.7919 125.886 71.2794 125.17 71.8425ZM95.0497 97.9793C94.7938 97.4622 94.91 97.1438 95.0776 96.6209C95.2533 96.0736 95.4469 95.5214 95.6274 94.9757L101.299 76.9219C101.656 76.0562 102.132 74.9759 102.455 74.0989C103.967 69.9394 105.187 66.1376 106.721 61.9586C108.03 58.3968 111.253 50.144 112.188 46.7453C112.467 45.7402 112.684 44.8228 113.092 43.8498C113.858 42.0272 114.615 39.6724 115.278 37.8647C116.072 35.6949 116.686 33.6438 117.406 31.4498C118.032 29.5432 118.465 27.3351 119.075 25.3961C119.405 24.3486 119.692 23.3029 119.973 22.223C120.327 20.8753 120.318 20.3479 121.744 20.5655C124.315 20.9624 137.432 25.2978 140.292 26.2442C144.404 27.605 148.636 28.9136 152.835 30.3083C156.76 31.6127 161.193 32.6741 165.097 34.1879C169.075 35.7259 172.872 37.0581 176.958 38.3021C178.986 38.9193 180.988 39.4197 183.121 40.1632C185.024 40.8309 186.956 41.7729 188.975 42.4355C193.947 44.0703 203.168 46.9325 207.851 48.8227C208.849 49.223 209.97 49.4754 210.935 49.892C214.993 51.6294 213.818 50.8676 216.902 51.9368C217.95 52.2997 218.905 52.567 219.907 52.8391C221.613 53.3012 224.544 54.2118 226.188 54.8476C237.22 59.1145 251.372 63.2627 262.937 67.1601C270.864 69.832 279.788 72.466 287.888 75.1684C291.963 76.5276 295.957 78.0818 299.97 79.1231C304.177 80.2126 308.409 82.1753 312.632 83.3135C315.768 84.1619 321.97 86.1981 325.207 87.2638C327.199 87.9233 329.204 88.8245 331.241 89.5146C333.155 90.1645 335.408 90.8721 337.315 91.6437C339.818 92.6558 346.472 94.5498 349.566 95.5736C351.686 96.275 353.739 97.0625 355.798 97.7169C357.779 98.3455 357.627 97.971 356.13 102.513C354.793 106.569 353.15 110.749 351.81 114.798L347.574 126.619C343.222 138.006 339.234 152.049 335.32 163.879C334.588 166.091 331.996 174.169 331.049 175.526C327.362 174.646 320.409 172.037 316.436 170.728L286.552 160.671C281.611 159.02 276.369 157.48 271.544 155.612C269.224 154.715 266.733 153.945 264.4 153.172C261.92 152.352 259.392 151.364 257.002 150.551C252.443 149.005 247.756 147.584 243.269 146.099C238.377 144.48 233.657 142.669 228.746 141.044L154.089 116.425C151.644 115.616 149.122 114.511 146.685 113.823C144.252 113.137 141.557 112.38 139.165 111.573C134.198 109.902 129.346 108.653 124.318 106.989C117.668 104.788 109.201 102.246 102.251 100.281C101.281 100.009 95.3601 98.1847 95.0497 97.9793ZM172.29 85.9598C172.653 86.3177 178.448 88.668 179.016 88.2286C179.431 87.5283 179.226 86.6929 179.413 85.8519L180.829 77.947C181.055 75.9407 182.623 68.7512 182.361 67.4534L181.046 69.5806C180.113 71.1422 178.282 74.9421 177.236 76.5851C176.751 77.3489 176.48 78.1025 176.019 78.8744L173.499 83.4839C173.057 84.246 172.696 85.1913 172.29 85.9598Z" fill="#E0040B"/>
</g>
<defs>
<clipPath id="clip0_10_557">
<rect width="279.636" height="350" fill="white" transform="translate(109.959) rotate(18.3106)"/>
</clipPath>
</defs>
</svg>
