<svg width="24" height="24" viewBox="0 0 24 24" fill="none" xmlns="http://www.w3.org/2000/svg">
<path d="M16.5 0H7.49998C4.4638 0.00332813 2.00328 2.4638 2 5.49998V18.5C2.00328 21.5362 4.4638 23.9967 7.49998 24H16.5C19.5362 23.9967 21.9967 21.5362 22 18.5V5.49998C21.9967 2.4638 19.5362 0.00332813 16.5 0ZM7.49998 3H16.5C17.8807 3 19 4.11928 19 5.49998V11H5V5.49998C5 4.11928 6.11928 3 7.49998 3ZM16.5 21H7.49998C6.11928 21 5 19.8807 5 18.5V14H19V18.5C19 19.8807 17.8807 21 16.5 21Z" fill="white"/>
<path d="M11.5 6H12.5C13.3284 6 14 6.67158 14 7.5C14 8.32842 13.3284 9 12.5 9H11.5C10.6716 9 10 8.32842 10 7.5C10 6.67158 10.6716 6 11.5 6Z" fill="white"/>
<path d="M11.5 16H12.5C13.3284 16 14 16.6716 14 17.5C14 18.3284 13.3284 19 12.5 19H11.5C10.6716 19 10 18.3284 10 17.5C10 16.6716 10.6716 16 11.5 16Z" fill="white"/>
</svg>
