<svg width="213" height="40" viewBox="0 0 213 40" fill="none" xmlns="http://www.w3.org/2000/svg">
<rect width="40" height="40" rx="20" fill="#0000B2"/>
<circle cx="20" cy="20" r="12" fill="white"/>
<path d="M50.706 28V12.886H54.072V28H50.706ZM48.286 20.168V17.308H56.492V20.168H48.286ZM65.0371 28V21.906C65.0371 21.3487 64.8611 20.9013 64.5091 20.564C64.1718 20.212 63.7391 20.036 63.2111 20.036C62.8444 20.036 62.5218 20.1167 62.2431 20.278C61.9644 20.4247 61.7444 20.6447 61.5831 20.938C61.4218 21.2167 61.3411 21.5393 61.3411 21.906L60.0431 21.268C60.0431 20.432 60.2191 19.6987 60.5711 19.068C60.9231 18.4373 61.4144 17.9533 62.0451 17.616C62.6758 17.264 63.4018 17.088 64.2231 17.088C65.0591 17.088 65.7924 17.264 66.4231 17.616C67.0538 17.9533 67.5378 18.43 67.8751 19.046C68.2271 19.6473 68.4031 20.3513 68.4031 21.158V28H65.0371ZM57.9751 28V12.028H61.3411V28H57.9751ZM75.713 28.242C74.613 28.242 73.6156 28 72.721 27.516C71.841 27.0173 71.1443 26.3427 70.631 25.492C70.1176 24.6413 69.861 23.688 69.861 22.632C69.861 21.576 70.1176 20.63 70.631 19.794C71.1443 18.958 71.841 18.298 72.721 17.814C73.601 17.3153 74.5983 17.066 75.713 17.066C76.8276 17.066 77.825 17.308 78.705 17.792C79.585 18.276 80.2816 18.9433 80.795 19.794C81.3083 20.63 81.565 21.576 81.565 22.632C81.565 23.688 81.3083 24.6413 80.795 25.492C80.2816 26.3427 79.585 27.0173 78.705 27.516C77.825 28 76.8276 28.242 75.713 28.242ZM75.713 25.184C76.197 25.184 76.6223 25.0813 76.989 24.876C77.3556 24.656 77.6343 24.3553 77.825 23.974C78.0303 23.578 78.133 23.1307 78.133 22.632C78.133 22.1333 78.0303 21.7007 77.825 21.334C77.6196 20.9527 77.3336 20.6593 76.967 20.454C76.615 20.234 76.197 20.124 75.713 20.124C75.2436 20.124 74.8256 20.234 74.459 20.454C74.0923 20.6593 73.8063 20.9527 73.601 21.334C73.3956 21.7153 73.293 22.1553 73.293 22.654C73.293 23.138 73.3956 23.578 73.601 23.974C73.8063 24.3553 74.0923 24.656 74.459 24.876C74.8256 25.0813 75.2436 25.184 75.713 25.184ZM83.2407 28V17.308H86.6067V28H83.2407ZM90.0827 28V21.752C90.0827 21.2093 89.9141 20.7913 89.5767 20.498C89.2541 20.19 88.8507 20.036 88.3667 20.036C88.0294 20.036 87.7287 20.1093 87.4647 20.256C87.2007 20.388 86.9881 20.5787 86.8267 20.828C86.6801 21.0773 86.6067 21.3853 86.6067 21.752L85.3087 21.18C85.3087 20.3293 85.4921 19.6033 85.8587 19.002C86.2254 18.386 86.7241 17.9167 87.3547 17.594C87.9854 17.2567 88.6967 17.088 89.4887 17.088C90.2367 17.088 90.9041 17.2567 91.4907 17.594C92.0921 17.9313 92.5687 18.4007 92.9207 19.002C93.2727 19.6033 93.4487 20.322 93.4487 21.158V28H90.0827ZM96.9247 28V21.752C96.9247 21.2093 96.7561 20.7913 96.4187 20.498C96.0961 20.19 95.6927 20.036 95.2087 20.036C94.8714 20.036 94.5707 20.1093 94.3067 20.256C94.0427 20.388 93.8301 20.5787 93.6687 20.828C93.5221 21.0773 93.4487 21.3853 93.4487 21.752L91.5127 21.488C91.5421 20.5787 91.7547 19.8013 92.1507 19.156C92.5614 18.496 93.0967 17.99 93.7567 17.638C94.4314 17.2713 95.1867 17.088 96.0227 17.088C96.8441 17.088 97.5701 17.264 98.2007 17.616C98.8461 17.9533 99.3521 18.4447 99.7187 19.09C100.1 19.7207 100.291 20.4833 100.291 21.378V28H96.9247ZM106.914 28.22C105.931 28.22 105.051 27.978 104.274 27.494C103.511 27.01 102.902 26.35 102.448 25.514C102.008 24.678 101.788 23.7247 101.788 22.654C101.788 21.5833 102.008 20.63 102.448 19.794C102.902 18.958 103.511 18.298 104.274 17.814C105.051 17.33 105.931 17.088 106.914 17.088C107.632 17.088 108.278 17.2273 108.85 17.506C109.436 17.7847 109.913 18.1733 110.28 18.672C110.646 19.156 110.852 19.7133 110.896 20.344V24.964C110.852 25.5947 110.646 26.1593 110.28 26.658C109.928 27.142 109.458 27.5233 108.872 27.802C108.285 28.0807 107.632 28.22 106.914 28.22ZM107.596 25.184C108.314 25.184 108.894 24.9493 109.334 24.48C109.774 23.996 109.994 23.3873 109.994 22.654C109.994 22.1553 109.891 21.7153 109.686 21.334C109.495 20.9527 109.216 20.6593 108.85 20.454C108.498 20.234 108.087 20.124 107.618 20.124C107.148 20.124 106.73 20.234 106.364 20.454C106.012 20.6593 105.726 20.9527 105.506 21.334C105.3 21.7153 105.198 22.1553 105.198 22.654C105.198 23.138 105.3 23.5707 105.506 23.952C105.711 24.3333 105.997 24.634 106.364 24.854C106.73 25.074 107.141 25.184 107.596 25.184ZM109.862 28V25.118L110.368 22.522L109.862 19.926V17.308H113.162V28H109.862ZM119.426 28.264C118.795 28.264 118.172 28.1833 117.556 28.022C116.954 27.8607 116.39 27.6333 115.862 27.34C115.348 27.032 114.908 26.68 114.542 26.284L116.456 24.348C116.808 24.7293 117.226 25.03 117.71 25.25C118.194 25.4553 118.722 25.558 119.294 25.558C119.69 25.558 119.99 25.4993 120.196 25.382C120.416 25.2647 120.526 25.1033 120.526 24.898C120.526 24.634 120.394 24.436 120.13 24.304C119.88 24.1573 119.558 24.0327 119.162 23.93C118.766 23.8127 118.348 23.688 117.908 23.556C117.468 23.424 117.05 23.2407 116.654 23.006C116.258 22.7713 115.935 22.4487 115.686 22.038C115.436 21.6127 115.312 21.0773 115.312 20.432C115.312 19.7427 115.488 19.1487 115.84 18.65C116.192 18.1367 116.69 17.7333 117.336 17.44C117.981 17.1467 118.736 17 119.602 17C120.511 17 121.347 17.1613 122.11 17.484C122.887 17.792 123.518 18.254 124.002 18.87L122.088 20.806C121.75 20.41 121.369 20.1313 120.944 19.97C120.533 19.8087 120.13 19.728 119.734 19.728C119.352 19.728 119.066 19.7867 118.876 19.904C118.685 20.0067 118.59 20.1607 118.59 20.366C118.59 20.586 118.714 20.762 118.964 20.894C119.213 21.026 119.536 21.1433 119.932 21.246C120.328 21.3487 120.746 21.4733 121.186 21.62C121.626 21.7667 122.044 21.9647 122.44 22.214C122.836 22.4633 123.158 22.8007 123.408 23.226C123.657 23.6367 123.782 24.1793 123.782 24.854C123.782 25.8953 123.386 26.724 122.594 27.34C121.816 27.956 120.76 28.264 119.426 28.264ZM131.372 28.22C130.58 28.22 129.861 28.0587 129.216 27.736C128.585 27.3987 128.079 26.9367 127.698 26.35C127.317 25.7633 127.104 25.096 127.06 24.348V21.202C127.104 20.4393 127.317 19.772 127.698 19.2C128.094 18.6133 128.607 18.1587 129.238 17.836C129.883 17.4987 130.595 17.33 131.372 17.33C132.325 17.33 133.183 17.572 133.946 18.056C134.723 18.54 135.332 19.1927 135.772 20.014C136.212 20.8353 136.432 21.7593 136.432 22.786C136.432 23.8127 136.212 24.7367 135.772 25.558C135.332 26.3793 134.723 27.032 133.946 27.516C133.183 27.9853 132.325 28.22 131.372 28.22ZM131.042 26.35C131.702 26.35 132.281 26.196 132.78 25.888C133.279 25.58 133.675 25.162 133.968 24.634C134.261 24.0913 134.408 23.468 134.408 22.764C134.408 22.0747 134.261 21.4587 133.968 20.916C133.675 20.3733 133.279 19.9553 132.78 19.662C132.281 19.354 131.709 19.2 131.064 19.2C130.404 19.2 129.825 19.354 129.326 19.662C128.827 19.9553 128.439 20.3733 128.16 20.916C127.881 21.4587 127.742 22.082 127.742 22.786C127.742 23.4753 127.874 24.0913 128.138 24.634C128.417 25.162 128.805 25.58 129.304 25.888C129.817 26.196 130.397 26.35 131.042 26.35ZM125.872 28V12.292H127.852V20.102L127.478 22.632L127.852 25.184V28H125.872ZM143.121 28.22C142.167 28.22 141.302 27.9853 140.525 27.516C139.747 27.032 139.131 26.3793 138.677 25.558C138.237 24.7367 138.017 23.8127 138.017 22.786C138.017 21.7593 138.237 20.8353 138.677 20.014C139.131 19.1927 139.74 18.54 140.503 18.056C141.28 17.572 142.153 17.33 143.121 17.33C143.913 17.33 144.617 17.4987 145.233 17.836C145.863 18.1587 146.369 18.6133 146.751 19.2C147.132 19.772 147.345 20.4393 147.389 21.202V24.348C147.345 25.096 147.132 25.7633 146.751 26.35C146.384 26.9367 145.885 27.3987 145.255 27.736C144.639 28.0587 143.927 28.22 143.121 28.22ZM143.451 26.35C144.433 26.35 145.225 26.02 145.827 25.36C146.428 24.6853 146.729 23.8273 146.729 22.786C146.729 22.0673 146.589 21.444 146.311 20.916C146.047 20.3733 145.665 19.9553 145.167 19.662C144.668 19.354 144.089 19.2 143.429 19.2C142.769 19.2 142.182 19.354 141.669 19.662C141.17 19.97 140.774 20.3953 140.481 20.938C140.202 21.466 140.063 22.0747 140.063 22.764C140.063 23.468 140.202 24.0913 140.481 24.634C140.774 25.162 141.177 25.58 141.691 25.888C142.204 26.196 142.791 26.35 143.451 26.35ZM146.597 28V25.184L146.971 22.632L146.597 20.102V17.55H148.599V28H146.597ZM151.481 28V17.55H153.461V28H151.481ZM153.461 22.038L152.713 21.708C152.713 20.3733 153.021 19.31 153.637 18.518C154.253 17.726 155.141 17.33 156.299 17.33C156.827 17.33 157.304 17.4253 157.729 17.616C158.155 17.792 158.551 18.0927 158.917 18.518L157.619 19.86C157.399 19.6253 157.157 19.4567 156.893 19.354C156.629 19.2513 156.321 19.2 155.969 19.2C155.236 19.2 154.635 19.4347 154.165 19.904C153.696 20.3733 153.461 21.0847 153.461 22.038ZM164.808 28.22C163.766 28.22 162.828 27.9853 161.992 27.516C161.156 27.032 160.496 26.3793 160.012 25.558C159.528 24.7367 159.286 23.8053 159.286 22.764C159.286 21.7373 159.52 20.8133 159.99 19.992C160.474 19.1707 161.119 18.5253 161.926 18.056C162.747 17.572 163.664 17.33 164.676 17.33C165.644 17.33 166.494 17.55 167.228 17.99C167.976 18.43 168.555 19.0387 168.966 19.816C169.391 20.5933 169.604 21.4733 169.604 22.456C169.604 22.6027 169.596 22.764 169.582 22.94C169.567 23.1013 169.538 23.292 169.494 23.512H160.672V21.862H168.438L167.712 22.5C167.712 21.796 167.587 21.202 167.338 20.718C167.088 20.2193 166.736 19.838 166.282 19.574C165.827 19.2953 165.277 19.156 164.632 19.156C163.957 19.156 163.363 19.3027 162.85 19.596C162.336 19.8893 161.94 20.3 161.662 20.828C161.383 21.356 161.244 21.9793 161.244 22.698C161.244 23.4313 161.39 24.0767 161.684 24.634C161.977 25.1767 162.395 25.602 162.938 25.91C163.48 26.2033 164.104 26.35 164.808 26.35C165.394 26.35 165.93 26.2473 166.414 26.042C166.912 25.8367 167.338 25.5287 167.69 25.118L168.966 26.416C168.467 27.0027 167.851 27.45 167.118 27.758C166.399 28.066 165.629 28.22 164.808 28.22ZM179.155 28V21.906C179.155 21.114 178.905 20.4613 178.407 19.948C177.908 19.4347 177.263 19.178 176.471 19.178C175.943 19.178 175.473 19.2953 175.063 19.53C174.652 19.7647 174.329 20.0873 174.095 20.498C173.86 20.9087 173.743 21.378 173.743 21.906L172.929 21.444C172.929 20.652 173.105 19.948 173.457 19.332C173.809 18.716 174.3 18.232 174.931 17.88C175.561 17.5133 176.273 17.33 177.065 17.33C177.857 17.33 178.553 17.528 179.155 17.924C179.771 18.32 180.255 18.8407 180.607 19.486C180.959 20.1167 181.135 20.7913 181.135 21.51V28H179.155ZM171.763 28V17.55H173.743V28H171.763ZM188.149 32.598C187.079 32.598 186.125 32.4 185.289 32.004C184.468 31.608 183.808 31.0507 183.309 30.332L184.585 29.034C185.011 29.5767 185.517 29.9873 186.103 30.266C186.69 30.5593 187.387 30.706 188.193 30.706C189.264 30.706 190.107 30.42 190.723 29.848C191.354 29.2907 191.669 28.5353 191.669 27.582V24.986L192.021 22.632L191.669 20.3V17.55H193.649V27.582C193.649 28.5793 193.415 29.452 192.945 30.2C192.491 30.948 191.845 31.5347 191.009 31.96C190.188 32.3853 189.235 32.598 188.149 32.598ZM188.149 27.824C187.196 27.824 186.338 27.5967 185.575 27.142C184.827 26.6873 184.233 26.064 183.793 25.272C183.353 24.4653 183.133 23.5633 183.133 22.566C183.133 21.5687 183.353 20.6813 183.793 19.904C184.233 19.112 184.827 18.4887 185.575 18.034C186.338 17.5647 187.196 17.33 188.149 17.33C188.971 17.33 189.697 17.4913 190.327 17.814C190.958 18.1367 191.457 18.5913 191.823 19.178C192.205 19.75 192.41 20.4247 192.439 21.202V23.974C192.395 24.7367 192.183 25.4113 191.801 25.998C191.435 26.57 190.936 27.0173 190.305 27.34C189.675 27.6627 188.956 27.824 188.149 27.824ZM188.545 25.954C189.191 25.954 189.755 25.8147 190.239 25.536C190.738 25.2573 191.119 24.8687 191.383 24.37C191.647 23.8567 191.779 23.2627 191.779 22.588C191.779 21.9133 191.64 21.3267 191.361 20.828C191.097 20.3147 190.723 19.9187 190.239 19.64C189.755 19.3467 189.183 19.2 188.523 19.2C187.863 19.2 187.284 19.3467 186.785 19.64C186.287 19.9187 185.891 20.3147 185.597 20.828C185.319 21.3267 185.179 21.906 185.179 22.566C185.179 23.226 185.319 23.8127 185.597 24.326C185.891 24.8393 186.287 25.2427 186.785 25.536C187.299 25.8147 187.885 25.954 188.545 25.954ZM203.948 28V21.906C203.948 21.114 203.698 20.4613 203.2 19.948C202.701 19.4347 202.056 19.178 201.264 19.178C200.736 19.178 200.266 19.2953 199.856 19.53C199.445 19.7647 199.122 20.0873 198.888 20.498C198.653 20.9087 198.536 21.378 198.536 21.906L197.722 21.444C197.722 20.652 197.898 19.948 198.25 19.332C198.602 18.716 199.093 18.232 199.724 17.88C200.354 17.5133 201.066 17.33 201.858 17.33C202.65 17.33 203.346 17.506 203.948 17.858C204.564 18.21 205.048 18.7013 205.4 19.332C205.752 19.9627 205.928 20.6887 205.928 21.51V28H203.948ZM196.556 28V12.292H198.536V28H196.556ZM208.63 28V17.55H210.61V28H208.63ZM209.62 15.46C209.254 15.46 208.953 15.3427 208.718 15.108C208.484 14.8587 208.366 14.5507 208.366 14.184C208.366 13.832 208.484 13.5387 208.718 13.304C208.953 13.0547 209.254 12.93 209.62 12.93C209.987 12.93 210.288 13.0547 210.522 13.304C210.757 13.5387 210.874 13.832 210.874 14.184C210.874 14.5507 210.757 14.8587 210.522 15.108C210.288 15.3427 209.987 15.46 209.62 15.46Z" fill="black"/>
</svg>
