<?xml version="1.0" standalone="no"?>
<!DOCTYPE svg PUBLIC "-//W3C//DTD SVG 20010904//EN"
 "http://www.w3.org/TR/2001/REC-SVG-20010904/DTD/svg10.dtd">
<svg version="1.0" xmlns="http://www.w3.org/2000/svg"
 width="2000.000000pt" height="956.000000pt" viewBox="0 0 2000.000000 956.000000"
 preserveAspectRatio="xMidYMid meet">

<g transform="translate(0.000000,956.000000) scale(0.100000,-0.100000)"
fill="#000000" stroke="none">
<path d="M0 4780 l0 -4780 10000 0 10000 0 0 4780 0 4780 -10000 0 -10000 0 0
-4780z m9510 3386 c0 -2 -8 -10 -17 -17 -16 -13 -17 -12 -4 4 13 16 21 21 21
13z m-53 -45 c0 -11 -5 -18 -9 -15 -4 3 -5 11 -1 19 7 21 12 19 10 -4z m450
-68 c-3 -10 -5 -2 -5 17 0 19 2 27 5 18 2 -10 2 -26 0 -35z m-462 27 c-3 -5
-12 -10 -18 -10 -7 0 -6 4 3 10 19 12 23 12 15 0z m412 -22 c-3 -8 -6 -5 -6 6
-1 11 2 17 5 13 3 -3 4 -12 1 -19z m28 -8 c3 -5 1 -10 -4 -10 -6 0 -11 5 -11
10 0 6 2 10 4 10 3 0 8 -4 11 -10z m-515 -10 c0 -5 -2 -10 -4 -10 -3 0 -8 5
-11 10 -3 6 -1 10 4 10 6 0 11 -4 11 -10z m22 -21 c-9 -11 -26 -25 -37 -31
-17 -10 -18 -9 -8 4 7 8 10 18 6 22 -4 4 0 4 9 1 9 -4 18 0 21 9 4 9 11 16 17
16 5 0 2 -9 -8 -21z m-68 -58 c3 -5 -2 -15 -12 -22 -15 -12 -16 -12 -5 2 7 9
10 19 6 22 -3 4 -4 7 0 7 3 0 8 -4 11 -9z m546 -60 c0 -11 3 -21 8 -24 4 -2 1
-2 -7 0 -9 2 -11 -2 -7 -13 3 -8 6 -20 6 -25 0 -6 4 -8 10 -4 5 3 5 -7 -1 -25
-6 -16 -15 -28 -19 -25 -4 3 -6 -3 -3 -13 2 -10 -2 -23 -9 -29 -10 -9 -13 -3
-15 32 -1 30 3 45 13 49 8 3 14 13 14 23 0 16 -2 16 -11 3 -9 -12 -10 -12 -5
3 3 10 6 30 6 43 0 13 5 24 10 24 6 0 10 -9 10 -19z m-620 -20 c0 -5 -7 -11
-14 -14 -10 -4 -13 -1 -9 9 6 15 23 19 23 5z m-70 -25 c0 -2 -7 -6 -15 -10 -8
-3 -15 -1 -15 4 0 6 7 10 15 10 8 0 15 -2 15 -4z m-1 -37 c-36 -34 -108 -74
-151 -85 -16 -3 -28 -10 -28 -14 0 -9 -61 -32 -67 -26 -3 2 6 7 19 11 13 4 25
10 28 14 3 3 32 26 65 50 33 25 63 49 66 54 4 5 15 7 25 3 11 -3 30 3 44 14
38 28 37 15 -1 -21z m761 20 c0 -11 -4 -18 -10 -14 -5 3 -7 12 -3 20 7 21 13
19 13 -6z m-13 -50 c-6 -10 -15 -15 -20 -10 -12 12 3 40 18 34 11 -4 12 -9 2
-24z m-7 -60 c0 -4 -4 -11 -10 -14 -5 -3 -10 -17 -10 -30 0 -13 -6 -30 -13
-37 -8 -7 -12 -20 -10 -28 5 -18 -27 -100 -39 -100 -5 0 -8 -9 -8 -21 0 -24
-47 -165 -64 -194 -7 -11 -21 -42 -31 -70 -11 -27 -30 -67 -43 -88 -13 -22
-35 -60 -49 -85 -14 -26 -39 -62 -54 -80 -16 -18 -29 -36 -29 -40 0 -4 -22
-32 -50 -61 -27 -29 -50 -56 -50 -59 0 -3 -39 -45 -87 -93 -49 -49 -87 -91
-85 -94 5 -11 -39 -45 -50 -39 -6 4 -8 3 -5 -3 4 -6 -5 -21 -20 -34 -14 -13
-23 -18 -19 -11 6 10 -74 -41 -119 -75 -5 -5 -22 -14 -37 -22 -17 -9 -24 -19
-21 -29 4 -10 2 -13 -5 -8 -19 11 -54 -4 -48 -20 3 -8 1 -14 -4 -14 -6 0 -10
6 -10 13 -1 8 -5 6 -13 -4 -7 -9 -22 -19 -35 -23 -12 -4 -20 -11 -17 -16 3 -4
-15 -14 -40 -21 -28 -8 -40 -16 -32 -21 7 -5 1 -8 -15 -8 -16 0 -28 -4 -28
-10 0 -5 -8 -7 -17 -3 -10 3 -15 2 -10 -2 7 -8 -44 -35 -67 -35 -9 0 87 63
134 87 50 26 268 178 340 237 208 172 397 396 513 608 44 81 117 263 117 292
0 12 7 34 15 50 8 15 13 31 11 35 -2 3 4 42 14 86 10 44 19 72 19 62 1 -15 5
-16 21 -7 11 6 19 14 18 18 -1 4 2 18 6 31 8 24 9 24 22 6 8 -10 14 -22 14
-26z m-2545 -460 c7 -7 1 -18 -16 -33 -14 -12 -24 -27 -21 -34 3 -9 -8 -7 -32
5 l-36 17 27 13 c16 7 20 11 10 8 -10 -3 -16 -1 -14 3 2 4 7 15 11 26 5 14 12
17 34 11 15 -3 32 -11 37 -16z m3447 -124 c49 -8 96 -48 119 -103 19 -44 26
-112 11 -112 -4 0 -8 -9 -9 -20 -3 -34 -43 -77 -99 -105 -44 -22 -64 -27 -104
-23 -167 16 -230 231 -98 331 34 26 99 48 128 42 8 -2 32 -6 52 -10z m489
-241 c-5 -16 -10 -21 -10 -12 -1 18 10 51 15 45 2 -1 -1 -16 -5 -33z m-954 -9
c79 -33 118 -99 110 -183 -11 -105 -88 -175 -192 -175 -102 0 -185 80 -185
176 0 144 137 236 267 182z m1226 -10 c-3 -9 -8 -14 -10 -11 -3 3 -2 9 2 15 9
16 15 13 8 -4z m-266 -47 c-3 -8 -6 -5 -6 6 -1 11 2 17 5 13 3 -3 4 -12 1 -19z
m300 -75 c-3 -10 -5 -2 -5 17 0 19 2 27 5 18 2 -10 2 -26 0 -35z m-577 -3 c0
-23 -5 -31 -26 -36 -30 -8 -78 11 -68 27 7 12 62 38 82 39 7 0 12 -12 12 -30z
m491 -3 c-10 -9 -11 -8 -5 6 3 10 9 15 12 12 3 -3 0 -11 -7 -18z m-222 -27
c11 -24 11 -24 -3 -6 -9 11 -16 24 -16 30 0 12 5 7 19 -24z m-21 -15 c-3 -3
-9 2 -12 12 -6 14 -5 15 5 6 7 -7 10 -15 7 -18z m-384 -72 c-20 -14 -54 -18
-54 -5 0 4 15 25 33 47 l32 40 3 -35 c3 -24 -2 -38 -14 -47z m609 47 c3 -12 0
-20 -8 -20 -8 0 -11 8 -8 20 3 11 7 20 8 20 1 0 5 -9 8 -20z m-6210 -31 c16
-20 23 -60 11 -71 -10 -10 -64 16 -70 34 -5 18 -34 26 -34 9 0 -4 -11 -6 -25
-3 -31 6 -33 34 -3 54 29 19 96 6 121 -23z m6031 33 c3 -5 -1 -9 -9 -9 -8 0
-12 4 -9 9 3 4 7 8 9 8 2 0 6 -4 9 -8z m-66 -57 c-3 -3 -9 2 -12 12 -6 14 -5
15 5 6 7 -7 10 -15 7 -18z m157 -5 c3 -5 2 -10 -4 -10 -5 0 -13 5 -16 10 -3 6
-2 10 4 10 5 0 13 -4 16 -10z m114 -7 c-7 -10 -14 -19 -15 -21 -1 -2 -4 4 -8
13 -3 9 -2 13 3 10 5 -3 12 -1 16 5 3 5 9 10 12 10 3 0 -1 -8 -8 -17z m-56 0
c-7 -2 -21 -2 -30 0 -10 3 -4 5 12 5 17 0 24 -2 18 -5z m-5887 -34 c33 -17 57
-65 44 -89 -9 -17 -14 -18 -33 -9 -12 6 -30 21 -39 33 -13 16 -20 18 -29 9
-12 -12 -66 -7 -82 7 -13 11 11 50 36 59 26 10 75 5 103 -10z m5858 12 c4 -5
-3 -7 -14 -4 -23 6 -26 13 -6 13 8 0 17 -4 20 -9z m51 -1 c-3 -5 -12 -10 -18
-10 -7 0 -6 4 3 10 19 12 23 12 15 0z m-701 -51 c-9 -11 -30 -19 -47 -19 l-30
0 39 26 c21 15 41 32 44 38 2 6 6 3 8 -7 2 -10 -4 -27 -14 -38z m460 -3 c-3
-21 -8 -35 -11 -32 -2 2 -1 20 3 40 3 21 8 35 11 32 2 -2 1 -20 -3 -40z m233
2 c-3 -8 -6 -5 -6 6 -1 11 2 17 5 13 3 -3 4 -12 1 -19z m-827 -40 c0 -20 -32
-48 -54 -48 -12 1 -32 7 -45 14 -23 13 -23 13 20 24 23 6 46 9 51 6 4 -3 8 0
8 5 0 6 5 11 10 11 6 0 10 -5 10 -12z m449 -12 l25 -14 -42 -21 c-38 -20 -42
-20 -51 -4 -12 22 4 53 27 53 9 -1 28 -7 41 -14z m121 -26 c-7 -4 -9 -14 -5
-21 6 -11 5 -11 -4 -3 -10 10 -10 17 0 35 8 17 14 20 17 10 2 -7 -1 -17 -8
-21z m211 7 c-10 -9 -11 -8 -5 6 3 10 9 15 12 12 3 -3 0 -11 -7 -18z m-6374
-29 c-3 -7 -5 -2 -5 12 0 14 2 19 5 13 2 -7 2 -19 0 -25z m5443 3 c0 -32 -25
-49 -61 -42 -44 9 -46 25 -7 44 45 22 68 21 68 -2z m490 -10 c0 -9 -62 -22
-70 -14 -8 7 24 23 48 23 12 0 22 -4 22 -9z m410 -9 c0 -5 -7 -17 -15 -28 -14
-18 -14 -17 -4 9 12 27 19 34 19 19z m-240 -22 c0 -5 -5 -10 -11 -10 -5 0 -7
5 -4 10 3 6 8 10 11 10 2 0 4 -4 4 -10z m-6113 -52 c-3 -7 -5 -2 -5 12 0 14 2
19 5 13 2 -7 2 -19 0 -25z m5791 -2 c-18 -19 -35 -33 -36 -31 -9 9 11 43 31
53 38 19 40 13 5 -22z m293 11 c-10 -9 -11 -8 -5 6 3 10 9 15 12 12 3 -3 0
-11 -7 -18z m44 13 c3 -5 1 -10 -4 -10 -6 0 -11 5 -11 10 0 6 2 10 4 10 3 0 8
-4 11 -10z m176 -33 c-10 -9 -11 -8 -5 6 3 10 9 15 12 12 3 -3 0 -11 -7 -18z
m2667 16 c-69 -141 -92 -249 -86 -404 l4 -118 -35 21 c-57 34 -82 60 -103 107
-28 61 -16 137 39 261 28 61 54 94 98 121 29 18 90 27 83 12z m-2720 -29 c-7
-15 -14 -21 -16 -15 -2 7 2 18 8 26 18 22 21 18 8 -11z m-158 1 c0 -8 -7 -15
-16 -15 -14 0 -14 3 -4 15 7 8 14 15 16 15 2 0 4 -7 4 -15z m-49 -28 c-10 -9
-11 -8 -5 6 3 10 9 15 12 12 3 -3 0 -11 -7 -18z m228 -16 c-6 -18 -13 -30 -15
-28 -2 2 1 18 7 36 6 18 13 30 15 28 2 -2 -1 -18 -7 -36z m-52 -23 c-3 -7 -5
-2 -5 12 0 14 2 19 5 13 2 -7 2 -19 0 -25z m-497 15 c0 -10 -72 -83 -81 -83
-10 0 7 58 22 76 12 14 59 20 59 7z m289 -34 c-8 -11 -30 -27 -49 -35 -39 -17
-38 -16 15 25 48 36 51 37 34 10z m228 -1 c-3 -8 -6 -5 -6 6 -1 11 2 17 5 13
3 -3 4 -12 1 -19z m-26 -72 c-5 -10 -61 52 -61 67 0 5 15 -6 33 -25 18 -18 30
-37 28 -42z m-1 59 c10 -12 10 -15 -4 -15 -9 0 -16 7 -16 15 0 8 2 15 4 15 2
0 9 -7 16 -15z m-170 -20 c0 -8 -7 -15 -16 -15 -14 0 -14 3 -4 15 7 8 14 15
16 15 2 0 4 -7 4 -15z m240 -11 c0 -8 -4 -14 -8 -14 -4 0 -8 9 -8 19 0 11 4
17 8 15 4 -3 8 -12 8 -20z m-6277 -14 c-3 -11 -7 -20 -9 -20 -2 0 -4 9 -4 20
0 11 4 20 9 20 5 0 7 -9 4 -20z m784 -22 c-3 -7 -5 -2 -5 12 0 14 2 19 5 13 2
-7 2 -19 0 -25z m5143 12 c0 -5 -6 -10 -12 -10 -7 0 -26 -7 -42 -15 -16 -9
-31 -14 -33 -12 -5 6 39 34 62 40 11 2 21 5 23 6 1 0 2 -3 2 -9z m249 -31 c13
-18 19 -29 12 -25 -6 4 -16 4 -22 0 -8 -4 -7 -9 2 -15 11 -7 10 -9 -4 -9 -10
0 -15 -5 -12 -10 3 -6 -1 -18 -11 -27 -16 -16 -16 -16 -8 7 4 14 7 38 7 54 -1
19 2 24 8 15 4 -7 11 -10 15 -6 4 4 -1 16 -11 27 -10 11 -14 20 -8 20 5 0 20
-14 32 -31z m-228 1 c-23 -20 -77 -28 -67 -11 3 5 14 7 24 4 10 -2 24 3 31 11
8 9 19 16 25 16 6 -1 0 -10 -13 -20z m313 -19 c-2 -3 -12 3 -22 13 -16 17 -16
18 5 5 12 -7 20 -15 17 -18z m-454 -27 c0 -16 -23 -44 -36 -44 -4 0 1 9 11 20
9 10 15 26 11 35 -3 9 -2 13 4 10 6 -3 10 -13 10 -21z m-42 -9 c-2 -3 -13 -6
-24 -9 -45 -10 -64 -19 -64 -32 0 -8 -4 -14 -10 -14 -5 0 -10 5 -10 10 0 7
-13 9 -32 5 -59 -11 -88 -12 -82 -4 3 5 21 9 40 9 35 0 151 35 169 52 9 8 22
-8 13 -17z m456 7 c3 -5 -1 -9 -9 -9 -8 0 -12 4 -9 9 3 4 7 8 9 8 2 0 6 -4 9
-8z m-479 -42 c3 -5 1 -10 -4 -10 -6 0 -11 5 -11 10 0 6 2 10 4 10 3 0 8 -4
11 -10z m-368 -6 c-3 -3 -12 -4 -19 -1 -8 3 -5 6 6 6 11 1 17 -2 13 -5z m38
-4 c3 -5 2 -10 -4 -10 -5 0 -13 5 -16 10 -3 6 -2 10 4 10 5 0 13 -4 16 -10z
m770 0 c-27 -12 -43 -12 -25 0 8 5 22 9 30 9 10 0 8 -3 -5 -9z m2872 -32 c-3
-8 -6 -5 -6 6 -1 11 2 17 5 13 3 -3 4 -12 1 -19z m-3810 -4 c-3 -3 -12 -4 -19
-1 -8 3 -5 6 6 6 11 1 17 -2 13 -5z m1136 -1 c-7 -2 -21 -2 -30 0 -10 3 -4 5
12 5 17 0 24 -2 18 -5z m93 -21 c-10 -2 -22 0 -28 6 -6 6 0 7 19 4 21 -5 23
-7 9 -10z m-1296 -2 c-20 -13 -33 -13 -25 0 3 6 14 10 23 10 15 0 15 -2 2 -10z
m1125 -20 c-11 -5 -31 -8 -45 -8 -23 0 -22 1 5 8 42 11 65 11 40 0z m320 0
c25 -11 -1 -11 -35 0 -20 6 -21 8 -5 8 11 0 29 -3 40 -8z m-7450 -10 c-3 -5
-12 -10 -18 -10 -7 0 -6 4 3 10 19 12 23 12 15 0z m6213 3 c-16 -2 -40 -2 -55
0 -16 2 -3 4 27 4 30 0 43 -2 28 -4z m1189 -9 c-3 -3 -12 -4 -19 -1 -8 3 -5 6
6 6 11 1 17 -2 13 -5z m93 2 c0 -2 -13 -9 -30 -15 -35 -12 -41 -5 -7 9 25 10
37 12 37 6z m-120 -21 c11 -13 10 -14 -4 -9 -9 3 -16 10 -16 15 0 13 6 11 20
-6z m-7033 -1 c-3 -3 -12 -4 -19 -1 -8 3 -5 6 6 6 11 1 17 -2 13 -5z m86 -11
c-7 -2 -19 -2 -25 0 -7 3 -2 5 12 5 14 0 19 -2 13 -5z m6967 -27 c-19 -19 -39
-32 -43 -29 -9 6 52 62 68 63 5 0 -6 -15 -25 -34z m2487 -3 c-3 -10 -5 -4 -5
12 0 17 2 24 5 18 2 -7 2 -21 0 -30z m-2367 17 c0 -5 -5 -10 -11 -10 -5 0 -7
5 -4 10 3 6 8 10 11 10 2 0 4 -4 4 -10z m108 -19 c5 -32 -6 -71 -20 -71 -9 0
-9 3 0 12 7 7 12 27 12 46 0 26 -3 33 -15 28 -8 -3 -15 -1 -15 5 0 21 35 3 38
-20z m-1733 1 c-3 -3 -11 0 -18 7 -9 10 -8 11 6 5 10 -3 15 -9 12 -12z m-175
4 c0 -2 -11 -6 -25 -8 -13 -3 -22 -1 -19 3 5 9 44 13 44 5z m213 -30 c3 3 8
-4 12 -16 11 -34 1 -33 -25 3 -13 17 -17 26 -8 20 8 -7 17 -10 21 -7z m37 4
c0 -5 -2 -10 -4 -10 -3 0 -8 5 -11 10 -3 6 -1 10 4 10 6 0 11 -4 11 -10z
m1360 3 c-8 -3 -22 -11 -30 -17 -13 -10 -13 -9 -1 7 7 9 21 17 30 16 13 0 14
-1 1 -6z m-1668 -25 c-7 -7 -12 -8 -12 -2 0 14 12 26 19 19 2 -3 -1 -11 -7
-17z m335 0 c-3 -8 -6 -5 -6 6 -1 11 2 17 5 13 3 -3 4 -12 1 -19z m1338 -8
c-10 -11 -24 -20 -32 -20 -7 0 -13 -5 -13 -12 0 -6 -3 -8 -7 -4 -5 4 6 19 22
32 36 29 55 32 30 4z m70 -4 c-11 -8 -15 -18 -10 -26 5 -8 3 -11 -6 -8 -8 3
-27 -6 -42 -18 -16 -13 -34 -24 -40 -24 -6 0 0 8 13 17 14 9 41 32 60 50 19
17 36 30 39 27 2 -2 -4 -10 -14 -18z m28 -20 c4 -10 1 -13 -9 -9 -15 6 -19 23
-5 23 5 0 11 -7 14 -14z m-956 -78 c-2 -13 -4 -3 -4 22 0 25 2 35 4 23 2 -13
2 -33 0 -45z m693 56 c-38 -8 -90 -9 -90 -2 0 4 24 7 53 7 28 -1 45 -3 37 -5z
m380 2 c0 -2 -7 -9 -15 -16 -13 -11 -14 -10 -9 4 5 14 24 23 24 12z m-1285
-16 c-3 -5 -10 -10 -16 -10 -5 0 -9 5 -9 10 0 6 7 10 16 10 8 0 12 -4 9 -10z
m782 -5 c0 -8 -5 -15 -10 -15 -6 0 -19 -8 -29 -17 -17 -15 -20 -15 -28 -3 -14
22 -12 26 13 38 32 15 54 14 54 -3z m-1080 -42 c-3 -10 -5 -2 -5 17 0 19 2 27
5 18 2 -10 2 -26 0 -35z m1613 44 c0 -10 -41 -49 -46 -44 -6 6 26 45 39 46 4
1 7 -1 7 -2z m4868 -9 c27 -27 5 -67 -37 -71 -28 -2 -27 -15 3 -27 31 -11 66
-57 66 -85 0 -12 -9 -30 -20 -40 -15 -13 -20 -31 -20 -67 0 -90 -55 -151 -145
-163 -128 -17 -265 107 -265 240 0 80 42 131 126 154 32 9 51 8 90 -4 27 -8
66 -15 87 -15 38 0 38 0 32 34 -5 27 -3 36 12 45 24 14 56 14 71 -1z m-5110
-25 c-19 -5 -24 -18 -10 -26 4 -2 1 -2 -5 -1 -17 4 -16 -8 1 -31 12 -17 13
-16 20 10 4 15 9 25 12 23 2 -3 1 -16 -4 -29 -6 -14 -6 -34 -1 -47 6 -15 5
-21 -1 -17 -6 3 -10 11 -10 16 0 5 -10 23 -21 38 -12 16 -18 34 -15 40 4 6 0
11 -11 12 -21 1 23 17 47 17 10 0 9 -2 -2 -5z m-1221 -38 c0 -8 -7 -15 -14
-15 -8 0 -12 4 -9 9 4 5 0 12 -6 14 -7 3 -4 6 8 6 12 1 21 -5 21 -14z m60 9
c-3 -3 -12 -4 -19 -1 -8 3 -5 6 6 6 11 1 17 -2 13 -5z m724 -1 c-11 -4 -11 -7
-1 -13 11 -6 10 -12 -3 -24 -14 -15 -15 -14 -12 11 2 16 4 29 4 31 1 1 7 2 14
1 8 0 8 -2 -2 -6z m49 -5 c-1 -23 -109 -131 -125 -124 -19 7 -19 30 0 46 9 8
15 9 15 2 0 -6 -4 -14 -10 -17 -16 -10 -12 -25 5 -19 8 3 17 14 20 25 4 11 9
18 13 15 4 -2 23 12 42 30 19 19 29 34 22 34 -7 0 -10 5 -7 10 9 14 25 12 25
-2z m-973 -20 c-3 -8 -6 -5 -6 6 -1 11 2 17 5 13 3 -3 4 -12 1 -19z m243 18
c0 -3 -13 -11 -30 -20 -33 -16 -40 -11 -12 10 16 13 42 19 42 10z m5345 -15
c3 -5 29 -17 58 -25 130 -38 189 -201 110 -305 -65 -85 -88 -96 -205 -96 -62
-1 -102 -5 -110 -13 -7 -7 -24 -12 -39 -12 -38 0 -72 67 -57 111 9 26 6 39
-22 95 -21 42 -30 73 -26 88 6 23 117 106 141 106 18 0 71 28 85 45 14 17 56
20 65 6z m-5568 -23 c-3 -8 -6 -5 -6 6 -1 11 2 17 5 13 3 -3 4 -12 1 -19z
m398 11 c11 -16 1 -19 -13 -3 -7 8 -8 14 -3 14 5 0 13 -5 16 -11z m-4648 -5
c-3 -3 -12 -4 -19 -1 -8 3 -5 6 6 6 11 1 17 -2 13 -5z m4553 -16 c0 -6 -6 -5
-15 2 -8 7 -15 14 -15 16 0 2 7 1 15 -2 8 -4 15 -11 15 -16z m1200 17 c0 -2
-10 -9 -22 -15 -22 -11 -22 -10 -4 4 21 17 26 19 26 11z m-1519 -35 c5 0 9 -5
9 -11 0 -5 -4 -7 -10 -4 -5 3 -10 4 -10 1 0 -2 -3 -13 -7 -23 -6 -16 -5 -16
10 -4 10 8 17 9 17 3 0 -6 -14 -17 -30 -26 -17 -8 -28 -11 -25 -7 13 22 28 68
27 86 -1 16 0 17 4 3 3 -10 10 -18 15 -18z m408 -14 c-1 -20 -2 -20 -6 -1 -3
11 -10 27 -17 35 -10 13 -9 13 7 1 9 -7 16 -23 16 -35z m-4502 18 c-3 -3 -12
-4 -19 -1 -8 3 -5 6 6 6 11 1 17 -2 13 -5z m4429 -11 c1 -10 4 -27 8 -38 4
-11 0 -8 -9 8 -9 15 -13 32 -10 37 9 14 11 13 11 -7z m-395 -10 c-17 -32 -40
-58 -41 -47 0 6 7 17 15 24 8 7 15 19 15 26 0 8 5 14 10 14 7 0 7 -6 1 -17z
m-6321 3 c0 -2 -8 -10 -17 -17 -16 -13 -17 -12 -4 4 13 16 21 21 21 13z m6436
-11 c-11 -8 -24 -15 -30 -15 -5 0 -1 7 10 15 10 8 24 14 29 14 6 0 1 -6 -9
-14z m-4049 -1 c-3 -3 -12 -4 -19 -1 -8 3 -5 6 6 6 11 1 17 -2 13 -5z m3898
-4 c-3 -5 -10 -10 -16 -10 -5 0 -9 5 -9 10 0 6 7 10 16 10 8 0 12 -4 9 -10z
m475 0 c0 -5 -2 -10 -4 -10 -3 0 -8 5 -11 10 -3 6 -1 10 4 10 6 0 11 -4 11
-10z m-510 -30 c0 -5 -7 -7 -15 -4 -8 4 -15 8 -15 10 0 2 7 4 15 4 8 0 15 -4
15 -10z m-53 -6 c-3 -3 -12 -4 -19 -1 -8 3 -5 6 6 6 11 1 17 -2 13 -5z m999
-20 c-23 -16 -40 -19 -31 -4 3 6 13 10 21 10 8 0 14 5 14 12 0 6 3 8 7 4 5 -4
-1 -14 -11 -22z m-1071 6 c3 -5 2 -10 -4 -10 -5 0 -13 5 -16 10 -3 6 -2 10 4
10 5 0 13 -4 16 -10z m622 -12 c-3 -8 -6 -5 -6 6 -1 11 2 17 5 13 3 -3 4 -12
1 -19z m353 2 c0 -5 -4 -10 -10 -10 -5 0 -10 5 -10 10 0 6 5 10 10 10 6 0 10
-4 10 -10z m45 -18 c-3 -3 -11 0 -18 7 -9 10 -8 11 6 5 10 -3 15 -9 12 -12z
m-932 -9 c-7 -2 -19 -2 -25 0 -7 3 -2 5 12 5 14 0 19 -2 13 -5z m567 -24 c0
-6 -4 -7 -10 -4 -5 3 -10 11 -10 16 0 6 5 7 10 4 6 -3 10 -11 10 -16z m340 14
c-22 -9 -120 -84 -120 -92 0 -4 -6 -15 -13 -25 -13 -17 -14 -18 -20 -2 -4 10
-3 15 3 11 6 -3 10 0 10 8 0 8 15 25 32 38 18 13 42 34 53 46 11 13 31 22 45
22 16 0 19 -3 10 -6z m-127 -53 c-9 -11 -19 -17 -21 -15 -6 6 18 35 29 35 5 0
1 -9 -8 -20z m-5828 -37 c-4 -10 -11 -34 -15 -53 -8 -41 -21 -68 -68 -134 -19
-28 -44 -70 -55 -95 -30 -68 -147 -175 -169 -153 -7 7 4 25 38 60 69 70 75 79
86 125 5 23 25 67 46 97 50 76 72 121 65 133 -3 5 0 8 8 5 7 -2 22 4 33 14 25
23 40 23 31 1z m1238 -23 c3 -11 1 -18 -4 -14 -5 3 -9 12 -9 20 0 20 7 17 13
-6z m4457 -64 c0 -5 -7 -1 -15 10 -8 10 -14 24 -14 29 0 6 6 1 14 -9 8 -11 15
-24 15 -30z m4797 -38 c-3 -8 -6 -5 -6 6 -1 11 2 17 5 13 3 -3 4 -12 1 -19z
m-4720 -55 c-3 -10 -5 -2 -5 17 0 19 2 27 5 18 2 -10 2 -26 0 -35z m-2949 19
c20 -13 1 -86 -23 -90 -39 -5 -50 12 -36 57 12 41 30 51 59 33z m7669 -109
c-2 -21 -4 -4 -4 37 0 41 2 58 4 38 2 -21 2 -55 0 -75z m-9010 45 c-3 -8 -6
-5 -6 6 -1 11 2 17 5 13 3 -3 4 -12 1 -19z m4287 7 c3 -8 1 -15 -4 -15 -6 0
-10 7 -10 15 0 8 2 15 4 15 2 0 6 -7 10 -15z m-4260 -41 c9 -24 7 -27 -9 -10
-17 17 -19 26 -6 26 5 0 12 -7 15 -16z m10235 -45 c7 -27 11 -53 8 -56 -4 -3
-9 8 -12 23 -4 16 -11 41 -15 57 -5 15 -6 27 -1 27 4 0 13 -23 20 -51z m-3453
-85 c19 -3 36 -10 39 -14 3 -4 -9 -23 -26 -41 -30 -32 -32 -33 -40 -14 -4 11
-10 32 -13 46 -3 14 -15 36 -26 49 -11 13 -20 28 -20 34 0 6 12 -3 26 -21 16
-21 37 -35 60 -39z m2237 -92 c3 -24 2 -41 -1 -37 -11 10 -31 117 -30 160 0
37 1 35 13 -20 7 -33 15 -79 18 -103z m1241 58 l6 -35 -14 35 c-17 42 -20 58
-7 45 5 -6 12 -26 15 -45z m-10207 18 c-3 -8 -6 -5 -6 6 -1 11 2 17 5 13 3 -3
4 -12 1 -19z m10263 2 c0 -11 -2 -20 -4 -20 -2 0 -6 9 -9 20 -3 11 -1 20 4 20
5 0 9 -9 9 -20z m-10396 -16 c3 -8 2 -12 -4 -9 -6 3 -10 10 -10 16 0 14 7 11
14 -7z m10440 -31 c13 -37 13 -49 4 -56 -10 -7 -10 -10 0 -14 14 -6 16 -33 2
-33 -5 0 -10 6 -11 13 0 6 -2 33 -4 59 -1 27 -8 55 -15 63 -7 9 -8 15 -2 15 5
0 17 -21 26 -47z m-37 -25 c-3 -7 -5 -2 -5 12 0 14 2 19 5 13 2 -7 2 -19 0
-25z m-50 -20 c-3 -8 -6 -5 -6 6 -1 11 2 17 5 13 3 -3 4 -12 1 -19z m81 -82
c10 -11 11 -16 5 -12 -8 5 -13 1 -13 -10 0 -39 -15 1 -16 44 -1 26 1 36 3 22
3 -14 12 -34 21 -44z m-1436 32 c-7 -7 -12 -24 -12 -39 0 -15 -4 -31 -10 -34
-5 -3 -10 1 -10 10 0 22 31 87 38 80 3 -3 0 -11 -6 -17z m133 -38 c5 -20 4
-22 -5 -10 -9 12 -10 5 -5 -30 l5 -45 -13 37 c-8 21 -12 49 -9 63 5 29 16 23
27 -15z m-1983 -6 c-6 -50 -61 -73 -82 -35 -14 27 -13 37 6 55 9 10 27 14 47
12 29 -3 32 -6 29 -32z m-6917 -52 c-5 -5 -25 43 -25 61 1 7 7 -3 16 -22 8
-19 12 -36 9 -39z m10149 -2 c4 -31 3 -40 -4 -30 -5 8 -10 30 -10 49 0 45 6
37 14 -19z m-1400 4 c9 -3 16 -13 16 -21 0 -12 -3 -13 -13 -4 -8 6 -17 8 -20
4 -4 -3 -7 1 -7 10 0 19 2 20 24 11z m-1990 -10 c24 -9 21 -61 -5 -74 -32 -18
-82 5 -73 34 13 43 38 56 78 40z m2163 -26 c-3 -7 -5 -2 -5 12 0 14 2 19 5 13
2 -7 2 -19 0 -25z m-156 -17 c6 10 9 8 9 -8 0 -12 12 -34 27 -48 15 -14 24
-25 20 -25 -14 0 -87 78 -87 92 0 7 5 5 11 -6 9 -15 13 -16 20 -5z m149 -21
c0 -13 -1 -13 -10 0 -5 8 -10 22 -10 30 0 13 1 13 10 0 5 -8 10 -22 10 -30z
m-8880 4 c0 -8 -4 -12 -10 -9 -5 3 -10 13 -10 21 0 8 5 12 10 9 6 -3 10 -13
10 -21z m8897 -16 c-3 -7 -5 -2 -5 12 0 14 2 19 5 13 2 -7 2 -19 0 -25z m1223
1 c0 -17 -4 -28 -10 -24 -5 3 -10 17 -10 31 0 13 5 24 10 24 6 0 10 -14 10
-31z m-1215 -45 c-8 -16 -15 -24 -15 -17 0 6 -3 20 -6 30 -4 14 -4 15 4 4 8
-11 11 -9 17 10 5 13 10 19 12 13 2 -6 -3 -24 -12 -40z m39 -50 c3 -8 2 -12
-4 -9 -6 3 -10 -2 -10 -12 0 -14 -2 -15 -9 -4 -10 15 -4 41 9 41 4 0 11 -7 14
-16z m1149 -47 c-34 -78 -67 -136 -74 -132 -9 6 -1 35 11 35 4 0 13 15 20 33
29 77 44 109 48 97 2 -6 0 -22 -5 -33z m-9637 -15 c-6 -5 -56 21 -56 29 0 5
13 0 29 -9 16 -9 28 -18 27 -20z m8512 7 c-3 -8 -7 -3 -11 10 -4 17 -3 21 5
13 5 -5 8 -16 6 -23z m13 -44 c5 12 8 14 8 5 0 -8 -4 -24 -8 -34 -6 -16 -10
-14 -24 17 -22 45 -21 62 0 22 15 -27 17 -28 24 -10z m29 -35 c0 -5 -4 -10
-10 -10 -5 0 -10 5 -10 10 0 6 5 10 10 10 6 0 10 -4 10 -10z m7 -26 c-4 -4 3
-20 14 -36 30 -42 17 -45 -15 -4 -18 24 -22 36 -13 39 18 8 21 8 14 1z m993
-32 c0 -12 -69 -82 -81 -82 -6 0 9 20 33 45 46 48 48 49 48 37z m-856 -112 c8
0 19 -7 26 -15 16 -19 89 -52 155 -69 11 -3 0 -3 -25 -1 -41 4 -116 33 -144
56 -6 5 -32 25 -58 45 -27 19 -48 42 -48 51 0 12 13 3 40 -25 23 -23 47 -42
54 -42z m761 10 c-3 -5 -14 -10 -23 -10 -15 0 -15 2 -2 10 20 13 33 13 25 0z
m-75 -30 c0 -6 -12 -16 -27 -23 -16 -6 -30 -15 -33 -18 -5 -6 -77 -29 -92 -29
-5 0 -8 5 -8 10 0 6 6 10 13 9 19 -3 67 12 67 21 0 5 14 11 30 15 17 4 30 11
30 16 0 5 5 9 10 9 6 0 10 -5 10 -10z m-393 -76 c-3 -3 -12 -4 -19 -1 -8 3 -5
6 6 6 11 1 17 -2 13 -5z m102 -8 c9 -11 5 -15 -21 -19 -18 -3 -53 -2 -78 3
-44 7 -44 8 25 10 67 3 68 3 25 10 l-45 7 41 1 c25 1 46 -4 53 -12z m76 4 c4
-6 -7 -10 -27 -10 -25 0 -29 3 -18 10 19 13 37 13 45 0z m-257 -7 c-10 -2 -26
-2 -35 0 -10 3 -2 5 17 5 19 0 27 -2 18 -5z m286 -60 c4 -9 2 -21 -3 -26 -5
-5 -7 -17 -4 -26 4 -11 3 -13 -4 -6 -6 6 -14 25 -18 43 -5 25 -3 32 8 32 8 0
18 -8 21 -17z m-6803 -6 c151 -46 333 -244 395 -427 20 -59 23 -213 6 -260 -9
-23 -11 -22 -56 40 -27 36 -51 67 -55 70 -3 3 -31 37 -62 75 -58 73 -103 120
-158 168 -48 42 -243 182 -264 190 -17 6 -17 9 5 49 57 103 97 123 189 95z
m6523 7 c-7 -3 -9 -14 -6 -26 3 -14 1 -19 -6 -14 -19 11 -14 46 6 45 9 0 12
-3 6 -5z m306 -60 c0 -8 4 -22 10 -32 19 -35 55 -117 55 -129 0 -6 3 -15 7
-19 10 -9 -1 -26 -13 -19 -5 4 -9 19 -9 35 0 16 -4 31 -9 35 -5 3 -13 20 -17
38 -6 27 -8 29 -14 13 -5 -16 -8 -17 -15 -6 -5 9 -4 15 3 18 14 4 16 29 4 34
-5 2 -12 16 -16 31 -4 19 -3 26 4 22 5 -3 10 -13 10 -21z m-318 -14 c3 14 3
-2 1 -35 -3 -33 -8 -63 -12 -67 -3 -4 -4 14 -2 39 2 28 -1 43 -6 40 -6 -4 -8
5 -5 21 l6 27 6 -25 7 -25 5 25z m-26 -89 c-7 -55 -31 -111 -38 -89 -3 7 1 24
8 38 8 14 16 42 19 63 9 56 19 45 11 -12z m-2056 -49 c0 -13 -3 -12 -13 3 -23
31 -37 8 -38 -63 l-2 -67 -7 50 c-7 54 -3 95 11 95 5 0 9 7 9 17 0 14 2 14 20
-2 11 -10 20 -25 20 -33z m-550 -27 c0 -8 5 -15 11 -15 5 0 7 6 3 13 -5 7 0 6
12 -3 30 -23 38 -33 63 -70 19 -29 15 -27 -21 12 -32 35 -47 45 -55 37 -8 -8
-13 -5 -18 10 -3 12 -11 21 -16 21 -12 0 -1 -43 12 -48 12 -5 11 -32 0 -32
-12 0 -34 67 -26 80 10 15 35 12 35 -5z m3088 1 c22 -8 43 -11 47 -8 4 4 6 -2
3 -13 -2 -14 -12 -20 -33 -22 -26 -2 -27 0 -11 9 15 8 16 12 5 19 -8 5 -24 9
-36 9 -13 0 -23 5 -23 10 0 13 0 13 48 -4z m-538 -19 c0 -8 -7 -14 -15 -14
-16 0 -19 9 -8 20 11 11 23 8 23 -6z m610 -33 c0 -8 -4 -12 -10 -9 -5 3 -10
10 -10 16 0 5 5 9 10 9 6 0 10 -7 10 -16z m329 -20 c41 -6 50 -9 34 -15 -12
-4 -48 0 -89 12 -38 10 -53 17 -34 14 19 -3 59 -8 89 -11z m-3480 -64 c0 -10
-3 -8 -9 5 -12 27 -12 43 0 25 5 -8 9 -22 9 -30z m2331 35 c0 -6 -76 -41 -175
-80 -38 -15 -83 -34 -100 -41 -51 -21 -78 -27 -71 -15 4 6 14 11 21 11 8 0 31
7 52 16 60 27 93 40 163 69 36 14 72 30 80 35 17 10 30 12 30 5z m-2206 -31
c9 -8 16 -22 16 -31 0 -8 14 -32 30 -53 17 -21 30 -42 30 -48 0 -5 7 -15 15
-22 8 -7 15 -21 15 -31 0 -11 5 -18 11 -16 5 1 21 -17 35 -41 26 -46 30 -62
14 -62 -5 0 -10 8 -10 18 0 9 -9 31 -20 47 -11 17 -20 26 -20 20 0 -15 -64 86
-96 152 -16 32 -35 63 -44 70 -9 8 -10 12 -3 13 6 0 19 -7 27 -16z m3601 -4
c3 -5 -3 -10 -15 -10 -12 0 -18 5 -15 10 3 6 10 10 15 10 5 0 12 -4 15 -10z
m78 -17 c-7 -2 -21 -2 -30 0 -10 3 -4 5 12 5 17 0 24 -2 18 -5z m-3762 -66
c30 -57 40 -87 29 -87 -6 0 -10 4 -10 10 0 5 -13 38 -30 72 -44 90 -36 94 11
5z m3846 47 c-3 -3 -12 -4 -19 -1 -8 3 -5 6 6 6 11 1 17 -2 13 -5z m-3380 -26
c-3 -8 -6 -5 -6 6 -1 11 2 17 5 13 3 -3 4 -12 1 -19z m3486 -5 c-7 -2 -21 -2
-30 0 -10 3 -4 5 12 5 17 0 24 -2 18 -5z m-3464 -91 c1 -18 5 -41 10 -51 5 -9
12 -35 15 -57 3 -21 12 -68 20 -104 16 -69 21 -167 8 -187 -4 -6 -7 12 -7 40
0 64 -15 161 -45 302 -13 60 -21 146 -10 115 4 -14 8 -40 9 -58z m140 -2 c0
-9 -4 -8 -9 5 -5 11 -9 27 -9 35 0 9 4 8 9 -5 5 -11 9 -27 9 -35z m1301 40 c0
-5 -7 -10 -15 -10 -8 0 -15 5 -15 10 0 6 7 10 15 10 8 0 15 -4 15 -10z m-75
-37 c-22 -7 -46 -12 -55 -10 -8 1 5 10 30 19 25 8 49 13 54 10 5 -3 -8 -12
-29 -19z m-80 -23 c-3 -5 -14 -10 -23 -10 -15 0 -15 2 -2 10 20 13 33 13 25 0z
m-1700 -57 c15 -32 33 -65 42 -75 9 -11 11 -18 4 -23 -7 -4 -25 25 -46 71 -19
42 -35 78 -35 80 0 14 11 -4 35 -53z m-550 37 c-10 -17 5 -51 22 -48 9 2 18
-3 20 -10 3 -7 -1 -10 -11 -6 -9 3 -16 1 -16 -5 0 -6 4 -11 9 -11 5 0 12 -7
15 -16 6 -14 4 -15 -9 -4 -35 29 -60 110 -34 110 5 0 7 -5 4 -10z m2210 -8
c-3 -3 -11 0 -18 7 -9 10 -8 11 6 5 10 -3 15 -9 12 -12z m-35 -2 c0 -12 -69
-42 -84 -37 -8 3 50 36 82 46 1 1 2 -3 2 -9z m-2087 -36 c22 -15 35 -30 30
-37 -5 -8 -8 -8 -11 1 -2 7 -8 12 -12 12 -5 0 -21 11 -36 25 -35 32 -19 32 29
-1z m3864 0 c-3 -3 -12 -4 -19 -1 -8 3 -5 6 6 6 11 1 17 -2 13 -5z m-2820 -26
c-3 -8 -6 -5 -6 6 -1 11 2 17 5 13 3 -3 4 -12 1 -19z m2909 9 c11 -11 -19 -8
-36 3 -12 8 -10 9 7 7 12 -2 26 -6 29 -10z m-1306 -12 c0 -8 -4 -15 -10 -15
-5 0 -7 7 -4 15 4 8 8 15 10 15 2 0 4 -7 4 -15z m-663 -1 c-3 -3 -12 -4 -19
-1 -8 3 -5 6 6 6 11 1 17 -2 13 -5z m2083 -10 c0 -2 -16 -4 -36 -4 -19 0 -33
4 -30 8 5 8 66 4 66 -4z m-2127 -1 c-7 -2 -19 -2 -25 0 -7 3 -2 5 12 5 14 0
19 -2 13 -5z m-1833 -34 c27 -17 50 -35 50 -40 0 -4 -16 3 -36 16 -19 13 -44
27 -55 30 -10 4 -19 11 -19 16 0 14 5 12 60 -22z m1780 11 c0 -5 -10 -9 -22
-7 -13 1 -22 -2 -21 -8 1 -5 -17 -10 -39 -11 -35 0 -38 1 -17 9 13 5 31 13 39
17 21 12 60 12 60 0z m-5265 -10 c3 -5 1 -10 -4 -10 -6 0 -11 5 -11 10 0 6 2
10 4 10 3 0 8 -4 11 -10z m4066 -12 c21 -27 24 -44 7 -54 -7 -4 -8 -3 -4 4 9
15 -12 54 -25 47 -5 -4 -9 1 -9 9 0 22 8 20 31 -6z m438 -187 c1 -8 8 -23 17
-32 9 -10 17 -30 17 -44 0 -14 2 -25 6 -25 9 0 41 -55 41 -69 0 -6 -5 -11 -11
-11 -6 0 -9 6 -6 13 2 6 -6 24 -18 38 -12 15 -40 84 -63 155 -52 161 -64 223
-18 89 19 -55 35 -106 35 -114z m-4329 174 c14 -19 14 -19 -2 -6 -10 7 -18 18
-18 24 0 6 1 8 3 6 1 -2 9 -13 17 -24z m7483 8 c-7 -2 -19 -2 -25 0 -7 3 -2 5
12 5 14 0 19 -2 13 -5z m-3746 -25 c0 -7 3 -24 8 -38 5 -17 4 -22 -3 -15 -15
14 -26 65 -15 65 5 0 10 -6 10 -12z m1266 5 c-7 -2 -19 -2 -25 0 -7 3 -2 5 12
5 14 0 19 -2 13 -5z m698 -14 c-18 -11 -35 -18 -38 -15 -5 5 46 35 62 36 6 0
-5 -9 -24 -21z m-811 -9 c0 -5 -18 -13 -40 -16 -37 -6 -50 -17 -32 -27 4 -2 1
-2 -6 0 -8 1 -21 3 -29 3 -26 0 -6 14 45 31 59 21 62 21 62 9z m-1461 -27 c20
-16 40 -28 45 -28 5 0 11 -5 13 -12 3 -9 -3 -9 -26 0 -17 6 -31 15 -31 19 0 5
-15 17 -32 28 -18 11 -27 20 -19 20 8 0 30 -12 50 -27z m510 -3 c4 0 8 -14 9
-31 1 -28 -1 -29 -13 -13 -7 10 -11 24 -8 31 4 9 0 11 -12 7 -15 -6 -16 -5 -3
15 10 17 14 18 16 6 2 -8 7 -15 11 -15z m991 24 c0 -10 -28 -34 -39 -34 -6 0
-3 9 7 19 17 19 32 26 32 15z m715 -14 c-3 -5 -11 -10 -16 -10 -6 0 -7 5 -4
10 3 6 11 10 16 10 6 0 7 -4 4 -10z m-56 -29 c-13 -10 -39 -26 -56 -35 -26
-13 -31 -13 -27 -2 3 8 17 17 31 21 14 3 32 13 40 20 8 8 19 15 25 15 6 0 0
-8 -13 -19z m-809 -7 c0 -2 -17 -4 -37 -3 -29 0 -33 2 -18 8 18 7 55 4 55 -5z
m-1471 -25 c11 -19 12 -21 0 -9 -8 8 -21 20 -29 28 -12 11 -12 13 -1 10 8 -2
21 -15 30 -29z m465 16 c-4 -8 -2 -15 4 -15 14 0 52 -76 52 -103 -1 -21 -1
-22 -12 -2 -6 11 -16 23 -22 28 -8 5 -6 10 4 16 12 9 12 11 -3 16 -9 4 -23 21
-32 38 -18 37 -18 37 0 37 9 0 12 -6 9 -15z m226 -46 c40 -53 54 -84 24 -55
-8 9 -20 16 -25 16 -6 0 -8 4 -5 9 3 5 -1 14 -8 20 -8 7 -19 26 -25 43 -13 37
-12 36 39 -33z m685 35 c-36 -28 -75 -45 -75 -34 0 6 14 16 30 21 17 6 30 15
30 20 0 5 8 9 18 9 15 -1 15 -2 -3 -16z m90 -4 c3 -5 -1 -10 -10 -10 -9 0 -13
5 -10 10 3 6 8 10 10 10 2 0 7 -4 10 -10z m-1229 -29 c24 -22 29 -31 19 -35
-8 -3 -14 -2 -14 2 3 19 -2 25 -11 12 -8 -12 -10 -13 -10 -1 0 8 -7 23 -17 33
-25 28 -4 21 33 -11z m1940 2 c-10 -11 -37 -12 -30 -2 3 5 12 9 21 9 9 0 13
-3 9 -7z m-2126 -23 c9 -16 8 -18 -5 -14 -8 4 -15 12 -15 20 0 20 7 17 20 -6z
m1330 16 c0 -2 -7 -7 -16 -10 -8 -3 -12 -2 -9 4 6 10 25 14 25 6z m740 -18 c0
-7 -12 -19 -28 -26 l-27 -12 25 24 c30 29 30 30 30 14z m-812 -5 c-10 -2 -26
-2 -35 0 -10 3 -2 5 17 5 19 0 27 -2 18 -5z m752 -18 c0 -8 -2 -15 -4 -15 -2
0 -6 7 -10 15 -3 8 -1 15 4 15 6 0 10 -7 10 -15z m-1758 -14 c7 -10 18 -20 23
-21 19 -5 88 -70 82 -77 -4 -3 -7 -1 -7 5 0 7 -12 12 -26 12 -19 0 -25 4 -21
15 8 19 -13 31 -25 14 -6 -10 -7 -7 -3 10 4 13 3 21 -2 18 -5 -3 -22 5 -39 18
-21 18 -25 24 -12 25 9 0 23 -8 30 -19z m933 9 c-3 -5 -11 -10 -16 -10 -6 0
-7 5 -4 10 3 6 11 10 16 10 6 0 7 -4 4 -10z m-1145 -21 c0 -6 -4 -7 -10 -4 -5
3 -10 11 -10 16 0 6 5 7 10 4 6 -3 10 -11 10 -16z m1075 11 c-3 -5 -16 -10
-28 -9 -21 0 -21 1 -2 9 28 12 37 12 30 0z m855 -30 c-43 -33 -100 -62 -100
-51 0 6 4 11 8 11 5 0 29 13 53 30 49 33 79 41 39 10z m-1220 -2 c0 -4 -11 -8
-24 -8 -14 0 -27 4 -30 8 -3 5 8 9 24 9 17 0 30 -4 30 -9z m-583 -80 c30 -33
1 -19 -43 22 -24 22 -48 40 -54 40 -5 0 -10 5 -10 11 0 11 79 -43 107 -73z
m1718 72 c3 -5 1 -10 -4 -10 -6 0 -11 5 -11 10 0 6 2 10 4 10 3 0 8 -4 11 -10z
m-275 -12 c-1 -20 -29 -53 -37 -44 -5 4 0 14 11 21 10 8 15 18 11 24 -3 6 -1
11 4 11 6 0 11 -6 11 -12z m-1120 -28 c7 -17 10 -33 7 -37 -4 -3 -9 3 -12 13
-4 10 -11 27 -16 37 -5 9 -5 17 0 17 5 0 14 -14 21 -30z m985 -2 c-6 -15 -52
-38 -74 -37 -12 0 21 21 76 48 1 1 0 -5 -2 -11z m335 8 c0 -3 -4 -8 -10 -11
-5 -3 -10 -1 -10 4 0 6 5 11 10 11 6 0 10 -2 10 -4z m50 -21 c0 -2 -10 -10
-22 -16 -21 -11 -22 -11 -9 4 13 16 31 23 31 12z m-1464 -42 c-4 -4 -11 -1
-16 7 -16 25 -11 35 7 17 9 -9 13 -20 9 -24z m1161 5 c-3 -8 -6 -5 -6 6 -1 11
2 17 5 13 3 -3 4 -12 1 -19z m-202 -25 c-30 -21 -51 -16 -24 6 13 11 28 17 33
14 5 -4 1 -12 -9 -20z m415 17 c8 -5 11 -10 5 -10 -5 0 -17 5 -25 10 -8 5 -10
10 -5 10 6 0 17 -5 25 -10z m-1555 -20 c27 -30 12 -34 -15 -5 -13 14 -19 25
-13 25 5 0 18 -9 28 -20z m1409 2 c-12 -2 -27 -14 -34 -28 -7 -13 -19 -24 -26
-24 -8 0 -11 -7 -8 -17 5 -15 4 -15 -4 -4 -8 11 -1 24 29 53 25 24 44 36 52
31 8 -5 5 -9 -9 -11z m-545 -29 c13 -28 13 -28 -8 -9 -22 20 -27 36 -13 36 5
0 14 -12 21 -27z m441 12 c-7 -9 -15 -13 -17 -11 -7 7 7 26 19 26 6 0 6 -6 -2
-15z m-1910 -5 c0 -5 -4 -10 -10 -10 -5 0 -10 5 -10 10 0 6 5 10 10 10 6 0 10
-4 10 -10z m1660 -5 c-10 -12 -10 -15 0 -15 8 0 11 -2 8 -5 -3 -3 -13 -3 -22
1 -15 6 -15 7 1 20 24 18 28 17 13 -1z m460 11 c0 -3 -4 -8 -10 -11 -5 -3 -10
-1 -10 4 0 6 5 11 10 11 6 0 10 -2 10 -4z m-40 -16 c-20 -13 -33 -13 -25 0 3
6 14 10 23 10 15 0 15 -2 2 -10z m-1401 -42 c18 -30 10 -29 -22 3 -22 21 -24
26 -10 23 11 -3 25 -14 32 -26z m1361 17 c0 -5 -96 -55 -106 -55 -12 0 63 48
83 53 10 3 19 5 21 6 1 0 2 -1 2 -4z m-535 -15 c3 -5 2 -10 -4 -10 -5 0 -13 5
-16 10 -3 6 -2 10 4 10 5 0 13 -4 16 -10z m95 5 c0 -11 -51 -24 -67 -17 -17 6
-13 8 60 21 4 0 7 -1 7 -4z m-1140 -26 c13 -7 13 -8 0 -8 -8 0 -26 6 -40 15
l-25 15 25 -7 c14 -3 32 -10 40 -15z m1365 1 c-10 -11 -23 -20 -28 -20 -6 0
-2 9 8 20 10 11 23 20 28 20 6 0 2 -9 -8 -20z m79 -16 c3 -8 2 -12 -4 -9 -6 3
-10 10 -10 16 0 14 7 11 14 -7z m-1373 -9 c19 -8 27 -14 19 -14 -18 0 -79 27
-64 28 7 1 27 -6 45 -14z m1359 -9 c0 -2 -9 -6 -20 -9 -11 -3 -20 -1 -20 4 0
5 9 9 20 9 11 0 20 -2 20 -4z m-1295 -16 c3 -5 1 -10 -4 -10 -6 0 -11 5 -11
10 0 6 2 10 4 10 3 0 8 -4 11 -10z m1152 -25 c-23 -22 -33 -18 -12 5 10 11 20
18 23 16 2 -3 -3 -12 -11 -21z m107 6 c4 -5 -3 -7 -14 -4 -11 3 -20 0 -20 -6
0 -6 -5 -11 -11 -11 -8 0 -8 5 1 15 14 17 36 20 44 6z m-140 -53 c-3 -4 -13
-12 -24 -18 -13 -7 -19 -6 -24 5 -4 10 1 14 17 12 17 -1 21 3 19 18 -2 16 -1
17 7 5 5 -8 7 -18 5 -22z m-11804 -25 c-4 -16 -11 -36 -15 -46 -8 -20 -45 -43
-45 -28 0 5 6 11 14 14 8 3 20 24 27 46 7 23 16 41 20 41 4 0 4 -12 -1 -27z
m10625 -3 c3 -6 -1 -7 -9 -4 -18 7 -21 14 -7 14 6 0 13 -4 16 -10z m90 -61
c11 -16 1 -19 -13 -3 -7 8 -8 14 -3 14 5 0 13 -5 16 -11z m960 -19 c-3 -5 -12
-10 -18 -10 -7 0 -6 4 3 10 19 12 23 12 15 0z m-65 -49 c0 -5 -7 -12 -16 -15
-14 -5 -15 -4 -4 9 14 17 20 19 20 6z m-809 -18 c13 -17 13 -17 -6 -3 -11 8
-22 16 -24 17 -2 2 0 3 6 3 6 0 17 -8 24 -17z"/>
<path d="M9861 7814 c0 -11 3 -14 6 -6 3 7 2 16 -1 19 -3 4 -6 -2 -5 -13z"/>
<path d="M9114 7808 c-5 -7 -25 -24 -44 -36 -46 -28 -33 -28 24 1 32 16 42 26
37 36 -7 11 -10 11 -17 -1z"/>
<path d="M9890 7741 c0 -6 4 -13 10 -16 6 -3 7 1 4 9 -7 18 -14 21 -14 7z"/>
<path d="M10767 7024 c-13 -13 -7 -55 8 -60 21 -9 47 15 43 40 -3 21 -37 34
-51 20z"/>
<path d="M10256 6744 c-8 -21 -8 -20 10 -39 12 -12 19 -13 30 -4 19 15 18 45
-2 53 -24 9 -31 7 -38 -10z"/>
<path d="M11236 5765 c-16 -12 -17 -15 -4 -15 8 0 21 7 28 15 16 19 1 19 -24
0z"/>
<path d="M16330 4131 c0 -5 5 -13 10 -16 6 -3 10 -2 10 4 0 5 -4 13 -10 16 -5
3 -10 2 -10 -4z"/>
</g>
</svg>
