<?xml version="1.0" standalone="no"?>
<!DOCTYPE svg PUBLIC "-//W3C//DTD SVG 20010904//EN"
 "http://www.w3.org/TR/2001/REC-SVG-20010904/DTD/svg10.dtd">
<svg version="1.0" xmlns="http://www.w3.org/2000/svg"
 width="2000.000000pt" height="956.000000pt" viewBox="0 0 2000.000000 956.000000"
 preserveAspectRatio="xMidYMid meet">

<g transform="translate(0.000000,956.000000) scale(0.100000,-0.100000)"
fill="#000000" stroke="none">
<path d="M0 4780 l0 -4780 10000 0 10000 0 0 4780 0 4780 -10000 0 -10000 0 0
-4780z m12780 3326 c0 -2 -8 -10 -17 -17 -16 -13 -17 -12 -4 4 13 16 21 21 21
13z m-15 -81 c1 -19 -1 -32 -4 -29 -3 3 -6 21 -6 39 -1 19 1 32 4 29 3 -3 6
-21 6 -39z m-25 19 c0 -8 -19 -13 -24 -6 -3 5 1 9 9 9 8 0 15 -2 15 -3z m-80
-48 c0 -2 -8 -10 -17 -17 -16 -13 -17 -12 -4 4 13 16 21 21 21 13z m27 -30
c-1 -6 3 -10 9 -9 6 1 11 -5 11 -13 0 -18 0 -18 -25 9 -17 17 -18 24 -8 24 8
0 14 -5 13 -11z m84 -9 c-7 -7 -7 -15 2 -26 11 -14 10 -14 -6 -2 -12 9 -14 17
-7 26 5 6 6 16 2 20 -4 5 -1 5 6 0 10 -5 11 -10 3 -18z m-36 -6 c3 -5 2 -12
-3 -15 -5 -3 -9 1 -9 9 0 17 3 19 12 6z m-68 -16 c0 -8 -4 -12 -9 -9 -5 3 -6
10 -3 15 9 13 12 11 12 -6z m308 -83 c-16 -15 -24 -20 -17 -11 9 12 9 19 -1
29 -10 12 -9 12 5 1 15 -11 19 -11 24 3 4 9 9 14 12 11 3 -3 -7 -18 -23 -33z
m-56 -19 c6 -12 7 -24 3 -27 -5 -3 -9 0 -9 7 0 7 -4 21 -8 32 -10 25 -2 18 14
-12z m107 8 c-1 -9 4 -17 9 -18 6 -2 10 1 10 6 0 5 4 13 8 18 5 4 7 4 6 -2 -2
-5 4 -24 13 -41 14 -25 14 -31 3 -31 -8 0 -12 4 -10 8 3 4 2 14 -1 23 -5 13
-10 14 -20 5 -11 -9 -11 -15 2 -34 15 -23 28 -26 52 -11 10 6 10 11 2 21 -8
10 -8 15 0 20 8 5 7 12 -2 23 -12 15 -11 16 5 3 12 -10 14 -17 7 -26 -12 -14
11 -40 24 -27 4 4 6 0 4 -8 -1 -8 2 -14 8 -13 6 1 11 -4 11 -12 0 -8 -4 -12
-8 -10 -4 3 -14 -6 -22 -19 -12 -18 -13 -26 -4 -36 9 -10 9 -11 0 -6 -15 8
-20 -19 -10 -54 2 -8 2 -12 0 -7 -3 4 -9 5 -14 2 -5 -4 -6 2 -2 12 6 16 5 17
-13 3 -17 -14 -18 -13 -7 1 7 9 9 20 5 24 -4 5 -1 5 6 1 7 -4 12 -1 12 8 0 9
0 18 0 21 0 3 -3 4 -7 3 -5 -2 -6 -7 -5 -13 2 -5 0 -6 -4 -2 -5 4 -9 19 -10
33 -1 22 0 23 16 9 16 -14 19 -13 33 9 14 20 14 26 3 36 -16 13 -25 3 -20 -23
2 -18 2 -18 -17 -1 -10 9 -19 13 -19 8 -1 -5 -9 1 -19 13 -21 25 -38 19 -18
-6 11 -14 10 -14 -6 -2 -10 8 -14 18 -9 25 7 10 8 28 2 41 -1 3 -3 8 -4 13 -1
4 -4 12 -8 18 -4 6 -1 11 6 11 7 0 13 -7 12 -16z m-130 -27 c1 -9 0 -13 -4
-10 -3 4 -7 14 -8 22 -1 9 0 13 4 10 3 -4 7 -14 8 -22z m100 14 c4 -7 4 -10
-1 -6 -4 4 -15 2 -24 -5 -14 -11 -14 -10 -2 6 16 20 18 21 27 5z m11 -40 c-3
-8 -6 -5 -6 6 -1 11 2 17 5 13 3 -3 4 -12 1 -19z m-9 -53 c-3 -3 -9 2 -12 12
-6 14 -5 15 5 6 7 -7 10 -15 7 -18z m157 -24 c3 -5 2 -12 -3 -15 -5 -3 -9 1
-9 9 0 17 3 19 12 6z m-17 -67 c-13 -13 -15 -13 -15 0 0 8 4 13 9 10 4 -3 8 3
9 13 0 12 2 14 6 5 3 -8 -1 -20 -9 -28z m53 -9 c5 4 6 12 3 18 -5 9 -3 8 6 0
11 -10 17 -10 29 0 14 10 14 10 3 -4 -10 -13 -10 -18 1 -28 8 -6 18 -7 23 -3
5 4 1 -2 -9 -14 -9 -11 -15 -24 -12 -27 3 -4 2 -5 -2 -2 -3 3 -12 0 -19 -6 -8
-7 -14 -7 -19 1 -5 8 -11 8 -20 0 -11 -9 -13 -6 -9 15 3 15 6 31 7 35 1 5 -2
7 -8 7 -5 -1 -9 -9 -8 -17 2 -10 0 -11 -3 -2 -3 6 -11 9 -17 5 -6 -3 -2 5 9
19 15 21 21 23 27 12 5 -8 13 -12 18 -9z m-5651 -29 c0 -2 -8 -10 -17 -17 -16
-13 -17 -12 -4 4 13 16 21 21 21 13z m5604 -14 c3 -5 -1 -9 -9 -9 -8 0 -12 4
-9 9 3 4 7 8 9 8 2 0 6 -4 9 -8z m-5590 -31 c3 -5 -2 -15 -12 -22 -15 -12 -16
-12 -5 2 7 9 10 19 6 22 -3 4 -4 7 0 7 3 0 8 -4 11 -9z m5910 -23 c-3 -13 -6
-31 -7 -41 -3 -30 -21 -24 -24 8 -2 22 0 26 7 15 7 -10 10 -11 11 -2 1 6 3 17
4 22 1 6 3 12 4 15 0 3 3 5 5 5 3 0 3 -10 0 -22z m-66 -7 c-2 -19 4 -24 12
-11 7 12 9 10 7 -7 -1 -15 -5 -19 -13 -13 -6 6 -15 6 -20 2 -5 -4 -6 -3 -2 2
4 5 3 14 -2 21 -7 8 -5 12 5 12 7 0 14 -3 13 -6z m121 -67 c-6 -8 -8 -14 -4
-14 4 0 2 -7 -5 -15 -7 -8 -17 -12 -23 -8 -6 4 -8 0 -4 -10 9 -25 2 -21 -19
11 -11 18 -13 23 -3 16 19 -14 44 -12 45 4 1 6 3 15 4 20 1 4 2 11 1 15 -1 5
3 6 9 2 8 -5 7 -11 -1 -21z m480 -71 c0 -32 4 -70 7 -85 3 -16 1 -28 -4 -28
-9 0 -23 147 -15 163 8 14 10 6 12 -50z m-1819 -5 c0 -18 -2 -20 -10 -8 -7 12
-12 12 -29 -4 -12 -11 -21 -16 -21 -12 0 9 42 45 53 46 4 0 7 -10 7 -22z
m1453 8 c4 4 4 -4 2 -16 -5 -28 -18 -42 -13 -15 1 11 -2 19 -8 18 -6 -1 -11 5
-11 12 0 10 4 12 12 5 7 -5 15 -7 18 -4z m-1456 -66 c1 -15 -11 -18 -46 -11
-3 1 4 8 15 17 18 14 18 15 -4 4 -14 -7 -21 -17 -18 -25 3 -8 2 -16 -2 -18 -4
-2 -1 -2 6 -1 6 2 12 -1 12 -6 0 -6 -6 -10 -14 -10 -8 0 -13 -7 -12 -15 3 -19
16 -32 16 -16 0 7 5 9 12 5 6 -4 8 -3 5 4 -4 5 -3 21 2 34 6 12 10 17 10 10 1
-7 6 -10 12 -6 15 9 -16 -50 -34 -64 -11 -10 -17 -9 -27 2 -13 17 -10 87 5 98
6 5 5 8 -2 8 -7 0 -13 5 -13 11 0 8 4 8 14 0 10 -9 16 -8 26 3 14 18 35 4 37
-24z m233 -41 c0 -4 -7 -6 -15 -3 -8 4 -15 10 -15 15 0 4 7 6 15 3 8 -4 15
-10 15 -15z m3207 8 c0 -8 -6 -14 -14 -14 -9 0 -10 4 -2 14 6 7 12 13 14 13 1
0 2 -6 2 -13z m-3237 -31 c0 -6 -7 -20 -15 -30 -11 -15 -15 -16 -15 -5 0 8 6
21 13 28 8 9 2 8 -19 -2 -17 -9 -31 -23 -31 -33 0 -15 2 -15 14 2 8 11 13 13
13 5 0 -18 -100 -116 -100 -99 -1 8 -4 7 -10 -4 -6 -10 -18 -14 -30 -11 -24 6
-21 29 3 27 9 -1 15 1 14 5 -1 3 6 17 15 30 15 21 19 23 35 11 15 -12 16 -12
6 0 -10 11 -4 21 34 56 44 39 73 47 73 20z m1700 18 c0 -8 -19 -13 -24 -6 -3
5 1 9 9 9 8 0 15 -2 15 -3z m2163 -44 c4 -17 2 -18 -13 -10 -11 6 -22 15 -26
22 -5 7 -3 8 6 3 10 -6 12 -4 6 10 -5 14 -4 16 8 6 7 -6 16 -20 19 -31z
m-4223 10 c0 -5 -2 -10 -4 -10 -3 0 -8 5 -11 10 -3 6 -1 10 4 10 6 0 11 -4 11
-10z m3604 -26 c3 -8 2 -12 -4 -9 -6 3 -10 10 -10 16 0 14 7 11 14 -7z m-3680
-9 c-4 -8 -11 -15 -16 -15 -6 0 -5 6 2 15 7 8 14 15 16 15 2 0 1 -7 -2 -15z
m76 9 c0 -8 -19 -13 -24 -6 -3 5 1 9 9 9 8 0 15 -2 15 -3z m2153 -28 c9 1 15
-2 11 -7 -3 -5 -10 -7 -15 -4 -11 7 -11 3 -3 -19 5 -14 9 -14 23 -4 14 12 15
11 2 -4 -19 -25 -25 -23 -39 15 -13 35 -16 64 -4 36 4 -9 15 -15 25 -13z m186
7 c-1 -5 0 -10 1 -13 1 -3 3 -12 5 -20 2 -8 6 -24 10 -35 3 -11 -2 -6 -11 10
-22 37 -26 65 -8 65 2 0 3 -3 3 -7z m462 -6 c-6 -8 -7 -18 -3 -22 4 -5 1 -5
-6 -1 -10 6 -10 11 -1 22 6 8 14 14 16 14 3 0 0 -6 -6 -13z m52 -10 c7 3 4 -3
-7 -15 -21 -24 -36 -21 -31 6 2 9 4 22 5 27 0 6 5 2 11 -8 6 -10 16 -14 22
-10z m46 16 c-1 -5 0 -11 1 -15 1 -5 3 -14 4 -20 0 -7 8 -13 16 -13 9 0 15
-10 16 -25 2 -45 4 -48 22 -46 9 2 15 7 14 12 -2 5 -7 8 -11 7 -5 -1 -7 10 -6
24 0 15 7 28 15 31 12 3 13 2 1 -6 -9 -7 -10 -12 -2 -16 11 -7 20 7 25 38 1 8
5 18 9 22 8 9 -2 -48 -12 -61 -6 -9 -7 -17 -2 -42 1 -5 5 -2 10 6 7 10 9 7 8
-12 -1 -14 -4 -25 -7 -24 -3 1 -5 -2 -5 -8 0 -5 3 -9 6 -8 4 1 10 -9 13 -23 4
-14 11 -22 16 -19 6 4 8 10 5 15 -3 4 2 13 10 20 8 7 12 17 8 23 -3 6 -1 7 6
3 7 -5 9 -12 3 -19 -4 -7 -7 -18 -6 -24 1 -7 2 -18 3 -24 0 -5 5 -8 10 -5 5 3
7 16 5 29 -4 20 -4 20 5 2 4 -11 5 -25 0 -30 -4 -6 -4 -17 1 -25 14 -22 12
-40 -4 -40 -18 0 -25 -20 -16 -45 4 -11 3 -26 -3 -34 -12 -14 -20 -47 -9 -36
4 4 7 10 7 13 1 16 17 32 28 26 8 -5 8 -3 0 7 -15 15 -17 59 -4 59 5 0 7 -8 4
-19 -3 -10 0 -22 5 -25 6 -4 8 3 5 16 -3 17 -2 19 5 9 7 -9 9 -1 7 25 -2 22
-4 39 -5 39 -1 0 -3 20 -5 45 -1 25 -1 40 2 33 2 -7 11 -9 19 -6 8 3 14 1 15
-3 0 -5 2 -20 5 -34 3 -18 2 -21 -5 -10 -5 8 -8 17 -5 21 2 4 -1 11 -7 15 -8
5 -10 -1 -7 -19 3 -16 1 -24 -5 -20 -5 3 -8 0 -5 -8 3 -8 11 -14 18 -14 7 0
15 -7 17 -15 4 -13 3 -13 -6 0 -6 8 -11 13 -12 10 0 -3 -2 -13 -4 -22 -2 -9 5
-24 15 -33 15 -14 18 -14 30 0 7 8 9 15 6 15 -4 0 -2 9 4 21 9 16 14 18 26 9
7 -7 11 -17 8 -22 -4 -6 -10 -5 -16 3 -8 11 -9 10 -5 -2 3 -9 0 -23 -6 -30 -7
-7 -3 -6 9 4 23 19 40 12 22 -10 -6 -7 -8 -16 -4 -20 3 -3 6 -1 6 7 0 10 3 10
18 -1 9 -7 14 -10 10 -5 -10 12 42 77 55 69 6 -3 7 -1 3 6 -11 18 12 40 37 35
20 -4 19 -3 -3 8 -14 6 -27 13 -28 14 -7 5 15 36 24 34 5 -1 9 3 11 10 1 7 0
6 -4 -1 -4 -8 -8 -7 -14 2 -7 11 -10 9 -15 -8 -4 -13 -10 -20 -15 -17 -5 3 -6
10 -3 16 4 6 3 8 -3 5 -5 -3 -10 0 -10 8 0 11 4 12 13 4 8 -6 14 -6 18 0 3 5
3 11 -1 14 -5 2 -3 3 3 1 6 -1 17 2 23 7 6 5 9 6 6 3 -3 -4 0 -13 6 -20 6 -8
9 -21 5 -29 -3 -8 -1 -15 4 -15 6 0 10 -9 10 -20 0 -11 4 -28 10 -38 5 -9 26
-71 46 -137 20 -65 40 -126 45 -135 7 -13 82 -255 135 -440 9 -30 27 -86 39
-125 26 -82 26 -82 -60 -115 -33 -13 -82 -34 -108 -48 -41 -22 -50 -24 -61
-11 -101 110 -152 167 -211 234 -63 71 -128 143 -248 271 l-39 42 36 114 c20
62 36 123 36 134 0 11 -16 39 -36 62 l-35 42 -107 -5 c-59 -2 -132 -11 -162
-20 -30 -9 -63 -18 -72 -20 -26 -6 -139 -85 -171 -119 -16 -17 -47 -61 -69
-98 -26 -44 -47 -68 -58 -68 -40 0 -100 -72 -116 -139 -2 -9 -9 -35 -17 -59
l-13 -43 -30 43 c-60 85 -138 276 -150 369 -6 43 -4 51 17 69 13 10 30 17 37
15 7 -3 11 -1 8 4 -3 5 3 20 15 35 11 14 23 41 26 60 4 27 12 37 34 45 27 9
33 7 30 -12 0 -4 2 -6 6 -5 5 2 8 -1 8 -7 0 -5 -4 -9 -10 -7 -5 2 -6 0 -2 -5
5 -4 12 -7 15 -6 4 1 14 -4 22 -12 13 -11 18 -11 35 3 20 17 33 78 14 66 -6
-3 -8 -13 -5 -21 4 -9 2 -11 -6 -7 -7 4 -8 3 -4 -5 9 -14 -12 -43 -26 -35 -5
3 -1 12 9 20 10 7 14 14 10 14 -4 0 -3 9 2 19 8 14 7 22 -3 30 -7 6 -16 8 -20
4 -4 -4 -4 0 -1 10 6 15 9 14 26 -6 10 -12 18 -17 19 -10 0 6 -4 15 -10 18 -5
3 -10 11 -10 18 0 6 7 2 15 -9 8 -10 15 -14 15 -8 0 19 -26 48 -34 36 -4 -6
-12 -9 -20 -6 -9 3 -12 -5 -10 -31 2 -21 -1 -33 -6 -30 -6 4 -7 -2 -3 -12 5
-16 4 -17 -11 -2 -14 12 -14 20 -5 47 6 18 9 38 6 46 -3 7 1 31 8 52 8 22 15
37 15 34 10 -38 9 -61 -1 -54 -8 5 -9 3 -3 -7 5 -8 9 -17 10 -21 1 -5 2 -11 3
-14 0 -3 6 -2 11 1 7 5 8 11 1 19 -6 7 -6 17 -1 26 7 11 10 11 11 3 3 -28 4
-32 13 -40 5 -4 7 3 4 19 -4 23 -3 25 14 15 10 -7 18 -15 18 -20 0 -4 -3 -6
-7 -4 -5 3 -9 -5 -9 -18 -1 -18 3 -23 17 -20 13 3 18 -1 16 -13 -1 -9 -7 -17
-12 -17 -6 0 -9 6 -7 15 2 10 -1 9 -9 -4 -9 -14 -8 -20 2 -27 7 -4 17 -5 23
-2 5 3 6 1 2 -6 -4 -6 -12 -9 -17 -6 -5 4 -8 -12 -7 -35 1 -25 4 -36 9 -28 8
13 12 14 44 17 8 0 15 6 15 12 0 5 -4 7 -10 4 -5 -3 -10 -1 -10 4 0 20 -2 26
-11 37 -6 7 -2 17 11 29 19 18 29 9 11 -10 -5 -6 -5 -18 0 -30 9 -18 9 -18 5
2 -4 25 9 41 16 20 3 -6 4 -24 3 -39 -1 -16 1 -28 5 -28 4 0 6 -12 5 -27 -1
-16 -7 -27 -14 -25 -8 1 -9 -2 -4 -10 14 -23 10 -52 -11 -76 -21 -23 -31 -57
-15 -46 5 3 7 9 4 13 -2 5 6 18 19 30 16 15 23 31 21 52 -1 16 1 32 6 34 4 3
6 14 4 25 -4 22 19 44 39 37 8 -3 20 1 26 8 7 8 17 12 24 8 15 -10 36 -13 35
-5 -1 4 -1 18 0 32 1 18 4 21 10 12 4 -8 7 -25 5 -39 -3 -31 9 -21 13 12 2 13
-1 26 -7 30 -6 4 -4 15 6 30 10 16 12 25 4 30 -6 3 -8 10 -5 15 3 5 1 12 -5
15 -7 4 -10 -6 -8 -29 1 -19 -2 -39 -7 -43 -4 -4 -5 0 -2 10 4 11 1 17 -8 17
-10 0 -15 11 -15 36 0 19 -4 33 -9 30 -5 -3 -15 2 -22 12 -13 15 -12 16 3 4
14 -11 18 -10 27 6 7 13 7 22 -1 30 -7 7 -8 12 -3 12 4 0 0 9 -10 20 -14 15
-21 17 -32 9 -14 -13 -15 -13 -18 17 -1 12 4 21 12 21 9 0 10 -4 3 -11 -5 -5
-10 -15 -10 -20 1 -6 10 0 21 14 14 17 20 19 17 8 -1 -9 2 -17 7 -17 6 -1 11
4 11 9 3 20 4 21 15 15 7 -5 5 -13 -5 -24 -12 -13 -13 -20 -4 -29 7 -7 8 -12
3 -12 -4 0 0 -9 10 -20 10 -11 23 -17 29 -13 7 4 6 1 -1 -8 -10 -12 -9 -20 2
-36 8 -11 11 -24 7 -28 -4 -5 -1 -5 6 -1 7 4 10 18 8 32 -4 21 -3 24 9 14 8
-7 12 -16 9 -21 -12 -20 8 -30 27 -13 10 9 19 12 19 6 0 -6 -4 -13 -9 -16 -9
-6 -22 -46 -16 -46 2 0 12 16 21 35 9 19 23 35 31 35 8 0 11 5 8 10 -5 8 -11
7 -21 -1 -11 -9 -14 -8 -14 5 0 11 5 14 12 10 8 -5 9 -2 5 10 -4 10 -7 23 -7
28 0 30 -19 -14 -22 -50 -2 -15 -48 26 -48 42 0 6 4 5 9 -2 6 -10 10 -7 15 11
7 31 -2 59 -18 50 -7 -4 -7 -1 1 7 8 9 9 18 3 25 -6 7 -2 11 13 12 12 0 16 -1
8 -4 -11 -5 -11 -7 0 -14 11 -7 11 -9 1 -9 -10 0 -10 -5 -2 -21 8 -14 8 -29 1
-49 -6 -18 -6 -32 0 -35 5 -4 10 -1 10 4 2 14 6 30 9 34 7 8 7 38 0 42 -19 12
7 49 34 51 25 1 26 0 9 -18 -13 -15 -15 -23 -6 -37 8 -13 8 -22 1 -29 -12 -12
0 -55 13 -46 6 4 6 10 0 18 -7 9 -7 16 1 24 6 6 8 17 6 24 -8 20 -4 32 10 34
6 1 9 -3 5 -9 -9 -16 -11 -77 -1 -83 4 -3 8 -2 9 3 0 4 2 30 4 57 4 49 15 78
15 37 0 -12 4 -20 8 -17 5 3 9 -1 9 -9 0 -8 -4 -12 -8 -9 -4 2 -10 0 -14 -6
-6 -9 8 -14 28 -11 5 1 6 -3 2 -8 -3 -6 -13 -7 -23 -4 -15 6 -15 5 -3 -10 7
-9 18 -14 25 -10 6 3 6 0 -1 -8 -16 -16 -17 -33 -1 -23 7 5 8 3 3 -7 -5 -7
-10 -29 -11 -49 -3 -50 -3 -52 -12 -46 -10 6 -8 67 1 83 4 7 1 10 -8 9 -18 -3
-19 -5 -10 -29 7 -17 -13 -53 -23 -42 -3 2 0 10 6 17 7 9 6 19 -4 33 -15 19
-15 19 -10 -7 2 -14 -2 -35 -9 -45 -12 -16 -13 -13 -10 22 3 30 2 36 -6 23 -5
-10 -8 -19 -7 -22 2 -2 -5 -13 -15 -24 -10 -11 -17 -23 -15 -28 2 -5 -1 -10
-7 -11 -5 -1 -9 6 -7 15 2 15 1 15 -8 -1 -6 -9 -15 -15 -19 -13 -4 3 -8 -2 -8
-10 0 -10 4 -11 11 -4 6 6 16 4 29 -7 10 -10 17 -13 15 -8 -2 6 2 11 7 13 6 1
10 -2 10 -7 0 -5 4 -13 8 -18 5 -4 7 -1 5 7 -1 8 2 14 8 13 6 -1 10 9 8 22 -1
14 2 27 6 30 5 3 7 -3 5 -15 -2 -11 0 -22 5 -25 5 -3 7 -12 4 -20 -4 -8 -11
-12 -18 -8 -6 4 -5 -1 3 -10 14 -18 22 -22 20 -9 -3 20 2 33 11 27 6 -4 8 -11
5 -16 -4 -5 -1 -9 5 -9 6 0 8 -5 4 -12 -6 -10 -5 -10 8 -1 8 7 17 10 20 8 3
-3 5 2 4 12 0 10 4 18 9 18 6 0 9 -3 8 -7 -4 -11 26 -17 33 -6 4 7 3 8 -4 4
-14 -8 -12 20 2 43 8 12 11 11 22 -4 9 -12 10 -22 4 -30 -7 -8 -5 -12 5 -12 7
0 13 3 12 6 -1 3 3 6 8 6 6 0 9 -4 7 -8 -1 -5 2 -6 8 -2 8 5 8 11 0 20 -8 10
-8 15 0 20 6 4 9 13 6 21 -3 7 -1 16 4 19 6 4 10 11 10 18 0 6 -7 2 -15 -9
-17 -22 -20 -12 -4 17 8 16 13 18 24 9 11 -9 12 -17 4 -31 -5 -10 -7 -19 -4
-19 3 0 1 -10 -6 -21 -8 -15 -8 -19 0 -15 14 9 14 1 0 -27 -10 -21 -10 -21 5
-3 9 11 16 23 16 28 0 4 5 8 11 8 5 0 8 -3 5 -8 -2 -4 2 -16 10 -27 14 -19 15
-19 12 0 -5 31 -19 47 -35 41 -9 -4 -13 -1 -10 6 2 7 10 12 16 11 6 -2 10 0 9
5 -1 4 3 17 10 28 6 12 8 25 4 29 -4 3 -7 11 -7 16 0 5 -4 9 -10 9 -5 0 -10
-4 -10 -10 0 -5 -4 -10 -10 -9 -5 0 -9 8 -7 17 2 15 1 15 -7 2 -9 -12 -11 -13
-11 -1 0 19 -10 9 -14 -15 -3 -11 -7 -26 -11 -35 -3 -10 -2 -20 4 -24 6 -3 11
-12 11 -18 -1 -7 -10 -1 -21 13 -12 14 -24 25 -28 25 -8 0 -2 18 11 30 8 7 9
5 5 -8 -4 -11 -3 -16 4 -12 6 4 8 13 5 20 -2 7 0 17 6 23 6 6 6 12 -1 16 -6 4
-11 1 -11 -6 0 -8 -5 -19 -12 -26 -14 -14 -38 2 -38 26 0 13 3 12 14 -3 13
-18 14 -18 25 3 7 14 17 20 24 15 20 -12 68 -13 61 -1 -4 6 -2 8 4 4 6 -3 14
3 17 15 4 11 9 18 12 16 2 -3 0 -15 -7 -26 -6 -12 -7 -21 -2 -21 5 0 14 11 20
24 8 19 8 27 -2 35 -7 6 -17 7 -21 3 -5 -4 -5 -2 -1 5 3 6 2 14 -4 18 -6 4 0
20 16 41 26 34 35 41 33 27z m1167 -8 c-1 -8 -5 -17 -9 -21 -3 -4 -2 -15 4
-26 8 -15 14 -17 24 -8 9 8 15 8 20 0 4 -6 1 -9 -5 -8 -7 2 -14 -5 -15 -16 -2
-10 -9 -24 -15 -30 -8 -8 -9 -6 -4 8 5 13 4 17 -4 12 -6 -3 -14 -2 -17 4 -4 6
-3 9 2 8 4 -2 8 2 8 7 0 6 -4 9 -8 7 -5 -1 -6 2 -2 8 4 6 1 18 -6 26 -10 12
-10 15 1 12 8 -2 15 3 16 10 2 19 4 22 8 22 2 0 3 -7 2 -15z m69 5 c4 -6 1 -9
-7 -8 -7 2 -12 -3 -10 -10 1 -8 -2 -11 -8 -7 -5 3 -10 0 -10 -7 0 -9 -3 -9
-10 2 -5 8 -10 20 -10 25 0 6 4 4 9 -3 6 -10 10 -10 21 3 15 18 17 18 25 5z
m-1828 -6 c-3 -4 -2 -16 4 -28 10 -20 10 -20 -5 -2 -15 18 -21 15 -17 -8 1 -5
-5 -4 -13 3 -16 13 -12 36 4 26 5 -3 11 -1 15 5 3 5 9 10 12 10 4 0 3 -3 0 -6z
m1311 -19 c-3 -3 -9 2 -12 12 -6 14 -5 15 5 6 7 -7 10 -15 7 -18z m593 10 c7
20 8 20 8 0 1 -17 3 -18 12 -5 8 12 9 9 4 -10 -5 -23 -5 -23 8 -8 22 27 40 2
21 -28 -15 -21 -14 -23 5 -21 14 1 20 6 16 15 -2 7 -1 10 4 7 6 -3 8 -36 5
-73 -5 -74 -21 -160 -23 -124 0 12 -7 22 -13 22 -10 0 -10 2 0 8 8 5 10 16 6
27 -5 11 -4 16 3 12 5 -3 10 -1 11 6 1 7 4 26 7 42 4 24 3 26 -4 10 -8 -17
-10 -18 -10 -2 -1 9 -5 17 -10 17 -5 0 -8 -8 -7 -17 0 -10 -5 -17 -11 -15 -7
1 -12 -1 -12 -5 3 -20 -2 -34 -10 -29 -5 3 -8 24 -7 46 1 23 -1 43 -6 46 -5 3
-6 10 -3 15 8 12 -4 51 -14 45 -4 -3 -8 5 -8 17 -2 21 -1 21 9 2 11 -19 11
-19 19 0z m541 -2 c-5 -10 -7 -25 -5 -33 4 -13 3 -13 -6 0 -6 8 -11 12 -11 8
0 -3 -3 -14 -7 -24 -5 -13 -3 -15 7 -9 9 6 11 4 5 -5 -6 -10 -11 -9 -22 5 -12
18 -18 13 -13 -10 1 -5 -2 -7 -6 -2 -4 4 -17 -1 -28 -10 -20 -17 -20 -17 -7 0
19 24 -1 21 -35 -5 -16 -12 -26 -18 -22 -13 4 4 2 15 -5 23 -9 13 -9 14 1 8 6
-4 12 -3 12 2 0 10 50 35 57 28 2 -2 16 7 30 20 18 16 29 21 33 13 5 -7 9 -5
13 5 4 9 9 16 12 16 3 0 2 -8 -3 -17z m-2001 -6 c-6 -8 -8 -16 -5 -20 3 -3 -1
-4 -10 -3 -8 1 -19 6 -23 11 -4 4 -3 5 3 2 7 -4 17 0 24 8 7 8 15 15 17 15 3
0 0 -6 -6 -13z m200 -10 c-10 -9 -11 -8 -5 6 3 10 9 15 12 12 3 -3 0 -11 -7
-18z m355 -3 c1 -9 0 -13 -4 -10 -3 4 -7 14 -8 22 -1 9 0 13 4 10 3 -4 7 -14
8 -22z m-839 -2 c0 -10 -6 -19 -13 -19 -9 0 -9 5 -1 19 7 10 13 18 14 18 1 0
1 -8 0 -18z m1248 8 c-3 -5 -1 -10 6 -10 7 0 10 -3 6 -6 -9 -9 -28 6 -22 17 4
5 8 9 11 9 3 0 2 -4 -1 -10z m104 -17 c-6 -7 -15 -10 -20 -7 -13 8 -3 21 15
21 12 0 13 -4 5 -14z m996 -13 c0 -13 20 -13 21 0 3 20 4 21 15 14 7 -4 8 -9
0 -17 -6 -6 -7 -16 -1 -28 7 -12 6 -20 0 -24 -6 -4 -10 -3 -9 2 3 20 -2 34
-11 28 -6 -4 -7 -12 -4 -18 4 -7 3 -8 -2 -4 -5 5 -10 13 -10 18 -1 5 -3 11 -4
14 -1 3 -3 8 -4 13 -1 4 -5 14 -10 22 -7 12 -7 13 5 2 8 -7 14 -17 14 -22z
m-1078 -45 c0 -15 -11 -10 -13 6 -1 5 -2 12 -3 17 -3 17 -28 -45 -26 -65 1
-14 -3 -23 -11 -23 -8 0 -14 -4 -14 -10 0 -5 8 -7 18 -3 14 5 13 3 -3 -11 -15
-12 -15 -14 -4 -10 10 3 20 1 24 -5 3 -6 1 -11 -6 -11 -6 0 -9 -8 -6 -20 3
-11 2 -22 -2 -24 -4 -3 -8 5 -8 16 -1 12 -7 26 -13 32 -8 8 -9 -1 -4 -34 11
-71 -3 -43 -20 43 -17 82 -14 106 10 86 10 -8 11 -16 4 -29 -13 -24 -13 -63 0
-55 6 4 8 11 5 16 -4 5 1 19 9 31 14 20 14 24 -2 42 -16 20 -16 20 0 7 16 -12
19 -10 27 10 9 25 5 43 -8 35 -4 -3 -8 2 -8 10 0 10 8 7 27 -11 15 -14 27 -32
27 -40z m40 38 c0 -9 -4 -10 -14 -2 -7 6 -13 12 -13 14 0 1 6 2 13 2 8 0 14
-6 14 -14z m358 7 c-8 -13 14 -42 25 -35 5 3 11 1 15 -5 4 -6 10 -8 14 -6 4 3
8 -5 8 -17 2 -30 7 -49 17 -66 7 -10 5 -12 -5 -6 -10 6 -9 2 2 -11 9 -10 15
-27 14 -37 -3 -14 0 -16 10 -7 10 8 16 4 27 -17 15 -31 15 -33 -26 -333 -43
-317 -57 -415 -60 -417 -6 -6 -310 -43 -321 -39 -6 2 -17 30 -24 62 -7 33 -32
138 -56 234 -57 228 -105 429 -105 441 0 6 9 8 19 4 11 -3 22 -1 26 5 3 6 11
7 17 4 7 -5 8 -2 3 5 -4 7 -9 29 -10 49 -2 20 -6 51 -9 67 -3 17 -2 24 1 16 4
-10 9 -5 17 15 10 24 13 26 19 11 4 -11 3 -16 -4 -12 -6 4 -9 -8 -8 -34 2 -23
7 -41 12 -41 5 0 7 10 4 23 -3 12 1 31 10 42 9 11 13 14 10 5 -2 -8 0 -23 5
-33 7 -14 12 -16 24 -7 7 7 11 17 8 22 -4 6 -9 6 -14 -2 -4 -6 -7 4 -7 22 -1
18 1 27 4 20 3 -6 9 -10 14 -7 5 4 6 0 3 -8 -6 -17 36 -18 49 -2 5 6 6 1 2
-10 -4 -11 -9 -29 -11 -40 -4 -19 -4 -19 4 -1 5 11 11 15 15 10 8 -14 -9 -38
-22 -30 -6 4 -11 2 -11 -3 0 -6 7 -11 15 -11 13 0 11 -6 -6 -29 -12 -16 -19
-35 -16 -43 4 -9 6 -7 6 5 1 10 5 15 11 12 6 -4 7 1 3 12 -6 16 -5 16 10 4 9
-7 15 -17 12 -21 -3 -5 3 -7 12 -5 10 1 23 -2 30 -7 7 -6 16 -2 26 12 12 17
16 18 26 7 6 -8 10 -16 8 -18 -1 -3 4 1 12 7 10 9 10 17 3 30 -7 12 -7 25 -1
37 6 10 7 28 3 40 -6 19 -5 20 9 9 8 -7 14 -21 12 -30 -2 -9 -4 -17 -5 -17 -7
0 -6 -36 1 -41 5 -3 5 -14 -2 -27 -7 -15 -3 -12 15 8 14 17 25 25 26 20 0 -6
-5 -16 -12 -23 -9 -9 -6 -11 10 -7 21 4 28 -9 23 -38 -1 -5 3 -6 8 -2 11 6 5
31 -12 53 -9 11 -6 15 10 10 4 -2 8 -9 10 -17 1 -7 6 -18 12 -24 8 -8 6 -16
-5 -28 -12 -13 -12 -19 -3 -25 7 -4 10 -3 5 4 -3 6 -2 13 4 17 5 3 15 15 20
25 8 16 7 18 -4 14 -10 -4 -14 0 -12 12 3 18 -19 70 -34 79 -4 3 -11 -2 -14
-11 -3 -8 -2 -12 3 -9 5 3 13 0 17 -6 4 -8 3 -9 -4 -5 -7 4 -12 2 -12 -5 0
-10 -3 -10 -12 -1 -10 10 -10 17 0 32 8 13 8 21 1 25 -6 5 -6 12 3 23 8 10 9
13 1 9 -6 -4 -14 -3 -18 3 -3 5 2 10 12 10 10 0 14 4 8 8 -5 4 -11 16 -13 27
-2 17 0 16 12 -5 8 -14 12 -28 10 -31 -2 -4 3 -12 11 -19 11 -9 12 -16 5 -25
-7 -9 -6 -16 3 -24 11 -9 14 -5 15 19 0 16 -4 32 -9 35 -5 4 -9 11 -9 18 0 6
7 2 16 -9 13 -16 15 -16 10 -1 -7 24 1 21 15 -4 8 -15 8 -19 0 -15 -6 4 -11 0
-11 -9 0 -9 4 -14 8 -11 5 3 9 -1 9 -9 0 -8 -4 -12 -9 -9 -4 3 -8 1 -8 -5 0
-5 5 -13 10 -16 8 -5 7 -11 -1 -21 -9 -11 -8 -14 2 -14 11 0 11 -2 -1 -10 -13
-8 -12 -10 3 -10 14 0 17 5 11 22 -6 20 -5 21 9 9 9 -7 14 -17 11 -22 -3 -5 0
-8 8 -7 7 2 12 -3 10 -11 -2 -11 0 -12 11 -3 8 7 16 10 18 8 10 -10 2 81 -8
100 -9 16 -9 24 0 35 7 7 2 5 -10 -4 -14 -12 -23 -15 -28 -8 -3 6 -1 11 4 11
6 0 11 5 11 11 0 5 -5 7 -10 4 -6 -4 -10 -3 -9 2 3 20 -2 34 -11 28 -7 -4 -7
-12 0 -25 7 -13 7 -21 0 -25 -5 -3 -10 2 -10 12 0 11 -6 25 -12 32 -8 8 -8 11
-2 8 15 -8 39 19 25 27 -5 3 -11 0 -14 -6 -3 -7 -4 1 -2 17 3 35 3 35 11 35 3
0 2 -5 -1 -10z m-4685 -107 c3 -155 6 -229 13 -303 4 -36 9 -144 12 -240 3
-96 8 -191 10 -210 6 -65 20 -474 20 -620 l0 -144 -42 -12 c-23 -7 -56 -14
-74 -16 l-32 -3 -57 195 c-31 107 -60 206 -63 220 -5 19 2 34 30 65 66 74 163
203 163 216 -1 8 -27 34 -60 58 -32 24 -78 63 -101 87 l-42 43 31 113 c17 62
39 147 48 188 18 83 48 188 92 325 20 62 26 95 20 108 -12 24 -46 5 -54 -31
-4 -15 -9 -31 -13 -37 -3 -5 -7 -14 -8 -20 -22 -90 -50 -164 -60 -161 -20 8
-34 -20 -54 -116 -11 -51 -21 -100 -23 -108 -2 -8 -7 -37 -10 -64 -4 -27 -9
-52 -11 -55 -8 -15 -42 -257 -60 -436 -8 -88 -17 -180 -20 -205 -3 -25 -7
-117 -11 -205 -8 -218 -3 -199 -55 -205 -31 -4 -45 -10 -47 -22 -5 -26 35 -32
172 -24 182 11 342 42 526 102 41 13 75 24 77 24 1 0 -5 -19 -13 -42 -32 -90
-11 -173 54 -222 l34 -25 -69 -20 c-210 -61 -574 -124 -793 -137 -83 -5 -99
-3 -126 14 -56 36 -63 68 -54 232 13 225 29 415 45 530 8 58 16 128 19 155 14
123 67 508 81 580 8 44 24 142 35 218 11 76 25 147 30 158 17 31 79 64 160 85
41 10 80 19 85 19 6 0 15 4 22 8 6 4 46 16 90 26 43 11 79 20 80 20 0 1 2 -47
3 -106z m482 95 c-7 -7 -8 -17 -3 -27 5 -9 9 -19 10 -24 0 -4 8 -24 17 -45 9
-20 22 -53 29 -72 7 -19 58 -127 113 -240 55 -113 108 -227 117 -253 l18 -48
-34 -32 c-31 -29 -145 -165 -162 -194 -5 -7 9 -27 34 -50 60 -54 80 -74 114
-112 l30 -34 -43 7 c-60 9 -98 -13 -123 -70 -10 -25 -19 -52 -19 -60 0 -8 -6
-14 -14 -14 -16 0 -22 52 -31 270 -20 495 -28 614 -51 787 -26 190 -26 223 -2
223 9 0 9 -3 0 -12z m2473 3 c3 -5 2 -12 -3 -15 -5 -3 -9 1 -9 9 0 17 3 19 12
6z m110 0 c3 -5 2 -12 -3 -15 -5 -3 -9 1 -9 9 0 17 3 19 12 6z m807 -1 c4 -28
2 -33 -13 -35 -11 -2 -15 4 -14 19 3 26 3 26 15 26 6 0 11 -4 12 -10z m345 -5
c0 -8 -4 -12 -9 -9 -5 3 -6 10 -3 15 9 13 12 11 12 -6z m-3659 -4 c9 -5 35
-14 57 -21 48 -15 117 -44 165 -70 31 -16 37 -26 57 -96 19 -67 108 -409 118
-454 2 -8 11 -40 19 -71 17 -64 93 -391 106 -458 7 -37 64 -290 85 -377 4 -17
-2 -23 -36 -34 -44 -15 -53 -24 -45 -45 4 -12 16 -11 73 6 37 11 174 44 303
75 129 30 354 85 500 121 146 36 290 71 321 77 l56 13 -9 -49 c-11 -62 4 -148
36 -203 l25 -41 -72 -17 c-40 -9 -180 -39 -312 -67 -132 -28 -321 -68 -420
-90 -475 -104 -519 -110 -576 -69 -33 23 -42 46 -73 191 l-25 118 31 62 c28
53 32 72 33 141 0 58 -4 82 -15 90 -8 7 -23 28 -33 48 -19 36 -18 38 12 214
31 186 30 225 -7 225 -11 0 -36 -11 -56 -25 l-36 -24 -1 112 c-1 176 -16 238
-44 179 -8 -18 -23 7 -98 161 -104 213 -179 387 -166 387 5 0 17 -4 27 -9z
m2459 -6 c0 -8 -4 -12 -9 -9 -4 3 -8 9 -8 15 0 5 4 9 8 9 5 0 9 -7 9 -15z
m716 -6 c-8 -8 -13 -7 -18 2 -5 8 -4 10 3 5 7 -4 12 -2 12 5 0 7 3 9 7 6 4 -4
2 -12 -4 -18z m1703 4 c-9 29 10 10 24 -23 7 -16 17 -27 22 -24 5 3 4 12 -3
20 -6 8 -10 14 -8 15 32 6 40 5 46 -4 10 -17 11 -77 1 -71 -5 3 -6 9 -3 14 3
4 -2 13 -9 19 -11 9 -16 9 -22 -1 -13 -20 -15 -50 -4 -43 5 3 10 14 11 23 0
14 2 14 6 2 12 -32 25 -41 40 -28 8 6 13 7 12 2 -4 -21 2 -28 12 -14 9 13 10
13 7 0 -2 -8 2 -15 7 -15 5 0 9 7 7 15 -2 13 -2 13 7 0 5 -8 7 -19 3 -24 -9
-16 -2 -79 11 -95 10 -12 9 -13 -2 -6 -10 6 -12 4 -7 -4 8 -12 14 -12 14 -1 1
3 5 17 11 33 6 15 6 27 1 27 -4 0 -11 -8 -13 -17 -3 -13 -5 -11 -6 6 -1 18 3
22 18 18 22 -5 35 15 20 30 -6 6 -4 10 5 10 8 0 15 -3 14 -6 -2 -19 4 -24 12
-11 6 10 3 22 -13 40 -20 22 -20 23 -1 7 11 -9 23 -14 27 -11 8 8 1 -32 -8
-46 -4 -6 -11 -8 -16 -5 -9 6 -12 -5 -10 -40 l1 -20 -9 20 c-8 17 -10 14 -10
-16 -1 -36 -20 -89 -33 -89 -5 0 -8 -7 -8 -15 0 -8 -5 -15 -12 -15 -6 0 -9 -3
-5 -6 7 -8 -46 -116 -78 -159 -13 -16 -26 -40 -30 -53 -4 -13 -22 -51 -42 -85
-19 -34 -45 -85 -58 -113 -23 -50 -67 -93 -110 -108 -11 -4 -64 -34 -117 -67
-92 -56 -148 -74 -162 -50 -4 5 12 168 35 363 22 194 43 376 46 403 3 28 9 55
13 60 4 6 11 39 14 75 4 35 8 65 9 66 10 9 41 6 43 -4 1 -7 0 -8 -3 -2 -6 13
-33 -6 -33 -24 0 -6 5 -4 11 4 10 13 10 13 6 0 -11 -35 35 -60 53 -30 7 12 9
11 9 -5 -1 -11 2 -30 5 -43 3 -13 1 -20 -5 -17 -5 4 -9 2 -9 -4 0 -5 -3 -18
-6 -28 -5 -17 -5 -17 10 1 14 18 15 16 12 -18 -4 -41 -16 -62 -16 -28 0 11 -5
24 -11 27 -6 4 -8 14 -4 22 7 21 -4 55 -16 47 -6 -4 -6 -11 1 -19 7 -9 8 -15
1 -19 -11 -7 22 -81 41 -92 5 -3 4 -11 -3 -20 -6 -8 -8 -14 -4 -14 4 0 2 -6
-4 -14 -8 -10 -9 -16 -1 -21 6 -3 7 -11 4 -17 -4 -7 -2 -8 5 -4 8 6 9 12 2 20
-6 7 -7 16 -3 20 4 4 8 12 8 17 1 5 3 10 4 12 1 1 4 16 5 32 2 17 4 31 5 33 6
6 6 28 -1 42 -9 18 35 78 45 62 4 -6 13 -9 20 -6 9 3 12 -4 11 -25 -1 -17 2
-28 5 -26 4 3 13 -2 19 -9 8 -9 8 -17 2 -20 -5 -3 -11 -3 -14 1 -2 5 -3 3 -1
-4 1 -6 0 -14 -4 -18 -10 -9 -11 -65 -1 -59 4 2 5 12 2 21 -4 11 -2 14 5 9 7
-4 10 1 7 14 -2 11 0 22 6 25 5 4 10 1 10 -4 1 -6 2 -17 4 -23 1 -7 -5 -24
-12 -38 -12 -22 -11 -21 11 4 22 27 23 31 10 52 -10 15 -12 24 -4 29 9 6 9 14
-3 70 -3 11 1 29 9 40 8 10 15 13 15 7 1 -7 3 -16 4 -22 1 -5 3 -13 4 -17 1
-5 5 -1 11 7 6 9 5 20 -3 29 -9 11 -9 13 0 8 6 -4 13 -2 16 5 2 7 3 5 2 -4 -3
-20 18 -41 31 -30 4 4 3 0 -3 -8 -7 -9 -8 -21 -4 -29 10 -16 22 -16 32 1 7 10
9 10 9 -2 0 -13 1 -13 10 0 7 11 10 11 10 2 0 -7 5 -10 10 -7 7 5 8 11 1 19
-5 6 -9 21 -7 31 4 26 -14 66 -26 59 -5 -4 -5 -11 0 -17 22 -29 0 -58 -25 -33
-4 4 -2 6 6 4 7 -1 16 3 18 10 3 7 1 12 -4 11 -20 -3 -25 2 -14 15 8 10 9 16
1 21 -5 3 -10 11 -10 18 0 6 7 2 16 -9 14 -17 15 -17 10 -1z m-785 -16 c-10
-9 -11 -8 -5 6 3 10 9 15 12 12 3 -3 0 -11 -7 -18z m-1716 4 c3 -5 2 -12 -3
-15 -5 -3 -9 1 -9 9 0 17 3 19 12 6z m866 -8 c13 -17 13 -17 -5 -3 -17 14 -18
13 -12 -7 4 -12 3 -24 -2 -26 -4 -3 -7 6 -6 21 2 39 5 41 25 15z m1517 -8 c-3
-3 -9 2 -12 12 -6 14 -5 15 5 6 7 -7 10 -15 7 -18z m-838 0 c8 0 20 3 26 7 6
4 11 2 12 -5 0 -6 3 -21 6 -32 2 -11 5 -22 5 -25 1 -3 5 2 11 10 5 9 5 19 -2
27 -6 8 -8 16 -4 20 3 3 6 0 6 -8 0 -12 2 -11 10 1 8 11 9 8 6 -12 -5 -28 9
-39 17 -15 2 6 3 4 2 -5 -2 -10 1 -21 6 -24 5 -3 7 -9 4 -14 -3 -5 -1 -12 5
-15 8 -5 8 -11 0 -20 -6 -8 -10 -19 -8 -27 1 -7 -2 -14 -7 -15 -11 -3 -14 16
-6 32 11 21 8 34 -10 51 -10 9 -20 14 -20 11 -1 -4 -3 -20 -5 -37 -2 -16 -4
-36 -5 -42 -1 -7 2 -22 7 -33 7 -18 6 -18 -9 -6 -9 7 -14 17 -11 22 3 5 1 8
-4 7 -6 -2 -10 2 -10 7 0 6 5 9 12 7 6 -2 8 0 4 4 -4 4 -3 13 3 21 11 13 10
14 -11 17 -5 0 -9 6 -7 11 1 6 5 9 9 8 3 -1 5 3 4 10 -1 7 -5 13 -10 14 -5 1
-12 6 -15 12 -4 6 -12 7 -21 1 -13 -8 -13 -10 2 -10 17 0 19 -15 5 -37 -4 -7
-3 -22 3 -33 6 -11 8 -20 5 -20 -3 0 -7 0 -10 0 -3 0 -5 3 -6 8 0 4 -5 12 -9
17 -5 6 -5 17 0 25 6 8 10 20 10 25 -1 30 -23 -36 -26 -74 -2 -32 0 -41 7 -29
7 13 21 16 47 9 1 -1 -2 -10 -8 -22 -9 -16 -14 -18 -26 -8 -8 6 -14 8 -14 4 0
-5 -9 0 -20 10 -15 14 -17 21 -9 32 6 7 8 13 5 13 -4 0 -2 8 3 18 7 13 7 22
-1 30 -7 7 -7 16 2 29 10 16 11 16 6 -6 -3 -13 -1 -20 4 -15 15 16 16 49 1 46
-11 -2 -12 0 -3 11 7 8 8 18 4 22 -4 5 0 4 8 -1 8 -4 22 -9 30 -9z m792 -4
c-5 -14 -4 -14 14 -1 18 14 18 14 2 -6 -10 -11 -18 -28 -18 -37 0 -21 -17 -31
-26 -16 -5 9 -14 4 -29 -14 l-21 -27 0 25 c0 14 4 25 8 25 4 0 8 5 8 11 0 5
-4 8 -8 5 -4 -2 -9 5 -9 17 -2 20 -1 20 8 4 9 -15 13 -16 27 -6 14 11 15 11 5
-1 -19 -21 -16 -35 4 -19 11 10 14 10 9 2 -4 -7 -2 -13 4 -13 6 0 9 14 7 33
-3 22 0 34 9 34 7 0 10 -7 6 -16z m-1977 0 c-9 -8 -36 -10 -30 -2 2 4 11 8 20
8 8 0 13 -3 10 -6z m416 0 c6 10 8 7 6 -8 -1 -17 -4 -19 -14 -11 -7 6 -13 16
-12 22 0 6 3 5 6 -3 5 -11 7 -11 14 0z m-901 -27 c0 -8 4 -13 9 -9 5 3 12 1
16 -5 4 -6 10 -8 15 -5 5 3 11 1 14 -4 4 -5 1 -13 -5 -17 -8 -5 -9 -3 -4 7 5
8 4 11 -1 6 -5 -5 -10 -13 -10 -18 -3 -22 -5 -23 -15 -9 -9 13 -10 13 -6 -2 3
-9 0 -21 -6 -27 -10 -7 -12 -3 -11 17 0 17 7 28 17 30 10 2 14 8 11 14 -4 5
-16 0 -30 -13 -13 -12 -24 -17 -24 -11 0 6 5 14 11 18 6 3 9 17 6 30 -2 13 0
21 4 18 5 -3 9 -12 9 -20z m110 11 c5 3 15 -4 23 -15 7 -11 17 -17 22 -12 5 4
5 2 2 -4 -3 -6 0 -22 8 -37 7 -14 11 -28 7 -31 -3 -3 0 -6 5 -6 7 0 9 -10 4
-27 -8 -28 -22 -34 -30 -12 -2 6 1 9 6 6 5 -3 9 7 8 23 0 15 -3 26 -8 23 -4
-2 -7 -1 -6 4 4 21 -2 43 -11 43 -7 0 -7 -6 -1 -19 8 -14 7 -22 -3 -30 -10 -8
-16 -5 -25 15 -6 15 -7 23 -1 19 5 -3 10 0 10 8 0 10 -7 13 -20 10 -15 -4 -17
-9 -10 -23 7 -13 7 -21 0 -25 -6 -4 -8 -11 -5 -16 4 -5 3 -15 -2 -21 -13 -22
-12 -37 3 -31 8 3 11 10 7 16 -3 6 -1 7 6 3 8 -5 10 0 7 18 -3 15 -1 24 4 21
4 -3 7 -16 6 -30 -2 -13 1 -22 6 -19 5 3 7 12 4 19 -3 8 2 19 10 26 13 10 14
8 10 -16 -6 -31 -36 -70 -36 -46 0 10 -6 10 -25 -3 -14 -9 -25 -13 -26 -9 0 5
-2 16 -4 25 -2 9 3 19 11 22 8 3 14 11 14 17 0 8 -5 7 -17 -2 -10 -7 -15 -10
-11 -5 4 5 0 15 -9 24 -14 14 -13 18 8 35 19 15 21 22 11 37 -9 15 -8 18 6 15
9 -1 16 -8 14 -15 -1 -6 2 -9 8 -5 6 4 8 16 5 28 -2 12 -2 16 1 9 3 -6 10 -10
14 -7z m835 -4 c-3 -5 -1 -12 5 -16 5 -3 10 -11 10 -16 0 -6 -4 -8 -9 -4 -6 3
-15 -4 -21 -16 -7 -11 -14 -18 -17 -16 -2 3 0 15 7 26 6 12 8 21 6 21 -3 0
-10 -9 -16 -21 -8 -15 -8 -24 0 -34 9 -10 7 -20 -5 -39 -10 -14 -14 -26 -11
-26 4 0 4 -5 1 -10 -5 -8 -12 -7 -22 1 -12 11 -12 14 0 21 9 5 14 20 13 40 -2
18 2 39 8 47 8 11 8 13 0 8 -7 -4 -14 1 -17 13 -4 16 -2 17 15 7 17 -10 22 -9
32 6 11 17 32 25 21 8z m53 -3 c-2 -6 6 -22 19 -34 22 -22 23 -26 9 -51 -15
-27 -73 -100 -62 -76 4 6 2 15 -4 18 -8 5 -8 11 0 20 7 8 9 18 6 23 -3 6 1 15
10 22 13 12 14 10 10 -13 -2 -15 -8 -32 -11 -39 -4 -7 2 -2 13 11 11 14 17 31
14 40 -3 9 -1 12 6 7 6 -3 14 -1 18 5 4 8 3 9 -4 5 -10 -6 -16 4 -14 25 1 3
-6 6 -14 6 -10 0 -11 -4 -4 -11 14 -14 13 -27 -2 -23 -24 4 -27 21 -10 49 17
29 27 37 20 16z m-534 -70 c-2 -3 9 -16 26 -28 17 -12 27 -26 24 -31 -3 -6
-13 -1 -21 11 -14 20 -16 20 -34 4 -10 -9 -16 -22 -12 -28 4 -6 0 -5 -9 2 -12
10 -17 10 -27 -1 -6 -8 -8 -16 -5 -19 3 -3 -1 -9 -8 -14 -7 -4 -10 -4 -6 1 4
4 -3 16 -16 26 -16 13 -22 26 -19 39 9 33 21 32 18 0 -1 -17 3 -33 9 -37 6 -3
8 -2 3 2 -4 5 1 17 10 27 9 10 17 33 18 51 1 18 5 40 10 50 6 15 10 13 25 -15
10 -18 16 -36 14 -40z m2029 50 c-10 -12 -12 -18 -4 -18 7 0 9 -5 6 -10 -10
-17 -25 -1 -21 23 5 26 3 24 21 24 13 0 13 -3 -2 -19z m-2213 -2 c0 -3 -4 -8
-10 -11 -5 -3 -10 -1 -10 4 0 6 5 11 10 11 6 0 10 -2 10 -4z m1730 -5 c0 -6
-5 -13 -11 -16 -6 -4 -8 -13 -5 -20 3 -8 -3 -19 -12 -27 -10 -8 -13 -8 -9 -1
4 6 3 14 -3 18 -6 4 -4 15 6 31 16 24 34 32 34 15z m-1420 -41 c-6 -10 -15
-22 -21 -26 -8 -4 -8 0 0 15 7 11 9 21 6 21 -4 0 -3 5 0 10 12 19 26 0 15 -20z
m374 -12 c-3 -4 -10 -6 -15 -2 -5 3 -6 10 -3 16 5 7 2 8 -5 4 -9 -6 -9 -12 3
-25 9 -10 16 -22 16 -27 -1 -5 -9 1 -20 14 -16 19 -17 27 -7 43 11 18 13 18
24 3 7 -9 10 -21 7 -26z m924 14 c-10 -12 -10 -14 0 -8 14 9 16 -5 2 -22 -6
-6 -7 -9 -3 -7 4 3 13 -5 21 -17 11 -18 12 -19 7 -3 -10 31 -13 65 -6 70 11 6
27 -28 25 -52 -1 -13 -2 -31 -3 -40 -1 -14 -7 -11 -30 11 -23 22 -29 35 -26
60 4 40 3 38 15 31 8 -5 7 -12 -2 -23z m-182 -4 c4 4 2 -1 -5 -11 -11 -14 -16
-15 -22 -5 -13 20 -10 32 4 19 8 -6 18 -7 23 -3z m795 3 c0 -3 2 -17 5 -31 l4
-25 -20 24 c-11 13 -20 26 -20 30 0 9 30 10 31 2z m307 -16 c-6 -14 -13 -23
-15 -21 -5 5 15 46 22 46 3 0 -1 -11 -7 -25z m393 -8 c-10 -9 -11 -8 -5 6 3
10 9 15 12 12 3 -3 0 -11 -7 -18z m-2887 -2 c-4 -8 -1 -15 5 -15 6 0 8 -7 4
-16 -5 -14 -7 -14 -21 0 -13 12 -13 18 -2 30 16 20 21 20 14 1z m1142 -17 c-1
-18 -5 -39 -9 -46 -9 -14 -27 -7 -27 11 0 7 4 6 10 -3 11 -17 12 -16 15 30 3
39 4 40 9 40 2 0 3 -15 2 -32z m-1552 -30 c-5 -7 -9 -16 -9 -20 0 -3 -3 -9 -7
-13 -8 -8 -4 13 7 38 4 10 10 16 12 13 3 -3 1 -11 -3 -18z m96 -23 c0 -6 -6
-12 -13 -12 -8 0 -14 6 -14 12 0 6 6 12 14 12 7 0 13 -6 13 -12z m3112 -87
c-3 -13 -1 -19 5 -15 6 4 9 -8 9 -28 -1 -20 -5 -35 -10 -34 -5 0 -13 -5 -17
-13 -7 -10 -9 -10 -9 2 0 12 -2 12 -9 2 -7 -11 -9 -10 -14 3 -5 10 -3 14 4 9
7 -4 10 -1 7 7 -3 8 3 31 14 52 21 41 29 48 20 15z m-8960 -8 l27 0 -19 -33
c-36 -60 -95 -111 -140 -119 -3 -1 -20 -7 -38 -15 -83 -35 -219 -8 -285 55
-29 27 -67 91 -67 113 0 9 59 11 248 6 136 -4 259 -7 274 -7z m393 -14 c-14
-22 -14 -25 0 -40 22 -22 48 -20 70 4 17 19 17 21 1 39 -19 21 -21 21 189 6
33 -2 66 -4 73 -4 9 -1 9 -9 -4 -32 -55 -107 -198 -149 -310 -91 -44 23 -109
90 -117 123 -5 17 0 19 54 19 l59 0 -15 -24z m8634 -65 c2 -1 -1 -7 -6 -13
-12 -17 -11 -38 2 -37 6 0 9 6 7 14 -1 7 1 16 6 19 4 2 8 -5 8 -17 -1 -12 4
-23 9 -23 6 -1 9 1 8 5 -1 4 5 8 13 8 11 0 11 -4 -3 -19 -9 -10 -13 -18 -10
-18 17 0 23 -2 38 -16 16 -14 20 -57 6 -70 -4 -4 -1 -17 7 -28 7 -12 12 -34
11 -51 -1 -16 1 -34 4 -40 3 -5 6 -28 7 -50 0 -22 -1 -34 -3 -27 -3 6 -9 10
-13 7 -5 -3 -12 -1 -15 5 -4 6 -1 9 5 8 7 -2 14 9 15 25 3 18 0 25 -7 21 -6
-4 -8 -2 -4 4 3 6 2 13 -4 17 -9 6 -14 -8 -11 -28 1 -5 -3 -6 -9 -2 -7 4 -7
12 0 25 7 13 6 20 -3 24 -6 3 -4 4 7 3 13 -1 20 5 22 21 3 14 0 21 -6 17 -6
-4 -10 -3 -9 2 4 22 -2 34 -13 27 -10 -6 -10 -4 -2 7 13 18 11 45 -3 42 -7 -2
-10 6 -8 17 2 10 -3 24 -11 30 -12 10 -13 5 -9 -31 3 -33 2 -38 -4 -19 l-9 25
-2 -25 -2 -25 -9 25 c-8 23 -8 22 -5 -8 1 -18 -1 -35 -6 -38 -5 -3 -5 -10 -2
-16 4 -6 10 -5 16 3 8 11 9 10 5 -3 -3 -9 2 -22 10 -30 15 -11 16 -11 10 5 -4
11 -3 16 4 12 5 -4 8 -12 6 -18 -2 -7 0 -20 4 -29 6 -10 5 -19 -1 -23 -6 -4
-10 -3 -9 2 1 4 1 15 0 23 -1 13 -2 13 -11 0 -6 -10 -10 -11 -10 -2 0 6 -8 12
-17 12 -14 0 -15 -2 -5 -9 11 -7 11 -9 -1 -14 -8 -3 -20 0 -26 6 -8 8 -11 8
-11 0 0 -16 25 -34 36 -25 4 4 4 0 -2 -8 -17 -25 -3 -67 18 -54 6 4 8 2 5 -3
-4 -6 0 -16 7 -23 8 -6 13 -21 11 -32 -3 -12 0 -27 5 -34 8 -8 5 -14 -7 -18
-10 -4 -14 -4 -10 0 4 4 0 15 -8 24 -8 9 -16 30 -18 46 -4 37 -15 56 -28 49
-5 -4 -12 1 -15 9 -3 9 -11 13 -17 9 -5 -3 -7 -1 -4 4 8 13 -17 35 -29 25 -4
-4 -2 2 6 12 14 18 13 19 -5 13 -16 -6 -15 -4 5 12 21 17 22 21 10 37 -8 9
-14 19 -12 21 6 9 1 23 -8 18 -7 -4 -6 -13 1 -27 8 -15 8 -19 0 -14 -6 4 -11
2 -11 -4 0 -7 7 -10 18 -6 14 5 14 4 -2 -9 -26 -20 -40 -19 -31 3 13 30 13 56
0 82 -11 21 -11 30 0 49 l13 24 6 -21 c4 -12 15 -22 24 -23 11 0 13 -2 4 -6
-7 -3 -19 0 -27 7 -11 9 -13 6 -11 -15 2 -14 7 -29 11 -33 4 -4 4 4 0 16 -6
22 -5 23 14 13 12 -7 21 -14 21 -17 0 -3 -4 -2 -10 1 -12 7 -12 3 -4 -19 6
-16 25 -23 23 -8 -1 4 0 9 1 12 5 10 7 115 3 123 -3 4 -12 2 -21 -5 -15 -12
-16 -11 -3 5 8 9 16 15 19 12 3 -3 12 1 21 7 13 10 14 10 4 -1 -8 -9 -9 -21
-3 -37 5 -13 6 -26 1 -28 -5 -3 -7 -18 -5 -33 1 -15 -2 -33 -8 -40 -6 -7 -7
-13 -3 -13 4 0 3 -6 -3 -13 -8 -9 -8 -17 0 -27 8 -12 9 -12 4 3 -3 11 0 17 9
17 9 0 12 6 9 15 -4 8 -2 15 4 15 5 0 8 12 6 28 -4 27 -4 27 5 2 l9 -25 1 27
c1 14 -2 28 -6 31 -5 2 -2 2 5 1 6 -2 12 1 12 6 0 6 -6 10 -12 10 -9 0 -8 4 2
10 13 9 8 14 -12 11 -8 -1 -4 26 5 35 3 4 3 12 0 18 -4 6 -8 16 -9 22 -2 10 5
11 35 5z m-117 -40 c-5 -14 -4 -14 14 -1 18 14 18 14 5 -3 -14 -18 -16 -18
-28 -1 -10 14 -13 15 -15 3 0 -8 -2 -25 -4 -39 -2 -25 -10 -69 -16 -102 -2
-10 -8 -21 -13 -25 -4 -4 -5 -3 -1 4 3 6 2 14 -4 18 -9 5 -14 -7 -11 -27 1 -9
-40 -1 -50 9 -8 8 64 142 81 153 4 3 13 16 20 29 9 17 14 20 20 11 5 -7 5 -20
2 -29z m-6438 -118 c-3 -21 -12 -81 -20 -133 -26 -175 -65 -503 -84 -708 -10
-112 -20 -205 -23 -208 -2 -3 -18 7 -35 21 -52 44 -93 55 -202 55 -72 0 -102
4 -104 13 -2 6 -9 30 -16 53 -11 36 -10 45 9 82 14 27 21 60 21 97 0 42 3 55
15 55 31 0 96 52 132 106 49 74 56 140 20 203 -41 71 -96 108 -234 156 -14 5
-16 27 -7 61 5 17 30 29 132 62 93 30 337 104 399 121 1 1 -1 -16 -3 -36z
m6418 -71 c-9 -25 -21 3 -14 33 6 30 6 30 12 5 4 -14 5 -31 2 -38z m242 42 c3
-8 2 -12 -4 -9 -6 3 -10 10 -10 16 0 14 7 11 14 -7z m22 -42 c-3 -3 -1 -11 4
-17 7 -9 6 -16 -3 -23 -10 -9 -13 -4 -13 23 0 18 4 31 9 28 4 -3 6 -8 3 -11z
m-366 -14 c0 -4 6 -8 13 -8 7 0 19 -9 27 -20 15 -20 37 -29 25 -9 -4 6 2 5 14
-2 14 -10 17 -15 8 -21 -8 -5 -7 -8 4 -8 9 0 21 -11 27 -25 15 -32 15 -38 2
-30 -6 4 -7 -1 -3 -11 5 -13 3 -15 -8 -9 -11 7 -12 6 -2 -7 7 -8 9 -19 5 -23
-4 -5 -1 -5 6 -1 9 6 11 1 8 -17 -3 -16 1 -24 10 -24 10 0 11 4 5 10 -7 7 -7
16 -1 28 7 12 6 20 0 24 -6 4 -8 11 -4 16 8 14 24 0 24 -22 0 -11 8 -23 18
-26 22 -9 47 -33 33 -33 -5 0 1 -11 14 -24 15 -15 22 -31 19 -41 -4 -9 -3 -15
2 -14 33 6 36 -3 22 -61 -2 -9 5 -14 19 -15 12 0 25 -4 30 -9 5 -5 3 -6 -4 -2
-8 4 -13 1 -13 -8 0 -9 5 -15 11 -14 6 2 13 -3 14 -10 2 -7 1 -8 -2 -2 -7 15
-23 2 -17 -14 3 -8 1 -17 -5 -20 -6 -4 -8 -13 -5 -21 4 -8 10 -12 15 -9 5 3 6
11 3 17 -4 7 -4 9 1 5 4 -4 14 -3 21 3 16 13 26 -2 13 -21 -7 -13 -9 -13 -9
-1 0 12 -3 11 -17 -1 -19 -16 -48 -13 -37 3 3 5 0 9 -6 9 -7 0 -9 9 -5 23 5
17 4 19 -4 7 -9 -12 -11 -13 -11 -1 0 8 -2 12 -5 9 -3 -3 -1 -17 5 -32 6 -18
6 -25 0 -21 -6 3 -10 1 -10 -4 0 -6 6 -11 13 -12 6 0 3 -4 -7 -8 -13 -5 -16
-10 -9 -14 6 -4 19 0 27 9 13 13 23 13 14 1 -2 -2 4 -12 12 -22 9 -11 10 -16
3 -11 -8 4 -13 2 -13 -6 0 -8 6 -20 13 -27 8 -10 8 -12 0 -7 -7 4 -12 -1 -12
-14 -1 -11 -1 -29 -2 -41 0 -18 -2 -19 -17 -7 -16 12 -16 11 -2 -6 8 -10 15
-26 15 -35 0 -8 8 -17 19 -19 11 -3 16 0 11 7 -3 6 -10 9 -15 6 -10 -6 -6 62
4 73 4 4 7 2 6 -3 -1 -6 -2 -23 -1 -40 1 -23 3 -27 11 -15 8 12 9 9 6 -10 -2
-14 4 -33 12 -43 12 -14 13 -18 3 -15 -7 2 -16 -3 -19 -11 -3 -10 0 -12 12 -8
10 4 19 1 23 -9 5 -13 8 -13 15 -2 6 9 7 5 3 -11 -5 -16 -4 -21 4 -17 6 4 11
13 11 21 0 8 4 16 9 19 5 4 7 -2 4 -13 -3 -10 0 -22 6 -25 7 -4 8 -1 5 8 -3 9
-1 16 6 16 6 0 8 5 4 13 -5 8 -2 7 9 -2 10 -8 15 -16 12 -19 -3 -3 1 -12 8
-20 9 -12 9 -14 0 -9 -7 5 -16 -1 -22 -12 -12 -22 -38 -22 -52 0 -7 12 -9 12
-9 -1 0 -13 -1 -13 -10 0 -9 13 -10 13 -10 0 -1 -12 -3 -11 -11 3 -6 9 -14 15
-18 13 -4 -3 -7 18 -6 45 1 39 -2 49 -15 49 -9 0 -22 6 -30 13 -8 6 -12 8 -8
3 4 -4 3 -18 -2 -31 -6 -16 -5 -25 4 -28 9 -4 12 3 9 21 -2 15 0 21 3 14 3 -6
9 -10 14 -7 5 3 7 -3 6 -12 -2 -10 0 -28 5 -39 6 -17 4 -21 -9 -20 -9 0 -19
-10 -23 -24 l-8 -25 2 25 c2 28 -9 50 -25 50 -7 0 -7 -4 -1 -12 5 -7 10 -24
11 -38 1 -14 -2 -20 -6 -15 -9 12 -42 16 -42 5 0 -4 -20 -10 -45 -12 -40 -3
-44 -1 -40 17 2 11 4 20 5 20 7 0 6 36 0 40 -5 3 -7 -3 -5 -15 2 -11 -1 -22
-6 -25 -5 -4 -7 -11 -4 -16 4 -5 -4 -13 -17 -18 -128 -50 -131 -51 -147 -39
-13 10 -14 10 -5 -1 9 -10 6 -23 -16 -54 -47 -71 -61 -130 -66 -277 -4 -101
-2 -141 8 -160 17 -32 70 -67 122 -81 23 -6 45 -14 51 -17 5 -3 21 -7 35 -8
113 -8 110 -7 110 -28 0 -38 -12 -66 -29 -67 -10 0 -11 -2 -3 -6 6 -2 12 -9
12 -14 0 -6 -5 -7 -12 -3 -7 5 -8 3 -4 -5 5 -7 0 -21 -10 -32 -9 -10 -13 -19
-8 -19 27 -2 -77 -41 -120 -46 -28 -3 -63 -7 -77 -9 -23 -2 -64 3 -124 18 -62
16 -112 61 -120 111 -15 92 -24 258 -21 386 2 80 7 273 11 430 l7 285 52 94
c70 129 77 141 133 229 28 42 62 98 76 123 14 25 33 46 41 46 9 0 16 -4 16 -9z
m247 -63 c-1 -13 -6 -27 -9 -31 -4 -3 -5 2 -3 13 2 10 4 24 4 31 1 6 3 12 6
12 3 0 4 -11 2 -25z m63 -17 c16 5 15 3 -15 -18 -11 -8 -17 -11 -13 -6 4 5 3
18 -3 30 -9 18 -8 19 3 5 7 -9 20 -14 28 -11z m-2977 -23 l209 -8 92 -91 c51
-50 176 -173 279 -272 l187 -182 -16 -31 c-21 -42 -45 -277 -38 -371 7 -106
11 -116 44 -147 25 -24 30 -36 32 -89 3 -72 -5 -85 -71 -115 -73 -33 -111 -40
-112 -20 -2 47 -11 132 -19 180 -6 30 -10 78 -10 106 0 40 -5 56 -20 70 -25
22 -35 19 -200 -55 -150 -68 -146 -68 -155 -23 -3 20 -11 75 -15 121 -12 112
-56 263 -96 333 -34 57 -189 213 -303 304 l-62 50 5 55 c11 94 40 209 51 200
5 -4 104 -11 218 -15z m2874 -37 c-3 -8 -6 -5 -6 6 -1 11 2 17 5 13 3 -3 4
-12 1 -19z m-5161 -74 c5 -69 -10 -194 -23 -194 -2 0 -32 27 -65 60 -56 54
-60 61 -47 77 83 100 122 143 126 140 2 -3 6 -40 9 -83z m5319 67 c3 -5 2 -12
-3 -15 -5 -3 -9 1 -9 9 0 17 3 19 12 6z m-6252 -108 c26 -24 47 -48 47 -52 0
-12 -85 -128 -132 -179 -37 -41 -40 -47 -35 -90 5 -43 68 -280 102 -379 16
-50 18 -49 -94 -58 l-64 -5 6 158 c7 178 21 360 42 542 8 69 15 133 15 143 0
21 19 8 113 -80z m6262 55 c-5 -27 -4 -29 9 -19 8 7 13 21 11 33 -3 15 -1 17
9 9 7 -6 17 -7 22 -3 5 4 0 -4 -11 -17 -18 -22 -18 -24 -2 -18 11 4 16 3 12
-3 -3 -6 0 -10 7 -10 9 0 9 -3 -2 -10 -8 -5 -11 -10 -6 -10 5 0 3 -7 -5 -16
-11 -13 -15 -14 -23 -2 -13 17 -42 17 -38 0 3 -17 -2 -15 -24 9 -14 15 -15 20
-4 17 8 -2 14 3 12 10 -1 8 2 11 8 7 7 -4 9 3 6 19 -3 15 -1 24 5 21 5 -4 9
-1 9 4 0 6 2 11 5 11 3 0 3 -14 0 -32z m-78 -50 c2 -18 0 -20 -7 -8 -12 18
-13 30 -2 30 4 0 9 -10 9 -22z m-787 -71 c-43 -79 -38 -77 -132 -56 -55 13
-51 21 27 60 28 13 52 27 53 32 2 4 9 7 15 7 7 0 23 9 37 19 42 33 42 13 0
-62z m896 31 c4 4 2 -1 -5 -10 -15 -20 -7 -53 10 -42 8 4 9 3 5 -5 -6 -9 -11
-9 -23 1 -9 7 -18 12 -20 10 -2 -1 -11 4 -19 13 -9 8 -11 15 -4 15 6 0 14 -8
17 -17 6 -15 7 -14 13 3 4 10 3 28 -2 39 -8 18 -8 19 5 3 8 -10 18 -14 23 -10z
m-103 -51 c3 -8 -1 -14 -8 -14 -7 0 -11 6 -8 14 3 7 6 13 8 13 2 0 5 -6 8 -13z
m-15430 -62 c-3 -9 -8 -14 -10 -11 -3 3 -2 9 2 15 9 16 15 13 8 -4z m33 -9 c1
-7 -4 -13 -12 -13 -9 0 -11 4 -4 12 5 7 8 15 5 18 -3 4 -2 5 2 2 4 -3 8 -11 9
-19z m15544 -11 c14 -19 14 -19 -2 -6 -10 7 -18 18 -18 24 0 6 1 8 3 6 1 -2 9
-13 17 -24z m-15571 -39 c-3 -3 -11 5 -18 17 -13 21 -12 21 5 5 10 -10 16 -20
13 -22z m24 -9 c-4 -7 -8 -15 -8 -19 0 -3 -3 -9 -7 -13 -5 -6 -4 19 2 35 1 3
2 9 1 13 -1 5 3 6 9 2 6 -3 7 -12 3 -18z m15518 -13 c18 -22 22 -79 4 -64 -6
5 -15 7 -19 3 -14 -14 -35 -10 -53 10 -16 19 -16 20 0 8 20 -15 23 -2 5 18
-11 11 -10 12 1 6 11 -6 13 -4 8 8 -3 9 -2 19 4 22 5 4 6 11 3 17 -10 16 30
-8 47 -28z m-15641 23 c0 -2 -10 -12 -22 -23 l-23 -19 19 23 c18 21 26 27 26
19z m160 -1 c0 -2 -8 -10 -17 -17 -16 -13 -17 -12 -4 4 13 16 21 21 21 13z
m-70 -90 c0 -2 -8 -10 -17 -17 -16 -13 -17 -12 -4 4 13 16 21 21 21 13z m5936
-11 c20 -8 98 -31 174 -50 172 -45 288 -51 417 -23 49 10 97 20 108 21 11 1
22 4 25 7 12 14 87 36 102 31 20 -7 107 -81 161 -136 72 -74 247 -360 247
-403 0 -6 18 -54 40 -108 22 -54 40 -105 40 -114 0 -17 -21 -28 -145 -70 -49
-17 -98 -33 -107 -36 -13 -5 -22 6 -39 42 -13 27 -25 51 -29 54 -19 17 -33 78
-38 168 -5 108 -16 138 -45 126 -15 -5 -17 -15 -13 -53 7 -61 14 -167 22 -331
4 -74 8 -157 9 -185 2 -27 6 -187 9 -355 4 -168 9 -345 12 -395 3 -49 7 -224
9 -387 l4 -298 -37 -1 c-20 0 -46 -3 -57 -6 -44 -11 -660 -11 -674 1 -12 9
-13 8 -7 -3 7 -11 -6 -12 -80 -7 -49 4 -117 8 -151 11 -33 2 -78 7 -99 11
l-37 7 7 561 c4 308 11 660 16 781 l8 220 51 198 c28 109 51 204 51 212 0 8
-9 15 -21 15 -19 0 -43 -40 -54 -89 -28 -124 -114 -461 -118 -460 -1 0 -51 17
-112 37 -93 31 -110 40 -113 60 -2 12 -7 22 -12 22 -9 0 -21 68 -21 120 0 54
12 120 22 120 5 0 9 11 9 25 0 14 4 33 9 43 5 9 15 37 22 62 18 65 110 258
155 326 47 70 144 177 198 216 46 33 38 32 82 13z m-5935 -28 c-10 -9 -11 -8
-5 6 3 10 9 15 12 12 3 -3 0 -11 -7 -18z m79 -1 c0 -2 -8 -10 -17 -17 -16 -13
-17 -12 -4 4 13 16 21 21 21 13z m15505 -5 c3 -5 0 -13 -6 -17 -7 -4 -9 -3 -5
4 3 5 0 13 -6 15 -9 4 -10 6 -1 6 6 1 14 -3 18 -8z m-15575 -37 c0 -8 -19 -13
-24 -6 -3 5 1 9 9 9 8 0 15 -2 15 -3z m15462 -3 c8 11 9 11 6 1 -4 -16 -22
-18 -24 -2 -2 7 -1 6 3 -1 4 -8 8 -7 15 2z m52 1 c3 -5 -1 -9 -9 -9 -8 0 -12
4 -9 9 3 4 7 8 9 8 2 0 6 -4 9 -8z m42 -19 c-10 -11 -19 -7 -22 10 -2 15 0 16
12 6 8 -6 12 -14 10 -16z m-15549 -8 c0 -8 -4 -12 -9 -9 -5 3 -6 10 -3 15 9
13 12 11 12 -6z m-15 -51 c-9 -16 -10 -14 -9 8 1 15 6 23 11 18 4 -4 4 -16 -2
-26z m86 11 c-3 -3 -9 2 -12 12 -6 14 -5 15 5 6 7 -7 10 -15 7 -18z m15477 16
c3 -5 2 -12 -3 -15 -5 -3 -9 1 -9 9 0 17 3 19 12 6z m-79 -27 c1 -9 0 -13 -4
-10 -3 4 -7 14 -8 22 -1 9 0 13 4 10 3 -4 7 -14 8 -22z m-15449 -21 c0 -9 -4
-10 -14 -2 -7 6 -13 12 -13 14 0 1 6 2 13 2 8 0 14 -6 14 -14z m43 -18 c13
-14 21 -25 18 -25 -2 0 -15 11 -28 25 -13 14 -21 25 -18 25 2 0 15 -11 28 -25z
m15445 16 c3 -5 2 -12 -3 -15 -5 -3 -9 1 -9 9 0 17 3 19 12 6z m-15508 -24 c0
-8 -6 -14 -14 -14 -9 0 -10 4 -2 14 6 7 12 13 14 13 1 0 2 -6 2 -13z m24 -16
c-6 -10 -8 -21 -5 -24 3 -3 -1 -4 -10 -3 -8 1 -19 6 -23 11 -4 4 -3 5 4 1 7
-4 17 2 23 14 6 11 13 20 16 20 2 0 0 -8 -5 -19z m63 -47 c3 -8 2 -12 -4 -9
-6 3 -10 0 -11 -7 0 -10 -2 -10 -6 0 -2 6 -9 9 -14 6 -6 -3 -3 -17 7 -32 9
-15 13 -24 9 -19 -5 4 -18 -1 -29 -10 -21 -18 -21 -18 -4 2 11 14 14 25 8 35
-10 16 7 43 21 34 5 -3 9 0 9 5 0 16 7 13 14 -5z m15350 3 c3 3 6 2 6 -4 0
-18 -13 -23 -28 -10 -13 9 -14 9 -8 0 4 -7 2 -13 -3 -13 -6 0 -11 9 -11 20 0
17 3 19 19 11 10 -6 21 -7 25 -4z m136 -17 c0 -5 -2 -10 -4 -10 -3 0 -8 5 -11
10 -3 6 -1 10 4 10 6 0 11 -4 11 -10z m77 -16 c-9 -9 -28 6 -21 18 4 6 10 6
17 -1 6 -6 8 -13 4 -17z m-15633 -6 c-5 -7 -9 -16 -9 -20 0 -3 -4 -10 -8 -15
-5 -4 -8 -3 -7 2 5 22 -1 29 -11 15 -9 -13 -10 -13 -6 0 2 8 10 14 16 12 6 -1
14 5 18 13 3 9 8 14 10 11 3 -3 1 -11 -3 -18z m15701 -7 c-3 -2 -11 1 -18 7
-8 7 -18 8 -22 4 -5 -4 -5 -1 -1 5 5 10 11 10 26 1 11 -7 17 -14 15 -17z
m-15804 6 c-6 -8 -7 -18 -3 -22 4 -5 1 -5 -6 -1 -10 6 -10 11 -1 22 6 8 14 14
16 14 3 0 0 -6 -6 -13z m82 -62 c-3 -9 -8 -14 -10 -11 -3 3 -2 9 2 15 9 16 15
13 8 -4z m59 -14 c-4 -10 -7 -11 -10 -3 -2 7 -8 10 -12 7 -5 -3 -11 -2 -14 3
-2 4 6 8 19 8 16 0 21 -4 17 -15z m32 -13 c-3 -4 1 -8 8 -9 10 0 10 -2 1 -6
-23 -9 -26 -8 -28 8 -2 9 3 16 11 16 7 0 11 -4 8 -9z m914 -47 c-12 -4 -28 17
-28 38 0 8 8 3 19 -10 11 -14 15 -26 9 -28z m-1121 14 c0 -8 -4 -12 -9 -9 -5
3 -6 10 -3 15 9 13 12 11 12 -6z m163 -1 c0 -8 -19 -13 -24 -6 -3 5 1 9 9 9 8
0 15 -2 15 -3z m25 -3 c3 -5 2 -12 -3 -15 -5 -3 -9 1 -9 9 0 17 3 19 12 6z
m41 -3 c4 -7 3 -8 -4 -4 -15 9 -16 -6 -2 -22 6 -6 7 -10 3 -7 -3 3 -16 -3 -27
-12 -21 -18 -21 -18 -3 3 9 11 14 23 11 27 -6 5 3 27 11 27 2 0 7 -5 11 -12z
m-119 -13 c0 -8 -4 -12 -9 -9 -5 3 -6 10 -3 15 9 13 12 11 12 -6z m10195 -55
c1 -16 2 -42 4 -57 1 -16 5 -98 8 -185 4 -86 11 -182 16 -215 11 -61 16 -142
25 -384 3 -80 7 -154 9 -165 2 -10 7 -55 10 -99 9 -103 16 -182 21 -220 2 -16
6 -57 10 -90 3 -33 8 -78 10 -100 3 -22 7 -85 10 -140 9 -161 15 -245 20 -279
3 -17 16 -92 30 -166 13 -74 26 -155 29 -180 6 -47 8 -54 31 -185 7 -44 16
-105 20 -135 3 -30 7 -62 9 -70 1 -8 6 -37 10 -65 4 -27 12 -66 16 -85 5 -19
11 -57 15 -84 3 -28 13 -80 20 -118 24 -114 26 -130 15 -123 -5 3 -10 11 -10
17 0 5 -20 49 -44 97 -42 84 -83 203 -131 381 -13 47 -28 99 -35 115 -39 100
-164 549 -181 650 -11 66 -36 179 -56 250 -52 188 -62 264 -77 615 -8 173 -22
463 -31 643 -10 181 -15 330 -13 332 1 1 22 6 44 10 l41 6 -23 -103 c-28 -123
-29 -147 -8 -155 25 -9 32 6 58 129 13 65 29 124 33 133 8 14 66 51 86 54 4 0
8 -12 9 -29z m-10141 7 c-6 -8 -7 -18 -3 -22 4 -5 1 -5 -6 -1 -10 6 -10 11 -1
22 6 8 14 14 16 14 3 0 0 -6 -6 -13z m65 1 c5 -7 3 -8 -6 -3 -10 6 -12 4 -7
-8 3 -9 2 -19 -2 -21 -6 -4 -8 30 -2 42 3 5 10 1 17 -10z m-39 -23 c0 -8 -4
-12 -9 -9 -5 3 -6 10 -3 15 9 13 12 11 12 -6z m60 0 c0 -8 -4 -12 -9 -9 -5 3
-6 10 -3 15 9 13 12 11 12 -6z m-2 -35 c-3 -5 -12 -10 -18 -10 -7 0 -6 4 3 10
19 12 23 12 15 0z m-245 -6 c0 -8 -19 -13 -24 -6 -3 5 1 9 9 9 8 0 15 -2 15
-3z m120 -14 c-6 -11 -8 -20 -4 -20 3 0 1 -6 -5 -13 -6 -8 -7 -18 -3 -22 4 -5
1 -5 -6 0 -10 5 -11 10 -3 18 8 8 6 17 -7 31 -14 17 -14 18 -1 8 14 -10 18
-10 23 3 3 8 8 15 11 15 3 0 1 -9 -5 -20z m40 1 c7 -15 7 -22 -2 -27 -7 -4
-10 -4 -6 1 4 4 3 16 -3 26 -5 11 -7 19 -5 19 3 0 10 -9 16 -19z m49 -28 c-4
-23 2 -43 11 -38 6 4 7 -1 3 -12 -6 -14 -9 -13 -19 12 -11 27 -10 45 2 45 2 0
3 -3 3 -7z m-14 -53 c9 -16 13 -30 11 -30 -3 0 -12 14 -21 30 -9 17 -13 30
-11 30 3 0 12 -13 21 -30z m68 3 c-3 -7 -6 -13 -8 -13 -2 0 -5 6 -8 13 -3 8 1
14 8 14 7 0 11 -6 8 -14z m-20 -16 c3 -8 -1 -14 -8 -14 -7 0 -11 6 -8 14 3 7
6 13 8 13 2 0 5 -6 8 -13z m-45 -42 c-3 -3 -9 2 -12 12 -6 14 -5 15 5 6 7 -7
10 -15 7 -18z m-28 -29 c0 -12 -5 -7 -19 24 -11 24 -11 24 3 6 9 -11 16 -24
16 -30z m79 28 c1 28 9 16 16 -24 6 -33 5 -34 -10 -15 -16 20 -16 19 -9 -5 3
-14 3 -22 -1 -18 -4 4 -9 24 -11 45 -2 29 -1 33 6 18 8 -19 9 -19 9 -1z m-124
-14 c-4 -6 -2 -17 4 -24 8 -9 7 -13 -3 -13 -7 0 -12 9 -11 21 3 25 3 26 11 26
3 0 2 -5 -1 -10z m92 -5 c0 -8 -3 -13 -5 -10 -3 3 -10 0 -17 -5 -8 -7 -12 -5
-12 5 0 8 4 12 8 9 4 -2 10 0 14 6 9 14 12 13 12 -5z m8563 -22 c0 -36 38 -90
77 -108 19 -9 60 -15 108 -15 l77 0 -6 -37 c-3 -21 -13 -105 -21 -188 -21
-207 -25 -235 -35 -235 -5 0 -24 27 -42 60 -18 33 -41 63 -50 66 -10 3 -18 9
-18 14 0 4 -20 14 -45 21 -52 15 -52 15 -60 133 -3 43 -7 81 -9 85 -2 3 -7 55
-11 115 -5 84 -4 110 6 117 19 11 29 1 29 -28z m-8685 -25 c5 4 5 1 1 -6 -6
-10 -11 -10 -22 -1 -8 6 -14 14 -14 16 0 3 6 0 13 -6 8 -6 18 -7 22 -3z m140
-23 c1 0 9 6 17 12 12 10 15 10 15 0 0 -22 -70 -15 -73 7 -2 17 -2 17 18 -1
11 -10 21 -18 23 -18z m-112 -26 c-8 -8 -13 -7 -18 2 -6 8 -4 10 5 4 10 -6 12
-4 6 11 -6 15 -5 17 5 7 9 -10 10 -16 2 -24z m30 1 c-7 -27 -13 -25 -11 4 1
14 5 23 9 20 4 -2 5 -13 2 -24z m34 7 c0 -8 -6 -14 -14 -14 -9 0 -10 4 -2 14
6 7 12 13 14 13 1 0 2 -6 2 -13z m74 -6 c7 11 9 11 9 1 0 -7 4 -11 9 -8 11 7
8 -20 -3 -31 -4 -4 -6 -1 -4 7 2 10 -4 15 -19 14 -15 -1 -20 3 -15 14 4 12 7
13 10 3 4 -11 6 -11 13 0z m9209 -16 c0 -9 11 -26 24 -38 l23 -22 -14 -120
c-7 -66 -20 -178 -28 -250 -7 -71 -22 -179 -34 -240 -11 -60 -22 -123 -24
-140 -3 -16 -10 -57 -15 -90 -6 -33 -14 -78 -17 -100 -15 -103 -39 -210 -85
-378 -48 -170 -73 -246 -150 -456 -17 -46 -41 -127 -54 -180 -66 -265 -94
-347 -127 -377 -10 -9 -16 -20 -14 -24 3 -5 -4 -29 -15 -54 -10 -25 -16 -46
-13 -46 4 0 2 -5 -5 -12 -7 -7 -12 -20 -12 -30 0 -18 -99 -219 -113 -229 -5
-3 -8 -9 -7 -13 4 -13 -34 -75 -42 -70 -4 3 -5 -2 -2 -10 4 -9 -1 -18 -10 -22
-9 -3 -13 -10 -10 -15 3 -5 0 -9 -5 -9 -6 0 -10 -6 -9 -12 2 -7 -3 -12 -10
-10 -8 1 -11 -1 -9 -5 3 -5 -1 -19 -9 -33 -17 -31 -17 -19 -3 53 7 31 16 54
20 51 5 -3 6 1 4 8 -6 16 62 426 109 658 19 91 37 215 41 275 4 61 17 169 30
240 38 210 113 811 180 1455 23 211 23 213 65 217 66 6 275 35 279 39 2 2 17
4 33 4 19 0 28 -5 28 -15z m-9253 -17 c0 -13 -1 -17 -4 -10 -3 6 -9 10 -13 7
-5 -3 -12 0 -16 6 -4 7 -3 9 4 5 6 -3 13 -2 17 4 9 14 11 13 12 -12z m13130
-230 c-4 -134 -7 -251 -7 -262 0 -16 -5 -17 -47 -11 -74 11 -83 19 -83 73 0
26 -7 106 -15 177 -22 199 -28 179 68 224 45 22 84 40 86 40 2 1 1 -108 -2
-241z m-13078 206 c4 3 8 -1 8 -8 0 -25 -23 -12 -24 13 0 15 1 18 4 8 2 -9 8
-15 12 -13z m-40 -2 c9 7 13 9 9 4 -4 -5 -3 -16 2 -26 6 -12 5 -17 -5 -17 -7
0 -11 6 -8 14 9 23 -6 14 -20 -13 l-14 -26 1 35 c1 22 5 32 10 27 6 -6 16 -5
25 2z m71 -26 c0 -2 -6 -9 -14 -15 -11 -9 -16 -9 -22 0 -4 7 -3 9 4 5 6 -3 13
-2 17 4 6 10 15 14 15 6z m15527 -12 c-3 -3 -12 -4 -19 -1 -8 3 -5 6 6 6 11 1
17 -2 13 -5z m-15581 -29 c8 10 14 14 14 7 0 -6 8 -9 18 -7 11 2 19 -3 19 -11
0 -8 -5 -10 -11 -6 -16 12 -39 9 -43 -5 -3 -8 3 -11 16 -8 11 2 23 -1 26 -6 4
-5 10 -7 14 -5 4 3 8 -1 8 -9 0 -8 -4 -12 -9 -9 -4 3 -8 0 -8 -5 0 -6 6 -11
13 -11 7 0 5 -5 -5 -11 -13 -7 -15 -15 -9 -33 6 -13 5 -28 0 -37 -8 -12 -10
-12 -8 1 3 32 -1 51 -11 45 -6 -3 -13 1 -16 9 -3 9 -9 14 -13 11 -4 -2 -8 2
-8 10 0 8 3 13 6 12 3 -1 6 3 6 8 0 6 -4 9 -10 7 -5 -2 -7 0 -3 3 10 10 -11
47 -22 40 -6 -3 -7 1 -3 11 5 15 7 15 16 -2 9 -16 10 -16 23 1z m15433 -80 c5
-5 6 -21 4 -35 -11 -61 -14 -132 -6 -127 4 3 8 -12 8 -33 0 -22 -4 -35 -9 -30
-11 11 -13 160 -2 184 8 15 6 18 -5 11 -12 -7 -12 -6 -1 7 9 11 10 18 2 23 -5
3 -9 25 -8 48 l1 42 4 -40 c3 -22 8 -44 12 -50z m-15462 20 c0 -8 -4 -12 -9
-9 -5 3 -6 10 -3 15 9 13 12 11 12 -6z m15477 -1 c3 -8 2 -12 -4 -9 -6 3 -10
10 -10 16 0 14 7 11 14 -7z m-15509 -3 c-3 -5 -1 -12 5 -16 5 -3 10 -11 10
-18 0 -6 -6 -2 -14 8 -13 18 -13 35 0 35 3 0 3 -4 -1 -9z m-62 -49 c-6 -15 -5
-15 10 -3 23 18 22 8 -1 -12 -17 -16 -18 -15 -18 13 0 16 3 27 7 24 5 -2 5
-12 2 -22z m94 -7 c0 -8 -4 -12 -9 -9 -5 3 -6 10 -3 15 9 13 12 11 12 -6z m50
-19 c0 -15 -21 -16 -34 -1 -4 4 -3 5 4 1 6 -3 14 -2 18 4 8 14 12 13 12 -4z
m-57 -10 c0 -2 -6 -9 -14 -15 -11 -9 -16 -9 -22 0 -4 7 -3 9 4 5 6 -3 13 -2
17 4 6 10 15 14 15 6z m97 -43 c0 -9 -4 -10 -10 -4 -7 7 -16 7 -26 -2 -14 -10
-14 -10 -4 4 15 19 40 21 40 2z m9467 -302 c-7 -8 -54 -9 -59 -2 -2 4 12 7 30
7 19 0 32 -3 29 -5z m72 -14 c1 -9 -2 -15 -7 -11 -5 3 -9 0 -9 -7 0 -7 -7 -4
-16 7 -14 17 -15 17 -10 1 3 -10 2 -15 -3 -12 -6 3 -9 14 -8 24 1 24 49 22 53
-2z m-81 -24 c17 -10 16 -11 -15 -8 -44 4 -42 3 -36 14 7 11 24 9 51 -6z
m-7962 -50 c6 -16 14 -30 18 -33 9 -8 20 -42 12 -38 -43 21 -107 48 -116 48
-6 0 4 11 23 25 43 31 48 31 63 -2z m7144 -130 c-4 -32 -6 -71 -7 -86 0 -16
-3 -26 -7 -24 -5 3 -8 -15 -9 -39 -3 -139 -15 -136 -39 11 -9 55 -19 108 -21
117 -4 12 2 21 18 27 13 5 32 18 42 30 11 11 21 21 24 21 2 0 2 -26 -1 -57z
m5555 -85 c-4 -122 -10 -135 -11 -26 -1 72 4 118 13 118 1 0 0 -42 -2 -92z
m1341 -135 c-7 -2 -19 -2 -25 0 -7 3 -2 5 12 5 14 0 19 -2 13 -5z"/>
<path d="M13193 7628 c-12 -16 -27 -55 -17 -45 4 4 13 2 19 -3 8 -7 17 -4 29
8 15 18 15 20 -2 36 -15 13 -21 14 -29 4z m24 -23 c0 -6 -6 -12 -12 -12 -6 0
-12 6 -12 12 0 6 6 12 12 12 6 0 12 -6 12 -12z"/>
<path d="M14843 7175 c0 -8 4 -12 9 -9 5 3 6 10 3 15 -9 13 -12 11 -12 -6z"/>
<path d="M14577 7169 c-3 -10 -2 -21 2 -24 3 -4 6 -11 6 -16 0 -5 3 -9 8 -9 8
0 9 4 1 25 -4 8 -1 21 5 28 8 10 7 14 -3 14 -8 0 -17 -8 -19 -18z"/>
<path d="M14888 7165 c-16 -21 -16 -23 7 -45 22 -21 22 -24 9 -56 -13 -31 -12
-38 5 -72 12 -24 16 -44 10 -57 -9 -23 -11 -19 -18 47 -2 16 -11 5 -16 -20 -2
-11 3 -26 10 -32 8 -6 11 -19 9 -28 -5 -15 -4 -14 6 1 6 9 15 15 20 12 4 -3 6
3 3 13 -2 10 3 24 11 31 10 8 16 9 16 3 0 -6 -5 -14 -10 -17 -8 -5 -8 -11 -1
-19 6 -7 7 -17 3 -21 -4 -5 -1 -4 7 0 11 6 13 4 8 -9 -4 -11 -3 -15 4 -11 6 4
8 13 5 20 -8 21 6 26 20 7 9 -12 9 -21 2 -29 -6 -7 -7 -13 -3 -13 4 0 1 -8 -6
-17 -11 -16 -11 -16 1 -5 8 7 15 17 15 23 0 5 5 9 10 9 6 0 10 -4 10 -9 0 -5
3 -13 7 -17 4 -4 3 -13 -3 -20 -7 -9 -6 -14 3 -20 7 -4 10 -3 5 1 -4 5 1 17
10 28 10 10 18 29 19 41 0 11 4 32 8 45 5 14 4 27 -3 34 -6 6 -11 16 -11 22 0
5 9 -3 20 -20 11 -16 20 -25 20 -20 0 21 -36 65 -46 55 -6 -6 -19 3 -37 25
-15 19 -23 36 -17 40 6 3 10 11 10 17 0 6 -7 5 -17 -3 -9 -8 -19 -13 -22 -12
-3 1 -5 -7 -3 -19 2 -12 -1 -18 -7 -14 -6 4 -8 -2 -6 -14 2 -11 0 -22 -5 -25
-16 -10 -19 11 -6 36 7 14 11 34 8 45 -2 10 -4 31 -4 46 0 15 -4 26 -8 23 -8
-5 -37 25 -32 32 2 3 2 6 0 8 -1 2 -11 -7 -20 -20z m9 -20 c0 -8 -4 -12 -9 -9
-5 3 -6 10 -3 15 9 13 12 11 12 -6z m26 -20 c-7 -21 -12 -19 -10 4 0 11 5 18
9 15 4 -3 5 -11 1 -19z m13 -49 c0 -14 -3 -23 -7 -20 -9 5 -4 -49 5 -65 6 -9
11 -9 22 0 13 11 18 6 15 -14 -1 -5 3 -5 9 -2 8 5 7 12 -4 23 -12 14 -12 20
-1 35 12 17 16 14 55 -37 27 -36 39 -60 33 -68 -4 -7 -8 -25 -8 -40 0 -16 -3
-28 -7 -28 -5 0 -8 3 -9 8 0 4 -8 16 -18 27 -41 47 -42 52 -25 66 15 12 16 11
10 -11 -6 -20 -5 -22 4 -8 6 11 7 25 1 41 -5 14 -7 27 -5 30 3 3 1 8 -5 11 -6
4 -8 -4 -5 -20 3 -17 -2 -34 -12 -45 -9 -11 -14 -19 -10 -19 4 0 4 -5 1 -10
-4 -6 -11 -8 -16 -4 -6 4 -6 11 1 19 15 18 3 40 -14 26 -9 -8 -17 -1 -29 25
-14 29 -15 39 -5 57 7 12 13 25 14 30 3 15 4 17 7 17 2 0 3 -11 3 -24z"/>
<path d="M15027 6958 c1 -18 2 -41 2 -50 1 -10 6 -18 12 -18 5 0 7 5 4 10 -4
6 -2 17 5 25 9 10 7 20 -5 39 -10 14 -18 26 -19 26 0 0 0 -15 1 -32z"/>
<path d="M14458 7077 c-3 -6 -1 -23 3 -37 4 -14 8 -18 9 -10 1 8 3 23 5 32 4
21 -11 34 -17 15z"/>
<path d="M14656 7074 c-3 -8 -10 -13 -15 -9 -5 3 -12 1 -15 -4 -4 -5 -2 -12 3
-15 5 -4 12 -2 16 4 4 6 10 8 15 5 4 -3 10 2 14 10 3 8 1 17 -3 20 -5 3 -12
-2 -15 -11z"/>
<path d="M15345 7010 c3 -5 11 -10 16 -10 6 0 7 5 4 10 -3 6 -11 10 -16 10 -6
0 -7 -4 -4 -10z"/>
<path d="M15328 6974 c0 -5 -2 -13 -3 -19 -2 -5 -3 -16 -4 -22 0 -7 -6 -12
-13 -10 -7 1 -13 -8 -14 -20 -1 -12 2 -20 7 -17 4 2 5 12 2 21 -5 11 -3 14 6
9 7 -5 10 -17 8 -28 -4 -15 -2 -17 7 -8 10 7 17 6 26 -5 7 -8 9 -15 5 -15 -5
0 -1 -8 8 -18 10 -10 15 -21 12 -24 -3 -2 7 -15 23 -29 l27 -24 -21 25 c-12
14 -20 33 -19 42 2 10 -2 16 -8 15 -10 -2 -12 6 -8 49 0 8 4 13 9 11 4 -3 7 7
7 23 1 20 -3 26 -14 22 -10 -4 -12 -1 -6 9 4 8 5 11 0 7 -4 -4 -14 -3 -22 3
-7 6 -14 8 -15 3z m35 -38 c5 5 2 -21 -3 -36 -1 -3 -2 -9 0 -15 1 -5 -8 -1
-19 9 -16 14 -18 22 -10 32 6 7 8 19 4 26 -4 7 0 5 8 -4 8 -10 17 -15 20 -12z"/>
<path d="M15336 6921 c-4 -5 -2 -12 3 -15 5 -4 12 -2 15 3 4 5 2 12 -3 15 -5
4 -12 2 -15 -3z"/>
<path d="M14853 6893 c4 -6 2 -13 -5 -15 -8 -3 -6 -6 4 -10 17 -7 19 15 3 29
-4 4 -5 3 -2 -4z"/>
<path d="M14554 6882 c4 -3 14 -7 22 -8 9 -1 13 0 10 4 -4 3 -14 7 -22 8 -9 1
-13 0 -10 -4z"/>
<path d="M15385 6879 c-4 -6 -5 -12 -2 -15 2 -3 7 2 10 11 7 17 1 20 -8 4z"/>
<path d="M14369 6875 c-1 -3 -2 -13 -3 -22 -1 -10 -5 -25 -10 -33 -7 -12 -6
-13 5 -2 11 11 22 62 12 62 -1 0 -4 -2 -4 -5z"/>
<path d="M14603 6865 c0 -8 4 -12 9 -9 5 3 6 10 3 15 -9 13 -12 11 -12 -6z"/>
<path d="M14215 6859 c-4 -6 -5 -12 -2 -15 2 -3 7 2 10 11 7 17 1 20 -8 4z"/>
<path d="M14284 6858 c-3 -5 -9 -6 -13 -4 -4 3 -8 -1 -8 -9 0 -13 3 -13 17 0
11 10 20 11 26 5 7 -7 11 -6 11 3 0 15 -25 19 -33 5z"/>
<path d="M14393 6855 c0 -8 4 -12 8 -9 16 10 17 -14 1 -37 -22 -31 -23 -46 -6
-60 10 -8 11 -15 4 -24 -8 -9 -8 -15 0 -20 6 -4 10 -3 9 2 -1 4 0 10 1 13 8
20 6 39 -3 37 -6 -1 -11 6 -12 16 0 9 5 17 10 16 6 -1 9 -5 8 -10 -4 -14 3
-11 17 7 11 12 11 15 -1 12 -8 -2 -13 3 -11 12 10 40 11 52 5 46 -3 -3 -11 -1
-18 4 -8 7 -12 5 -12 -5z"/>
<path d="M15329 6868 c-5 -19 -6 -37 -1 -35 4 1 8 -2 10 -8 2 -5 16 -23 31
-40 28 -29 30 -39 16 -80 -6 -18 -5 -18 5 -2 21 33 19 54 -10 82 -16 16 -27
31 -25 35 3 4 -2 13 -10 20 -8 7 -12 16 -9 21 3 5 3 9 0 9 -3 0 -6 -1 -7 -2z"/>
<path d="M14443 6849 c3 -9 0 -22 -6 -29 -9 -9 -9 -11 -1 -7 16 9 25 -18 11
-32 -13 -13 -19 -43 -6 -35 5 3 7 9 4 14 -3 4 2 13 10 20 11 9 12 17 4 31 -5
10 -7 20 -4 20 3 1 9 2 14 3 5 0 12 4 16 8 4 3 -1 5 -12 4 -10 -2 -22 2 -26 8
-6 7 -7 5 -4 -5z"/>
<path d="M14557 6845 c-4 -8 -3 -16 1 -19 4 -3 9 4 9 15 2 23 -3 25 -10 4z"/>
<path d="M14125 6841 c-3 -5 -2 -12 3 -15 5 -3 9 1 9 9 0 17 -3 19 -12 6z"/>
<path d="M14280 6826 c-6 -8 -19 -12 -28 -10 -15 5 -14 4 1 -6 9 -6 15 -16 11
-21 -4 -6 -14 -3 -27 8 l-22 18 19 -22 c18 -21 15 -28 -9 -23 -5 1 -2 -7 8
-17 13 -15 14 -22 5 -31 -9 -9 -16 -8 -29 4 -14 12 -18 13 -25 2 -4 -7 -3 -10
1 -5 5 4 20 -3 34 -15 14 -13 23 -19 18 -14 -4 5 0 17 9 27 11 12 12 19 4 24
-8 5 -5 14 9 29 11 11 20 24 20 29 1 10 16 9 16 -2 0 -5 3 -12 7 -16 5 -6 4
19 -2 35 -1 3 -2 8 -1 13 2 11 -5 8 -19 -7z"/>
<path d="M14379 6813 c-13 -16 -12 -17 4 -4 9 7 17 15 17 17 0 8 -8 3 -21 -13z"/>
<path d="M14090 6805 c5 -7 8 -14 5 -17 -3 -3 3 -11 12 -19 16 -12 17 -12 7 1
-6 8 -10 22 -9 31 2 9 -3 16 -11 16 -9 0 -11 -4 -4 -12z"/>
<path d="M14193 6805 c0 -8 4 -12 9 -9 5 3 6 10 3 15 -9 13 -12 11 -12 -6z"/>
<path d="M15320 6813 c0 -6 6 -16 14 -22 7 -6 12 -25 11 -41 -1 -17 1 -33 6
-36 5 -3 7 -9 4 -14 -3 -5 -1 -11 4 -14 10 -6 10 11 0 29 -10 19 -3 40 11 37
8 -2 2 11 -15 30 -16 18 -31 35 -32 37 -2 2 -3 0 -3 -6z"/>
<path d="M14125 6801 c-3 -5 -2 -12 3 -15 5 -3 9 1 9 9 0 17 -3 19 -12 6z"/>
<path d="M14066 6791 c-3 -5 1 -14 9 -21 12 -10 13 -16 4 -26 -6 -8 -8 -14 -4
-14 4 0 2 -7 -5 -15 -7 -8 -9 -15 -5 -15 4 0 1 -8 -6 -17 -13 -16 -12 -17 3
-5 10 8 17 17 16 20 -2 20 4 23 20 11 15 -12 15 -11 -1 8 -13 15 -15 23 -7 28
8 5 7 12 -4 24 -9 10 -13 21 -9 24 3 4 4 7 0 7 -3 0 -8 -4 -11 -9z"/>
<path d="M14355 6783 c1 -10 -8 -30 -21 -44 l-24 -26 22 -19 23 -19 -17 21
c-17 20 -17 21 6 43 23 21 28 43 14 57 -4 3 -5 -2 -3 -13z"/>
<path d="M14159 6788 c-5 -18 -6 -38 -1 -34 7 8 12 36 6 36 -2 0 -4 -1 -5 -2z"/>
<path d="M14205 6780 c-4 -6 -12 -7 -18 -4 -7 4 -9 3 -4 -1 4 -5 -1 -18 -10
-29 -10 -12 -3 -8 15 8 17 17 32 31 32 33 0 7 -9 2 -15 -7z"/>
<path d="M14040 6776 c0 -2 8 -10 18 -17 15 -13 16 -12 3 4 -13 16 -21 21 -21
13z"/>
<path d="M14269 6763 c-13 -16 -12 -17 4 -4 9 7 17 15 17 17 0 8 -8 3 -21 -13z"/>
<path d="M14132 6748 c2 -14 10 -34 18 -43 8 -10 14 -20 12 -22 -2 -3 -2 -6 0
-8 2 -3 4 6 4 20 0 13 -4 23 -9 22 -5 -1 -11 9 -13 22 -6 34 -16 42 -12 9z"/>
<path d="M14284 6748 l-19 -23 23 19 c21 18 27 26 19 26 -2 0 -12 -10 -23 -22z"/>
<path d="M14105 6741 c-3 -5 -2 -12 3 -15 5 -3 9 1 9 9 0 17 -3 19 -12 6z"/>
<path d="M14365 6740 c-6 -9 11 -50 21 -50 2 0 0 9 -6 19 -13 26 -13 34 2 25
7 -4 8 -3 4 4 -9 15 -13 15 -21 2z"/>
<path d="M15425 6742 c3 -3 -1 -12 -7 -21 -8 -10 -4 -9 10 3 26 23 26 23 7 23
-8 0 -13 -3 -10 -5z"/>
<path d="M15143 6721 c0 -11 5 -18 9 -15 4 3 5 11 1 19 -7 21 -12 19 -10 -4z"/>
<path d="M15190 6736 c0 -2 8 -10 18 -17 15 -13 16 -12 3 4 -13 16 -21 21 -21
13z"/>
<path d="M15119 6728 c-5 -18 -6 -38 -1 -34 7 8 12 36 6 36 -2 0 -4 -1 -5 -2z"/>
<path d="M14259 6715 c-1 -3 -2 -8 -3 -12 -1 -5 -5 -13 -9 -20 -4 -6 -3 -15 3
-18 6 -4 10 -3 9 2 -1 4 0 10 1 13 5 13 8 40 4 40 -2 0 -5 -2 -5 -5z"/>
<path d="M15323 6705 c0 -8 4 -12 9 -9 5 3 6 10 3 15 -9 13 -12 11 -12 -6z"/>
<path d="M15436 6712 c-3 -5 1 -9 9 -9 8 0 12 4 9 9 -3 4 -7 8 -9 8 -2 0 -6
-4 -9 -8z"/>
<path d="M14120 6701 c0 -6 4 -13 10 -16 6 -3 7 1 4 9 -7 18 -14 21 -14 7z"/>
<path d="M14193 6699 c9 -6 14 -15 11 -21 -4 -7 -2 -8 5 -4 14 9 -3 36 -23 36
-6 0 -3 -5 7 -11z"/>
<path d="M15073 6695 c0 -8 4 -12 9 -9 5 3 6 10 3 15 -9 13 -12 11 -12 -6z"/>
<path d="M15403 6685 c0 -8 4 -12 9 -9 5 3 6 10 3 15 -9 13 -12 11 -12 -6z"/>
<path d="M14085 6680 c-3 -6 1 -7 9 -4 18 7 21 14 7 14 -6 0 -13 -4 -16 -10z"/>
<path d="M14270 6676 c0 -2 8 -10 18 -17 15 -13 16 -12 3 4 -13 16 -21 21 -21
13z"/>
<path d="M14326 6658 c3 -5 10 -6 15 -3 13 9 11 12 -6 12 -8 0 -12 -4 -9 -9z"/>
<path d="M16235 7142 c1 -18 5 -35 8 -38 3 -3 4 -16 1 -28 -2 -15 1 -23 11
-23 8 0 14 7 13 16 -2 9 4 16 14 16 10 0 18 5 18 10 0 5 -8 10 -18 10 -19 0
-18 35 1 47 9 6 8 8 -1 8 -8 0 -16 -10 -19 -21 -6 -20 -7 -20 -18 7 l-12 29 2
-33z m24 -36 c9 -11 9 -16 -1 -22 -7 -4 -10 -4 -6 1 4 4 3 14 -3 22 -6 7 -9
13 -6 13 2 0 10 -6 16 -14z"/>
<path d="M16730 7155 c0 -8 2 -15 4 -15 2 0 6 7 10 15 3 8 1 15 -4 15 -6 0
-10 -7 -10 -15z"/>
<path d="M16707 7146 c-4 -9 -13 -13 -21 -10 -8 3 -16 1 -20 -4 -8 -13 32 -8
46 6 6 6 9 14 6 17 -3 3 -8 -1 -11 -9z"/>
<path d="M15663 7065 c0 -8 4 -12 9 -9 5 3 6 10 3 15 -9 13 -12 11 -12 -6z"/>
<path d="M16176 7092 c-3 -5 3 -21 14 -33 l20 -24 -3 23 c-4 27 -22 48 -31 34z"/>
<path d="M15845 7020 c2 -4 -6 -17 -20 -30 -20 -19 -22 -26 -13 -46 6 -13 15
-21 20 -18 5 3 4 12 -2 19 -8 10 -8 19 0 34 6 12 13 21 16 21 2 0 0 -9 -6 -19
-12 -24 -13 -34 -1 -27 10 7 8 -9 -4 -38 -7 -16 -10 -15 -26 15 -9 19 -14 38
-9 44 5 6 3 18 -4 27 -11 15 -13 7 -11 -47 1 -39 -3 -62 -8 -58 -6 3 -7 1 -3
-5 5 -8 13 -9 24 -3 9 4 22 7 27 5 14 -5 46 54 34 62 -9 5 -6 22 8 60 2 6 -3
11 -11 11 -8 0 -13 -3 -11 -7z m-41 -106 c3 -8 2 -12 -4 -9 -6 3 -10 10 -10
16 0 14 7 11 14 -7z"/>
<path d="M16080 7004 c0 -8 5 -12 10 -9 6 4 8 11 5 16 -9 14 -15 11 -15 -7z"/>
<path d="M15763 6945 c0 -8 4 -12 9 -9 5 3 6 10 3 15 -9 13 -12 11 -12 -6z"/>
<path d="M16120 6944 c0 -8 5 -12 10 -9 6 4 8 11 5 16 -9 14 -15 11 -15 -7z"/>
<path d="M15723 6839 c-7 -7 -9 -19 -3 -34 5 -13 6 -26 2 -31 -4 -4 -2 -4 5 0
9 5 9 14 3 32 -8 20 -7 25 2 22 7 -3 13 -10 13 -15 0 -6 2 -14 6 -17 3 -3 5 5
5 19 0 13 -3 22 -7 19 -4 -2 -9 1 -11 6 -2 7 -7 7 -15 -1z"/>
<path d="M16139 6845 c-1 -3 -2 -13 -3 -23 -2 -28 -25 -52 -44 -46 -16 5 -16
5 0 -5 9 -7 15 -20 13 -31 -2 -11 0 -18 5 -15 4 3 7 13 5 23 -1 9 5 25 13 35
9 10 17 29 18 43 1 21 -4 33 -7 19z"/>
<path d="M16033 6723 c4 -3 1 -13 -6 -22 -11 -14 -10 -14 5 -2 16 12 16 31 1
31 -4 0 -3 -3 0 -7z"/>
<path d="M16130 6722 c0 -6 5 -14 10 -17 6 -4 7 -11 4 -17 -4 -7 -2 -8 5 -4 9
6 9 12 -1 24 -7 10 -14 19 -15 21 -2 2 -3 -1 -3 -7z"/>
<path d="M16173 6715 c0 -8 4 -12 9 -9 5 3 6 10 3 15 -9 13 -12 11 -12 -6z"/>
<path d="M16239 6717 c6 -8 7 -18 3 -22 -4 -5 -1 -5 6 -1 10 6 10 11 1 22 -6
8 -14 14 -16 14 -3 0 0 -6 6 -13z"/>
<path d="M16076 6698 c3 -5 10 -6 15 -3 13 9 11 12 -6 12 -8 0 -12 -4 -9 -9z"/>
<path d="M16046 6691 c-3 -4 1 -17 10 -27 14 -18 15 -18 5 2 -6 12 -7 24 -4
28 3 3 4 6 0 6 -3 0 -8 -4 -11 -9z"/>
<path d="M16186 6692 c-3 -5 1 -9 9 -9 8 0 12 4 9 9 -3 4 -7 8 -9 8 -2 0 -6
-4 -9 -8z"/>
<path d="M15826 6668 c3 -5 10 -6 15 -3 13 9 11 12 -6 12 -8 0 -12 -4 -9 -9z"/>
<path d="M15320 7121 c0 -6 4 -13 10 -16 6 -3 7 1 4 9 -7 18 -14 21 -14 7z"/>
<path d="M16966 7079 c21 -23 23 -23 20 -2 -2 9 -11 17 -20 19 -17 2 -17 2 0
-17z"/>
<path d="M16565 7044 c12 -5 12 -85 0 -103 -3 -6 -1 -10 5 -9 7 2 14 -9 15
-25 2 -15 0 -25 -6 -22 -5 4 -9 12 -9 20 0 7 -6 15 -14 18 -21 8 -14 -26 9
-40 29 -18 35 -16 36 10 1 21 1 21 8 -3 9 -28 4 -43 -10 -34 -5 3 -8 1 -7 -4
2 -6 -1 -10 -7 -11 -5 -1 -10 4 -10 9 0 6 -3 10 -7 10 -5 0 -11 0 -15 0 -3 0
3 -10 14 -22 23 -26 22 -61 -4 -92 -17 -20 -16 -20 6 0 12 11 23 35 25 52 2
35 23 65 40 55 6 -3 6 0 -1 8 -7 7 -13 19 -13 27 0 8 -9 27 -21 43 -11 16 -17
28 -12 27 4 -2 8 2 8 7 0 6 -3 9 -6 8 -3 -1 -6 5 -6 13 0 8 3 12 5 9 3 -3 11
0 18 6 10 9 15 7 20 -5 3 -9 10 -14 15 -11 15 10 -2 34 -22 30 -11 -2 -23 4
-29 16 -6 10 -16 19 -23 18 -7 0 -8 -2 -2 -5z"/>
<path d="M16796 7032 c-3 -5 1 -21 9 -35 16 -32 16 -36 3 -60 -6 -12 -6 -23 2
-33 7 -8 9 -21 4 -31 -4 -10 -8 -20 -8 -23 -1 -3 -5 -12 -11 -20 -7 -12 -6
-13 6 -4 8 5 20 9 27 8 6 -1 17 -2 23 -3 5 0 7 -6 4 -11 -4 -6 -11 -7 -17 -4
-7 4 -8 2 -4 -5 6 -9 11 -9 21 -1 9 8 15 8 20 0 3 -5 13 -10 22 -10 9 0 13 3
9 8 -4 4 -11 7 -14 7 -4 0 -18 8 -32 18 -13 9 -21 17 -16 17 5 0 3 7 -4 15 -7
8 -9 15 -5 15 4 0 2 6 -4 14 -8 10 -9 16 -1 21 5 3 10 11 10 18 0 6 -7 2 -15
-9 -8 -10 -15 -14 -15 -7 0 17 30 44 41 37 5 -3 7 -9 4 -14 -3 -4 -1 -19 4
-32 7 -17 10 -18 10 -5 1 9 6 17 11 17 7 0 7 -6 0 -19 -13 -26 -13 -34 2 -25
6 4 8 3 5 -3 -4 -6 0 -16 8 -23 13 -11 15 -9 11 11 -3 13 -5 24 -6 24 -1 0 -3
17 -5 38 -2 21 -1 36 3 33 3 -3 11 -1 19 5 9 8 13 8 13 1 0 -6 -5 -14 -11 -17
-6 -4 -8 -13 -5 -21 3 -7 1 -16 -5 -19 -5 -4 -7 -11 -3 -16 3 -5 9 -7 14 -4 4
3 13 -2 19 -9 9 -10 9 -16 1 -21 -6 -4 -9 -3 -8 2 2 4 -1 8 -7 8 -5 0 -9 -4
-7 -9 1 -4 -2 -14 -8 -20 -10 -13 -4 -26 12 -26 5 0 7 4 3 9 -3 5 -1 12 4 16
6 3 8 -3 6 -15 -2 -11 0 -22 6 -25 5 -4 9 0 9 7 1 7 7 2 14 -11 11 -20 14 -21
19 -6 9 23 9 27 -3 20 -6 -4 -9 -1 -8 7 2 7 -2 12 -9 11 -12 -3 -12 14 0 34 4
6 -2 19 -15 30 -13 10 -25 27 -26 37 -3 17 -2 18 12 7 9 -7 14 -17 11 -20 -2
-4 3 -8 11 -8 10 0 11 4 5 10 -6 6 -7 17 -2 26 12 26 6 48 -11 40 -2 -1 -20
-2 -41 -3 -30 -2 -41 2 -49 18 -6 12 -10 23 -9 24 2 2 0 6 -3 9 -3 3 -8 -6
-12 -21 -3 -14 -10 -23 -15 -20 -5 3 -7 9 -4 14 3 5 1 11 -5 15 -6 4 -8 11 -5
16 4 5 4 9 1 9 -3 0 -7 -4 -10 -8z m86 -66 c7 4 8 2 4 -5 -6 -9 -11 -9 -22 0
-7 6 -20 9 -29 5 -12 -4 -13 -2 -3 14 12 18 12 18 26 -1 7 -11 18 -16 24 -13z
m68 -17 c0 -11 -4 -18 -10 -14 -5 3 -7 12 -3 20 7 21 13 19 13 -6z m-60 -13
c0 -2 -7 -6 -15 -10 -8 -3 -15 -1 -15 4 0 6 7 10 15 10 8 0 15 -2 15 -4z m-56
-87 c-3 -5 -10 -7 -15 -3 -5 3 -7 10 -3 15 3 5 10 7 15 3 5 -3 7 -10 3 -15z"/>
<path d="M16956 7012 c-3 -5 1 -15 9 -22 8 -7 13 -16 10 -20 -3 -4 2 -10 10
-14 8 -3 19 3 24 12 6 9 11 12 11 6 0 -6 -3 -14 -7 -18 -4 -4 -8 -19 -10 -34
-2 -26 -2 -26 12 6 18 38 20 39 20 8 0 -13 -3 -22 -7 -19 -5 2 -8 0 -8 -6 0
-5 6 -11 13 -14 9 -3 9 -7 -1 -19 -8 -10 -9 -19 -3 -22 5 -3 12 0 14 6 4 9 6
10 6 1 1 -6 -4 -15 -9 -18 -8 -5 -7 -12 2 -23 10 -14 10 -15 -2 -5 -10 10 -17
10 -27 1 -11 -9 -13 -8 -11 3 2 8 -3 13 -9 12 -7 -2 -12 1 -10 6 2 8 -3 11
-20 11 -3 0 4 -11 17 -25 l23 -24 -28 -43 c-17 -25 -21 -37 -11 -28 10 8 25
15 34 16 8 2 19 9 23 16 12 18 11 40 -1 33 -6 -4 -8 -10 -5 -15 3 -4 -3 -14
-13 -21 -15 -13 -16 -12 -3 4 7 9 10 17 6 17 -4 0 -2 7 6 16 11 14 14 14 24 1
9 -12 12 -11 22 9 6 13 7 22 2 18 -5 -3 -9 2 -9 11 0 9 5 13 11 9 8 -4 8 -1 2
12 -5 11 -11 37 -12 59 -2 37 -37 92 -49 80 -3 -3 -13 2 -23 11 -10 9 -20 11
-23 6z m35 -29 c13 -16 12 -17 -3 -4 -17 13 -22 21 -14 21 2 0 10 -8 17 -17z"/>
<path d="M16692 6979 c-9 -14 -10 -24 -3 -33 8 -9 7 -18 -3 -31 -9 -13 -11
-27 -6 -41 5 -13 4 -26 -3 -33 -6 -6 -7 -11 -3 -11 5 0 3 -6 -3 -14 -9 -10 -9
-16 -1 -21 8 -5 6 -14 -7 -28 l-18 -22 22 19 c17 14 20 22 12 32 -7 8 -7 14 1
19 6 3 8 10 5 15 -3 5 -1 11 4 14 5 3 7 19 6 36 -1 16 1 28 5 25 3 -2 6 6 5
18 -3 29 5 42 16 26 4 -8 3 -19 -3 -26 -6 -7 -7 -13 -3 -13 4 0 2 -7 -5 -15
-9 -11 -9 -15 -1 -15 7 0 9 -5 5 -12 -4 -7 -3 -9 1 -5 11 9 17 34 16 67 -2 65
-1 63 -21 38 -11 -13 -19 -18 -20 -12 0 5 5 15 12 22 6 6 10 14 7 16 -3 3 -10
-4 -17 -15z"/>
<path d="M16973 6923 c1 -20 -2 -27 -13 -25 -8 2 0 -12 19 -32 19 -19 38 -33
43 -30 4 3 6 10 2 15 -3 5 -10 7 -15 3 -5 -3 -8 0 -7 8 2 7 -3 12 -10 10 -8
-1 -11 2 -7 8 5 8 11 8 20 0 9 -8 15 -8 20 0 6 10 5 12 -17 14 -7 1 -13 12
-13 25 0 14 -6 26 -12 28 -8 3 -11 -6 -10 -24z"/>
<path d="M16843 6894 c4 -30 36 -76 48 -68 7 4 3 14 -9 28 -11 11 -24 30 -31
41 -11 20 -11 20 -8 -1z"/>
<path d="M16709 6845 c-1 -3 -2 -8 -3 -12 -1 -5 -4 -13 -8 -18 -4 -6 -2 -17 4
-25 8 -13 9 -12 5 2 -3 9 -3 19 1 22 7 8 12 36 6 36 -2 0 -5 -2 -5 -5z"/>
<path d="M16546 6830 c12 -21 12 -52 0 -70 -9 -13 -8 -13 5 -3 19 15 19 58 0
75 -11 11 -12 10 -5 -2z"/>
<path d="M16616 6823 c-6 -14 -5 -15 5 -6 7 7 10 15 7 18 -3 3 -9 -2 -12 -12z"/>
<path d="M16616 6787 c3 -10 9 -15 12 -12 3 3 0 11 -7 18 -10 9 -11 8 -5 -6z"/>
<path d="M16864 6788 c1 -7 4 -17 7 -23 4 -5 4 -19 2 -30 -3 -11 -6 -40 -8
-65 -1 -25 -4 -45 -5 -45 -6 0 -7 -36 0 -40 5 -3 7 3 5 12 -1 10 0 23 4 28 3
6 6 28 7 50 3 57 8 71 29 95 21 23 34 18 14 -6 -13 -16 -22 -71 -10 -58 3 3 6
14 6 25 0 10 5 19 10 18 6 -1 9 -6 7 -12 -2 -6 4 -5 12 3 17 14 22 25 7 15 -5
-3 -12 -1 -16 5 -3 5 1 10 9 10 9 0 16 5 16 12 0 6 -3 8 -7 5 -3 -4 -13 -1
-21 6 -12 9 -16 9 -19 -1 -3 -6 -9 -10 -14 -6 -5 3 -8 1 -7 -4 2 -6 -1 -10 -7
-11 -5 -1 -10 3 -10 8 0 5 -3 12 -7 16 -3 4 -6 1 -4 -7z"/>
<path d="M16675 6750 c-10 -11 -23 -17 -29 -13 -6 4 -5 -1 3 -10 7 -9 16 -17
19 -17 3 0 2 3 -1 7 -4 3 3 17 15 30 12 13 19 23 16 23 -3 0 -13 -9 -23 -20z"/>
<path d="M16584 6739 c-10 -12 -12 -19 -4 -24 5 -3 7 -11 4 -17 -4 -7 -2 -8 5
-4 9 6 9 11 1 21 -7 9 -6 16 4 24 12 10 17 8 27 -11 7 -13 12 -27 11 -31 -1
-5 2 -6 8 -2 6 4 4 15 -6 30 -12 18 -12 24 -2 28 7 3 3 4 -10 4 -13 -1 -30 -9
-38 -18z"/>
<path d="M16689 6733 c-13 -16 -12 -17 4 -4 9 7 17 15 17 17 0 8 -8 3 -21 -13z"/>
<path d="M16759 6735 c-1 -3 -2 -13 -3 -22 -1 -10 -5 -23 -9 -30 -4 -6 -3 -15
3 -18 6 -4 10 -3 9 2 -1 4 0 10 1 13 4 9 7 60 3 60 -1 0 -4 -2 -4 -5z"/>
<path d="M16790 6725 c0 -2 6 -8 13 -14 10 -8 14 -7 14 2 0 8 -6 14 -14 14 -7
0 -13 -1 -13 -2z"/>
<path d="M16835 6681 c1 -25 -1 -50 -4 -56 -11 -20 -9 -34 7 -47 15 -11 15
-11 6 2 -9 13 -11 31 -4 45 1 3 3 22 4 43 1 20 4 42 8 48 4 6 1 11 -5 11 -9 0
-13 -15 -12 -46z"/>
<path d="M16722 6708 c2 -7 -3 -12 -11 -10 -11 2 -12 0 -3 -11 9 -10 9 -17 -1
-27 -10 -12 -9 -12 6 -1 9 8 15 16 12 19 -3 3 0 11 6 18 7 8 7 14 -1 19 -6 4
-9 1 -8 -7z"/>
<path d="M16606 6693 c-6 -14 -5 -15 5 -6 7 7 10 15 7 18 -3 3 -9 -2 -12 -12z"/>
<path d="M16781 6703 c1 -4 0 -10 -1 -13 -8 -22 -6 -41 6 -51 8 -6 12 -15 9
-19 -3 -5 0 -12 7 -16 7 -4 10 -4 6 1 -4 4 -2 15 5 23 7 10 8 13 1 9 -22 -13
-37 25 -21 50 4 6 3 15 -3 18 -6 4 -10 3 -9 -2z"/>
<path d="M16809 6688 c-5 -18 -6 -38 -1 -34 7 8 12 36 6 36 -2 0 -4 -1 -5 -2z"/>
<path d="M16725 6651 c-3 -5 -1 -12 5 -16 6 -4 7 -11 4 -17 -4 -7 -2 -8 5 -4
8 6 9 12 2 20 -6 7 -8 16 -4 19 3 4 4 7 0 7 -3 0 -8 -4 -12 -9z"/>
<path d="M16759 6637 c6 -8 7 -18 3 -22 -4 -5 -1 -5 6 -1 10 6 10 11 1 22 -6
8 -14 14 -16 14 -3 0 0 -6 6 -13z"/>
<path d="M15926 7068 c3 -5 11 -7 17 -5 7 2 20 0 29 -5 13 -6 16 -5 12 5 -2 7
-18 13 -34 13 -16 0 -27 -4 -24 -8z"/>
<path d="M14387 7047 c-3 -8 1 -14 9 -14 16 0 19 13 5 21 -5 3 -11 0 -14 -7z"/>
<path d="M14335 6990 c-11 -17 5 -32 21 -19 7 6 11 15 8 20 -7 12 -21 11 -29
-1z"/>
<path d="M14707 7020 c10 -11 10 -17 0 -29 -9 -12 -9 -13 1 -7 19 12 14 -9 -8
-29 -11 -10 -20 -23 -20 -28 0 -6 7 -2 15 9 10 13 14 15 15 5 0 -28 13 -1 15
34 2 22 -3 39 -14 47 -13 10 -14 10 -4 -2z"/>
<path d="M17371 6772 c-6 -11 -6 -24 0 -33 7 -12 9 -12 9 1 0 12 2 12 9 1 6
-9 9 -5 9 13 0 33 -14 42 -27 18z m10 -15 c-10 -9 -11 -8 -5 6 3 10 9 15 12
12 3 -3 0 -11 -7 -18z"/>
<path d="M8020 6780 c-24 -24 -25 -33 -4 -51 24 -20 41 -19 60 2 22 24 12 69
-16 69 -11 0 -29 -9 -40 -20z"/>
<path d="M17445 6651 c11 -13 19 -25 18 -27 -7 -10 -2 -25 5 -20 11 7 8 51 -4
51 -5 0 -16 4 -24 9 -8 5 -6 -1 5 -13z"/>
<path d="M17514 6616 c1 -9 7 -21 13 -27 9 -9 11 -7 9 5 -1 9 -7 21 -13 27 -9
9 -11 7 -9 -5z"/>
<path d="M17430 6535 c-7 -8 -9 -15 -5 -15 4 0 2 -6 -4 -13 -6 -8 -8 -17 -5
-20 4 -4 -5 -11 -19 -16 -14 -6 -24 -16 -23 -24 2 -15 45 -73 47 -63 5 25 4
33 -9 48 -18 22 -6 44 14 27 12 -10 15 -10 12 2 -2 9 5 14 20 13 l23 -1 -26
27 c-19 20 -22 29 -13 38 7 7 9 12 6 12 -3 0 -11 -7 -18 -15z m20 -40 c0 -2
-6 -8 -13 -14 -10 -8 -14 -7 -14 2 0 8 6 14 14 14 7 0 13 -1 13 -2z"/>
<path d="M17450 6344 c0 -6 6 -19 14 -30 13 -17 14 -17 12 -1 -2 19 -26 47
-26 31z"/>
<path d="M17261 6573 c-33 -40 -36 -49 -22 -58 11 -6 34 29 25 38 -3 3 0 8 7
13 7 4 10 3 5 -4 -3 -6 -2 -13 3 -16 5 -3 11 1 15 9 3 8 1 17 -5 21 -6 4 -6
11 2 20 6 8 9 14 6 14 -3 0 -19 -17 -36 -37z"/>
<path d="M17203 6463 c4 -3 1 -13 -6 -22 -11 -14 -10 -14 5 -2 16 12 16 31 1
31 -4 0 -3 -3 0 -7z"/>
<path d="M17274 6395 c9 -14 14 -31 10 -37 -4 -6 -3 -8 4 -4 6 3 10 15 9 26
-1 10 -5 16 -11 13 -5 -4 -7 1 -3 10 4 12 1 17 -9 17 -15 0 -15 -3 0 -25z"/>
<path d="M17310 6391 c0 -6 4 -13 10 -16 6 -3 7 1 4 9 -7 18 -14 21 -14 7z"/>
<path d="M17373 6274 c1 -19 -3 -29 -13 -29 -10 0 -15 -10 -15 -30 0 -17 -6
-29 -12 -28 -13 3 -11 -22 2 -34 4 -4 5 -3 2 3 -4 7 0 17 8 24 11 9 13 7 10
-17 -2 -15 -4 -32 -4 -38 -1 -5 -6 -3 -11 5 -5 8 -10 10 -10 4 0 -6 8 -18 17
-25 9 -8 14 -9 11 -4 -4 6 -2 17 3 25 8 11 9 5 7 -22 -2 -20 -1 -36 2 -35 6 2
10 -8 10 -25 0 -9 -4 -8 -11 2 -8 11 -9 9 -3 -10 6 -20 4 -23 -8 -15 -7 6 -6
3 4 -7 21 -19 24 -33 6 -22 -10 6 -10 4 0 -7 9 -9 15 -10 23 -2 8 8 8 13 0 17
-6 4 -11 14 -11 22 0 8 5 12 10 9 6 -4 7 -12 3 -18 -4 -8 -1 -7 9 1 9 7 18 9
20 5 3 -4 3 -2 1 5 -1 7 1 11 6 7 5 -3 11 -2 14 2 2 5 2 2 1 -4 -2 -7 1 -13 7
-13 6 0 7 -5 4 -10 -4 -6 -12 -7 -18 -4 -8 5 -8 3 0 -6 10 -11 9 -17 -4 -32
-9 -10 -13 -18 -8 -18 4 0 2 -6 -4 -13 -8 -11 -6 -18 9 -32 20 -18 29 -8 10
11 -6 6 -4 19 5 38 8 15 13 32 10 36 -3 5 -1 11 3 14 5 3 7 17 4 31 -4 22 -1
25 19 21 15 -2 23 -10 23 -20 -1 -9 2 -13 6 -11 16 10 7 46 -11 42 -8 -2 -16
1 -16 8 0 7 6 11 14 8 7 -3 13 0 13 6 0 6 -3 10 -7 10 -5 -1 -16 -1 -26 0 -15
1 -16 4 -4 24 16 25 17 48 2 45 -5 -2 -9 -6 -8 -10 4 -10 -26 -3 -38 9 -8 8
-8 13 0 17 6 4 11 0 11 -9 0 -9 5 -13 10 -10 8 5 8 11 1 19 -6 7 -8 16 -5 19
4 3 -6 4 -21 1 -17 -3 -24 -1 -20 6 4 6 1 9 -6 8 -8 -2 -13 10 -13 34 -1 20
-4 40 -8 43 -4 4 -6 -5 -5 -21z m4 -43 c-1 -3 5 -16 13 -28 12 -18 17 -20 30
-10 13 10 13 10 3 -4 -11 -13 -9 -20 10 -37 13 -12 27 -19 32 -15 4 5 3 -1 -3
-13 -8 -15 -8 -24 0 -32 9 -9 9 -15 0 -24 -6 -6 -14 -9 -18 -6 -11 11 -11 43
-1 56 8 10 7 12 -4 10 -8 -2 -13 3 -11 10 1 8 -2 11 -9 7 -7 -5 -8 -10 0 -18
7 -7 7 -14 0 -23 -7 -8 -7 -14 1 -19 8 -5 5 -12 -7 -21 -17 -13 -17 -14 2 -7
17 6 18 5 5 -9 -17 -18 -34 -13 -26 8 3 7 1 16 -4 19 -6 3 -8 24 -7 46 2 22 0
42 -5 45 -4 3 -8 0 -8 -7 0 -7 -3 -10 -6 -6 -3 3 -3 11 1 17 14 22 31 -9 28
-49 -1 -22 1 -42 6 -45 12 -8 10 87 -3 104 -6 8 -17 15 -25 15 -8 0 -15 9 -17
21 -2 13 2 21 11 21 8 0 13 -3 12 -6z"/>
<path d="M17205 6220 c-4 -6 -11 -7 -17 -4 -7 5 -8 2 -2 -7 12 -20 14 -38 3
-45 -6 -4 -6 -10 0 -17 5 -7 9 -16 9 -22 0 -5 -4 -15 -9 -22 -7 -7 -6 -14 1
-18 6 -3 8 -10 5 -15 -3 -5 -1 -11 4 -14 10 -7 9 13 -2 31 -4 6 -3 14 2 17 10
7 9 25 -2 43 -4 6 -3 14 2 17 5 4 8 14 6 24 -1 9 2 23 8 30 5 6 7 12 4 12 -3
0 -9 -5 -12 -10z"/>
<path d="M17226 6203 c-6 -14 -5 -15 5 -6 7 7 10 15 7 18 -3 3 -9 -2 -12 -12z"/>
<path d="M17296 6208 c3 -5 10 -6 15 -3 13 9 11 12 -6 12 -8 0 -12 -4 -9 -9z"/>
<path d="M17169 6195 c-1 -3 -2 -8 -3 -12 -1 -5 -5 -13 -9 -20 -4 -6 -3 -14 3
-18 6 -4 8 -11 4 -16 -3 -5 -11 -6 -17 -2 -8 5 -8 2 0 -9 7 -8 11 -17 8 -20
-3 -3 3 -11 12 -19 16 -13 17 -12 5 3 -8 10 -9 19 -3 22 10 7 10 24 -2 42 -3
6 -3 14 0 18 8 8 13 36 7 36 -2 0 -5 -2 -5 -5z"/>
<path d="M17270 6155 c5 -7 6 -16 2 -21 -4 -5 -3 -5 2 -1 15 12 15 34 0 34 -9
0 -11 -4 -4 -12z"/>
<path d="M17303 6158 c2 -7 -3 -22 -12 -33 -16 -20 -16 -20 6 -2 12 11 19 25
16 33 -6 17 -16 19 -10 2z"/>
<path d="M17244 6136 c0 -12 6 -23 13 -23 9 0 10 4 3 12 -5 7 -7 14 -4 17 3 3
1 8 -3 11 -5 3 -9 -5 -9 -17z"/>
<path d="M17303 6108 c-11 -18 -12 -37 -3 -43 4 -2 7 5 6 18 -1 13 4 21 12 19
8 -1 11 2 7 8 -8 13 -12 13 -22 -2z"/>
<path d="M17145 6070 c10 -11 20 -20 23 -20 3 0 -3 9 -13 20 -10 11 -20 20
-23 20 -3 0 3 -9 13 -20z"/>
<path d="M17250 6071 c0 -6 4 -13 10 -16 6 -3 7 1 4 9 -7 18 -14 21 -14 7z"/>
<path d="M17135 6050 c10 -11 20 -20 23 -20 3 0 -3 9 -13 20 -10 11 -20 20
-23 20 -3 0 3 -9 13 -20z"/>
<path d="M17246 6021 c-15 -17 -15 -19 1 -32 15 -11 16 -11 6 1 -10 11 -9 17
4 32 9 10 14 18 11 18 -3 0 -12 -8 -22 -19z"/>
<path d="M17126 6022 c-3 -5 1 -9 9 -9 8 0 12 4 9 9 -3 4 -7 8 -9 8 -2 0 -6
-4 -9 -8z"/>
<path d="M17195 5983 c0 -13 12 -33 25 -46 l24 -22 -21 25 c-24 27 -26 39 -12
56 5 7 4 11 -5 11 -7 0 -12 -10 -11 -24z"/>
<path d="M17402 6003 c4 -22 -16 -43 -36 -38 -18 5 -19 5 -4 -5 10 -6 23 -20
29 -32 8 -15 8 -19 0 -14 -6 4 -11 2 -11 -3 0 -6 4 -11 9 -11 14 0 6 -33 -9
-38 -7 -3 -10 0 -6 7 4 6 4 17 -1 24 -4 6 -9 21 -10 31 -5 33 -15 33 -13 1 3
-45 1 -52 -11 -35 -9 12 -10 11 -4 -5 4 -11 9 -31 12 -45 2 -14 14 -35 25 -47
12 -13 18 -23 14 -23 -5 0 -3 -6 3 -14 7 -9 8 -17 3 -20 -9 -6 -21 11 -18 26
0 3 -10 18 -23 32 -14 14 -21 26 -17 26 5 0 3 6 -3 13 -6 8 -7 18 -3 22 4 5 1
5 -6 1 -10 -6 -10 -11 -1 -22 6 -8 8 -14 3 -14 -4 0 3 -11 16 -25 13 -14 20
-25 16 -25 -4 0 2 -13 14 -30 20 -28 19 -35 -3 -31 -5 1 -7 -4 -4 -11 2 -7 0
-22 -6 -33 -9 -18 -9 -19 7 -6 14 12 16 12 11 -1 -4 -11 0 -15 16 -14 22 1 35
31 18 42 -5 3 -3 15 6 27 8 12 15 28 14 37 0 8 -5 3 -11 -13 -5 -15 -14 -24
-19 -21 -7 4 -7 10 0 17 5 7 9 17 8 22 -1 6 13 11 31 13 31 3 32 5 32 48 0 25
4 43 9 40 5 -3 14 0 20 8 8 10 6 17 -8 30 -11 10 -17 23 -15 30 3 7 -2 19 -11
26 -10 8 -15 9 -15 1 0 -6 5 -11 10 -11 6 0 10 -4 10 -10 0 -5 -8 -7 -17 -3
-16 5 -16 4 0 -9 26 -20 2 -40 -28 -24 -21 12 -25 23 -12 44 5 6 5 12 1 12 -4
0 0 8 9 18 13 14 14 21 5 30 -13 13 -29 16 -26 5z m87 -131 c-1 -15 -2 -15 -6
1 -2 9 -9 15 -14 11 -5 -3 -7 -10 -4 -15 4 -5 -1 -12 -9 -15 -9 -3 -16 -10
-16 -16 0 -5 4 -7 8 -4 5 3 9 -8 10 -24 0 -20 -4 -30 -14 -30 -9 0 -14 8 -13
18 1 9 1 26 0 36 -1 20 -1 20 -16 0 -16 -22 -20 -58 -5 -49 17 10 11 -2 -7
-16 -10 -7 -15 -9 -10 -4 4 4 -2 18 -12 29 -22 24 -36 82 -22 91 6 3 10 -3 9
-12 0 -23 10 -64 17 -72 4 -3 4 7 1 23 -4 22 -2 25 8 17 10 -9 15 -8 20 4 3 8
2 15 -3 15 -4 0 -8 7 -8 15 0 8 7 15 14 15 8 0 11 -4 8 -10 -15 -24 8 -29 27
-5 21 27 39 25 37 -3z m-94 -172 c-3 -5 -1 -19 5 -30 6 -11 8 -20 6 -20 -10 0
-27 41 -21 50 3 6 8 10 11 10 3 0 2 -4 -1 -10z"/>
<path d="M17165 5991 c-3 -5 -2 -12 3 -15 5 -3 9 1 9 9 0 17 -3 19 -12 6z"/>
<path d="M17224 5975 c1 -8 8 -21 16 -28 12 -10 12 -9 2 4 -6 9 -9 18 -6 21 3
3 1 9 -4 12 -6 3 -9 -1 -8 -9z"/>
<path d="M17170 5956 c0 -2 8 -10 18 -17 15 -13 16 -12 3 4 -13 16 -21 21 -21
13z"/>
<path d="M17294 5928 l-19 -23 23 19 c21 18 27 26 19 26 -2 0 -12 -10 -23 -22z"/>
<path d="M17490 5931 c0 -11 4 -22 9 -25 4 -3 6 6 3 19 -5 30 -12 33 -12 6z"/>
<path d="M17314 5918 c-12 -14 -13 -18 -3 -10 9 6 18 10 21 7 2 -3 5 2 5 10 0
19 0 19 -23 -7z"/>
<path d="M17160 5885 c5 -7 6 -15 2 -19 -4 -4 0 -6 8 -4 10 2 15 -4 14 -20 -1
-12 1 -20 5 -17 3 4 6 10 6 13 0 4 4 13 9 21 6 9 5 12 -1 8 -11 -7 -37 16 -28
25 3 2 -2 5 -10 5 -10 0 -12 -4 -5 -12z"/>
<path d="M17256 5891 c-3 -5 2 -15 12 -22 15 -12 16 -12 5 2 -7 9 -10 19 -6
22 3 4 4 7 0 7 -3 0 -8 -4 -11 -9z"/>
<path d="M17219 5858 c-5 -18 -6 -38 -1 -34 7 8 12 36 6 36 -2 0 -4 -1 -5 -2z"/>
<path d="M17249 5858 c-9 -21 -2 -81 10 -91 13 -10 14 -10 5 3 -6 8 -10 32 -9
53 1 31 -1 46 -6 35z"/>
<path d="M17274 5824 c0 -20 11 -25 11 -6 0 4 3 12 7 18 4 6 1 11 -5 11 -7 0
-13 -11 -13 -23z"/>
<path d="M17195 5801 c-3 -5 -2 -12 3 -15 5 -3 9 1 9 9 0 17 -3 19 -12 6z"/>
<path d="M17293 5798 c-13 -21 -12 -37 3 -49 12 -9 12 -15 2 -28 -12 -14 -11
-14 5 -2 15 12 15 16 4 30 -15 18 -16 30 -4 49 5 6 6 12 3 12 -3 0 -8 -6 -13
-12z"/>
<path d="M17219 5760 c-3 -20 -4 -25 -13 -40 -7 -12 -6 -13 4 -3 13 12 25 53
15 53 -3 0 -6 -4 -6 -10z"/>
<path d="M17444 5748 c3 -10 1 -20 -5 -23 -5 -4 -7 -11 -4 -16 4 -5 -1 -9 -10
-9 -9 0 -13 -5 -10 -10 4 -6 12 -7 18 -3 8 4 7 1 -1 -9 -9 -12 -10 -18 -2 -23
18 -11 35 11 22 28 -9 10 -9 16 0 25 7 7 8 12 4 12 -5 0 -3 7 4 15 7 9 10 18
6 22 -3 3 -6 0 -6 -8 0 -12 -2 -11 -11 1 -9 13 -10 12 -5 -2z"/>
<path d="M17263 5723 c4 -3 1 -13 -6 -22 -11 -14 -10 -14 5 -2 16 12 16 31 1
31 -4 0 -3 -3 0 -7z"/>
<path d="M17305 5700 c-3 -5 -4 -10 -1 -10 2 0 0 -14 -5 -32 -5 -18 -5 -28 0
-22 9 9 23 74 16 74 -2 0 -7 -4 -10 -10z"/>
<path d="M17480 5695 c13 -16 30 -11 30 8 0 7 -4 6 -10 -3 -6 -10 -10 -11 -10
-2 0 6 -5 12 -11 12 -8 0 -8 -5 1 -15z"/>
<path d="M17560 5701 c0 -7 -5 -9 -11 -5 -8 5 -9 2 -1 -11 5 -10 17 -20 26
-21 13 -2 14 1 5 19 -15 29 -19 33 -19 18z"/>
<path d="M17279 5698 c-4 -12 -5 -57 0 -53 6 6 10 55 4 55 -1 0 -3 -1 -4 -2z"/>
<path d="M17649 5695 c-1 -3 -3 -9 -4 -15 -1 -5 -3 -13 -4 -16 0 -4 -7 -1 -15
5 -17 15 -28 1 -15 -19 7 -13 9 -13 9 0 0 12 2 12 9 2 6 -11 10 -10 16 5 10
23 14 43 9 43 -2 0 -5 -2 -5 -5z"/>
<path d="M17244 4903 c4 -20 -12 -45 -24 -38 -4 2 -7 -3 -6 -13 0 -9 -3 -17
-9 -17 -5 0 -9 3 -8 6 1 3 -4 6 -11 6 -7 0 -13 -6 -13 -13 0 -7 5 -12 11 -11
6 1 10 -5 8 -13 -3 -12 0 -12 14 2 17 17 19 17 38 0 17 -14 17 -12 -2 9 -22
25 -22 26 -3 43 18 17 22 38 9 52 -4 3 -5 -2 -4 -13z"/>
<path d="M17251 4857 c-8 -11 -6 -18 12 -33 22 -19 22 -19 5 2 -14 16 -15 23
-6 32 7 7 9 12 6 12 -3 0 -11 -6 -17 -13z"/>
<path d="M17270 4846 c0 -2 8 -10 18 -17 15 -13 16 -12 3 4 -13 16 -21 21 -21
13z"/>
<path d="M17605 6249 c-4 -5 -10 -7 -15 -4 -4 3 -14 -3 -21 -13 -12 -15 -12
-16 1 -6 20 14 39 12 49 -5 6 -9 11 -10 15 -2 4 6 1 11 -6 11 -11 0 -10 2 0 9
11 7 11 9 -2 14 -8 3 -18 2 -21 -4z"/>
<path d="M17599 6008 c0 -2 -2 -19 -3 -39 -2 -37 16 -48 34 -20 6 11 9 11 13
0 3 -8 5 -4 3 8 -2 23 -23 53 -37 53 -5 0 -9 -1 -10 -2z m29 -21 c7 -8 6 -17
-3 -30 -11 -15 -13 -15 -18 -3 -4 9 -1 18 5 22 7 4 6 9 -3 15 -8 5 -9 9 -3 9
6 0 16 -6 22 -13z"/>
<path d="M2250 4925 c7 -9 8 -15 1 -19 -6 -4 -8 -13 -4 -22 4 -10 9 -11 18 -4
17 14 11 53 -9 56 -13 2 -15 -1 -6 -11z"/>
<path d="M11806 4468 c3 -5 10 -6 15 -3 13 9 11 12 -6 12 -8 0 -12 -4 -9 -9z"/>
</g>
</svg>
