<?xml version="1.0" standalone="no"?>
<!DOCTYPE svg PUBLIC "-//W3C//DTD SVG 20010904//EN"
 "http://www.w3.org/TR/2001/REC-SVG-20010904/DTD/svg10.dtd">
<svg version="1.0" xmlns="http://www.w3.org/2000/svg"
 width="2000.000000pt" height="956.000000pt" viewBox="0 0 2000.000000 956.000000"
 preserveAspectRatio="xMidYMid meet">

<g transform="translate(0.000000,956.000000) scale(0.100000,-0.100000)"
fill="#000000" stroke="none">
<path d="M0 4780 l0 -4780 10000 0 10000 0 0 4780 0 4780 -10000 0 -10000 0 0
-4780z m7188 1675 c4 -3 -12 -25 -36 -47 -37 -34 -45 -38 -59 -26 -12 9 -15 9
-9 1 4 -7 2 -13 -3 -13 -6 0 -11 6 -11 13 0 8 -3 8 -8 2 -4 -6 -14 -10 -22
-10 -8 1 -27 -2 -42 -6 -19 -5 -28 -4 -29 4 0 8 -2 8 -6 -1 -4 -10 -8 -10 -21
0 -12 10 -14 10 -8 1 4 -7 3 -13 -1 -13 -5 0 -15 6 -22 13 -8 6 -11 7 -8 1 4
-7 -5 -11 -23 -12 -19 0 -30 4 -30 12 0 8 -7 19 -15 26 -12 10 -18 6 -35 -23
-20 -34 -32 -39 -57 -24 -6 4 -14 3 -18 -3 -3 -5 -11 -10 -16 -10 -6 0 -7 6
-3 13 5 7 1 6 -10 -3 -23 -18 -49 -22 -39 -7 5 9 3 9 -8 1 -8 -5 -21 -10 -29
-9 -8 1 -26 -3 -39 -7 -20 -7 -22 -6 -17 9 5 16 4 16 -6 3 -7 -9 -20 -15 -28
-15 -8 1 -19 -1 -25 -4 -16 -9 -39 -7 -54 4 -12 8 -13 7 -6 -4 6 -11 3 -13
-13 -9 -12 4 -22 2 -22 -4 0 -5 -13 -7 -30 -4 -16 2 -30 0 -30 -5 0 -5 -3 -8
-7 -8 -5 1 -10 0 -13 -1 -3 -1 -12 -3 -21 -5 -10 -1 -50 -11 -90 -20 -120 -27
-116 -27 -122 -3 -7 26 11 104 27 117 15 13 78 17 95 7 10 -6 12 -5 7 2 -7 12
4 14 96 16 20 1 34 4 32 7 -7 12 81 16 95 5 11 -8 13 -8 7 2 -5 9 3 12 28 12
20 0 37 0 39 -1 1 0 14 4 30 10 18 7 27 7 27 0 0 -6 3 -8 8 -5 4 2 73 6 154 7
116 3 150 0 164 -11 18 -14 18 -14 4 4 -14 18 -13 19 6 14 12 -3 28 -2 35 3 8
4 20 3 28 -4 11 -9 13 -9 8 0 -5 8 3 13 25 15 55 5 168 1 176 -7z m1255 -10
c9 -4 17 -10 18 -14 0 -3 2 -14 4 -24 2 -10 -9 -32 -23 -50 -16 -19 -19 -26
-8 -17 18 14 19 13 13 -2 -3 -10 -2 -20 4 -23 5 -4 8 -1 7 7 -2 9 9 12 39 11
59 -3 83 -18 83 -52 0 -29 -21 -56 -34 -44 -4 4 -4 -1 0 -12 6 -15 4 -17 -10
-12 -9 4 -15 3 -11 -2 9 -16 -54 -53 -93 -55 -31 -1 -38 3 -46 27 -8 20 -7 34
3 50 9 14 9 18 1 11 -9 -9 -22 -8 -53 4 -23 9 -44 17 -46 19 -8 6 -8 93 0 87
5 -3 12 2 15 10 3 9 10 13 16 10 5 -3 2 -15 -9 -27 -16 -19 -14 -19 9 1 25 23
27 23 37 5 9 -16 10 -15 7 7 -3 14 -5 25 -6 25 -1 0 -3 8 -5 18 -4 23 -11 30
-30 33 -8 1 -13 -2 -9 -7 3 -5 10 -7 15 -4 5 4 9 2 9 -4 0 -19 -19 -21 -29 -4
-6 10 -11 13 -11 6 0 -6 5 -15 10 -18 6 -4 7 -11 4 -17 -4 -6 -13 -1 -21 13
-13 22 -12 11 3 -26 4 -10 2 -15 -7 -13 -10 2 -14 -9 -13 -44 0 -48 -3 -50
-38 -20 -31 26 -22 62 27 109 25 24 49 42 53 39 5 -3 14 -1 21 4 15 9 77 6
104 -5z m-392 -66 c1 -5 2 -15 3 -21 1 -17 -75 -37 -138 -38 l-49 0 23 25 c39
41 97 65 131 53 16 -5 30 -14 30 -19z m296 24 c-4 -3 -2 -12 4 -19 10 -12 7
-12 -30 -5 -5 1 20 31 27 31 3 0 2 -3 -1 -7z m347 -5 c-6 -10 -5 -10 7 -1 12
10 20 9 37 -3 31 -21 28 -50 -6 -62 -33 -11 -59 -2 -91 31 l-23 26 33 10 c47
13 51 13 43 -1z m-3860 -24 c3 -8 2 -12 -4 -9 -6 3 -10 10 -10 16 0 14 7 11
14 -7z m-54 -65 c0 -5 -4 -9 -10 -9 -5 0 -10 7 -10 16 0 8 5 12 10 9 6 -3 10
-10 10 -16z m217 6 c0 -11 -4 -12 -14 -4 -7 6 -13 13 -13 15 0 2 6 4 13 4 8 0
14 -7 14 -15z m12549 -126 c3 -5 -2 -9 -10 -9 -9 0 -16 -6 -16 -12 -1 -13 -30
20 -30 33 0 9 49 -1 56 -12z m-411 -39 c3 -5 1 -10 -4 -10 -6 0 -11 5 -11 10
0 6 2 10 4 10 3 0 8 -4 11 -10z m-8041 -152 c-4 -6 -3 -8 4 -4 17 10 55 -9
102 -52 49 -44 55 -73 26 -133 -11 -25 -30 -42 -56 -54 -37 -17 -42 -17 -83
-1 -24 9 -61 34 -82 56 -40 41 -65 51 -65 26 0 -8 -8 -24 -18 -36 -17 -21 -18
-21 -65 -3 -69 26 -159 94 -153 116 2 10 0 14 -6 11 -27 -17 3 24 32 44 45 30
70 28 114 -13 21 -19 42 -36 47 -36 5 -1 15 -2 22 -3 6 -2 28 12 47 29 19 18
46 39 60 49 28 19 85 22 74 4z m2924 -62 c18 -19 32 -37 32 -40 0 -3 -16 -6
-35 -6 -43 0 -50 -15 -30 -63 8 -20 15 -48 15 -62 0 -14 6 -38 13 -53 8 -15
11 -38 7 -52 -4 -17 0 -31 13 -45 47 -49 40 -82 -23 -110 -34 -15 -40 -23 -38
-44 2 -18 11 -27 34 -33 18 -4 35 -18 42 -32 21 -46 0 -91 -60 -128 -44 -27
-53 -47 -39 -91 5 -17 9 -42 8 -54 -2 -29 -43 -72 -91 -98 -23 -13 -39 -29
-42 -45 -16 -79 -19 -83 -89 -126 -71 -45 -92 -49 -59 -13 29 32 23 86 -14
140 -43 64 -44 117 -2 152 16 14 45 31 65 37 26 9 35 17 35 34 0 31 -33 63
-79 76 -50 13 -64 31 -65 85 -2 76 57 130 154 142 28 3 58 12 66 20 24 25 17
76 -15 107 -16 16 -35 41 -42 57 -10 25 -9 32 6 49 10 11 24 20 31 20 26 0 63
46 79 100 17 54 58 110 80 110 6 0 25 -15 43 -34z m-410 -30 c10 -11 29 -47
42 -79 l23 -58 -37 -36 c-20 -19 -37 -44 -37 -54 -1 -11 -3 -23 -4 -29 -1 -5
-3 -26 -4 -45 -1 -44 -18 -45 -56 -5 -16 17 -31 30 -35 30 -3 0 -37 -20 -74
-45 -96 -63 -119 -61 -90 9 6 17 4 18 -22 12 -94 -23 -114 -16 -114 38 0 32
31 92 59 113 9 7 34 13 56 13 57 0 85 18 114 72 46 83 69 98 133 90 14 -2 35
-14 46 -26z m-6180 -70 c6 -27 -17 -37 -44 -19 -19 12 -21 17 -11 29 17 19 51
13 55 -10z m3349 -101 c32 -67 -19 -130 -79 -99 -38 20 -55 52 -31 61 26 9 63
44 63 60 0 26 31 12 47 -22z m5170 -12 c43 -34 60 -75 66 -159 8 -110 -28
-189 -100 -220 -104 -45 -237 34 -273 159 -24 87 30 199 114 238 63 29 145 21
193 -18z m-5425 -18 c9 -3 22 -20 28 -36 10 -24 18 -29 47 -29 l34 0 -4 -45
-5 -45 71 1 c128 2 221 -32 282 -103 52 -60 60 -86 40 -120 -21 -35 -15 -43
38 -56 50 -13 81 -57 75 -107 -3 -26 -8 -30 -35 -33 -37 -4 -40 -12 -17 -47
23 -35 20 -96 -10 -160 -14 -32 -26 -59 -26 -61 0 -14 50 0 62 18 10 15 20 19
32 15 19 -7 19 -26 0 -115 l-7 -34 49 2 c62 3 76 2 93 -9 12 -7 10 -14 -8 -36
-30 -39 -28 -65 5 -65 54 0 103 -85 74 -130 -7 -12 -12 -12 -29 4 -33 30 -63
17 -92 -39 -43 -80 -49 -155 -14 -155 23 0 27 -19 9 -49 -25 -43 -13 -61 40
-61 25 0 57 5 72 12 24 11 26 16 20 55 l-6 44 48 -7 c38 -5 51 -3 61 10 20 24
-4 89 -47 127 l-34 30 28 40 c28 41 46 115 46 187 0 39 2 43 21 40 14 -2 23
-11 25 -26 2 -14 16 -31 33 -40 19 -11 29 -25 30 -42 3 -80 -1 -74 60 -71 47
2 61 -2 83 -21 27 -23 44 -75 38 -115 -3 -19 -11 -22 -54 -25 -42 -2 -55 -8
-71 -30 -19 -25 -19 -28 -3 -67 37 -93 11 -149 -80 -176 -68 -20 -84 -15 -84
23 0 36 -22 59 -38 39 -6 -7 -16 -25 -21 -40 -6 -16 -32 -41 -61 -59 -27 -17
-50 -35 -50 -39 0 -5 23 -9 50 -9 44 0 50 -3 50 -20 0 -29 -26 -77 -48 -89
-10 -5 -34 -7 -54 -4 -32 4 -38 1 -50 -23 -7 -15 -24 -36 -38 -46 -28 -20
-100 -32 -100 -16 0 5 -4 6 -10 3 -6 -3 -10 5 -10 19 0 16 -9 32 -25 42 -19
12 -25 25 -25 50 0 47 -31 77 -65 64 -36 -14 -67 -31 -81 -44 -33 -33 -18 -76
26 -76 16 0 31 -4 35 -9 9 -16 -48 -62 -70 -56 -11 2 -30 5 -41 5 -43 0 -68
33 -74 96 l-5 59 -45 16 c-24 9 -47 25 -51 35 -28 81 -28 84 -8 84 11 0 27 -4
37 -9 69 -35 127 -38 197 -12 27 11 64 25 82 31 45 17 61 60 40 106 -26 53
-21 77 23 125 22 24 40 48 40 54 -1 17 -24 42 -48 49 -31 10 -28 27 13 76 19
23 35 48 35 56 0 17 -42 84 -87 138 -37 44 -40 69 -19 156 24 103 -4 151 -115
195 -89 35 -104 55 -95 134 8 68 11 66 -96 76 -36 4 -80 16 -97 26 -28 17 -31
23 -31 71 0 32 -8 68 -21 95 -17 35 -26 43 -48 43 -38 0 -131 29 -131 41 0 19
27 74 43 88 42 34 119 46 169 26z m-1790 -26 c73 -37 102 -148 62 -237 -11
-22 -41 -59 -69 -81 -46 -38 -53 -41 -95 -35 -54 7 -96 29 -124 67 -28 38 -36
169 -12 215 15 28 80 81 116 94 23 9 81 -2 122 -23z m7813 7 c71 -47 113 -212
73 -292 -26 -53 -61 -69 -149 -68 -69 1 -83 4 -114 28 -54 42 -75 92 -75 181
l0 76 44 43 c24 25 54 46 67 49 48 8 129 -1 154 -17z m-2823 -13 c21 -19 24
-62 5 -88 -18 -24 -64 -13 -79 19 -9 20 -7 30 11 55 25 35 37 38 63 14z
m-2454 -89 c16 -19 34 -52 41 -73 11 -38 6 -97 -10 -107 -17 -10 -77 25 -112
66 -66 77 -57 150 19 150 25 0 39 -8 62 -36z m7195 -13 c3 -14 1 -18 -9 -14
-15 6 -18 16 -7 26 9 10 10 9 16 -12z m-14578 -31 c3 -5 1 -10 -4 -10 -6 0
-11 5 -11 10 0 6 2 10 4 10 3 0 8 -4 11 -10z m11689 -16 c3 -8 2 -12 -4 -9 -6
3 -10 10 -10 16 0 14 7 11 14 -7z m-6336 -60 c137 -96 111 -313 -43 -364 -78
-26 -203 11 -238 69 -21 36 -23 166 -3 214 15 37 87 103 120 111 54 12 123 -1
164 -30z m2511 10 c20 -17 36 -44 46 -79 17 -58 25 -68 70 -82 22 -7 30 -16
30 -34 0 -19 -8 -27 -42 -39 -45 -15 -53 -29 -28 -50 27 -22 18 -63 -20 -90
-38 -28 -41 -36 -20 -64 15 -19 17 -19 63 -3 62 23 78 21 85 -5 11 -40 -3 -66
-39 -78 -51 -17 -40 -41 24 -55 27 -5 38 -3 55 13 36 34 74 44 92 25 10 -10
14 -24 11 -37 -13 -48 -16 -92 -7 -106 7 -10 28 -15 70 -15 49 0 64 -5 85 -24
32 -30 40 -68 26 -123 -14 -53 -36 -78 -66 -78 -18 0 -29 13 -53 63 -37 77
-61 101 -91 92 -19 -6 -22 -12 -17 -47 6 -48 -9 -57 -52 -32 -30 17 -51 58
-51 95 0 15 -8 19 -37 20 -131 3 -147 13 -152 96 -1 9 -9 8 -34 -2 -19 -8 -44
-11 -56 -8 -23 6 -24 12 -5 72 6 21 5 23 -12 17 -10 -4 -43 -12 -71 -18 -65
-13 -106 1 -123 42 -16 38 -7 62 41 105 36 33 46 36 83 33 22 -3 49 -8 59 -12
24 -11 22 13 -4 64 l-22 41 23 24 22 24 -26 34 c-14 18 -29 47 -32 63 -8 44
12 109 47 149 39 44 83 47 128 9z m7591 -4 c0 -5 -2 -10 -4 -10 -3 0 -8 5 -11
10 -3 6 -1 10 4 10 6 0 11 -4 11 -10z m-5906 -71 c21 -16 26 -29 26 -63 0 -82
-72 -184 -120 -168 -32 10 -60 46 -60 76 0 55 21 109 55 143 38 38 62 41 99
12z m5005 -18 c-15 -5 -22 6 -14 19 6 9 10 9 16 -1 5 -8 4 -15 -2 -18z m-5329
-20 c15 -30 12 -62 -10 -99 -20 -32 -22 -33 -43 -19 -44 29 -26 137 23 137 11
0 24 -9 30 -19z m-1940 -30 c0 -27 -14 -33 -36 -16 -16 13 -17 16 -4 25 24 15
40 12 40 -9z m7291 -17 c13 -14 23 -28 21 -30 -5 -8 13 -31 28 -37 9 -3 3 -6
-12 -6 -16 -1 -28 4 -28 12 0 9 -2 9 -8 0 -6 -9 -17 -9 -47 2 -22 8 -32 14
-22 15 9 0 18 7 18 15 1 8 3 20 4 25 1 6 3 15 4 20 2 17 16 11 42 -16z m-9899
-28 c10 5 11 4 1 -7 -10 -9 -16 -10 -24 -2 -6 6 -19 9 -28 6 -13 -4 -14 -3 -1
5 10 8 18 8 27 1 7 -6 18 -7 25 -3z m315 -28 c-3 -7 -5 -2 -5 12 0 14 2 19 5
13 2 -7 2 -19 0 -25z m2363 3 c0 -22 -47 -64 -61 -55 -15 9 -10 32 13 54 27
25 48 26 48 1z m2360 -78 c0 -34 -26 -63 -57 -63 -27 0 -29 10 -7 56 12 25 23
34 40 34 19 0 24 -5 24 -27z m-4630 -85 l22 -33 -22 25 c-13 14 -27 24 -32 22
-5 -1 -7 2 -3 8 9 15 12 13 35 -22z m37 -40 c-3 -8 -6 -5 -6 6 -1 11 2 17 5
13 3 -3 4 -12 1 -19z m2290 6 c9 -24 -10 -68 -30 -72 -26 -5 -77 18 -77 33 0
20 49 55 77 55 13 0 26 -7 30 -16z m-2237 -9 c19 1 26 -3 26 -17 0 -17 -1 -18
-12 -3 -7 10 -13 12 -16 5 -5 -17 -38 -1 -38 19 0 10 3 12 8 5 4 -6 18 -10 32
-9z m4226 1 c17 -13 19 -27 19 -133 l0 -118 35 -5 c33 -5 35 -7 37 -44 0 -21
7 -42 15 -47 24 -16 67 -9 95 15 26 22 27 27 16 55 -17 46 2 47 32 3 26 -40
29 -52 26 -137 -1 -45 -5 -53 -30 -68 -16 -9 -41 -17 -54 -17 -36 0 -40 -12
-22 -72 21 -71 19 -92 -11 -127 l-25 -30 28 -6 c15 -4 34 -8 41 -11 17 -5 15
-39 -3 -54 -31 -26 -16 -33 59 -26 l74 7 15 -38 c11 -28 12 -43 5 -57 -14 -27
-39 -51 -64 -64 -29 -15 -75 15 -105 70 -21 37 -29 43 -62 46 -20 2 -37 0 -37
-5 0 -4 -14 -14 -31 -22 -29 -13 -33 -12 -57 12 -23 23 -24 28 -13 56 8 18 24
34 43 40 29 10 30 13 25 53 -10 72 -64 119 -102 88 -9 -8 -15 -8 -20 0 -12 19
6 68 46 125 44 63 45 67 23 100 -19 29 -40 32 -65 9 -24 -22 -30 -4 -12 34 16
33 16 33 -19 70 -48 50 -58 72 -58 129 0 60 27 121 69 156 37 30 58 34 87 13z
m5188 -1 c3 -8 1 -15 -4 -15 -6 0 -10 7 -10 15 0 8 2 15 4 15 2 0 6 -7 10 -15z
m-9319 -5 c-27 -12 -43 -12 -25 0 8 5 22 9 30 9 10 0 8 -3 -5 -9z m7201 -54
c0 -14 -3 -23 -7 -20 -6 3 -6 22 0 42 3 10 7 -2 7 -22z m-2772 -38 c30 -43 15
-128 -23 -128 -33 0 -53 89 -31 131 14 25 35 24 54 -3z m-9929 -18 c-5 -8 -11
-8 -17 -2 -6 6 -7 16 -3 22 5 8 11 8 17 2 6 -6 7 -16 3 -22z m14825 10 c0 -5
-4 -10 -10 -10 -5 0 -10 5 -10 10 0 6 5 10 10 10 6 0 10 -4 10 -10z m34 -25
c-4 -8 -7 -15 -9 -15 -2 0 -5 7 -9 15 -3 9 0 15 9 15 9 0 12 -6 9 -15z m-29
-26 c0 -8 6 -14 14 -14 8 0 16 -6 19 -13 3 -11 0 -12 -14 -5 -11 5 -31 8 -45
7 -22 -2 -26 1 -22 17 3 10 9 16 14 13 5 -3 9 0 9 6 0 7 6 10 13 8 6 -3 12
-11 12 -19z m-9830 -29 c3 -5 1 -10 -5 -10 -6 0 -8 -4 -5 -10 3 -5 4 -10 1
-10 -2 0 -11 -3 -20 -6 -11 -4 -16 0 -16 12 0 16 2 17 10 4 9 -13 10 -13 11 0
1 8 1 18 0 23 -2 11 17 9 24 -3z m1510 -39 c0 -20 -5 -34 -10 -31 -14 7 -14
67 0 67 6 0 11 -16 10 -36z m1159 8 c47 -37 28 -107 -22 -80 -19 10 -52 68
-52 90 0 18 46 12 74 -10z m6941 11 c3 -5 -1 -10 -9 -10 -9 0 -16 5 -16 10 0
6 4 10 9 10 6 0 13 -4 16 -10z m-15235 -16 c37 -2 40 -3 40 -13 0 -5 -8 -8
-17 -6 -10 2 -18 4 -18 6 0 1 -11 3 -24 4 -22 2 -23 1 -8 -10 9 -6 14 -15 10
-18 -3 -4 3 -7 15 -7 12 0 22 -4 22 -9 0 -6 -9 -8 -20 -6 -11 2 -20 3 -20 1 0
-1 16 -17 35 -36 l34 -33 -5 27 c-3 17 -1 25 6 21 6 -4 7 1 3 11 -5 14 -8 13
-18 -6 -7 -13 -15 -19 -18 -14 -3 5 1 17 8 27 16 22 45 12 40 -14 -4 -19 37
-49 67 -49 7 0 23 -9 36 -18 22 -17 23 -19 6 -33 -16 -12 -17 -12 -11 3 3 10
3 20 -2 22 -4 3 -7 -8 -7 -25 0 -29 0 -29 20 -10 30 28 73 37 73 16 0 -11 -6
-15 -18 -12 -17 4 -17 3 -2 -29 9 -18 21 -30 26 -27 6 3 7 1 3 -6 -6 -9 -11
-9 -24 1 -13 11 -15 11 -10 -3 4 -9 2 -21 -4 -27 -6 -6 -4 -14 9 -23 31 -24
26 -38 -12 -35 -20 2 -39 7 -43 10 -4 4 -1 6 7 4 9 -2 14 8 16 30 1 25 -2 32
-17 32 -10 0 -18 5 -18 10 0 6 -6 10 -13 10 -7 0 -18 9 -24 20 -9 14 -21 18
-43 15 -27 -3 -29 -1 -24 21 4 15 2 24 -6 24 -6 0 -8 6 -5 13 4 6 -1 3 -10 -8
-11 -13 -15 -15 -13 -5 1 8 -8 31 -22 50 -23 32 -49 93 -50 113 0 5 6 5 13 0
6 -4 23 -8 37 -9z m7070 10 c0 -8 -19 -13 -24 -6 -3 5 1 9 9 9 8 0 15 -2 15
-3z m-1360 -8 c0 -3 -4 -8 -10 -11 -5 -3 -10 -1 -10 4 0 6 5 11 10 11 6 0 10
-2 10 -4z m90 0 c0 -7 -40 -14 -44 -7 -3 4 6 8 20 9 13 1 24 0 24 -2z m940
-22 c0 -8 -19 -13 -24 -6 -3 5 1 9 9 9 8 0 15 -2 15 -3z m8720 -24 c0 -4 12
-11 27 -15 15 -3 38 -17 51 -31 14 -13 31 -24 39 -24 8 0 13 -7 11 -17 -2 -10
3 -23 12 -30 12 -10 11 -11 -9 -6 -18 4 -22 2 -19 -8 3 -8 15 -14 27 -13 14 0
23 -7 27 -21 6 -23 40 -31 60 -14 9 7 11 5 9 -8 -2 -10 -4 -21 -4 -25 -1 -4
-10 -10 -21 -13 -24 -8 -74 -81 -65 -95 9 -14 -30 -7 -49 9 -16 14 -34 15
-101 8 -22 -3 -46 -5 -52 -6 -7 -1 -12 -7 -10 -13 1 -7 -4 -12 -12 -10 -9 2
-11 -3 -7 -15 4 -9 4 -14 0 -11 -3 4 -20 0 -36 -8 -29 -15 -29 -15 -18 5 6 12
23 29 38 38 15 10 37 28 49 40 21 22 21 23 3 23 -22 0 -27 15 -9 25 6 4 8 13
5 21 -3 8 -1 14 4 14 6 0 10 5 10 10 0 6 -16 10 -35 10 -19 0 -35 4 -35 8 0 5
13 27 29 49 18 25 24 40 15 40 -7 0 -11 -4 -8 -9 3 -4 0 -8 -5 -8 -16 0 -13
20 4 26 8 4 15 14 15 24 0 10 7 23 15 30 8 6 14 15 13 18 -2 17 3 21 17 16 8
-4 15 -10 15 -14z m-2386 -8 c3 -5 -1 -9 -9 -9 -8 0 -12 4 -9 9 3 4 7 8 9 8 2
0 6 -4 9 -8z m-12605 -24 c-12 -22 -41 -49 -47 -44 -3 3 50 66 56 66 1 0 -3
-10 -9 -22z m10345 -9 c32 -25 33 -46 2 -92 -42 -61 -42 -74 -1 -98 26 -16 34
-26 30 -38 -4 -9 -11 -27 -16 -41 -5 -15 -23 -31 -39 -37 -37 -14 -38 -36 -4
-86 23 -34 30 -38 62 -35 39 3 39 3 57 -84 7 -35 38 -53 65 -38 16 8 20 22 21
60 1 28 3 59 4 70 1 11 3 27 4 35 0 8 10 15 21 15 15 0 26 -13 40 -45 17 -40
23 -45 52 -46 18 -1 38 0 43 1 6 1 75 6 154 11 79 4 165 10 190 13 25 3 74 8
109 12 l62 6 0 -41 c0 -46 -11 -55 -78 -66 l-43 -7 6 -51 c8 -64 -6 -85 -57
-93 -34 -6 -39 -4 -57 28 -24 40 -86 78 -129 78 l-31 0 13 -43 c23 -76 -13
-114 -95 -101 -51 8 -65 22 -73 73 -8 53 -32 54 -76 5 -32 -36 -111 -71 -133
-57 -5 3 -7 2 -4 -4 8 -13 -36 -33 -72 -33 -52 0 -91 67 -91 158 0 37 -3 44
-27 53 -15 5 -42 8 -60 6 -49 -7 -50 10 -3 53 36 33 41 42 30 55 -15 18 -33
19 -77 3 -42 -15 -57 -2 -55 49 2 60 20 90 66 111 64 30 71 44 71 136 0 80 0
80 34 103 42 28 51 29 85 2z m4411 1 c3 -5 1 -10 -4 -10 -6 0 -11 5 -11 10 0
6 2 10 4 10 3 0 8 -4 11 -10z m-8380 -20 c-10 -11 -22 -20 -28 -20 -5 0 1 9
14 20 31 25 37 25 14 0z m8445 12 c0 -5 -7 -9 -15 -9 -8 0 -12 4 -9 9 3 4 9 8
15 8 5 0 9 -4 9 -8z m-65 -43 c-5 -8 21 -27 38 -27 5 0 11 -3 15 -6 5 -6 -31
-11 -58 -7 -8 1 -26 2 -39 3 -21 0 -22 2 -10 12 8 6 18 19 22 28 4 11 12 15
22 12 8 -3 13 -10 10 -15z m-14800 -19 c4 0 13 7 19 15 10 14 13 14 31 0 11
-9 15 -14 9 -11 -6 3 -19 -3 -29 -14 -14 -15 -21 -17 -32 -9 -12 11 -17 6 -14
-13 0 -5 -10 -8 -24 -8 -14 0 -25 4 -25 10 0 5 7 7 15 4 8 -4 15 -1 15 6 0 8
-9 10 -25 6 -14 -4 -25 -2 -25 4 0 5 12 10 26 10 20 0 25 4 20 17 -6 16 -6 16
12 0 10 -9 22 -17 27 -17z m15245 20 c0 -5 -4 -10 -10 -10 -5 0 -10 5 -10 10
0 6 5 10 10 10 6 0 10 -4 10 -10z m-15632 -65 c-3 -3 -9 2 -12 12 -6 14 -5 15
5 6 7 -7 10 -15 7 -18z m1270 -7 c-25 -19 -48 -23 -48 -8 0 13 31 29 53 27 16
-1 15 -3 -5 -19z m14542 2 c0 -4 -11 -15 -25 -24 -23 -15 -25 -15 -25 -1 0 9
-4 13 -10 10 -17 -10 -11 7 7 20 17 12 53 9 53 -5z m-6988 -7 c31 -28 22 -48
-29 -61 -35 -10 -48 -10 -53 -1 -12 19 1 49 29 64 33 18 31 18 53 -2z m-8395
1 c-3 -3 -12 -4 -19 -1 -8 3 -5 6 6 6 11 1 17 -2 13 -5z m5060 -19 c0 -8 -4
-12 -9 -9 -5 3 -6 10 -3 15 9 13 12 11 12 -6z m-5147 -20 c0 -2 -9 -3 -19 -2
-11 0 -18 5 -15 9 4 6 34 0 34 -7z m5259 -2 c0 -12 -2 -13 -6 -5 -4 10 -8 10
-21 0 -15 -12 -16 -11 -3 5 7 9 17 17 22 17 5 0 9 -8 8 -17z m2291 11 c0 -8
-19 -13 -24 -6 -3 5 1 9 9 9 8 0 15 -2 15 -3z m-890 -48 c14 -2 33 -7 42 -10
9 -4 22 -9 30 -10 7 -2 24 -8 38 -13 17 -7 29 -7 38 0 9 7 11 6 7 -6 -5 -12 7
-19 52 -32 32 -9 65 -19 73 -22 8 -3 17 -7 20 -8 3 -1 18 -7 34 -14 16 -6 36
-13 45 -14 9 -1 21 -6 27 -9 14 -9 60 -18 119 -24 117 -11 124 -11 118 -1 -4
6 -1 7 8 1 16 -10 21 -11 104 -18 111 -10 124 -15 117 -51 -2 -14 3 -36 12
-50 9 -13 16 -26 16 -29 0 -12 -95 -17 -156 -7 -38 5 -132 13 -209 16 -303 12
-394 22 -500 56 -33 10 -94 26 -135 34 -116 24 -210 55 -210 68 0 8 -4 6 -11
-3 -8 -12 -9 -10 -7 10 2 18 14 30 41 44 34 16 40 17 55 3 23 -20 172 -94 225
-111 85 -28 140 -37 150 -27 12 12 -12 22 -105 46 -56 15 -176 68 -235 105
-21 13 -19 15 45 42 36 15 70 32 76 38 5 5 19 7 30 4 12 -3 32 -6 46 -8z
m-6626 -81 c25 -35 23 -34 -18 10 -25 28 -45 54 -46 59 0 12 26 -17 64 -69z
m1001 37 c-3 -3 -11 0 -18 7 -9 10 -8 11 6 5 10 -3 15 -9 12 -12z m6465 2 c0
-8 -19 -13 -24 -6 -3 5 1 9 9 9 8 0 15 -2 15 -3z m400 -74 c0 -56 -21 -73 -44
-37 -22 34 -26 73 -9 97 14 20 16 20 34 4 14 -12 19 -31 19 -64z m2250 29 c0
-51 -25 -53 -34 -4 -8 41 -2 57 19 48 10 -3 15 -19 15 -44z m-4740 27 c0 -7
-40 -14 -44 -7 -3 4 6 8 20 9 13 1 24 0 24 -2z m3091 -15 l23 -18 -31 -31
c-40 -40 -81 -51 -100 -27 -11 16 -10 23 3 44 34 54 66 64 105 32z m-1046 -10
c3 -5 2 -12 -3 -15 -5 -3 -9 1 -9 9 0 17 3 19 12 6z m-7484 -43 c11 -11 16
-24 13 -27 -3 -3 -11 1 -17 9 -7 8 -21 16 -32 18 -18 2 -18 1 -4 -10 15 -12
39 -50 39 -62 0 -11 -52 -1 -63 12 -8 11 -7 16 7 24 13 7 14 13 6 23 -8 10 -7
16 7 24 24 14 23 14 44 -11z m10610 -8 l24 -20 -28 -25 c-36 -32 -46 -31 -92
5 -37 29 -37 30 -14 38 13 5 31 12 39 15 28 10 48 7 71 -13z m-6881 -26 c0 -8
-4 -12 -10 -9 -5 3 -10 10 -10 16 0 5 5 9 10 9 6 0 10 -7 10 -16z m1930 -2 c0
-17 -63 -92 -93 -111 -70 -43 -250 -111 -772 -291 -331 -114 -368 -127 -451
-160 -92 -37 -253 -92 -271 -93 -7 0 -13 -4 -13 -8 0 -4 -9 -6 -20 -4 -11 2
-20 -1 -20 -7 0 -6 -3 -8 -7 -5 -3 4 -12 2 -20 -4 -7 -6 -13 -8 -13 -4 0 4 -7
2 -15 -5 -8 -7 -15 -9 -15 -5 0 4 -6 3 -12 -2 -7 -6 -23 -9 -35 -8 -12 1 -20
-2 -18 -6 3 -4 -2 -10 -11 -13 -8 -3 -13 -2 -10 3 3 5 -11 0 -31 -10 -20 -10
-40 -16 -44 -13 -5 3 -9 1 -9 -4 0 -5 -6 -9 -12 -9 -21 -1 -43 -8 -48 -15 -3
-4 -15 -9 -25 -11 -11 -1 -26 -6 -32 -10 -7 -5 -17 -5 -23 -2 -5 3 -10 1 -10
-5 0 -6 -4 -8 -10 -5 -5 3 -10 1 -10 -6 0 -6 -8 -9 -20 -6 -11 3 -20 1 -20 -5
0 -6 -7 -7 -16 -4 -10 4 -13 2 -8 -6 5 -8 2 -9 -9 -5 -10 4 -17 2 -17 -4 0 -6
-7 -8 -16 -5 -8 3 -12 2 -9 -4 3 -6 -2 -10 -12 -10 -11 0 -23 -4 -29 -9 -19
-20 -62 -20 -79 -1 -9 10 -14 23 -11 28 3 5 -2 9 -12 8 -11 -1 -16 6 -15 17 0
10 -1 16 -5 13 -3 -3 -11 2 -19 12 -8 9 -11 11 -7 3 5 -9 -2 -7 -18 5 -31 23
-26 37 13 32 17 -3 26 0 22 6 -4 5 1 7 10 3 9 -3 19 -1 23 4 3 6 15 9 25 6 11
-3 17 -2 14 3 -9 14 330 122 630 200 28 8 70 22 95 33 25 10 125 41 224 68 98
27 217 65 265 85 47 20 131 49 186 65 138 38 515 166 600 202 96 41 226 87
248 87 9 0 17 -4 17 -8z m8924 -197 c-15 -23 -44 -35 -44 -17 0 5 43 36 58 41
1 1 -5 -10 -14 -24z m-7001 -2 c-7 -2 -21 -2 -30 0 -10 3 -4 5 12 5 17 0 24
-2 18 -5z m-233 -17 c0 -3 -4 -8 -10 -11 -5 -3 -10 -1 -10 4 0 6 5 11 10 11 6
0 10 -2 10 -4z m2546 -54 c45 -13 72 -38 79 -70 6 -33 -18 -45 -77 -39 -40 5
-58 12 -75 32 -27 31 -30 70 -6 83 18 11 20 11 79 -6z m-7023 -7 c-3 -9 -8
-14 -10 -11 -3 3 -2 9 2 15 9 16 15 13 8 -4z m7353 -123 c33 -22 9 -82 -33
-82 -20 0 -63 34 -63 50 0 30 67 52 96 32z m5976 -24 c-6 -6 -15 -8 -19 -4 -4
4 -1 11 7 16 19 12 27 3 12 -12z m-12588 -116 c3 -5 -1 -9 -9 -9 -8 0 -15 4
-15 9 0 4 4 8 9 8 6 0 12 -4 15 -8z m12911 -143 c1 -14 5 -31 9 -38 12 -18 16
-131 6 -131 -5 0 -15 9 -22 19 -9 13 -23 19 -41 17 -24 -3 -32 4 -28 27 0 4
-6 7 -14 7 -10 0 -15 -10 -15 -27 l0 -27 -21 22 c-22 24 -19 56 6 66 8 3 12
13 10 24 -2 11 2 19 11 19 9 0 11 -4 4 -12 -6 -7 -3 -17 10 -28 19 -16 20 -16
22 6 1 12 2 29 3 37 2 28 16 42 30 30 10 -8 15 -8 21 1 4 8 3 9 -4 5 -7 -4
-12 -2 -12 4 0 23 24 3 25 -21z m-261 -133 c-7 -18 -34 -22 -34 -6 0 6 6 19
12 30 10 16 14 17 20 6 5 -8 5 -21 2 -30z m-158 -14 c-9 -9 -37 8 -31 18 5 8
11 7 21 -1 8 -6 12 -14 10 -17z m-12091 9 c3 -5 1 -12 -5 -16 -5 -3 -10 1 -10
9 0 18 6 21 15 7z m12629 -42 c-3 -5 -10 -7 -15 -3 -5 3 -7 10 -3 15 3 5 10 7
15 3 5 -3 7 -10 3 -15z m-12747 -15 c-3 -3 -12 -4 -19 -1 -8 3 -5 6 6 6 11 1
17 -2 13 -5z m-1347 -479 c0 -8 -7 -15 -15 -15 -16 0 -20 12 -8 23 11 12 23 8
23 -8z m-268 -67 c-9 -9 -15 -9 -24 0 -10 10 -10 15 2 22 20 12 38 -6 22 -22z
m1568 -418 c0 -5 -4 -10 -10 -10 -5 0 -10 5 -10 10 0 6 5 10 10 10 6 0 10 -4
10 -10z m-1710 -180 c0 -5 -4 -10 -10 -10 -5 0 -10 5 -10 10 0 6 5 10 10 10 6
0 10 -4 10 -10z m-270 -204 c0 -11 -19 -15 -25 -6 -3 5 1 10 9 10 9 0 16 -2
16 -4z m1060 -137 c0 -5 -4 -9 -10 -9 -5 0 -10 7 -10 16 0 8 5 12 10 9 6 -3
10 -10 10 -16z m1090 -309 c0 -5 -5 -10 -11 -10 -5 0 -7 5 -4 10 3 6 8 10 11
10 2 0 4 -4 4 -10z m-1004 -734 c1 -7 -4 -13 -11 -13 -7 0 -11 7 -10 16 2 9 4
18 4 20 2 8 15 -10 17 -23z"/>
<path d="M8354 6441 c11 -17 29 -66 28 -73 -1 -5 1 -7 6 -5 4 1 7 -2 7 -8 0
-5 -4 -9 -9 -7 -5 2 -4 -4 4 -12 7 -9 9 -16 4 -16 -4 0 2 -10 14 -23 12 -13
20 -26 16 -29 -3 -3 -1 -9 4 -12 16 -10 8 21 -10 41 -24 26 -23 31 9 66 15 18
24 29 19 25 -10 -8 -43 31 -38 45 1 5 -2 6 -8 2 -5 -3 -10 -1 -10 6 0 7 -3 9
-6 6 -4 -4 -2 -13 4 -20 7 -8 8 -18 4 -22 -4 -5 -2 -5 5 -1 15 8 38 -30 23
-39 -10 -6 -14 1 -11 18 1 5 -3 6 -8 2 -6 -3 -17 10 -25 30 -8 19 -18 35 -21
35 -3 0 -4 -4 -1 -9z"/>
<path d="M8420 6433 c0 -6 8 -17 18 -24 16 -13 16 -13 2 6 -8 11 -16 22 -17
24 -2 2 -3 0 -3 -6z"/>
<path d="M8263 6385 c0 -8 4 -12 9 -9 5 3 6 10 3 15 -9 13 -12 11 -12 -6z"/>
<path d="M8331 6336 c-9 -10 -7 -17 6 -27 16 -12 17 -12 6 2 -10 12 -10 18 -1
27 7 7 9 12 6 12 -3 0 -11 -6 -17 -14z"/>
<path d="M8356 6318 c3 -5 10 -6 15 -3 13 9 11 12 -6 12 -8 0 -12 -4 -9 -9z"/>
<path d="M8420 6316 c0 -2 8 -10 18 -17 15 -13 16 -12 3 4 -13 16 -21 21 -21
13z"/>
<path d="M8504 6303 c16 -20 36 -23 36 -6 0 4 -3 3 -7 0 -3 -4 -16 1 -27 10
-21 18 -21 18 -2 -4z"/>
<path d="M8480 6296 c0 -2 8 -10 18 -17 15 -13 16 -12 3 4 -13 16 -21 21 -21
13z"/>
<path d="M8529 6263 c-13 -16 -12 -17 4 -4 9 7 17 15 17 17 0 8 -8 3 -21 -13z"/>
<path d="M8495 6251 c-3 -5 -2 -12 3 -15 5 -3 9 1 9 9 0 17 -3 19 -12 6z"/>
<path d="M8436 6228 c3 -5 10 -6 15 -3 13 9 11 12 -6 12 -8 0 -12 -4 -9 -9z"/>
<path d="M7960 6385 c0 -2 6 -8 13 -14 10 -8 14 -7 14 2 0 8 -6 14 -14 14 -7
0 -13 -1 -13 -2z"/>
<path d="M8004 6376 c1 -8 5 -18 8 -22 4 -3 5 1 4 10 -1 8 -5 18 -8 22 -4 3
-5 -1 -4 -10z"/>
<path d="M8670 6386 c0 -2 8 -10 18 -17 15 -13 16 -12 3 4 -13 16 -21 21 -21
13z"/>
<path d="M8713 6355 c0 -8 4 -12 9 -9 5 3 6 10 3 15 -9 13 -12 11 -12 -6z"/>
<path d="M13700 5545 c-17 -21 -5 -45 24 -45 33 0 40 25 11 44 -20 13 -25 13
-35 1z"/>
<path d="M6565 5596 c-11 -6 -21 -12 -23 -12 -1 -1 2 -13 7 -27 13 -33 42 -38
64 -11 22 29 22 44 -2 44 -11 0 -21 4 -23 9 -1 5 -12 3 -23 -3z"/>
<path d="M14332 5531 c-23 -14 -10 -46 18 -46 20 0 25 5 25 25 0 26 -20 36
-43 21z"/>
<path d="M7063 5327 c-12 -12 -19 -27 -15 -33 10 -16 52 -28 52 -15 0 6 9 11
21 11 16 0 19 4 13 23 -8 27 -5 23 -29 30 -13 4 -28 -2 -42 -16z"/>
<path d="M1091 4718 c-1 -9 4 -20 9 -23 6 -4 7 -12 3 -18 -3 -7 3 -4 14 6 16
14 22 15 30 5 6 -7 9 -21 8 -30 -2 -10 0 -20 4 -23 4 -2 7 8 6 23 -1 15 3 31
9 35 7 6 4 7 -6 3 -10 -3 -20 -1 -24 5 -4 6 -11 6 -20 -2 -11 -9 -16 -6 -23
12 -7 17 -10 19 -10 7z"/>
<path d="M1125 4671 c-3 -5 -2 -12 3 -15 5 -3 9 1 9 9 0 17 -3 19 -12 6z"/>
<path d="M1214 4639 c-3 -6 -1 -16 5 -22 9 -9 10 -7 5 7 -6 15 -4 17 6 11 9
-5 11 -4 6 3 -9 15 -13 15 -22 1z"/>
<path d="M1190 4616 c0 -2 8 -10 18 -17 15 -13 16 -12 3 4 -13 16 -21 21 -21
13z"/>
<path d="M1239 4613 c-5 -29 -5 -53 -1 -48 7 6 12 55 6 55 -2 0 -5 -3 -5 -7z"/>
<path d="M1230 4543 c0 -6 8 -17 18 -24 16 -13 16 -13 2 6 -8 11 -16 22 -17
24 -2 2 -3 0 -3 -6z"/>
<path d="M1469 4673 c-13 -16 -12 -17 4 -4 9 7 17 15 17 17 0 8 -8 3 -21 -13z"/>
<path d="M1325 4369 c-3 -4 2 -6 10 -5 21 3 28 13 10 13 -9 0 -18 -4 -20 -8z"/>
<path d="M17859 3708 c-5 -15 -3 -60 2 -64 4 -2 13 4 20 13 10 12 10 14 2 9
-12 -6 -18 11 -14 37 1 6 -8 11 -10 5z"/>
</g>
</svg>
