<svg width="38" height="40" viewBox="0 0 38 40" fill="none" xmlns="http://www.w3.org/2000/svg">
<path d="M13.1668 37.3944C12.6385 37.3945 12.1236 37.2273 11.6963 36.9166C11.2689 36.6059 10.9509 36.1678 10.788 35.6652C10.6251 35.1626 10.6256 34.6213 10.7895 34.119C10.9534 33.6167 11.2722 33.1792 11.7001 32.8694C15.8868 29.8361 16.4751 24.2344 16.4968 19.1544C16.4999 18.4928 16.7651 17.8594 17.2343 17.393C17.7036 16.9266 18.3385 16.6652 19.0001 16.6661H19.0101C19.3386 16.6674 19.6636 16.7334 19.9665 16.8603C20.2694 16.9873 20.5443 17.1727 20.7756 17.406C21.0068 17.6392 21.1898 17.9157 21.3142 18.2197C21.4385 18.5238 21.5017 18.8493 21.5001 19.1777C21.4835 23.0111 21.4451 31.9877 14.6335 36.9177C14.2077 37.2286 13.6939 37.3955 13.1668 37.3944V37.3944ZM23.2135 39.0511C24.5684 37.3629 25.6819 35.4945 26.5218 33.4994C26.7813 32.889 26.7876 32.2005 26.5395 31.5853C26.2913 30.9702 25.8089 30.4789 25.1985 30.2194C24.588 29.9599 23.8995 29.9536 23.2844 30.2018C22.6693 30.4499 22.1779 30.9323 21.9185 31.5427C21.2643 33.1095 20.3942 34.577 19.3335 35.9027C18.916 36.4179 18.7202 37.0779 18.7893 37.7374C18.8584 38.3969 19.1866 39.0019 19.7018 39.4194C20.217 39.8369 20.8769 40.0326 21.5364 39.9636C22.1959 39.8945 22.801 39.5663 23.2185 39.0511H23.2135ZM28.8935 22.6544C29.0001 20.9527 29.0001 19.4377 29.0001 18.3327C29.0004 16.7328 28.6168 15.1561 27.8815 13.7351C27.1462 12.3141 26.0807 11.0903 24.7744 10.1664C23.4681 9.24254 21.9593 8.6456 20.3745 8.42571C18.7897 8.20583 17.1753 8.36941 15.6668 8.90274C15.3523 9.00819 15.0619 9.1752 14.8125 9.39403C14.5632 9.61285 14.3599 9.87912 14.2145 10.1773C14.069 10.4755 13.9844 10.7996 13.9656 11.1309C13.9467 11.4621 13.9939 11.7937 14.1045 12.1065C14.2151 12.4193 14.3869 12.7069 14.6098 12.9526C14.8326 13.1984 15.1022 13.3973 15.4027 13.5378C15.7033 13.6783 16.0288 13.7576 16.3602 13.771C16.6917 13.7844 17.0226 13.7318 17.3335 13.6161C18.0878 13.3494 18.8952 13.2676 19.6877 13.3776C20.4802 13.4876 21.2348 13.7863 21.888 14.2484C22.5411 14.7105 23.0739 15.3226 23.4414 16.0334C23.809 16.7441 24.0006 17.5326 24.0001 18.3327C24.0001 19.4311 24.0001 20.7977 23.9035 22.3444C23.8825 22.6726 23.9264 23.0017 24.0328 23.3128C24.1392 23.624 24.3059 23.9111 24.5234 24.1578C24.741 24.4044 25.005 24.6057 25.3004 24.7501C25.5959 24.8945 25.9169 24.9792 26.2451 24.9994C26.2963 24.9994 26.3479 24.9994 26.4001 24.9994C27.0363 24.9994 27.6485 24.7568 28.1121 24.3211C28.5757 23.8854 28.8557 23.2894 28.8951 22.6544H28.8935ZM6.81848 31.5927C7.90419 31.4657 8.95179 31.115 9.89514 30.5627C13.9635 28.1211 13.9835 22.9511 14.0001 19.1761C14.0015 18.8476 13.938 18.5221 13.8135 18.2182C13.689 17.9143 13.5058 17.6379 13.2744 17.4048C13.043 17.1717 12.7679 16.9865 12.4649 16.8597C12.1619 16.733 11.8369 16.6672 11.5085 16.6661H11.5001C10.8388 16.6661 10.2045 16.9281 9.7359 17.3948C9.26735 17.8614 9.00279 18.4948 9.00014 19.1561C8.98514 23.1311 8.71347 25.4427 7.33348 26.2744C6.98005 26.4691 6.59138 26.5915 6.19014 26.6344C5.56003 26.7146 4.98406 27.0316 4.57922 27.5211C4.17439 28.0105 3.97105 28.6358 4.01052 29.2697C4.04998 29.9037 4.32929 30.4989 4.7917 30.9344C5.25411 31.3699 5.86495 31.613 6.50014 31.6144C6.60662 31.6145 6.71298 31.6072 6.81848 31.5927V31.5927ZM33.5318 38.5461C36.2498 32.1637 37.547 25.2665 37.3335 18.3327C37.3358 16.0191 36.898 13.7261 36.0435 11.5761C35.7986 10.9599 35.319 10.4662 34.7101 10.2037C34.1012 9.94111 33.413 9.93119 32.7968 10.1761C32.1806 10.421 31.6869 10.9006 31.4244 11.5095C31.1618 12.1183 31.1519 12.8065 31.3968 13.4227C32.0182 14.985 32.3361 16.6514 32.3335 18.3327C32.5358 24.5429 31.3954 30.7237 28.9901 36.4527C28.7125 37.055 28.6856 37.7429 28.9151 38.365C29.1447 38.9872 29.612 39.4926 30.2143 39.7702C30.8166 40.0478 31.5044 40.0748 32.1266 39.8452C32.7487 39.6157 33.2542 39.1483 33.5318 38.5461V38.5461ZM5.66681 20.8327V18.3327C5.66706 16.0268 6.26534 13.7604 7.40322 11.7548C8.54109 9.74915 10.1797 8.07292 12.1589 6.88977C14.1382 5.70662 16.3904 5.057 18.6957 5.00436C21.001 4.95171 23.2806 5.49784 25.3118 6.5894C25.894 6.89231 26.5719 6.95416 27.1993 6.76159C27.8267 6.56902 28.3532 6.13749 28.6652 5.56012C28.9771 4.98275 29.0496 4.30586 28.8669 3.67555C28.6841 3.04523 28.2609 2.51205 27.6885 2.19107C24.8957 0.688035 21.7607 -0.0647829 18.59 0.00617718C15.4192 0.0771373 12.321 0.969448 9.59829 2.59592C6.87553 4.22239 4.62127 6.52738 3.0558 9.28566C1.49033 12.0439 0.667187 15.1612 0.666809 18.3327V20.8327C0.666809 21.4958 0.930201 22.1317 1.39904 22.6005C1.86788 23.0693 2.50377 23.3327 3.16681 23.3327C3.82985 23.3327 4.46573 23.0693 4.93458 22.6005C5.40342 22.1317 5.66681 21.4958 5.66681 20.8327V20.8327Z" fill="#0000B2"/>
</svg>
